  0
SECTION
  2
HEADER
  9
$ANGBASE
  50
0.0
  9
$ANGDIR
  70
1
  9
$MEASUREMENT
  70
1
  9
$INSUNITS
  70
4
  0
ENDSEC
  0
SECTION
  2
TABLES
  0
TABLE
  2
LTYPE
  70
4
  0
LTYPE
  5
40F
  2
CONTINUOUS
  70
0
  3
Solid line
  72
65
  73
0
  40
0.0
  0
LTYPE
  5
410
  2
DASHDOT
 70
0
  3
Dash Dot ____ _ ____ _
 72
65
 73
4
 40
2.0
 49
1.25
 49
-0.25
 49
0.25
 49
-0.25
  0
LTYPE
  5
411
  2
DASHED
 70
0
  3
Dashed __ __ __ __ __
 72
65
 73
2
 40
0.75
 49
0.5
 49
-0.25
  0
LTYPE
  5
43B
  2
DOTTED
 70
0
  3
Dotted .  .  .  .
 72
65
 73
2
 40
0.2
 49
0.0
 49
-0.2
  0
ENDTAB
  0
TABLE
  2
STYLE
  70
4
  0
STYLE
  2
KICAD
  70
0
  40
0
  41
1
  42
1
  50
0
  71
0
  3
isocp.shx
  0
STYLE
  2
KICADB
  70
0
  40
0
  41
1
  42
1
  50
0
  71
0
  3
isocp.shx
  0
STYLE
  2
KICADI
  70
0
  40
0
  41
1
  42
1
  50
15
  71
0
  3
isocp.shx
  0
STYLE
  2
KICADBI
  70
0
  40
0
  41
1
  42
1
  50
15
  71
0
  3
isocp.shx
  0
ENDTAB
  0
TABLE
  2
LAYER
  70
1
  0
LAYER
  2
Edge.Cuts
  70
0
  62
254
  420
13685453
  6
CONTINUOUS
  0
ENDTAB
  0
ENDSEC
  0
SECTION
  2
ENTITIES
0
LINE
8
Edge.Cuts
6
CONTINUOUS
10
151.8384959999999921
20
-143.3900639999999953
11
152.0548909999999978
21
-143.4603749999999991
0
LINE
8
Edge.Cuts
6
CONTINUOUS
10
152.0548909999999978
20
-143.4603749999999991
11
152.2576229999999953
21
-143.5636719999999968
0
LINE
8
Edge.Cuts
6
CONTINUOUS
10
152.2576229999999953
20
-143.5636719999999968
11
152.4416999999999973
21
-143.6974109999999882
0
LINE
8
Edge.Cuts
6
CONTINUOUS
10
152.4416999999999973
20
-143.6974109999999882
11
152.6025889999999947
21
-143.8582999999999856
0
LINE
8
Edge.Cuts
6
CONTINUOUS
10
152.6025889999999947
20
-143.8582999999999856
11
152.7363279999999861
21
-144.0423769999999877
0
LINE
8
Edge.Cuts
6
CONTINUOUS
10
152.7363279999999861
20
-144.0423769999999877
11
152.8396249999999839
21
-144.2451089999999851
0
LINE
8
Edge.Cuts
6
CONTINUOUS
10
152.8396249999999839
20
-144.2451089999999851
11
152.9099359999999876
21
-144.4615039999999908
0
LINE
8
Edge.Cuts
6
CONTINUOUS
10
152.9099359999999876
20
-144.4615039999999908
11
152.9455299999999909
21
-144.6862339999999847
0
LINE
8
Edge.Cuts
6
CONTINUOUS
10
152.9455299999999909
20
-144.6862339999999847
11
152.9455299999999909
21
-144.9137659999999812
0
LINE
8
Edge.Cuts
6
CONTINUOUS
10
152.9455299999999909
20
-144.9137659999999812
11
152.9099359999999876
21
-145.1384960000000035
0
LINE
8
Edge.Cuts
6
CONTINUOUS
10
152.9099359999999876
20
-145.1384960000000035
11
152.8396249999999839
21
-145.3548909999999807
0
LINE
8
Edge.Cuts
6
CONTINUOUS
10
152.8396249999999839
20
-145.3548909999999807
11
152.7363279999999861
21
-145.5576230000000066
0
LINE
8
Edge.Cuts
6
CONTINUOUS
10
152.7363279999999861
20
-145.5576230000000066
11
152.6025889999999947
21
-145.7416999999999803
0
LINE
8
Edge.Cuts
6
CONTINUOUS
10
152.6025889999999947
20
-145.7416999999999803
11
152.4416999999999973
21
-145.9025890000000061
0
LINE
8
Edge.Cuts
6
CONTINUOUS
10
152.4416999999999973
20
-145.9025890000000061
11
152.2576229999999953
21
-146.0363279999999975
0
LINE
8
Edge.Cuts
6
CONTINUOUS
10
152.2576229999999953
20
-146.0363279999999975
11
152.0548909999999978
21
-146.1396249999999952
0
LINE
8
Edge.Cuts
6
CONTINUOUS
10
152.0548909999999978
20
-146.1396249999999952
11
151.8384959999999921
21
-146.209935999999999
0
LINE
8
Edge.Cuts
6
CONTINUOUS
10
151.8384959999999921
20
-146.209935999999999
11
151.6137659999999983
21
-146.2455300000000022
0
LINE
8
Edge.Cuts
6
CONTINUOUS
10
151.6137659999999983
20
-146.2455300000000022
11
151.3862340000000017
21
-146.2455300000000022
0
LINE
8
Edge.Cuts
6
CONTINUOUS
10
151.3862340000000017
20
-146.2455300000000022
11
151.1615039999999794
21
-146.209935999999999
0
LINE
8
Edge.Cuts
6
CONTINUOUS
10
151.1615039999999794
20
-146.209935999999999
11
150.9451090000000022
21
-146.1396249999999952
0
LINE
8
Edge.Cuts
6
CONTINUOUS
10
150.9451090000000022
20
-146.1396249999999952
11
150.7423770000000047
21
-146.0363279999999975
0
LINE
8
Edge.Cuts
6
CONTINUOUS
10
150.7423770000000047
20
-146.0363279999999975
11
150.5583000000000027
21
-145.9025890000000061
0
LINE
8
Edge.Cuts
6
CONTINUOUS
10
150.5583000000000027
20
-145.9025890000000061
11
150.3974110000000053
21
-145.7416999999999803
0
LINE
8
Edge.Cuts
6
CONTINUOUS
10
150.3974110000000053
20
-145.7416999999999803
11
150.2636719999999855
21
-145.5576230000000066
0
LINE
8
Edge.Cuts
6
CONTINUOUS
10
150.2636719999999855
20
-145.5576230000000066
11
150.1603749999999877
21
-145.3548909999999807
0
LINE
8
Edge.Cuts
6
CONTINUOUS
10
150.1603749999999877
20
-145.3548909999999807
11
150.0900639999999839
21
-145.1384960000000035
0
LINE
8
Edge.Cuts
6
CONTINUOUS
10
150.0900639999999839
20
-145.1384960000000035
11
150.0544699999999807
21
-144.9137659999999812
0
LINE
8
Edge.Cuts
6
CONTINUOUS
10
150.0544699999999807
20
-144.9137659999999812
11
150.0544699999999807
21
-144.6937529999999867
0
LINE
8
Edge.Cuts
6
CONTINUOUS
10
150.0544699999999807
20
-144.6937529999999867
11
150.0544699999999807
21
-144.6862339999999847
0
LINE
8
Edge.Cuts
6
CONTINUOUS
10
150.0544699999999807
20
-144.6862339999999847
11
150.0900639999999839
21
-144.4615039999999908
0
LINE
8
Edge.Cuts
6
CONTINUOUS
10
150.0900639999999839
20
-144.4615039999999908
11
150.1603749999999877
21
-144.2451089999999851
0
LINE
8
Edge.Cuts
6
CONTINUOUS
10
150.1603749999999877
20
-144.2451089999999851
11
150.2636719999999855
21
-144.0423769999999877
0
LINE
8
Edge.Cuts
6
CONTINUOUS
10
150.2636719999999855
20
-144.0423769999999877
11
150.3974110000000053
21
-143.8582999999999856
0
LINE
8
Edge.Cuts
6
CONTINUOUS
10
150.3974110000000053
20
-143.8582999999999856
11
150.5583000000000027
21
-143.6974109999999882
0
LINE
8
Edge.Cuts
6
CONTINUOUS
10
150.5583000000000027
20
-143.6974109999999882
11
150.7423770000000047
21
-143.5636719999999968
0
LINE
8
Edge.Cuts
6
CONTINUOUS
10
150.7423770000000047
20
-143.5636719999999968
11
150.9451090000000022
21
-143.4603749999999991
0
LINE
8
Edge.Cuts
6
CONTINUOUS
10
150.9451090000000022
20
-143.4603749999999991
11
151.1615039999999794
21
-143.3900639999999953
0
LINE
8
Edge.Cuts
6
CONTINUOUS
10
151.1615039999999794
20
-143.3900639999999953
11
151.3862340000000017
21
-143.3544699999999921
0
LINE
8
Edge.Cuts
6
CONTINUOUS
10
151.3862340000000017
20
-143.3544699999999921
11
151.6137659999999983
21
-143.3544699999999921
0
LINE
8
Edge.Cuts
6
CONTINUOUS
10
151.6137659999999983
20
-143.3544699999999921
11
151.8384959999999921
21
-143.3900639999999953
0
LINE
8
Edge.Cuts
6
CONTINUOUS
10
150.1500000000000057
20
-144.9062470000000076
11
150.183242000000007
21
-145.11612599999998
0
LINE
8
Edge.Cuts
6
CONTINUOUS
10
150.183242000000007
20
-145.11612599999998
11
150.2489060000000052
21
-145.3182199999999966
0
LINE
8
Edge.Cuts
6
CONTINUOUS
10
150.2489060000000052
20
-145.3182199999999966
11
150.3453769999999849
21
-145.507553999999999
0
LINE
8
Edge.Cuts
6
CONTINUOUS
10
150.3453769999999849
20
-145.507553999999999
11
150.4702779999999791
21
-145.6794659999999908
0
LINE
8
Edge.Cuts
6
CONTINUOUS
10
150.4702779999999791
20
-145.6794659999999908
11
150.6205339999999921
21
-145.8297220000000038
0
LINE
8
Edge.Cuts
6
CONTINUOUS
10
150.6205339999999921
20
-145.8297220000000038
11
150.792445999999984
21
-145.954622999999998
0
LINE
8
Edge.Cuts
6
CONTINUOUS
10
150.792445999999984
20
-145.954622999999998
11
150.9817799999999863
21
-146.0510940000000062
0
LINE
8
Edge.Cuts
6
CONTINUOUS
10
150.9817799999999863
20
-146.0510940000000062
11
151.183874000000003
21
-146.1167580000000044
0
LINE
8
Edge.Cuts
6
CONTINUOUS
10
151.183874000000003
20
-146.1167580000000044
11
151.3937530000000038
21
-146.1500000000000057
0
LINE
8
Edge.Cuts
6
CONTINUOUS
10
151.3937530000000038
20
-146.1500000000000057
11
151.6062469999999962
21
-146.1500000000000057
0
LINE
8
Edge.Cuts
6
CONTINUOUS
10
151.6062469999999962
20
-146.1500000000000057
11
151.816125999999997
21
-146.1167580000000044
0
LINE
8
Edge.Cuts
6
CONTINUOUS
10
151.816125999999997
20
-146.1167580000000044
11
152.0182199999999852
21
-146.0510940000000062
0
LINE
8
Edge.Cuts
6
CONTINUOUS
10
152.0182199999999852
20
-146.0510940000000062
11
152.2075539999999876
21
-145.954622999999998
0
LINE
8
Edge.Cuts
6
CONTINUOUS
10
152.2075539999999876
20
-145.954622999999998
11
152.3794659999999794
21
-145.8297220000000038
0
LINE
8
Edge.Cuts
6
CONTINUOUS
10
152.3794659999999794
20
-145.8297220000000038
11
152.5297219999999925
21
-145.6794659999999908
0
LINE
8
Edge.Cuts
6
CONTINUOUS
10
152.5297219999999925
20
-145.6794659999999908
11
152.6546229999999866
21
-145.507553999999999
0
LINE
8
Edge.Cuts
6
CONTINUOUS
10
152.6546229999999866
20
-145.507553999999999
11
152.7510939999999948
21
-145.3182199999999966
0
LINE
8
Edge.Cuts
6
CONTINUOUS
10
152.7510939999999948
20
-145.3182199999999966
11
152.816757999999993
21
-145.11612599999998
0
LINE
8
Edge.Cuts
6
CONTINUOUS
10
152.816757999999993
20
-145.11612599999998
11
152.8499999999999943
21
-144.9062470000000076
0
LINE
8
Edge.Cuts
6
CONTINUOUS
10
152.8499999999999943
20
-144.9062470000000076
11
152.8499999999999943
21
-144.6937529999999867
0
LINE
8
Edge.Cuts
6
CONTINUOUS
10
152.8499999999999943
20
-144.6937529999999867
11
152.816757999999993
21
-144.4838739999999859
0
LINE
8
Edge.Cuts
6
CONTINUOUS
10
152.816757999999993
20
-144.4838739999999859
11
152.7510939999999948
21
-144.2817799999999977
0
LINE
8
Edge.Cuts
6
CONTINUOUS
10
152.7510939999999948
20
-144.2817799999999977
11
152.6546229999999866
21
-144.0924459999999954
0
LINE
8
Edge.Cuts
6
CONTINUOUS
10
152.6546229999999866
20
-144.0924459999999954
11
152.5297219999999925
21
-143.9205340000000035
0
LINE
8
Edge.Cuts
6
CONTINUOUS
10
152.5297219999999925
20
-143.9205340000000035
11
152.3794659999999794
21
-143.7702779999999905
0
LINE
8
Edge.Cuts
6
CONTINUOUS
10
152.3794659999999794
20
-143.7702779999999905
11
152.2075539999999876
21
-143.6453769999999963
0
LINE
8
Edge.Cuts
6
CONTINUOUS
10
152.2075539999999876
20
-143.6453769999999963
11
152.0182199999999852
21
-143.5489059999999881
0
LINE
8
Edge.Cuts
6
CONTINUOUS
10
152.0182199999999852
20
-143.5489059999999881
11
151.816125999999997
21
-143.48324199999999
0
LINE
8
Edge.Cuts
6
CONTINUOUS
10
151.816125999999997
20
-143.48324199999999
11
151.6062469999999962
21
-143.4499999999999886
0
LINE
8
Edge.Cuts
6
CONTINUOUS
10
151.6062469999999962
20
-143.4499999999999886
11
151.3937530000000038
21
-143.4499999999999886
0
LINE
8
Edge.Cuts
6
CONTINUOUS
10
151.3937530000000038
20
-143.4499999999999886
11
151.183874000000003
21
-143.48324199999999
0
LINE
8
Edge.Cuts
6
CONTINUOUS
10
151.183874000000003
20
-143.48324199999999
11
150.9817799999999863
21
-143.5489059999999881
0
LINE
8
Edge.Cuts
6
CONTINUOUS
10
150.9817799999999863
20
-143.5489059999999881
11
150.792445999999984
21
-143.6453769999999963
0
LINE
8
Edge.Cuts
6
CONTINUOUS
10
150.792445999999984
20
-143.6453769999999963
11
150.6205339999999921
21
-143.7702779999999905
0
LINE
8
Edge.Cuts
6
CONTINUOUS
10
150.6205339999999921
20
-143.7702779999999905
11
150.4702779999999791
21
-143.9205340000000035
0
LINE
8
Edge.Cuts
6
CONTINUOUS
10
150.4702779999999791
20
-143.9205340000000035
11
150.3453769999999849
21
-144.0924459999999954
0
LINE
8
Edge.Cuts
6
CONTINUOUS
10
150.3453769999999849
20
-144.0924459999999954
11
150.2489060000000052
21
-144.2817799999999977
0
LINE
8
Edge.Cuts
6
CONTINUOUS
10
150.2489060000000052
20
-144.2817799999999977
11
150.183242000000007
21
-144.4838739999999859
0
LINE
8
Edge.Cuts
6
CONTINUOUS
10
150.183242000000007
20
-144.4838739999999859
11
150.1500000000000057
21
-144.6937529999999867
0
LINE
8
Edge.Cuts
6
CONTINUOUS
10
150.1500000000000057
20
-144.6937529999999867
11
150.1500000000000057
21
-144.9062470000000076
0
LINE
8
Edge.Cuts
6
CONTINUOUS
10
87.3384959999999921
20
-126.3900639999999953
11
87.5548909999999978
21
-126.4603749999999991
0
LINE
8
Edge.Cuts
6
CONTINUOUS
10
87.5548909999999978
20
-126.4603749999999991
11
87.7576229999999953
21
-126.5636719999999968
0
LINE
8
Edge.Cuts
6
CONTINUOUS
10
87.7576229999999953
20
-126.5636719999999968
11
87.9416999999999973
21
-126.6974109999999882
0
LINE
8
Edge.Cuts
6
CONTINUOUS
10
87.9416999999999973
20
-126.6974109999999882
11
88.1025889999999947
21
-126.8582999999999998
0
LINE
8
Edge.Cuts
6
CONTINUOUS
10
88.1025889999999947
20
-126.8582999999999998
11
88.2363280000000003
21
-127.0423769999999877
0
LINE
8
Edge.Cuts
6
CONTINUOUS
10
88.2363280000000003
20
-127.0423769999999877
11
88.3396249999999981
21
-127.2451089999999994
0
LINE
8
Edge.Cuts
6
CONTINUOUS
10
88.3396249999999981
20
-127.2451089999999994
11
88.4099360000000019
21
-127.4615039999999908
0
LINE
8
Edge.Cuts
6
CONTINUOUS
10
88.4099360000000019
20
-127.4615039999999908
11
88.4455299999999909
21
-127.6862339999999989
0
LINE
8
Edge.Cuts
6
CONTINUOUS
10
88.4455299999999909
20
-127.6862339999999989
11
88.4455299999999909
21
-127.9137659999999954
0
LINE
8
Edge.Cuts
6
CONTINUOUS
10
88.4455299999999909
20
-127.9137659999999954
11
88.4099360000000019
21
-128.1384960000000035
0
LINE
8
Edge.Cuts
6
CONTINUOUS
10
88.4099360000000019
20
-128.1384960000000035
11
88.3396249999999981
21
-128.3548909999999807
0
LINE
8
Edge.Cuts
6
CONTINUOUS
10
88.3396249999999981
20
-128.3548909999999807
11
88.2363280000000003
21
-128.5576230000000066
0
LINE
8
Edge.Cuts
6
CONTINUOUS
10
88.2363280000000003
20
-128.5576230000000066
11
88.1025889999999947
21
-128.7416999999999803
0
LINE
8
Edge.Cuts
6
CONTINUOUS
10
88.1025889999999947
20
-128.7416999999999803
11
87.9416999999999973
21
-128.9025890000000061
0
LINE
8
Edge.Cuts
6
CONTINUOUS
10
87.9416999999999973
20
-128.9025890000000061
11
87.7576229999999953
21
-129.0363279999999975
0
LINE
8
Edge.Cuts
6
CONTINUOUS
10
87.7576229999999953
20
-129.0363279999999975
11
87.5548909999999978
21
-129.1396249999999952
0
LINE
8
Edge.Cuts
6
CONTINUOUS
10
87.5548909999999978
20
-129.1396249999999952
11
87.3384959999999921
21
-129.209935999999999
0
LINE
8
Edge.Cuts
6
CONTINUOUS
10
87.3384959999999921
20
-129.209935999999999
11
87.1137659999999983
21
-129.2455300000000022
0
LINE
8
Edge.Cuts
6
CONTINUOUS
10
87.1137659999999983
20
-129.2455300000000022
11
86.8862340000000017
21
-129.2455300000000022
0
LINE
8
Edge.Cuts
6
CONTINUOUS
10
86.8862340000000017
20
-129.2455300000000022
11
86.6615039999999937
21
-129.209935999999999
0
LINE
8
Edge.Cuts
6
CONTINUOUS
10
86.6615039999999937
20
-129.209935999999999
11
86.4451090000000022
21
-129.1396249999999952
0
LINE
8
Edge.Cuts
6
CONTINUOUS
10
86.4451090000000022
20
-129.1396249999999952
11
86.2423769999999905
21
-129.0363279999999975
0
LINE
8
Edge.Cuts
6
CONTINUOUS
10
86.2423769999999905
20
-129.0363279999999975
11
86.0583000000000027
21
-128.9025890000000061
0
LINE
8
Edge.Cuts
6
CONTINUOUS
10
86.0583000000000027
20
-128.9025890000000061
11
85.8974109999999911
21
-128.7416999999999803
0
LINE
8
Edge.Cuts
6
CONTINUOUS
10
85.8974109999999911
20
-128.7416999999999803
11
85.7636719999999997
21
-128.5576230000000066
0
LINE
8
Edge.Cuts
6
CONTINUOUS
10
85.7636719999999997
20
-128.5576230000000066
11
85.6603750000000019
21
-128.3548909999999807
0
LINE
8
Edge.Cuts
6
CONTINUOUS
10
85.6603750000000019
20
-128.3548909999999807
11
85.5900639999999981
21
-128.1384960000000035
0
LINE
8
Edge.Cuts
6
CONTINUOUS
10
85.5900639999999981
20
-128.1384960000000035
11
85.5544699999999949
21
-127.9137659999999954
0
LINE
8
Edge.Cuts
6
CONTINUOUS
10
85.5544699999999949
20
-127.9137659999999954
11
85.5544699999999949
21
-127.693753000000001
0
LINE
8
Edge.Cuts
6
CONTINUOUS
10
85.5544699999999949
20
-127.693753000000001
11
85.5544699999999949
21
-127.6862339999999989
0
LINE
8
Edge.Cuts
6
CONTINUOUS
10
85.5544699999999949
20
-127.6862339999999989
11
85.5900639999999981
21
-127.4615039999999908
0
LINE
8
Edge.Cuts
6
CONTINUOUS
10
85.5900639999999981
20
-127.4615039999999908
11
85.6603750000000019
21
-127.2451089999999994
0
LINE
8
Edge.Cuts
6
CONTINUOUS
10
85.6603750000000019
20
-127.2451089999999994
11
85.7636719999999997
21
-127.0423769999999877
0
LINE
8
Edge.Cuts
6
CONTINUOUS
10
85.7636719999999997
20
-127.0423769999999877
11
85.8974109999999911
21
-126.8582999999999998
0
LINE
8
Edge.Cuts
6
CONTINUOUS
10
85.8974109999999911
20
-126.8582999999999998
11
86.0583000000000027
21
-126.6974109999999882
0
LINE
8
Edge.Cuts
6
CONTINUOUS
10
86.0583000000000027
20
-126.6974109999999882
11
86.2423769999999905
21
-126.5636719999999968
0
LINE
8
Edge.Cuts
6
CONTINUOUS
10
86.2423769999999905
20
-126.5636719999999968
11
86.4451090000000022
21
-126.4603749999999991
0
LINE
8
Edge.Cuts
6
CONTINUOUS
10
86.4451090000000022
20
-126.4603749999999991
11
86.6615039999999937
21
-126.3900639999999953
0
LINE
8
Edge.Cuts
6
CONTINUOUS
10
86.6615039999999937
20
-126.3900639999999953
11
86.8862340000000017
21
-126.3544699999999921
0
LINE
8
Edge.Cuts
6
CONTINUOUS
10
86.8862340000000017
20
-126.3544699999999921
11
87.1137659999999983
21
-126.3544699999999921
0
LINE
8
Edge.Cuts
6
CONTINUOUS
10
87.1137659999999983
20
-126.3544699999999921
11
87.3384959999999921
21
-126.3900639999999953
0
LINE
8
Edge.Cuts
6
CONTINUOUS
10
85.6499999999999915
20
-127.9062469999999934
11
85.6832419999999928
21
-128.1161260000000084
0
LINE
8
Edge.Cuts
6
CONTINUOUS
10
85.6832419999999928
20
-128.1161260000000084
11
85.748905999999991
21
-128.3182199999999966
0
LINE
8
Edge.Cuts
6
CONTINUOUS
10
85.748905999999991
20
-128.3182199999999966
11
85.8453769999999992
21
-128.507553999999999
0
LINE
8
Edge.Cuts
6
CONTINUOUS
10
85.8453769999999992
20
-128.507553999999999
11
85.9702779999999933
21
-128.6794659999999908
0
LINE
8
Edge.Cuts
6
CONTINUOUS
10
85.9702779999999933
20
-128.6794659999999908
11
86.1205339999999921
21
-128.8297220000000038
0
LINE
8
Edge.Cuts
6
CONTINUOUS
10
86.1205339999999921
20
-128.8297220000000038
11
86.2924459999999982
21
-128.954622999999998
0
LINE
8
Edge.Cuts
6
CONTINUOUS
10
86.2924459999999982
20
-128.954622999999998
11
86.4817800000000005
21
-129.0510940000000062
0
LINE
8
Edge.Cuts
6
CONTINUOUS
10
86.4817800000000005
20
-129.0510940000000062
11
86.683874000000003
21
-129.1167580000000044
0
LINE
8
Edge.Cuts
6
CONTINUOUS
10
86.683874000000003
20
-129.1167580000000044
11
86.8937529999999896
21
-129.1500000000000057
0
LINE
8
Edge.Cuts
6
CONTINUOUS
10
86.8937529999999896
20
-129.1500000000000057
11
87.1062469999999962
21
-129.1500000000000057
0
LINE
8
Edge.Cuts
6
CONTINUOUS
10
87.1062469999999962
20
-129.1500000000000057
11
87.316125999999997
21
-129.1167580000000044
0
LINE
8
Edge.Cuts
6
CONTINUOUS
10
87.316125999999997
20
-129.1167580000000044
11
87.5182199999999995
21
-129.0510940000000062
0
LINE
8
Edge.Cuts
6
CONTINUOUS
10
87.5182199999999995
20
-129.0510940000000062
11
87.7075540000000018
21
-128.954622999999998
0
LINE
8
Edge.Cuts
6
CONTINUOUS
10
87.7075540000000018
20
-128.954622999999998
11
87.8794659999999936
21
-128.8297220000000038
0
LINE
8
Edge.Cuts
6
CONTINUOUS
10
87.8794659999999936
20
-128.8297220000000038
11
88.0297219999999925
21
-128.6794659999999908
0
LINE
8
Edge.Cuts
6
CONTINUOUS
10
88.0297219999999925
20
-128.6794659999999908
11
88.1546230000000008
21
-128.507553999999999
0
LINE
8
Edge.Cuts
6
CONTINUOUS
10
88.1546230000000008
20
-128.507553999999999
11
88.2510939999999948
21
-128.3182199999999966
0
LINE
8
Edge.Cuts
6
CONTINUOUS
10
88.2510939999999948
20
-128.3182199999999966
11
88.316757999999993
21
-128.1161260000000084
0
LINE
8
Edge.Cuts
6
CONTINUOUS
10
88.316757999999993
20
-128.1161260000000084
11
88.3499999999999943
21
-127.9062469999999934
0
LINE
8
Edge.Cuts
6
CONTINUOUS
10
88.3499999999999943
20
-127.9062469999999934
11
88.3499999999999943
21
-127.693753000000001
0
LINE
8
Edge.Cuts
6
CONTINUOUS
10
88.3499999999999943
20
-127.693753000000001
11
88.316757999999993
21
-127.4838740000000001
0
LINE
8
Edge.Cuts
6
CONTINUOUS
10
88.316757999999993
20
-127.4838740000000001
11
88.2510939999999948
21
-127.2817799999999977
0
LINE
8
Edge.Cuts
6
CONTINUOUS
10
88.2510939999999948
20
-127.2817799999999977
11
88.1546230000000008
21
-127.0924459999999954
0
LINE
8
Edge.Cuts
6
CONTINUOUS
10
88.1546230000000008
20
-127.0924459999999954
11
88.0297219999999925
21
-126.9205339999999893
0
LINE
8
Edge.Cuts
6
CONTINUOUS
10
88.0297219999999925
20
-126.9205339999999893
11
87.8794659999999936
21
-126.7702779999999905
0
LINE
8
Edge.Cuts
6
CONTINUOUS
10
87.8794659999999936
20
-126.7702779999999905
11
87.7075540000000018
21
-126.6453769999999963
0
LINE
8
Edge.Cuts
6
CONTINUOUS
10
87.7075540000000018
20
-126.6453769999999963
11
87.5182199999999995
21
-126.5489059999999881
0
LINE
8
Edge.Cuts
6
CONTINUOUS
10
87.5182199999999995
20
-126.5489059999999881
11
87.316125999999997
21
-126.48324199999999
0
LINE
8
Edge.Cuts
6
CONTINUOUS
10
87.316125999999997
20
-126.48324199999999
11
87.1062469999999962
21
-126.4499999999999886
0
LINE
8
Edge.Cuts
6
CONTINUOUS
10
87.1062469999999962
20
-126.4499999999999886
11
86.8937529999999896
21
-126.4499999999999886
0
LINE
8
Edge.Cuts
6
CONTINUOUS
10
86.8937529999999896
20
-126.4499999999999886
11
86.683874000000003
21
-126.48324199999999
0
LINE
8
Edge.Cuts
6
CONTINUOUS
10
86.683874000000003
20
-126.48324199999999
11
86.4817800000000005
21
-126.5489059999999881
0
LINE
8
Edge.Cuts
6
CONTINUOUS
10
86.4817800000000005
20
-126.5489059999999881
11
86.2924459999999982
21
-126.6453769999999963
0
LINE
8
Edge.Cuts
6
CONTINUOUS
10
86.2924459999999982
20
-126.6453769999999963
11
86.1205339999999921
21
-126.7702779999999905
0
LINE
8
Edge.Cuts
6
CONTINUOUS
10
86.1205339999999921
20
-126.7702779999999905
11
85.9702779999999933
21
-126.9205339999999893
0
LINE
8
Edge.Cuts
6
CONTINUOUS
10
85.9702779999999933
20
-126.9205339999999893
11
85.8453769999999992
21
-127.0924459999999954
0
LINE
8
Edge.Cuts
6
CONTINUOUS
10
85.8453769999999992
20
-127.0924459999999954
11
85.748905999999991
21
-127.2817799999999977
0
LINE
8
Edge.Cuts
6
CONTINUOUS
10
85.748905999999991
20
-127.2817799999999977
11
85.6832419999999928
21
-127.4838740000000001
0
LINE
8
Edge.Cuts
6
CONTINUOUS
10
85.6832419999999928
20
-127.4838740000000001
11
85.6499999999999915
21
-127.693753000000001
0
LINE
8
Edge.Cuts
6
CONTINUOUS
10
85.6499999999999915
20
-127.693753000000001
11
85.6499999999999915
21
-127.9062469999999934
0
LINE
8
Edge.Cuts
6
CONTINUOUS
10
180.3384959999999921
20
-123.3900639999999953
11
180.5548909999999978
21
-123.4603749999999991
0
LINE
8
Edge.Cuts
6
CONTINUOUS
10
180.5548909999999978
20
-123.4603749999999991
11
180.7576229999999953
21
-123.5636719999999968
0
LINE
8
Edge.Cuts
6
CONTINUOUS
10
180.7576229999999953
20
-123.5636719999999968
11
180.9416999999999973
21
-123.6974109999999882
0
LINE
8
Edge.Cuts
6
CONTINUOUS
10
180.9416999999999973
20
-123.6974109999999882
11
181.1025889999999947
21
-123.8582999999999998
0
LINE
8
Edge.Cuts
6
CONTINUOUS
10
181.1025889999999947
20
-123.8582999999999998
11
181.2363279999999861
21
-124.0423769999999877
0
LINE
8
Edge.Cuts
6
CONTINUOUS
10
181.2363279999999861
20
-124.0423769999999877
11
181.3396249999999839
21
-124.2451089999999994
0
LINE
8
Edge.Cuts
6
CONTINUOUS
10
181.3396249999999839
20
-124.2451089999999994
11
181.4099359999999876
21
-124.4615039999999908
0
LINE
8
Edge.Cuts
6
CONTINUOUS
10
181.4099359999999876
20
-124.4615039999999908
11
181.4455299999999909
21
-124.6862339999999989
0
LINE
8
Edge.Cuts
6
CONTINUOUS
10
181.4455299999999909
20
-124.6862339999999989
11
181.4455299999999909
21
-124.9137659999999954
0
LINE
8
Edge.Cuts
6
CONTINUOUS
10
181.4455299999999909
20
-124.9137659999999954
11
181.4099359999999876
21
-125.1384959999999893
0
LINE
8
Edge.Cuts
6
CONTINUOUS
10
181.4099359999999876
20
-125.1384959999999893
11
181.3396249999999839
21
-125.354890999999995
0
LINE
8
Edge.Cuts
6
CONTINUOUS
10
181.3396249999999839
20
-125.354890999999995
11
181.2363279999999861
21
-125.5576229999999924
0
LINE
8
Edge.Cuts
6
CONTINUOUS
10
181.2363279999999861
20
-125.5576229999999924
11
181.1025889999999947
21
-125.7416999999999945
0
LINE
8
Edge.Cuts
6
CONTINUOUS
10
181.1025889999999947
20
-125.7416999999999945
11
180.9416999999999973
21
-125.9025889999999919
0
LINE
8
Edge.Cuts
6
CONTINUOUS
10
180.9416999999999973
20
-125.9025889999999919
11
180.7576229999999953
21
-126.0363279999999975
0
LINE
8
Edge.Cuts
6
CONTINUOUS
10
180.7576229999999953
20
-126.0363279999999975
11
180.5548909999999978
21
-126.1396249999999952
0
LINE
8
Edge.Cuts
6
CONTINUOUS
10
180.5548909999999978
20
-126.1396249999999952
11
180.3384959999999921
21
-126.209935999999999
0
LINE
8
Edge.Cuts
6
CONTINUOUS
10
180.3384959999999921
20
-126.209935999999999
11
180.1137659999999983
21
-126.245529999999988
0
LINE
8
Edge.Cuts
6
CONTINUOUS
10
180.1137659999999983
20
-126.245529999999988
11
179.8862340000000017
21
-126.245529999999988
0
LINE
8
Edge.Cuts
6
CONTINUOUS
10
179.8862340000000017
20
-126.245529999999988
11
179.6615039999999794
21
-126.209935999999999
0
LINE
8
Edge.Cuts
6
CONTINUOUS
10
179.6615039999999794
20
-126.209935999999999
11
179.4451090000000022
21
-126.1396249999999952
0
LINE
8
Edge.Cuts
6
CONTINUOUS
10
179.4451090000000022
20
-126.1396249999999952
11
179.2423770000000047
21
-126.0363279999999975
0
LINE
8
Edge.Cuts
6
CONTINUOUS
10
179.2423770000000047
20
-126.0363279999999975
11
179.0583000000000027
21
-125.9025889999999919
0
LINE
8
Edge.Cuts
6
CONTINUOUS
10
179.0583000000000027
20
-125.9025889999999919
11
178.8974110000000053
21
-125.7416999999999945
0
LINE
8
Edge.Cuts
6
CONTINUOUS
10
178.8974110000000053
20
-125.7416999999999945
11
178.7636719999999855
21
-125.5576229999999924
0
LINE
8
Edge.Cuts
6
CONTINUOUS
10
178.7636719999999855
20
-125.5576229999999924
11
178.6603749999999877
21
-125.354890999999995
0
LINE
8
Edge.Cuts
6
CONTINUOUS
10
178.6603749999999877
20
-125.354890999999995
11
178.5900639999999839
21
-125.1384959999999893
0
LINE
8
Edge.Cuts
6
CONTINUOUS
10
178.5900639999999839
20
-125.1384959999999893
11
178.5544699999999807
21
-124.9137659999999954
0
LINE
8
Edge.Cuts
6
CONTINUOUS
10
178.5544699999999807
20
-124.9137659999999954
11
178.5544699999999807
21
-124.693753000000001
0
LINE
8
Edge.Cuts
6
CONTINUOUS
10
178.5544699999999807
20
-124.693753000000001
11
178.5544699999999807
21
-124.6862339999999989
0
LINE
8
Edge.Cuts
6
CONTINUOUS
10
178.5544699999999807
20
-124.6862339999999989
11
178.5900639999999839
21
-124.4615039999999908
0
LINE
8
Edge.Cuts
6
CONTINUOUS
10
178.5900639999999839
20
-124.4615039999999908
11
178.6603749999999877
21
-124.2451089999999994
0
LINE
8
Edge.Cuts
6
CONTINUOUS
10
178.6603749999999877
20
-124.2451089999999994
11
178.7636719999999855
21
-124.0423769999999877
0
LINE
8
Edge.Cuts
6
CONTINUOUS
10
178.7636719999999855
20
-124.0423769999999877
11
178.8974110000000053
21
-123.8582999999999998
0
LINE
8
Edge.Cuts
6
CONTINUOUS
10
178.8974110000000053
20
-123.8582999999999998
11
179.0583000000000027
21
-123.6974109999999882
0
LINE
8
Edge.Cuts
6
CONTINUOUS
10
179.0583000000000027
20
-123.6974109999999882
11
179.2423770000000047
21
-123.5636719999999968
0
LINE
8
Edge.Cuts
6
CONTINUOUS
10
179.2423770000000047
20
-123.5636719999999968
11
179.4451090000000022
21
-123.4603749999999991
0
LINE
8
Edge.Cuts
6
CONTINUOUS
10
179.4451090000000022
20
-123.4603749999999991
11
179.6615039999999794
21
-123.3900639999999953
0
LINE
8
Edge.Cuts
6
CONTINUOUS
10
179.6615039999999794
20
-123.3900639999999953
11
179.8862340000000017
21
-123.3544699999999921
0
LINE
8
Edge.Cuts
6
CONTINUOUS
10
179.8862340000000017
20
-123.3544699999999921
11
180.1137659999999983
21
-123.3544699999999921
0
LINE
8
Edge.Cuts
6
CONTINUOUS
10
180.1137659999999983
20
-123.3544699999999921
11
180.3384959999999921
21
-123.3900639999999953
0
LINE
8
Edge.Cuts
6
CONTINUOUS
10
178.6500000000000057
20
-124.9062469999999934
11
178.6832419999999786
21
-125.1161259999999942
0
LINE
8
Edge.Cuts
6
CONTINUOUS
10
178.6832419999999786
20
-125.1161259999999942
11
178.7489060000000052
21
-125.3182199999999966
0
LINE
8
Edge.Cuts
6
CONTINUOUS
10
178.7489060000000052
20
-125.3182199999999966
11
178.8453769999999849
21
-125.507553999999999
0
LINE
8
Edge.Cuts
6
CONTINUOUS
10
178.8453769999999849
20
-125.507553999999999
11
178.9702779999999791
21
-125.6794659999999908
0
LINE
8
Edge.Cuts
6
CONTINUOUS
10
178.9702779999999791
20
-125.6794659999999908
11
179.1205339999999921
21
-125.8297219999999896
0
LINE
8
Edge.Cuts
6
CONTINUOUS
10
179.1205339999999921
20
-125.8297219999999896
11
179.292445999999984
21
-125.954622999999998
0
LINE
8
Edge.Cuts
6
CONTINUOUS
10
179.292445999999984
20
-125.954622999999998
11
179.4817799999999863
21
-126.051093999999992
0
LINE
8
Edge.Cuts
6
CONTINUOUS
10
179.4817799999999863
20
-126.051093999999992
11
179.683874000000003
21
-126.1167579999999901
0
LINE
8
Edge.Cuts
6
CONTINUOUS
10
179.683874000000003
20
-126.1167579999999901
11
179.8937530000000038
21
-126.1499999999999915
0
LINE
8
Edge.Cuts
6
CONTINUOUS
10
179.8937530000000038
20
-126.1499999999999915
11
180.1062469999999962
21
-126.1499999999999915
0
LINE
8
Edge.Cuts
6
CONTINUOUS
10
180.1062469999999962
20
-126.1499999999999915
11
180.316125999999997
21
-126.1167579999999901
0
LINE
8
Edge.Cuts
6
CONTINUOUS
10
180.316125999999997
20
-126.1167579999999901
11
180.5182199999999852
21
-126.051093999999992
0
LINE
8
Edge.Cuts
6
CONTINUOUS
10
180.5182199999999852
20
-126.051093999999992
11
180.7075539999999876
21
-125.954622999999998
0
LINE
8
Edge.Cuts
6
CONTINUOUS
10
180.7075539999999876
20
-125.954622999999998
11
180.8794659999999794
21
-125.8297219999999896
0
LINE
8
Edge.Cuts
6
CONTINUOUS
10
180.8794659999999794
20
-125.8297219999999896
11
181.0297219999999925
21
-125.6794659999999908
0
LINE
8
Edge.Cuts
6
CONTINUOUS
10
181.0297219999999925
20
-125.6794659999999908
11
181.1546229999999866
21
-125.507553999999999
0
LINE
8
Edge.Cuts
6
CONTINUOUS
10
181.1546229999999866
20
-125.507553999999999
11
181.2510939999999948
21
-125.3182199999999966
0
LINE
8
Edge.Cuts
6
CONTINUOUS
10
181.2510939999999948
20
-125.3182199999999966
11
181.316757999999993
21
-125.1161259999999942
0
LINE
8
Edge.Cuts
6
CONTINUOUS
10
181.316757999999993
20
-125.1161259999999942
11
181.3499999999999943
21
-124.9062469999999934
0
LINE
8
Edge.Cuts
6
CONTINUOUS
10
181.3499999999999943
20
-124.9062469999999934
11
181.3499999999999943
21
-124.693753000000001
0
LINE
8
Edge.Cuts
6
CONTINUOUS
10
181.3499999999999943
20
-124.693753000000001
11
181.316757999999993
21
-124.4838740000000001
0
LINE
8
Edge.Cuts
6
CONTINUOUS
10
181.316757999999993
20
-124.4838740000000001
11
181.2510939999999948
21
-124.2817799999999977
0
LINE
8
Edge.Cuts
6
CONTINUOUS
10
181.2510939999999948
20
-124.2817799999999977
11
181.1546229999999866
21
-124.0924459999999954
0
LINE
8
Edge.Cuts
6
CONTINUOUS
10
181.1546229999999866
20
-124.0924459999999954
11
181.0297219999999925
21
-123.9205339999999893
0
LINE
8
Edge.Cuts
6
CONTINUOUS
10
181.0297219999999925
20
-123.9205339999999893
11
180.8794659999999794
21
-123.7702779999999905
0
LINE
8
Edge.Cuts
6
CONTINUOUS
10
180.8794659999999794
20
-123.7702779999999905
11
180.7075539999999876
21
-123.6453769999999963
0
LINE
8
Edge.Cuts
6
CONTINUOUS
10
180.7075539999999876
20
-123.6453769999999963
11
180.5182199999999852
21
-123.5489059999999881
0
LINE
8
Edge.Cuts
6
CONTINUOUS
10
180.5182199999999852
20
-123.5489059999999881
11
180.316125999999997
21
-123.48324199999999
0
LINE
8
Edge.Cuts
6
CONTINUOUS
10
180.316125999999997
20
-123.48324199999999
11
180.1062469999999962
21
-123.4499999999999886
0
LINE
8
Edge.Cuts
6
CONTINUOUS
10
180.1062469999999962
20
-123.4499999999999886
11
179.8937530000000038
21
-123.4499999999999886
0
LINE
8
Edge.Cuts
6
CONTINUOUS
10
179.8937530000000038
20
-123.4499999999999886
11
179.683874000000003
21
-123.48324199999999
0
LINE
8
Edge.Cuts
6
CONTINUOUS
10
179.683874000000003
20
-123.48324199999999
11
179.4817799999999863
21
-123.5489059999999881
0
LINE
8
Edge.Cuts
6
CONTINUOUS
10
179.4817799999999863
20
-123.5489059999999881
11
179.292445999999984
21
-123.6453769999999963
0
LINE
8
Edge.Cuts
6
CONTINUOUS
10
179.292445999999984
20
-123.6453769999999963
11
179.1205339999999921
21
-123.7702779999999905
0
LINE
8
Edge.Cuts
6
CONTINUOUS
10
179.1205339999999921
20
-123.7702779999999905
11
178.9702779999999791
21
-123.9205339999999893
0
LINE
8
Edge.Cuts
6
CONTINUOUS
10
178.9702779999999791
20
-123.9205339999999893
11
178.8453769999999849
21
-124.0924459999999954
0
LINE
8
Edge.Cuts
6
CONTINUOUS
10
178.8453769999999849
20
-124.0924459999999954
11
178.7489060000000052
21
-124.2817799999999977
0
LINE
8
Edge.Cuts
6
CONTINUOUS
10
178.7489060000000052
20
-124.2817799999999977
11
178.6832419999999786
21
-124.4838740000000001
0
LINE
8
Edge.Cuts
6
CONTINUOUS
10
178.6832419999999786
20
-124.4838740000000001
11
178.6500000000000057
21
-124.693753000000001
0
LINE
8
Edge.Cuts
6
CONTINUOUS
10
178.6500000000000057
20
-124.693753000000001
11
178.6500000000000057
21
-124.9062469999999934
0
LINE
8
Edge.Cuts
6
CONTINUOUS
10
178.8384959999999921
20
-53.3900639999999953
11
179.0548909999999978
21
-53.4603749999999991
0
LINE
8
Edge.Cuts
6
CONTINUOUS
10
179.0548909999999978
20
-53.4603749999999991
11
179.2576229999999953
21
-53.5636719999999968
0
LINE
8
Edge.Cuts
6
CONTINUOUS
10
179.2576229999999953
20
-53.5636719999999968
11
179.4416999999999973
21
-53.6974109999999953
0
LINE
8
Edge.Cuts
6
CONTINUOUS
10
179.4416999999999973
20
-53.6974109999999953
11
179.6025889999999947
21
-53.8582999999999998
0
LINE
8
Edge.Cuts
6
CONTINUOUS
10
179.6025889999999947
20
-53.8582999999999998
11
179.7363279999999861
21
-54.0423769999999948
0
LINE
8
Edge.Cuts
6
CONTINUOUS
10
179.7363279999999861
20
-54.0423769999999948
11
179.8396249999999839
21
-54.2451089999999994
0
LINE
8
Edge.Cuts
6
CONTINUOUS
10
179.8396249999999839
20
-54.2451089999999994
11
179.9099359999999876
21
-54.4615039999999979
0
LINE
8
Edge.Cuts
6
CONTINUOUS
10
179.9099359999999876
20
-54.4615039999999979
11
179.9455299999999909
21
-54.6862339999999989
0
LINE
8
Edge.Cuts
6
CONTINUOUS
10
179.9455299999999909
20
-54.6862339999999989
11
179.9455299999999909
21
-54.9137659999999954
0
LINE
8
Edge.Cuts
6
CONTINUOUS
10
179.9455299999999909
20
-54.9137659999999954
11
179.9099359999999876
21
-55.1384959999999964
0
LINE
8
Edge.Cuts
6
CONTINUOUS
10
179.9099359999999876
20
-55.1384959999999964
11
179.8396249999999839
21
-55.354890999999995
0
LINE
8
Edge.Cuts
6
CONTINUOUS
10
179.8396249999999839
20
-55.354890999999995
11
179.7363279999999861
21
-55.5576229999999995
0
LINE
8
Edge.Cuts
6
CONTINUOUS
10
179.7363279999999861
20
-55.5576229999999995
11
179.6025889999999947
21
-55.7416999999999945
0
LINE
8
Edge.Cuts
6
CONTINUOUS
10
179.6025889999999947
20
-55.7416999999999945
11
179.4416999999999973
21
-55.902588999999999
0
LINE
8
Edge.Cuts
6
CONTINUOUS
10
179.4416999999999973
20
-55.902588999999999
11
179.2576229999999953
21
-56.0363279999999975
0
LINE
8
Edge.Cuts
6
CONTINUOUS
10
179.2576229999999953
20
-56.0363279999999975
11
179.0548909999999978
21
-56.1396249999999952
0
LINE
8
Edge.Cuts
6
CONTINUOUS
10
179.0548909999999978
20
-56.1396249999999952
11
178.8384959999999921
21
-56.209935999999999
0
LINE
8
Edge.Cuts
6
CONTINUOUS
10
178.8384959999999921
20
-56.209935999999999
11
178.6137659999999983
21
-56.2455299999999951
0
LINE
8
Edge.Cuts
6
CONTINUOUS
10
178.6137659999999983
20
-56.2455299999999951
11
178.3862340000000017
21
-56.2455299999999951
0
LINE
8
Edge.Cuts
6
CONTINUOUS
10
178.3862340000000017
20
-56.2455299999999951
11
178.1615039999999794
21
-56.209935999999999
0
LINE
8
Edge.Cuts
6
CONTINUOUS
10
178.1615039999999794
20
-56.209935999999999
11
177.9451090000000022
21
-56.1396249999999952
0
LINE
8
Edge.Cuts
6
CONTINUOUS
10
177.9451090000000022
20
-56.1396249999999952
11
177.7423770000000047
21
-56.0363279999999975
0
LINE
8
Edge.Cuts
6
CONTINUOUS
10
177.7423770000000047
20
-56.0363279999999975
11
177.5583000000000027
21
-55.902588999999999
0
LINE
8
Edge.Cuts
6
CONTINUOUS
10
177.5583000000000027
20
-55.902588999999999
11
177.3974110000000053
21
-55.7416999999999945
0
LINE
8
Edge.Cuts
6
CONTINUOUS
10
177.3974110000000053
20
-55.7416999999999945
11
177.2636719999999855
21
-55.5576229999999995
0
LINE
8
Edge.Cuts
6
CONTINUOUS
10
177.2636719999999855
20
-55.5576229999999995
11
177.1603749999999877
21
-55.354890999999995
0
LINE
8
Edge.Cuts
6
CONTINUOUS
10
177.1603749999999877
20
-55.354890999999995
11
177.0900639999999839
21
-55.1384959999999964
0
LINE
8
Edge.Cuts
6
CONTINUOUS
10
177.0900639999999839
20
-55.1384959999999964
11
177.0544699999999807
21
-54.9137659999999954
0
LINE
8
Edge.Cuts
6
CONTINUOUS
10
177.0544699999999807
20
-54.9137659999999954
11
177.0544699999999807
21
-54.693753000000001
0
LINE
8
Edge.Cuts
6
CONTINUOUS
10
177.0544699999999807
20
-54.693753000000001
11
177.0544699999999807
21
-54.6862339999999989
0
LINE
8
Edge.Cuts
6
CONTINUOUS
10
177.0544699999999807
20
-54.6862339999999989
11
177.0900639999999839
21
-54.4615039999999979
0
LINE
8
Edge.Cuts
6
CONTINUOUS
10
177.0900639999999839
20
-54.4615039999999979
11
177.1603749999999877
21
-54.2451089999999994
0
LINE
8
Edge.Cuts
6
CONTINUOUS
10
177.1603749999999877
20
-54.2451089999999994
11
177.2636719999999855
21
-54.0423769999999948
0
LINE
8
Edge.Cuts
6
CONTINUOUS
10
177.2636719999999855
20
-54.0423769999999948
11
177.3974110000000053
21
-53.8582999999999998
0
LINE
8
Edge.Cuts
6
CONTINUOUS
10
177.3974110000000053
20
-53.8582999999999998
11
177.5583000000000027
21
-53.6974109999999953
0
LINE
8
Edge.Cuts
6
CONTINUOUS
10
177.5583000000000027
20
-53.6974109999999953
11
177.7423770000000047
21
-53.5636719999999968
0
LINE
8
Edge.Cuts
6
CONTINUOUS
10
177.7423770000000047
20
-53.5636719999999968
11
177.9451090000000022
21
-53.4603749999999991
0
LINE
8
Edge.Cuts
6
CONTINUOUS
10
177.9451090000000022
20
-53.4603749999999991
11
178.1615039999999794
21
-53.3900639999999953
0
LINE
8
Edge.Cuts
6
CONTINUOUS
10
178.1615039999999794
20
-53.3900639999999953
11
178.3862340000000017
21
-53.3544699999999992
0
LINE
8
Edge.Cuts
6
CONTINUOUS
10
178.3862340000000017
20
-53.3544699999999992
11
178.6137659999999983
21
-53.3544699999999992
0
LINE
8
Edge.Cuts
6
CONTINUOUS
10
178.6137659999999983
20
-53.3544699999999992
11
178.8384959999999921
21
-53.3900639999999953
0
LINE
8
Edge.Cuts
6
CONTINUOUS
10
177.1500000000000057
20
-54.9062470000000005
11
177.1832419999999786
21
-55.1161259999999942
0
LINE
8
Edge.Cuts
6
CONTINUOUS
10
177.1832419999999786
20
-55.1161259999999942
11
177.2489060000000052
21
-55.3182199999999966
0
LINE
8
Edge.Cuts
6
CONTINUOUS
10
177.2489060000000052
20
-55.3182199999999966
11
177.3453769999999849
21
-55.507553999999999
0
LINE
8
Edge.Cuts
6
CONTINUOUS
10
177.3453769999999849
20
-55.507553999999999
11
177.4702779999999791
21
-55.6794659999999979
0
LINE
8
Edge.Cuts
6
CONTINUOUS
10
177.4702779999999791
20
-55.6794659999999979
11
177.6205339999999921
21
-55.8297219999999967
0
LINE
8
Edge.Cuts
6
CONTINUOUS
10
177.6205339999999921
20
-55.8297219999999967
11
177.792445999999984
21
-55.954622999999998
0
LINE
8
Edge.Cuts
6
CONTINUOUS
10
177.792445999999984
20
-55.954622999999998
11
177.9817799999999863
21
-56.0510939999999991
0
LINE
8
Edge.Cuts
6
CONTINUOUS
10
177.9817799999999863
20
-56.0510939999999991
11
178.183874000000003
21
-56.1167579999999973
0
LINE
8
Edge.Cuts
6
CONTINUOUS
10
178.183874000000003
20
-56.1167579999999973
11
178.3937530000000038
21
-56.1499999999999986
0
LINE
8
Edge.Cuts
6
CONTINUOUS
10
178.3937530000000038
20
-56.1499999999999986
11
178.6062469999999962
21
-56.1499999999999986
0
LINE
8
Edge.Cuts
6
CONTINUOUS
10
178.6062469999999962
20
-56.1499999999999986
11
178.816125999999997
21
-56.1167579999999973
0
LINE
8
Edge.Cuts
6
CONTINUOUS
10
178.816125999999997
20
-56.1167579999999973
11
179.0182199999999852
21
-56.0510939999999991
0
LINE
8
Edge.Cuts
6
CONTINUOUS
10
179.0182199999999852
20
-56.0510939999999991
11
179.2075539999999876
21
-55.954622999999998
0
LINE
8
Edge.Cuts
6
CONTINUOUS
10
179.2075539999999876
20
-55.954622999999998
11
179.3794659999999794
21
-55.8297219999999967
0
LINE
8
Edge.Cuts
6
CONTINUOUS
10
179.3794659999999794
20
-55.8297219999999967
11
179.5297219999999925
21
-55.6794659999999979
0
LINE
8
Edge.Cuts
6
CONTINUOUS
10
179.5297219999999925
20
-55.6794659999999979
11
179.6546229999999866
21
-55.507553999999999
0
LINE
8
Edge.Cuts
6
CONTINUOUS
10
179.6546229999999866
20
-55.507553999999999
11
179.7510939999999948
21
-55.3182199999999966
0
LINE
8
Edge.Cuts
6
CONTINUOUS
10
179.7510939999999948
20
-55.3182199999999966
11
179.816757999999993
21
-55.1161259999999942
0
LINE
8
Edge.Cuts
6
CONTINUOUS
10
179.816757999999993
20
-55.1161259999999942
11
179.8499999999999943
21
-54.9062470000000005
0
LINE
8
Edge.Cuts
6
CONTINUOUS
10
179.8499999999999943
20
-54.9062470000000005
11
179.8499999999999943
21
-54.693753000000001
0
LINE
8
Edge.Cuts
6
CONTINUOUS
10
179.8499999999999943
20
-54.693753000000001
11
179.816757999999993
21
-54.4838740000000001
0
LINE
8
Edge.Cuts
6
CONTINUOUS
10
179.816757999999993
20
-54.4838740000000001
11
179.7510939999999948
21
-54.2817799999999977
0
LINE
8
Edge.Cuts
6
CONTINUOUS
10
179.7510939999999948
20
-54.2817799999999977
11
179.6546229999999866
21
-54.0924459999999954
0
LINE
8
Edge.Cuts
6
CONTINUOUS
10
179.6546229999999866
20
-54.0924459999999954
11
179.5297219999999925
21
-53.9205339999999964
0
LINE
8
Edge.Cuts
6
CONTINUOUS
10
179.5297219999999925
20
-53.9205339999999964
11
179.3794659999999794
21
-53.7702779999999976
0
LINE
8
Edge.Cuts
6
CONTINUOUS
10
179.3794659999999794
20
-53.7702779999999976
11
179.2075539999999876
21
-53.6453769999999963
0
LINE
8
Edge.Cuts
6
CONTINUOUS
10
179.2075539999999876
20
-53.6453769999999963
11
179.0182199999999852
21
-53.5489059999999952
0
LINE
8
Edge.Cuts
6
CONTINUOUS
10
179.0182199999999852
20
-53.5489059999999952
11
178.816125999999997
21
-53.4832419999999971
0
LINE
8
Edge.Cuts
6
CONTINUOUS
10
178.816125999999997
20
-53.4832419999999971
11
178.6062469999999962
21
-53.4499999999999957
0
LINE
8
Edge.Cuts
6
CONTINUOUS
10
178.6062469999999962
20
-53.4499999999999957
11
178.3937530000000038
21
-53.4499999999999957
0
LINE
8
Edge.Cuts
6
CONTINUOUS
10
178.3937530000000038
20
-53.4499999999999957
11
178.183874000000003
21
-53.4832419999999971
0
LINE
8
Edge.Cuts
6
CONTINUOUS
10
178.183874000000003
20
-53.4832419999999971
11
177.9817799999999863
21
-53.5489059999999952
0
LINE
8
Edge.Cuts
6
CONTINUOUS
10
177.9817799999999863
20
-53.5489059999999952
11
177.792445999999984
21
-53.6453769999999963
0
LINE
8
Edge.Cuts
6
CONTINUOUS
10
177.792445999999984
20
-53.6453769999999963
11
177.6205339999999921
21
-53.7702779999999976
0
LINE
8
Edge.Cuts
6
CONTINUOUS
10
177.6205339999999921
20
-53.7702779999999976
11
177.4702779999999791
21
-53.9205339999999964
0
LINE
8
Edge.Cuts
6
CONTINUOUS
10
177.4702779999999791
20
-53.9205339999999964
11
177.3453769999999849
21
-54.0924459999999954
0
LINE
8
Edge.Cuts
6
CONTINUOUS
10
177.3453769999999849
20
-54.0924459999999954
11
177.2489060000000052
21
-54.2817799999999977
0
LINE
8
Edge.Cuts
6
CONTINUOUS
10
177.2489060000000052
20
-54.2817799999999977
11
177.1832419999999786
21
-54.4838740000000001
0
LINE
8
Edge.Cuts
6
CONTINUOUS
10
177.1832419999999786
20
-54.4838740000000001
11
177.1500000000000057
21
-54.693753000000001
0
LINE
8
Edge.Cuts
6
CONTINUOUS
10
177.1500000000000057
20
-54.693753000000001
11
177.1500000000000057
21
-54.9062470000000005
0
LINE
8
Edge.Cuts
6
CONTINUOUS
10
87.3384959999999921
20
-51.8900639999999953
11
87.5548909999999978
21
-51.9603749999999991
0
LINE
8
Edge.Cuts
6
CONTINUOUS
10
87.5548909999999978
20
-51.9603749999999991
11
87.7576229999999953
21
-52.0636719999999968
0
LINE
8
Edge.Cuts
6
CONTINUOUS
10
87.7576229999999953
20
-52.0636719999999968
11
87.9416999999999973
21
-52.1974109999999953
0
LINE
8
Edge.Cuts
6
CONTINUOUS
10
87.9416999999999973
20
-52.1974109999999953
11
88.1025889999999947
21
-52.3582999999999998
0
LINE
8
Edge.Cuts
6
CONTINUOUS
10
88.1025889999999947
20
-52.3582999999999998
11
88.2363280000000003
21
-52.5423769999999948
0
LINE
8
Edge.Cuts
6
CONTINUOUS
10
88.2363280000000003
20
-52.5423769999999948
11
88.3396249999999981
21
-52.7451089999999994
0
LINE
8
Edge.Cuts
6
CONTINUOUS
10
88.3396249999999981
20
-52.7451089999999994
11
88.4099360000000019
21
-52.9615039999999979
0
LINE
8
Edge.Cuts
6
CONTINUOUS
10
88.4099360000000019
20
-52.9615039999999979
11
88.4455299999999909
21
-53.1862339999999989
0
LINE
8
Edge.Cuts
6
CONTINUOUS
10
88.4455299999999909
20
-53.1862339999999989
11
88.4455299999999909
21
-53.4137659999999954
0
LINE
8
Edge.Cuts
6
CONTINUOUS
10
88.4455299999999909
20
-53.4137659999999954
11
88.4099360000000019
21
-53.6384959999999964
0
LINE
8
Edge.Cuts
6
CONTINUOUS
10
88.4099360000000019
20
-53.6384959999999964
11
88.3396249999999981
21
-53.854890999999995
0
LINE
8
Edge.Cuts
6
CONTINUOUS
10
88.3396249999999981
20
-53.854890999999995
11
88.2363280000000003
21
-54.0576229999999995
0
LINE
8
Edge.Cuts
6
CONTINUOUS
10
88.2363280000000003
20
-54.0576229999999995
11
88.1025889999999947
21
-54.2416999999999945
0
LINE
8
Edge.Cuts
6
CONTINUOUS
10
88.1025889999999947
20
-54.2416999999999945
11
87.9416999999999973
21
-54.402588999999999
0
LINE
8
Edge.Cuts
6
CONTINUOUS
10
87.9416999999999973
20
-54.402588999999999
11
87.7576229999999953
21
-54.5363279999999975
0
LINE
8
Edge.Cuts
6
CONTINUOUS
10
87.7576229999999953
20
-54.5363279999999975
11
87.5548909999999978
21
-54.6396249999999952
0
LINE
8
Edge.Cuts
6
CONTINUOUS
10
87.5548909999999978
20
-54.6396249999999952
11
87.3384959999999921
21
-54.709935999999999
0
LINE
8
Edge.Cuts
6
CONTINUOUS
10
87.3384959999999921
20
-54.709935999999999
11
87.1137659999999983
21
-54.7455299999999951
0
LINE
8
Edge.Cuts
6
CONTINUOUS
10
87.1137659999999983
20
-54.7455299999999951
11
86.8862340000000017
21
-54.7455299999999951
0
LINE
8
Edge.Cuts
6
CONTINUOUS
10
86.8862340000000017
20
-54.7455299999999951
11
86.6615039999999937
21
-54.709935999999999
0
LINE
8
Edge.Cuts
6
CONTINUOUS
10
86.6615039999999937
20
-54.709935999999999
11
86.4451090000000022
21
-54.6396249999999952
0
LINE
8
Edge.Cuts
6
CONTINUOUS
10
86.4451090000000022
20
-54.6396249999999952
11
86.2423769999999905
21
-54.5363279999999975
0
LINE
8
Edge.Cuts
6
CONTINUOUS
10
86.2423769999999905
20
-54.5363279999999975
11
86.0583000000000027
21
-54.402588999999999
0
LINE
8
Edge.Cuts
6
CONTINUOUS
10
86.0583000000000027
20
-54.402588999999999
11
85.8974109999999911
21
-54.2416999999999945
0
LINE
8
Edge.Cuts
6
CONTINUOUS
10
85.8974109999999911
20
-54.2416999999999945
11
85.7636719999999997
21
-54.0576229999999995
0
LINE
8
Edge.Cuts
6
CONTINUOUS
10
85.7636719999999997
20
-54.0576229999999995
11
85.6603750000000019
21
-53.854890999999995
0
LINE
8
Edge.Cuts
6
CONTINUOUS
10
85.6603750000000019
20
-53.854890999999995
11
85.5900639999999981
21
-53.6384959999999964
0
LINE
8
Edge.Cuts
6
CONTINUOUS
10
85.5900639999999981
20
-53.6384959999999964
11
85.5544699999999949
21
-53.4137659999999954
0
LINE
8
Edge.Cuts
6
CONTINUOUS
10
85.5544699999999949
20
-53.4137659999999954
11
85.5544699999999949
21
-53.193753000000001
0
LINE
8
Edge.Cuts
6
CONTINUOUS
10
85.5544699999999949
20
-53.193753000000001
11
85.5544699999999949
21
-53.1862339999999989
0
LINE
8
Edge.Cuts
6
CONTINUOUS
10
85.5544699999999949
20
-53.1862339999999989
11
85.5900639999999981
21
-52.9615039999999979
0
LINE
8
Edge.Cuts
6
CONTINUOUS
10
85.5900639999999981
20
-52.9615039999999979
11
85.6603750000000019
21
-52.7451089999999994
0
LINE
8
Edge.Cuts
6
CONTINUOUS
10
85.6603750000000019
20
-52.7451089999999994
11
85.7636719999999997
21
-52.5423769999999948
0
LINE
8
Edge.Cuts
6
CONTINUOUS
10
85.7636719999999997
20
-52.5423769999999948
11
85.8974109999999911
21
-52.3582999999999998
0
LINE
8
Edge.Cuts
6
CONTINUOUS
10
85.8974109999999911
20
-52.3582999999999998
11
86.0583000000000027
21
-52.1974109999999953
0
LINE
8
Edge.Cuts
6
CONTINUOUS
10
86.0583000000000027
20
-52.1974109999999953
11
86.2423769999999905
21
-52.0636719999999968
0
LINE
8
Edge.Cuts
6
CONTINUOUS
10
86.2423769999999905
20
-52.0636719999999968
11
86.4451090000000022
21
-51.9603749999999991
0
LINE
8
Edge.Cuts
6
CONTINUOUS
10
86.4451090000000022
20
-51.9603749999999991
11
86.6615039999999937
21
-51.8900639999999953
0
LINE
8
Edge.Cuts
6
CONTINUOUS
10
86.6615039999999937
20
-51.8900639999999953
11
86.8862340000000017
21
-51.8544699999999992
0
LINE
8
Edge.Cuts
6
CONTINUOUS
10
86.8862340000000017
20
-51.8544699999999992
11
87.1137659999999983
21
-51.8544699999999992
0
LINE
8
Edge.Cuts
6
CONTINUOUS
10
87.1137659999999983
20
-51.8544699999999992
11
87.3384959999999921
21
-51.8900639999999953
0
LINE
8
Edge.Cuts
6
CONTINUOUS
10
85.6499999999999915
20
-53.4062470000000005
11
85.6832419999999928
21
-53.6161259999999942
0
LINE
8
Edge.Cuts
6
CONTINUOUS
10
85.6832419999999928
20
-53.6161259999999942
11
85.748905999999991
21
-53.8182199999999966
0
LINE
8
Edge.Cuts
6
CONTINUOUS
10
85.748905999999991
20
-53.8182199999999966
11
85.8453769999999992
21
-54.007553999999999
0
LINE
8
Edge.Cuts
6
CONTINUOUS
10
85.8453769999999992
20
-54.007553999999999
11
85.9702779999999933
21
-54.1794659999999979
0
LINE
8
Edge.Cuts
6
CONTINUOUS
10
85.9702779999999933
20
-54.1794659999999979
11
86.1205339999999921
21
-54.3297219999999967
0
LINE
8
Edge.Cuts
6
CONTINUOUS
10
86.1205339999999921
20
-54.3297219999999967
11
86.2924459999999982
21
-54.454622999999998
0
LINE
8
Edge.Cuts
6
CONTINUOUS
10
86.2924459999999982
20
-54.454622999999998
11
86.4817800000000005
21
-54.5510939999999991
0
LINE
8
Edge.Cuts
6
CONTINUOUS
10
86.4817800000000005
20
-54.5510939999999991
11
86.683874000000003
21
-54.6167579999999973
0
LINE
8
Edge.Cuts
6
CONTINUOUS
10
86.683874000000003
20
-54.6167579999999973
11
86.8937529999999896
21
-54.6499999999999986
0
LINE
8
Edge.Cuts
6
CONTINUOUS
10
86.8937529999999896
20
-54.6499999999999986
11
87.1062469999999962
21
-54.6499999999999986
0
LINE
8
Edge.Cuts
6
CONTINUOUS
10
87.1062469999999962
20
-54.6499999999999986
11
87.316125999999997
21
-54.6167579999999973
0
LINE
8
Edge.Cuts
6
CONTINUOUS
10
87.316125999999997
20
-54.6167579999999973
11
87.5182199999999995
21
-54.5510939999999991
0
LINE
8
Edge.Cuts
6
CONTINUOUS
10
87.5182199999999995
20
-54.5510939999999991
11
87.7075540000000018
21
-54.454622999999998
0
LINE
8
Edge.Cuts
6
CONTINUOUS
10
87.7075540000000018
20
-54.454622999999998
11
87.8794659999999936
21
-54.3297219999999967
0
LINE
8
Edge.Cuts
6
CONTINUOUS
10
87.8794659999999936
20
-54.3297219999999967
11
88.0297219999999925
21
-54.1794659999999979
0
LINE
8
Edge.Cuts
6
CONTINUOUS
10
88.0297219999999925
20
-54.1794659999999979
11
88.1546230000000008
21
-54.007553999999999
0
LINE
8
Edge.Cuts
6
CONTINUOUS
10
88.1546230000000008
20
-54.007553999999999
11
88.2510939999999948
21
-53.8182199999999966
0
LINE
8
Edge.Cuts
6
CONTINUOUS
10
88.2510939999999948
20
-53.8182199999999966
11
88.316757999999993
21
-53.6161259999999942
0
LINE
8
Edge.Cuts
6
CONTINUOUS
10
88.316757999999993
20
-53.6161259999999942
11
88.3499999999999943
21
-53.4062470000000005
0
LINE
8
Edge.Cuts
6
CONTINUOUS
10
88.3499999999999943
20
-53.4062470000000005
11
88.3499999999999943
21
-53.193753000000001
0
LINE
8
Edge.Cuts
6
CONTINUOUS
10
88.3499999999999943
20
-53.193753000000001
11
88.316757999999993
21
-52.9838740000000001
0
LINE
8
Edge.Cuts
6
CONTINUOUS
10
88.316757999999993
20
-52.9838740000000001
11
88.2510939999999948
21
-52.7817799999999977
0
LINE
8
Edge.Cuts
6
CONTINUOUS
10
88.2510939999999948
20
-52.7817799999999977
11
88.1546230000000008
21
-52.5924459999999954
0
LINE
8
Edge.Cuts
6
CONTINUOUS
10
88.1546230000000008
20
-52.5924459999999954
11
88.0297219999999925
21
-52.4205339999999964
0
LINE
8
Edge.Cuts
6
CONTINUOUS
10
88.0297219999999925
20
-52.4205339999999964
11
87.8794659999999936
21
-52.2702779999999976
0
LINE
8
Edge.Cuts
6
CONTINUOUS
10
87.8794659999999936
20
-52.2702779999999976
11
87.7075540000000018
21
-52.1453769999999963
0
LINE
8
Edge.Cuts
6
CONTINUOUS
10
87.7075540000000018
20
-52.1453769999999963
11
87.5182199999999995
21
-52.0489059999999952
0
LINE
8
Edge.Cuts
6
CONTINUOUS
10
87.5182199999999995
20
-52.0489059999999952
11
87.316125999999997
21
-51.9832419999999971
0
LINE
8
Edge.Cuts
6
CONTINUOUS
10
87.316125999999997
20
-51.9832419999999971
11
87.1062469999999962
21
-51.9499999999999957
0
LINE
8
Edge.Cuts
6
CONTINUOUS
10
87.1062469999999962
20
-51.9499999999999957
11
86.8937529999999896
21
-51.9499999999999957
0
LINE
8
Edge.Cuts
6
CONTINUOUS
10
86.8937529999999896
20
-51.9499999999999957
11
86.683874000000003
21
-51.9832419999999971
0
LINE
8
Edge.Cuts
6
CONTINUOUS
10
86.683874000000003
20
-51.9832419999999971
11
86.4817800000000005
21
-52.0489059999999952
0
LINE
8
Edge.Cuts
6
CONTINUOUS
10
86.4817800000000005
20
-52.0489059999999952
11
86.2924459999999982
21
-52.1453769999999963
0
LINE
8
Edge.Cuts
6
CONTINUOUS
10
86.2924459999999982
20
-52.1453769999999963
11
86.1205339999999921
21
-52.2702779999999976
0
LINE
8
Edge.Cuts
6
CONTINUOUS
10
86.1205339999999921
20
-52.2702779999999976
11
85.9702779999999933
21
-52.4205339999999964
0
LINE
8
Edge.Cuts
6
CONTINUOUS
10
85.9702779999999933
20
-52.4205339999999964
11
85.8453769999999992
21
-52.5924459999999954
0
LINE
8
Edge.Cuts
6
CONTINUOUS
10
85.8453769999999992
20
-52.5924459999999954
11
85.748905999999991
21
-52.7817799999999977
0
LINE
8
Edge.Cuts
6
CONTINUOUS
10
85.748905999999991
20
-52.7817799999999977
11
85.6832419999999928
21
-52.9838740000000001
0
LINE
8
Edge.Cuts
6
CONTINUOUS
10
85.6832419999999928
20
-52.9838740000000001
11
85.6499999999999915
21
-53.193753000000001
0
LINE
8
Edge.Cuts
6
CONTINUOUS
10
85.6499999999999915
20
-53.193753000000001
11
85.6499999999999915
21
-53.4062470000000005
0
LINE
8
Edge.Cuts
6
CONTINUOUS
10
135.5072339999999826
20
-39.5286399999999958
11
135.7191069999999797
21
-39.551719999999996
0
LINE
8
Edge.Cuts
6
CONTINUOUS
10
135.7191069999999797
20
-39.551719999999996
11
135.7196749999999952
21
-39.5520099999999957
0
LINE
8
Edge.Cuts
6
CONTINUOUS
10
135.7196749999999952
20
-39.5520099999999957
11
135.7220199999999863
21
-39.5522440000000017
0
LINE
8
Edge.Cuts
6
CONTINUOUS
10
135.7220199999999863
20
-39.5522440000000017
11
187.3033449999999789
21
-49.8763900000000007
0
LINE
8
Edge.Cuts
6
CONTINUOUS
10
187.3033449999999789
20
-49.8763900000000007
11
187.3048459999999977
21
-49.8768469999999979
0
LINE
8
Edge.Cuts
6
CONTINUOUS
10
187.3048459999999977
20
-49.8768469999999979
11
187.3052969999999959
21
-49.8768069999999994
0
LINE
8
Edge.Cuts
6
CONTINUOUS
10
187.3052969999999959
20
-49.8768069999999994
11
187.5509569999999826
21
-49.9491569999999996
0
LINE
8
Edge.Cuts
6
CONTINUOUS
10
187.5509569999999826
20
-49.9491569999999996
11
187.7858049999999821
21
-50.051286999999995
0
LINE
8
Edge.Cuts
6
CONTINUOUS
10
187.7858049999999821
20
-50.051286999999995
11
188.006243999999981
21
-50.1816339999999954
0
LINE
8
Edge.Cuts
6
CONTINUOUS
10
188.006243999999981
20
-50.1816339999999954
11
188.2089019999999948
21
-50.3382019999999955
0
LINE
8
Edge.Cuts
6
CONTINUOUS
10
188.2089019999999948
20
-50.3382019999999955
11
188.3906759999999849
21
-50.5185949999999977
0
LINE
8
Edge.Cuts
6
CONTINUOUS
10
188.3906759999999849
20
-50.5185949999999977
11
188.548784999999981
21
-50.7200539999999975
0
LINE
8
Edge.Cuts
6
CONTINUOUS
10
188.548784999999981
20
-50.7200539999999975
11
188.6808079999999848
21
-50.9394929999999988
0
LINE
8
Edge.Cuts
6
CONTINUOUS
10
188.6808079999999848
20
-50.9394929999999988
11
188.7847249999999804
21
-51.1735539999999958
0
LINE
8
Edge.Cuts
6
CONTINUOUS
10
188.7847249999999804
20
-51.1735539999999958
11
188.8589460000000031
21
-51.4186559999999986
0
LINE
8
Edge.Cuts
6
CONTINUOUS
10
188.8589460000000031
20
-51.4186559999999986
11
188.9023339999999962
21
-51.6710469999999944
0
LINE
8
Edge.Cuts
6
CONTINUOUS
10
188.9023339999999962
20
-51.6710469999999944
11
188.9140109999999879
21
-51.9222589999999968
0
LINE
8
Edge.Cuts
6
CONTINUOUS
10
188.9140109999999879
20
-51.9222589999999968
11
188.9142129999999895
21
-51.9238959999999992
0
LINE
8
Edge.Cuts
6
CONTINUOUS
10
188.9142129999999895
20
-51.9238959999999992
11
191.1004079999999874
21
-142.5084039999999845
0
LINE
8
Edge.Cuts
6
CONTINUOUS
10
191.1004079999999874
20
-142.5084039999999845
11
191.0993210000000033
21
-142.5230669999999975
0
LINE
8
Edge.Cuts
6
CONTINUOUS
10
191.0993210000000033
20
-142.5230669999999975
11
191.0939309999999978
21
-142.5370189999999866
0
LINE
8
Edge.Cuts
6
CONTINUOUS
10
191.0939309999999978
20
-142.5370189999999866
11
191.093277999999998
21
-142.542176999999981
0
LINE
8
Edge.Cuts
6
CONTINUOUS
10
191.093277999999998
20
-142.542176999999981
11
190.9974789999999985
21
-142.722219999999993
0
LINE
8
Edge.Cuts
6
CONTINUOUS
10
190.9974789999999985
20
-142.722219999999993
11
190.8846130000000016
21
-142.8920860000000062
0
LINE
8
Edge.Cuts
6
CONTINUOUS
10
190.8846130000000016
20
-142.8920860000000062
11
190.755753999999996
21
-143.0501620000000003
0
LINE
8
Edge.Cuts
6
CONTINUOUS
10
190.755753999999996
20
-143.0501620000000003
11
190.7552649999999801
21
-143.0504439999999988
0
LINE
8
Edge.Cuts
6
CONTINUOUS
10
190.7552649999999801
20
-143.0504439999999988
11
190.7539840000000027
21
-143.0520649999999989
0
LINE
8
Edge.Cuts
6
CONTINUOUS
10
190.7539840000000027
20
-143.0520649999999989
11
174.4979569999999853
21
-159.9070959999999957
0
LINE
8
Edge.Cuts
6
CONTINUOUS
10
174.4979569999999853
20
-159.9070959999999957
11
174.49580899999998
21
-159.9089239999999847
0
LINE
8
Edge.Cuts
6
CONTINUOUS
10
174.49580899999998
20
-159.9089239999999847
11
174.4954559999999901
21
-159.9095709999999997
0
LINE
8
Edge.Cuts
6
CONTINUOUS
10
174.4954559999999901
20
-159.9095709999999997
11
174.3161559999999781
21
-160.060436999999979
0
LINE
8
Edge.Cuts
6
CONTINUOUS
10
174.3161559999999781
20
-160.060436999999979
11
174.1208319999999787
21
-160.1898889999999938
0
LINE
8
Edge.Cuts
6
CONTINUOUS
10
174.1208319999999787
20
-160.1898889999999938
11
173.9120299999999872
21
-160.2962409999999807
0
LINE
8
Edge.Cuts
6
CONTINUOUS
10
173.9120299999999872
20
-160.2962409999999807
11
173.6924689999999885
21
-160.3781079999999974
0
LINE
8
Edge.Cuts
6
CONTINUOUS
10
173.6924689999999885
20
-160.3781079999999974
11
173.4650099999999782
21
-160.4344239999999786
0
LINE
8
Edge.Cuts
6
CONTINUOUS
10
173.4650099999999782
20
-160.4344239999999786
11
173.2326149999999814
21
-160.4644539999999893
0
LINE
8
Edge.Cuts
6
CONTINUOUS
10
173.2326149999999814
20
-160.4644539999999893
11
172.9983119999999985
21
-160.4678069999999934
0
LINE
8
Edge.Cuts
6
CONTINUOUS
10
172.9983119999999985
20
-160.4678069999999934
11
172.9979940000000056
21
-160.4676879999999812
0
LINE
8
Edge.Cuts
6
CONTINUOUS
10
172.9979940000000056
20
-160.4676879999999812
11
172.9974519999999814
21
-160.4677659999999833
0
LINE
8
Edge.Cuts
6
CONTINUOUS
10
172.9974519999999814
20
-160.4677659999999833
11
172.9829189999999812
21
-160.4655329999999935
0
LINE
8
Edge.Cuts
6
CONTINUOUS
10
172.9829189999999812
20
-160.4655329999999935
11
131.3725440000000049
21
-149.8132599999999854
0
LINE
8
Edge.Cuts
6
CONTINUOUS
10
131.3725440000000049
20
-149.8132599999999854
11
101.839855
21
-142.3381300000000067
0
LINE
8
Edge.Cuts
6
CONTINUOUS
10
101.839855
20
-142.3381300000000067
11
78.3088759999999979
21
-136.5988769999999874
0
LINE
8
Edge.Cuts
6
CONTINUOUS
10
78.3088759999999979
20
-136.5988769999999874
11
78.2950019999999967
21
-136.5940099999999973
0
LINE
8
Edge.Cuts
6
CONTINUOUS
10
78.2950019999999967
20
-136.5940099999999973
11
78.2713899999999967
21
-136.5767239999999845
0
LINE
8
Edge.Cuts
6
CONTINUOUS
10
78.2713899999999967
20
-136.5767239999999845
11
78.2561910000000012
21
-136.5517179999999939
0
LINE
8
Edge.Cuts
6
CONTINUOUS
10
78.2561910000000012
20
-136.5517179999999939
11
78.2540829999999943
21
-136.5380930000000035
0
LINE
8
Edge.Cuts
6
CONTINUOUS
10
78.2540829999999943
20
-136.5380930000000035
11
78.0765469999999908
21
-136.4379109999999855
0
LINE
8
Edge.Cuts
6
CONTINUOUS
10
78.0765469999999908
20
-136.4379109999999855
11
77.8650849999999934
21
-136.279720999999995
0
LINE
8
Edge.Cuts
6
CONTINUOUS
10
77.8650849999999934
20
-136.279720999999995
11
77.6756419999999963
21
-136.0957339999999931
0
LINE
8
Edge.Cuts
6
CONTINUOUS
10
77.6756419999999963
20
-136.0957339999999931
11
77.5113410000000016
21
-135.8889839999999936
0
LINE
8
Edge.Cuts
6
CONTINUOUS
10
77.5113410000000016
20
-135.8889839999999936
11
77.3748930000000001
21
-135.6628819999999962
0
LINE
8
Edge.Cuts
6
CONTINUOUS
10
77.3748930000000001
20
-135.6628819999999962
11
77.268548999999993
21
-135.4211569999999938
0
LINE
8
Edge.Cuts
6
CONTINUOUS
10
77.268548999999993
20
-135.4211569999999938
11
77.1940620000000024
21
-135.1677949999999839
0
LINE
8
Edge.Cuts
6
CONTINUOUS
10
77.1940620000000024
20
-135.1677949999999839
11
77.1531619999999947
21
-134.9101369999999918
0
LINE
8
Edge.Cuts
6
CONTINUOUS
10
77.1531619999999947
20
-134.9101369999999918
11
77.1529340000000019
21
-134.9094539999999824
0
LINE
8
Edge.Cuts
6
CONTINUOUS
10
77.1529340000000019
20
-134.9094539999999824
11
77.152906999999999
21
-134.9085330000000056
0
LINE
8
Edge.Cuts
6
CONTINUOUS
10
77.152906999999999
20
-134.9085330000000056
11
77.1526609999999948
21
-134.9069769999999835
0
LINE
8
Edge.Cuts
6
CONTINUOUS
10
77.1526609999999948
20
-134.9069769999999835
11
77.1528409999999951
21
-134.9061739999999929
0
LINE
8
Edge.Cuts
6
CONTINUOUS
10
77.1528409999999951
20
-134.9061739999999929
11
77.1525189999999981
21
-134.8947569999999985
0
LINE
8
Edge.Cuts
6
CONTINUOUS
10
77.1525189999999981
20
-134.8947569999999985
11
83.0251839999999959
21
-51.0935709999999972
0
LINE
8
Edge.Cuts
6
CONTINUOUS
10
83.0251839999999959
20
-51.0935709999999972
11
83.0276439999999951
21
-51.079074999999996
0
LINE
8
Edge.Cuts
6
CONTINUOUS
10
83.0276439999999951
20
-51.079074999999996
11
83.0407050000000027
21
-51.0528879999999958
0
LINE
8
Edge.Cuts
6
CONTINUOUS
10
83.0407050000000027
20
-51.0528879999999958
11
83.0627929999999992
21
-51.0336929999999995
0
LINE
8
Edge.Cuts
6
CONTINUOUS
10
83.0627929999999992
20
-51.0336929999999995
11
83.0905459999999891
21
-51.0244119999999981
0
LINE
8
Edge.Cuts
6
CONTINUOUS
10
83.0905459999999891
20
-51.0244119999999981
11
83.1147670000000005
21
-51.0261089999999982
0
LINE
8
Edge.Cuts
6
CONTINUOUS
10
83.1147670000000005
20
-51.0261089999999982
11
83.2230950000000007
21
-50.8025529999999961
0
LINE
8
Edge.Cuts
6
CONTINUOUS
10
83.2230950000000007
20
-50.8025529999999961
11
83.3642519999999934
21
-50.585721999999997
0
LINE
8
Edge.Cuts
6
CONTINUOUS
10
83.3642519999999934
20
-50.585721999999997
11
83.5315109999999947
21
-50.3883259999999993
0
LINE
8
Edge.Cuts
6
CONTINUOUS
10
83.5315109999999947
20
-50.3883259999999993
11
83.7222249999999946
21
-50.2134859999999961
0
LINE
8
Edge.Cuts
6
CONTINUOUS
10
83.7222249999999946
20
-50.2134859999999961
11
83.9333779999999905
21
-50.0639679999999956
0
LINE
8
Edge.Cuts
6
CONTINUOUS
10
83.9333779999999905
20
-50.0639679999999956
11
84.1616279999999932
21
-49.9421389999999974
0
LINE
8
Edge.Cuts
6
CONTINUOUS
10
84.1616279999999932
20
-49.9421389999999974
11
84.3962429999999983
21
-49.8526409999999984
0
LINE
8
Edge.Cuts
6
CONTINUOUS
10
84.3962429999999983
20
-49.8526409999999984
11
84.3966429999999974
21
-49.8523719999999955
0
LINE
8
Edge.Cuts
6
CONTINUOUS
10
84.3966429999999974
20
-49.8523719999999955
11
84.3982329999999905
21
-49.8518819999999963
0
LINE
8
Edge.Cuts
6
CONTINUOUS
10
84.3982329999999905
20
-49.8518819999999963
11
84.4033670000000029
21
-49.8499239999999944
0
LINE
8
Edge.Cuts
6
CONTINUOUS
10
84.4033670000000029
20
-49.8499239999999944
11
84.4045440000000013
21
-49.8499379999999945
0
LINE
8
Edge.Cuts
6
CONTINUOUS
10
84.4045440000000013
20
-49.8499379999999945
11
84.4106949999999898
21
-49.848044999999999
0
LINE
8
Edge.Cuts
6
CONTINUOUS
10
84.4106949999999898
20
-49.848044999999999
11
135.0773299999999892
21
-39.5465480000000014
0
LINE
8
Edge.Cuts
6
CONTINUOUS
10
135.0773299999999892
20
-39.5465480000000014
11
135.0810400000000016
21
-39.5461659999999995
0
LINE
8
Edge.Cuts
6
CONTINUOUS
10
135.0810400000000016
20
-39.5461659999999995
11
135.0818500000000029
21
-39.5457719999999995
0
LINE
8
Edge.Cuts
6
CONTINUOUS
10
135.0818500000000029
20
-39.5457719999999995
11
135.294117
21
-39.5266510000000011
0
LINE
8
Edge.Cuts
6
CONTINUOUS
10
135.294117
20
-39.5266510000000011
11
135.5072339999999826
21
-39.5286399999999958
0
LINE
8
Edge.Cuts
6
CONTINUOUS
10
135.2009809999999845
20
-39.680495999999998
11
135.1049759999999935
21
-39.693995000000001
0
LINE
8
Edge.Cuts
6
CONTINUOUS
10
135.1049759999999935
20
-39.693995000000001
11
84.4442979999999892
21
-49.9942810000000009
0
LINE
8
Edge.Cuts
6
CONTINUOUS
10
84.4442979999999892
20
-49.9942810000000009
11
84.3331639999999965
21
-50.028852999999998
0
LINE
8
Edge.Cuts
6
CONTINUOUS
10
84.3331639999999965
20
-50.028852999999998
11
84.1144419999999968
21
-50.128464000000001
0
LINE
8
Edge.Cuts
6
CONTINUOUS
10
84.1144419999999968
20
-50.128464000000001
11
83.9099530000000016
21
-50.2547429999999977
0
LINE
8
Edge.Cuts
6
CONTINUOUS
10
83.9099530000000016
20
-50.2547429999999977
11
83.7229320000000001
21
-50.4056919999999948
0
LINE
8
Edge.Cuts
6
CONTINUOUS
10
83.7229320000000001
20
-50.4056919999999948
11
83.5563399999999916
21
-50.5789229999999961
0
LINE
8
Edge.Cuts
6
CONTINUOUS
10
83.5563399999999916
20
-50.5789229999999961
11
83.4128089999999958
21
-50.7716959999999986
0
LINE
8
Edge.Cuts
6
CONTINUOUS
10
83.4128089999999958
20
-50.7716959999999986
11
83.2946129999999982
21
-50.9809599999999961
0
LINE
8
Edge.Cuts
6
CONTINUOUS
10
83.2946129999999982
20
-50.9809599999999961
11
83.2036190000000033
21
-51.2034060000000011
0
LINE
8
Edge.Cuts
6
CONTINUOUS
10
83.2036190000000033
20
-51.2034060000000011
11
83.1724320000000006
21
-51.3194569999999999
0
LINE
8
Edge.Cuts
6
CONTINUOUS
10
83.1724320000000006
20
-51.3194569999999999
11
83.1581860000000006
21
-51.3413619999999966
0
LINE
8
Edge.Cuts
6
CONTINUOUS
10
83.1581860000000006
20
-51.3413619999999966
11
77.3025810000000035
21
-134.899123000000003
0
LINE
8
Edge.Cuts
6
CONTINUOUS
10
77.3025810000000035
20
-134.899123000000003
11
77.3134390000000025
21
-135.015151000000003
0
LINE
8
Edge.Cuts
6
CONTINUOUS
10
77.3134390000000025
20
-135.015151000000003
11
77.3673780000000022
21
-135.2544709999999952
0
LINE
8
Edge.Cuts
6
CONTINUOUS
10
77.3673780000000022
20
-135.2544709999999952
11
77.4515439999999984
21
-135.4849049999999977
0
LINE
8
Edge.Cuts
6
CONTINUOUS
10
77.4515439999999984
20
-135.4849049999999977
11
77.5645489999999995
21
-135.702651000000003
0
LINE
8
Edge.Cuts
6
CONTINUOUS
10
77.5645489999999995
20
-135.702651000000003
11
77.7045299999999912
21
-135.9041179999999827
0
LINE
8
Edge.Cuts
6
CONTINUOUS
10
77.7045299999999912
20
-135.9041179999999827
11
77.8691769999999934
21
-136.0859829999999988
0
LINE
8
Edge.Cuts
6
CONTINUOUS
10
77.8691769999999934
20
-136.0859829999999988
11
78.055774999999997
21
-136.2452459999999803
0
LINE
8
Edge.Cuts
6
CONTINUOUS
10
78.055774999999997
20
-136.2452459999999803
11
78.2612459999999999
21
-136.3792809999999918
0
LINE
8
Edge.Cuts
6
CONTINUOUS
10
78.2612459999999999
20
-136.3792809999999918
11
78.3717159999999922
21
-136.4325939999999946
0
LINE
8
Edge.Cuts
6
CONTINUOUS
10
78.3717159999999922
20
-136.4325939999999946
11
78.4051970000000011
21
-136.464650000000006
0
LINE
8
Edge.Cuts
6
CONTINUOUS
10
78.4051970000000011
20
-136.464650000000006
11
78.405824999999993
21
-136.4681249999999864
0
LINE
8
Edge.Cuts
6
CONTINUOUS
10
78.405824999999993
20
-136.4681249999999864
11
101.8756939999999958
21
-142.1924740000000043
0
LINE
8
Edge.Cuts
6
CONTINUOUS
10
101.8756939999999958
20
-142.1924740000000043
11
101.8760029999999972
21
-142.1925819999999874
0
LINE
8
Edge.Cuts
6
CONTINUOUS
10
101.8760029999999972
20
-142.1925819999999874
11
101.8763249999999942
21
-142.1926310000000058
0
LINE
8
Edge.Cuts
6
CONTINUOUS
10
101.8763249999999942
20
-142.1926310000000058
11
131.40949999999998
21
-149.6678839999999866
0
LINE
8
Edge.Cuts
6
CONTINUOUS
10
131.40949999999998
20
-149.6678839999999866
11
131.4095949999999959
21
-149.667917999999986
0
LINE
8
Edge.Cuts
6
CONTINUOUS
10
131.4095949999999959
20
-149.667917999999986
11
131.4096969999999942
21
-149.6679340000000025
0
LINE
8
Edge.Cuts
6
CONTINUOUS
10
131.4096969999999942
20
-149.6679340000000025
11
173.0125449999999887
21
-160.3182789999999898
0
LINE
8
Edge.Cuts
6
CONTINUOUS
10
173.0125449999999887
20
-160.3182789999999898
11
173.1134089999999901
21
-160.3225999999999942
0
LINE
8
Edge.Cuts
6
CONTINUOUS
10
173.1134089999999901
20
-160.3225999999999942
11
173.3304169999999829
21
-160.3070769999999925
0
LINE
8
Edge.Cuts
6
CONTINUOUS
10
173.3304169999999829
20
-160.3070769999999925
11
173.544241999999997
21
-160.2669279999999787
0
LINE
8
Edge.Cuts
6
CONTINUOUS
10
173.544241999999997
20
-160.2669279999999787
11
173.752098999999987
21
-160.2026749999999993
0
LINE
8
Edge.Cuts
6
CONTINUOUS
10
173.752098999999987
20
-160.2026749999999993
11
173.9512809999999945
21
-160.1151559999999847
0
LINE
8
Edge.Cuts
6
CONTINUOUS
10
173.9512809999999945
20
-160.1151559999999847
11
174.1391930000000059
21
-160.0055109999999843
0
LINE
8
Edge.Cuts
6
CONTINUOUS
10
174.1391930000000059
20
-160.0055109999999843
11
174.3133880000000033
21
-159.8751670000000047
0
LINE
8
Edge.Cuts
6
CONTINUOUS
10
174.3133880000000033
20
-159.8751670000000047
11
174.391194999999982
21
-159.801714000000004
0
LINE
8
Edge.Cuts
6
CONTINUOUS
10
174.391194999999982
20
-159.801714000000004
11
190.6450920000000053
21
-142.9488929999999982
0
LINE
8
Edge.Cuts
6
CONTINUOUS
10
190.6450920000000053
20
-142.9488929999999982
11
190.7076619999999991
21
-142.879400000000004
0
LINE
8
Edge.Cuts
6
CONTINUOUS
10
190.7076619999999991
20
-142.879400000000004
11
190.820132000000001
21
-142.7268129999999928
0
LINE
8
Edge.Cuts
6
CONTINUOUS
10
190.820132000000001
20
-142.7268129999999928
11
190.9172209999999836
21
-142.5640070000000037
0
LINE
8
Edge.Cuts
6
CONTINUOUS
10
190.9172209999999836
20
-142.5640070000000037
11
190.9500239999999849
21
-142.4943079999999895
0
LINE
8
Edge.Cuts
6
CONTINUOUS
10
190.9500239999999849
20
-142.4943079999999895
11
188.7642569999999864
21
-51.9275159999999971
0
LINE
8
Edge.Cuts
6
CONTINUOUS
10
188.7642569999999864
20
-51.9275159999999971
11
188.7644310000000019
21
-51.9251569999999987
0
LINE
8
Edge.Cuts
6
CONTINUOUS
10
188.7644310000000019
20
-51.9251569999999987
11
188.7642439999999908
21
-51.9245479999999944
0
LINE
8
Edge.Cuts
6
CONTINUOUS
10
188.7642439999999908
20
-51.9245479999999944
11
188.7662939999999878
21
-51.7936309999999978
0
LINE
8
Edge.Cuts
6
CONTINUOUS
10
188.7662939999999878
20
-51.7936309999999978
11
188.7347560000000044
21
-51.5336719999999957
0
LINE
8
Edge.Cuts
6
CONTINUOUS
10
188.7347560000000044
20
-51.5336719999999957
11
188.6682209999999884
21
-51.2804009999999977
0
LINE
8
Edge.Cuts
6
CONTINUOUS
10
188.6682209999999884
20
-51.2804009999999977
11
188.5679189999999892
21
-51.0385059999999982
0
LINE
8
Edge.Cuts
6
CONTINUOUS
10
188.5679189999999892
20
-51.0385059999999982
11
188.4357080000000053
21
-50.8124669999999981
0
LINE
8
Edge.Cuts
6
CONTINUOUS
10
188.4357080000000053
20
-50.8124669999999981
11
188.2740359999999953
21
-50.606468999999997
0
LINE
8
Edge.Cuts
6
CONTINUOUS
10
188.2740359999999953
20
-50.606468999999997
11
188.0858949999999936
21
-50.4243239999999986
0
LINE
8
Edge.Cuts
6
CONTINUOUS
10
188.0858949999999936
20
-50.4243239999999986
11
187.8747699999999838
21
-50.2694059999999965
0
LINE
8
Edge.Cuts
6
CONTINUOUS
10
187.8747699999999838
20
-50.2694059999999965
11
187.64456899999999
21
-50.1445829999999972
0
LINE
8
Edge.Cuts
6
CONTINUOUS
10
187.64456899999999
20
-50.1445829999999972
11
187.3995539999999949
21
-50.0521659999999997
0
LINE
8
Edge.Cuts
6
CONTINUOUS
10
187.3995539999999949
20
-50.0521659999999997
11
187.2728899999999896
21
-50.0232679999999945
0
LINE
8
Edge.Cuts
6
CONTINUOUS
10
187.2728899999999896
20
-50.0232679999999945
11
135.6940329999999904
21
-39.6996159999999989
0
LINE
8
Edge.Cuts
6
CONTINUOUS
10
135.6940329999999904
20
-39.6996159999999989
11
135.5974829999999827
21
-39.6841969999999975
0
LINE
8
Edge.Cuts
6
CONTINUOUS
10
135.5974829999999827
20
-39.6841969999999975
11
135.3993240000000071
21
-39.6725080000000005
0
LINE
8
Edge.Cuts
6
CONTINUOUS
10
135.3993240000000071
20
-39.6725080000000005
11
135.2009809999999845
21
-39.680495999999998
  0
ENDSEC
  0
EOF
