  0
SECTION
  2
HEADER
  9
$ANGBASE
  50
0.0
  9
$ANGDIR
  70
1
  9
$MEASUREMENT
  70
1
  9
$INSUNITS
  70
4
  0
ENDSEC
  0
SECTION
  2
TABLES
  0
TABLE
  2
LTYPE
  70
4
  0
LTYPE
  5
40F
  2
CONTINUOUS
  70
0
  3
Solid line
  72
65
  73
0
  40
0.0
  0
LTYPE
  5
410
  2
DASHDOT
 70
0
  3
Dash Dot ____ _ ____ _
 72
65
 73
4
 40
2.0
 49
1.25
 49
-0.25
 49
0.25
 49
-0.25
  0
LTYPE
  5
411
  2
DASHED
 70
0
  3
Dashed __ __ __ __ __
 72
65
 73
2
 40
0.75
 49
0.5
 49
-0.25
  0
LTYPE
  5
43B
  2
DOTTED
 70
0
  3
Dotted .  .  .  .
 72
65
 73
2
 40
0.2
 49
0.0
 49
-0.2
  0
ENDTAB
  0
TABLE
  2
STYLE
  70
4
  0
STYLE
  2
KICAD
  70
0
  40
0
  41
1
  42
1
  50
0
  71
0
  3
isocp.shx
  0
STYLE
  2
KICADB
  70
0
  40
0
  41
1
  42
1
  50
0
  71
0
  3
isocp.shx
  0
STYLE
  2
KICADI
  70
0
  40
0
  41
1
  42
1
  50
15
  71
0
  3
isocp.shx
  0
STYLE
  2
KICADBI
  70
0
  40
0
  41
1
  42
1
  50
15
  71
0
  3
isocp.shx
  0
ENDTAB
  0
TABLE
  2
LAYER
  70
1
  0
LAYER
  2
Edge.Cuts
  70
0
  62
254
  420
13685453
  6
CONTINUOUS
  0
ENDTAB
  0
ENDSEC
  0
SECTION
  2
ENTITIES
0
LINE
8
Edge.Cuts
6
CONTINUOUS
10
176.8176100000000019
20
-133.6510969999999929
11
176.8340179999999862
21
-133.6616510000000062
0
LINE
8
Edge.Cuts
6
CONTINUOUS
10
176.8340179999999862
20
-133.6616510000000062
11
186.9047750000000008
21
-143.3868679999999927
0
LINE
8
Edge.Cuts
6
CONTINUOUS
10
186.9047750000000008
20
-143.3868679999999927
11
186.9158919999999853
21
-143.4028940000000034
0
LINE
8
Edge.Cuts
6
CONTINUOUS
10
186.9158919999999853
20
-143.4028940000000034
11
186.9158949999999777
21
-143.4028969999999958
0
LINE
8
Edge.Cuts
6
CONTINUOUS
10
186.9158949999999777
20
-143.4028969999999958
11
186.9165629999999965
21
-143.4411599999999964
0
LINE
8
Edge.Cuts
6
CONTINUOUS
10
186.9165629999999965
20
-143.4411599999999964
11
186.9060089999999832
21
-143.4575679999999807
0
LINE
8
Edge.Cuts
6
CONTINUOUS
10
186.9060089999999832
20
-143.4575679999999807
11
177.1807919999999967
21
-153.5283249999999953
0
LINE
8
Edge.Cuts
6
CONTINUOUS
10
177.1807919999999967
20
-153.5283249999999953
11
177.1647629999999936
21
-153.5394450000000006
0
LINE
8
Edge.Cuts
6
CONTINUOUS
10
177.1647629999999936
20
-153.5394450000000006
11
177.126499999999993
21
-153.540112999999991
0
LINE
8
Edge.Cuts
6
CONTINUOUS
10
177.126499999999993
20
-153.540112999999991
11
177.1100919999999803
21
-153.5295590000000061
0
LINE
8
Edge.Cuts
6
CONTINUOUS
10
177.1100919999999803
20
-153.5295590000000061
11
167.0393349999999941
21
-143.8043419999999912
0
LINE
8
Edge.Cuts
6
CONTINUOUS
10
167.0393349999999941
20
-143.8043419999999912
11
167.0282149999999888
21
-143.7883129999999881
0
LINE
8
Edge.Cuts
6
CONTINUOUS
10
167.0282149999999888
20
-143.7883129999999881
11
167.0275469999999984
21
-143.7500499999999874
0
LINE
8
Edge.Cuts
6
CONTINUOUS
10
167.0275469999999984
20
-143.7500499999999874
11
167.0381009999999833
21
-143.7336420000000032
0
LINE
8
Edge.Cuts
6
CONTINUOUS
10
167.0381009999999833
20
-143.7336420000000032
11
176.7633179999999982
21
-133.6628849999999886
0
LINE
8
Edge.Cuts
6
CONTINUOUS
10
176.7633179999999982
20
-133.6628849999999886
11
176.7793439999999805
21
-133.6517670000000066
0
LINE
8
Edge.Cuts
6
CONTINUOUS
10
176.7793439999999805
20
-133.6517670000000066
11
176.7793470000000013
21
-133.6517649999999833
0
LINE
8
Edge.Cuts
6
CONTINUOUS
10
176.7793470000000013
20
-133.6517649999999833
11
176.8176100000000019
21
-133.6510969999999929
0
LINE
8
Edge.Cuts
6
CONTINUOUS
10
167.1447670000000016
20
-143.7671399999999835
11
177.143589999999989
21
-153.4228919999999903
0
LINE
8
Edge.Cuts
6
CONTINUOUS
10
177.143589999999989
20
-153.4228919999999903
11
186.7993419999999958
21
-143.4240690000000029
0
LINE
8
Edge.Cuts
6
CONTINUOUS
10
186.7993419999999958
20
-143.4240690000000029
11
176.80051899999998
21
-133.7683169999999961
0
LINE
8
Edge.Cuts
6
CONTINUOUS
10
176.80051899999998
20
-133.7683169999999961
11
167.1447670000000016
21
-143.7671399999999835
0
LINE
8
Edge.Cuts
6
CONTINUOUS
10
151.7918070000000057
20
-143.5845379999999807
11
151.9783539999999959
21
-143.6451509999999985
0
LINE
8
Edge.Cuts
6
CONTINUOUS
10
151.9783539999999959
20
-143.6451509999999985
11
152.1531229999999937
21
-143.7341999999999871
0
LINE
8
Edge.Cuts
6
CONTINUOUS
10
152.1531229999999937
20
-143.7341999999999871
11
152.3118099999999799
21
-143.8494929999999954
0
LINE
8
Edge.Cuts
6
CONTINUOUS
10
152.3118099999999799
20
-143.8494929999999954
11
152.4505069999999876
21
-143.988190000000003
0
LINE
8
Edge.Cuts
6
CONTINUOUS
10
152.4505069999999876
20
-143.988190000000003
11
152.5657999999999959
21
-144.1468769999999893
0
LINE
8
Edge.Cuts
6
CONTINUOUS
10
152.5657999999999959
20
-144.1468769999999893
11
152.6548489999999845
21
-144.321645999999987
0
LINE
8
Edge.Cuts
6
CONTINUOUS
10
152.6548489999999845
20
-144.321645999999987
11
152.7154620000000023
21
-144.5081930000000057
0
LINE
8
Edge.Cuts
6
CONTINUOUS
10
152.7154620000000023
20
-144.5081930000000057
11
152.7461469999999792
21
-144.7019259999999861
0
LINE
8
Edge.Cuts
6
CONTINUOUS
10
152.7461469999999792
20
-144.7019259999999861
11
152.7461469999999792
21
-144.8980739999999798
0
LINE
8
Edge.Cuts
6
CONTINUOUS
10
152.7461469999999792
20
-144.8980739999999798
11
152.7154620000000023
21
-145.0918069999999886
0
LINE
8
Edge.Cuts
6
CONTINUOUS
10
152.7154620000000023
20
-145.0918069999999886
11
152.6548489999999845
21
-145.2783540000000073
0
LINE
8
Edge.Cuts
6
CONTINUOUS
10
152.6548489999999845
20
-145.2783540000000073
11
152.5657999999999959
21
-145.453123000000005
0
LINE
8
Edge.Cuts
6
CONTINUOUS
10
152.5657999999999959
20
-145.453123000000005
11
152.4505069999999876
21
-145.6118099999999913
0
LINE
8
Edge.Cuts
6
CONTINUOUS
10
152.4505069999999876
20
-145.6118099999999913
11
152.3118099999999799
21
-145.7505069999999989
0
LINE
8
Edge.Cuts
6
CONTINUOUS
10
152.3118099999999799
20
-145.7505069999999989
11
152.1531229999999937
21
-145.8658000000000072
0
LINE
8
Edge.Cuts
6
CONTINUOUS
10
152.1531229999999937
20
-145.8658000000000072
11
151.9783539999999959
21
-145.9548489999999958
0
LINE
8
Edge.Cuts
6
CONTINUOUS
10
151.9783539999999959
20
-145.9548489999999958
11
151.7918070000000057
21
-146.0154619999999852
0
LINE
8
Edge.Cuts
6
CONTINUOUS
10
151.7918070000000057
20
-146.0154619999999852
11
151.5980739999999969
21
-146.0461469999999906
0
LINE
8
Edge.Cuts
6
CONTINUOUS
10
151.5980739999999969
20
-146.0461469999999906
11
151.4019260000000031
21
-146.0461469999999906
0
LINE
8
Edge.Cuts
6
CONTINUOUS
10
151.4019260000000031
20
-146.0461469999999906
11
151.2081929999999943
21
-146.0154619999999852
0
LINE
8
Edge.Cuts
6
CONTINUOUS
10
151.2081929999999943
20
-146.0154619999999852
11
151.0216460000000041
21
-145.9548489999999958
0
LINE
8
Edge.Cuts
6
CONTINUOUS
10
151.0216460000000041
20
-145.9548489999999958
11
150.8468770000000063
21
-145.8658000000000072
0
LINE
8
Edge.Cuts
6
CONTINUOUS
10
150.8468770000000063
20
-145.8658000000000072
11
150.6881899999999916
21
-145.7505069999999989
0
LINE
8
Edge.Cuts
6
CONTINUOUS
10
150.6881899999999916
20
-145.7505069999999989
11
150.549492999999984
21
-145.6118099999999913
0
LINE
8
Edge.Cuts
6
CONTINUOUS
10
150.549492999999984
20
-145.6118099999999913
11
150.4342000000000041
21
-145.453123000000005
0
LINE
8
Edge.Cuts
6
CONTINUOUS
10
150.4342000000000041
20
-145.453123000000005
11
150.3451509999999871
21
-145.2783540000000073
0
LINE
8
Edge.Cuts
6
CONTINUOUS
10
150.3451509999999871
20
-145.2783540000000073
11
150.2845379999999977
21
-145.0918069999999886
0
LINE
8
Edge.Cuts
6
CONTINUOUS
10
150.2845379999999977
20
-145.0918069999999886
11
150.2538529999999923
21
-144.8980739999999798
0
LINE
8
Edge.Cuts
6
CONTINUOUS
10
150.2538529999999923
20
-144.8980739999999798
11
150.2538529999999923
21
-144.7094929999999806
0
LINE
8
Edge.Cuts
6
CONTINUOUS
10
150.2538529999999923
20
-144.7094929999999806
11
150.2538529999999923
21
-144.7019259999999861
0
LINE
8
Edge.Cuts
6
CONTINUOUS
10
150.2538529999999923
20
-144.7019259999999861
11
150.2845379999999977
21
-144.5081930000000057
0
LINE
8
Edge.Cuts
6
CONTINUOUS
10
150.2845379999999977
20
-144.5081930000000057
11
150.3451509999999871
21
-144.321645999999987
0
LINE
8
Edge.Cuts
6
CONTINUOUS
10
150.3451509999999871
20
-144.321645999999987
11
150.4342000000000041
21
-144.1468769999999893
0
LINE
8
Edge.Cuts
6
CONTINUOUS
10
150.4342000000000041
20
-144.1468769999999893
11
150.549492999999984
21
-143.988190000000003
0
LINE
8
Edge.Cuts
6
CONTINUOUS
10
150.549492999999984
20
-143.988190000000003
11
150.6881899999999916
21
-143.8494929999999954
0
LINE
8
Edge.Cuts
6
CONTINUOUS
10
150.6881899999999916
20
-143.8494929999999954
11
150.8468770000000063
21
-143.7341999999999871
0
LINE
8
Edge.Cuts
6
CONTINUOUS
10
150.8468770000000063
20
-143.7341999999999871
11
151.0216460000000041
21
-143.6451509999999985
0
LINE
8
Edge.Cuts
6
CONTINUOUS
10
151.0216460000000041
20
-143.6451509999999985
11
151.2081929999999943
21
-143.5845379999999807
0
LINE
8
Edge.Cuts
6
CONTINUOUS
10
151.2081929999999943
20
-143.5845379999999807
11
151.4019260000000031
21
-143.5538530000000037
0
LINE
8
Edge.Cuts
6
CONTINUOUS
10
151.4019260000000031
20
-143.5538530000000037
11
151.5980739999999969
21
-143.5538530000000037
0
LINE
8
Edge.Cuts
6
CONTINUOUS
10
151.5980739999999969
20
-143.5538530000000037
11
151.7918070000000057
21
-143.5845379999999807
0
LINE
8
Edge.Cuts
6
CONTINUOUS
10
150.3499999999999943
20
-144.8905069999999853
11
150.3783169999999814
21
-145.0692919999999901
0
LINE
8
Edge.Cuts
6
CONTINUOUS
10
150.3783169999999814
20
-145.0692919999999901
11
150.434252999999984
21
-145.2414469999999937
0
LINE
8
Edge.Cuts
6
CONTINUOUS
10
150.434252999999984
20
-145.2414469999999937
11
150.5164319999999805
21
-145.4027309999999886
0
LINE
8
Edge.Cuts
6
CONTINUOUS
10
150.5164319999999805
20
-145.4027309999999886
11
150.6228289999999959
21
-145.5491749999999911
0
LINE
8
Edge.Cuts
6
CONTINUOUS
10
150.6228289999999959
20
-145.5491749999999911
11
150.7508249999999919
21
-145.6771709999999871
0
LINE
8
Edge.Cuts
6
CONTINUOUS
10
150.7508249999999919
20
-145.6771709999999871
11
150.8972689999999943
21
-145.7835680000000025
0
LINE
8
Edge.Cuts
6
CONTINUOUS
10
150.8972689999999943
20
-145.7835680000000025
11
151.0585529999999892
21
-145.8657469999999989
0
LINE
8
Edge.Cuts
6
CONTINUOUS
10
151.0585529999999892
20
-145.8657469999999989
11
151.2307079999999928
21
-145.9216830000000016
0
LINE
8
Edge.Cuts
6
CONTINUOUS
10
151.2307079999999928
20
-145.9216830000000016
11
151.4094929999999977
21
-145.9499999999999886
0
LINE
8
Edge.Cuts
6
CONTINUOUS
10
151.4094929999999977
20
-145.9499999999999886
11
151.5905070000000023
21
-145.9499999999999886
0
LINE
8
Edge.Cuts
6
CONTINUOUS
10
151.5905070000000023
20
-145.9499999999999886
11
151.7692920000000072
21
-145.9216830000000016
0
LINE
8
Edge.Cuts
6
CONTINUOUS
10
151.7692920000000072
20
-145.9216830000000016
11
151.9414469999999824
21
-145.8657469999999989
0
LINE
8
Edge.Cuts
6
CONTINUOUS
10
151.9414469999999824
20
-145.8657469999999989
11
152.1027310000000057
21
-145.7835680000000025
0
LINE
8
Edge.Cuts
6
CONTINUOUS
10
152.1027310000000057
20
-145.7835680000000025
11
152.2491749999999797
21
-145.6771709999999871
0
LINE
8
Edge.Cuts
6
CONTINUOUS
10
152.2491749999999797
20
-145.6771709999999871
11
152.3771710000000041
21
-145.5491749999999911
0
LINE
8
Edge.Cuts
6
CONTINUOUS
10
152.3771710000000041
20
-145.5491749999999911
11
152.4835679999999911
21
-145.4027309999999886
0
LINE
8
Edge.Cuts
6
CONTINUOUS
10
152.4835679999999911
20
-145.4027309999999886
11
152.5657469999999876
21
-145.2414469999999937
0
LINE
8
Edge.Cuts
6
CONTINUOUS
10
152.5657469999999876
20
-145.2414469999999937
11
152.6216829999999902
21
-145.0692919999999901
0
LINE
8
Edge.Cuts
6
CONTINUOUS
10
152.6216829999999902
20
-145.0692919999999901
11
152.6500000000000057
21
-144.8905069999999853
0
LINE
8
Edge.Cuts
6
CONTINUOUS
10
152.6500000000000057
20
-144.8905069999999853
11
152.6500000000000057
21
-144.7094929999999806
0
LINE
8
Edge.Cuts
6
CONTINUOUS
10
152.6500000000000057
20
-144.7094929999999806
11
152.6216829999999902
21
-144.5307080000000042
0
LINE
8
Edge.Cuts
6
CONTINUOUS
10
152.6216829999999902
20
-144.5307080000000042
11
152.5657469999999876
21
-144.3585530000000006
0
LINE
8
Edge.Cuts
6
CONTINUOUS
10
152.5657469999999876
20
-144.3585530000000006
11
152.4835679999999911
21
-144.1972690000000057
0
LINE
8
Edge.Cuts
6
CONTINUOUS
10
152.4835679999999911
20
-144.1972690000000057
11
152.3771710000000041
21
-144.0508250000000032
0
LINE
8
Edge.Cuts
6
CONTINUOUS
10
152.3771710000000041
20
-144.0508250000000032
11
152.2491749999999797
21
-143.9228290000000072
0
LINE
8
Edge.Cuts
6
CONTINUOUS
10
152.2491749999999797
20
-143.9228290000000072
11
152.1027310000000057
21
-143.8164319999999918
0
LINE
8
Edge.Cuts
6
CONTINUOUS
10
152.1027310000000057
20
-143.8164319999999918
11
151.9414469999999824
21
-143.7342529999999954
0
LINE
8
Edge.Cuts
6
CONTINUOUS
10
151.9414469999999824
20
-143.7342529999999954
11
151.7692920000000072
21
-143.6783169999999927
0
LINE
8
Edge.Cuts
6
CONTINUOUS
10
151.7692920000000072
20
-143.6783169999999927
11
151.5905070000000023
21
-143.6500000000000057
0
LINE
8
Edge.Cuts
6
CONTINUOUS
10
151.5905070000000023
20
-143.6500000000000057
11
151.4094929999999977
21
-143.6500000000000057
0
LINE
8
Edge.Cuts
6
CONTINUOUS
10
151.4094929999999977
20
-143.6500000000000057
11
151.2307079999999928
21
-143.6783169999999927
0
LINE
8
Edge.Cuts
6
CONTINUOUS
10
151.2307079999999928
20
-143.6783169999999927
11
151.0585529999999892
21
-143.7342529999999954
0
LINE
8
Edge.Cuts
6
CONTINUOUS
10
151.0585529999999892
20
-143.7342529999999954
11
150.8972689999999943
21
-143.8164319999999918
0
LINE
8
Edge.Cuts
6
CONTINUOUS
10
150.8972689999999943
20
-143.8164319999999918
11
150.7508249999999919
21
-143.9228290000000072
0
LINE
8
Edge.Cuts
6
CONTINUOUS
10
150.7508249999999919
20
-143.9228290000000072
11
150.6228289999999959
21
-144.0508250000000032
0
LINE
8
Edge.Cuts
6
CONTINUOUS
10
150.6228289999999959
20
-144.0508250000000032
11
150.5164319999999805
21
-144.1972690000000057
0
LINE
8
Edge.Cuts
6
CONTINUOUS
10
150.5164319999999805
20
-144.1972690000000057
11
150.434252999999984
21
-144.3585530000000006
0
LINE
8
Edge.Cuts
6
CONTINUOUS
10
150.434252999999984
20
-144.3585530000000006
11
150.3783169999999814
21
-144.5307080000000042
0
LINE
8
Edge.Cuts
6
CONTINUOUS
10
150.3783169999999814
20
-144.5307080000000042
11
150.3499999999999943
21
-144.7094929999999806
0
LINE
8
Edge.Cuts
6
CONTINUOUS
10
150.3499999999999943
20
-144.7094929999999806
11
150.3499999999999943
21
-144.8905069999999853
0
LINE
8
Edge.Cuts
6
CONTINUOUS
10
155.6146349999999927
20
-120.985406999999995
11
155.6333149999999819
21
-120.991029999999995
0
LINE
8
Edge.Cuts
6
CONTINUOUS
10
155.6333149999999819
20
-120.991029999999995
11
167.9945809999999824
21
-127.5636319999999984
0
LINE
8
Edge.Cuts
6
CONTINUOUS
10
167.9945809999999824
20
-127.5636319999999984
11
168.0096879999999828
21
-127.5759749999999997
0
LINE
8
Edge.Cuts
6
CONTINUOUS
10
168.0096879999999828
20
-127.5759749999999997
11
168.0208769999999845
21
-127.6125709999999884
0
LINE
8
Edge.Cuts
6
CONTINUOUS
10
168.0208769999999845
20
-127.6125709999999884
11
168.0152539999999988
21
-127.6312519999999893
0
LINE
8
Edge.Cuts
6
CONTINUOUS
10
168.0152539999999988
20
-127.6312519999999893
11
161.4426519999999812
21
-139.9925189999999873
0
LINE
8
Edge.Cuts
6
CONTINUOUS
10
161.4426519999999812
20
-139.9925189999999873
11
161.4303089999999941
21
-140.0076259999999877
0
LINE
8
Edge.Cuts
6
CONTINUOUS
10
161.4303089999999941
20
-140.0076259999999877
11
161.3937129999999911
21
-140.0188149999999894
0
LINE
8
Edge.Cuts
6
CONTINUOUS
10
161.3937129999999911
20
-140.0188149999999894
11
161.3750320000000045
21
-140.0131920000000036
0
LINE
8
Edge.Cuts
6
CONTINUOUS
10
161.3750320000000045
20
-140.0131920000000036
11
149.0137650000000065
21
-133.440589999999986
0
LINE
8
Edge.Cuts
6
CONTINUOUS
10
149.0137650000000065
20
-133.440589999999986
11
148.998658000000006
21
-133.4282469999999989
0
LINE
8
Edge.Cuts
6
CONTINUOUS
10
148.998658000000006
20
-133.4282469999999989
11
148.9874690000000044
21
-133.391650999999996
0
LINE
8
Edge.Cuts
6
CONTINUOUS
10
148.9874690000000044
20
-133.391650999999996
11
148.9930919999999901
21
-133.3729689999999835
0
LINE
8
Edge.Cuts
6
CONTINUOUS
10
148.9930919999999901
20
-133.3729689999999835
11
155.5656939999999793
21
-121.0117029999999971
0
LINE
8
Edge.Cuts
6
CONTINUOUS
10
155.5656939999999793
20
-121.0117029999999971
11
155.5780369999999948
21
-120.9965959999999967
0
LINE
8
Edge.Cuts
6
CONTINUOUS
10
155.5780369999999948
20
-120.9965959999999967
11
155.5962419999999895
21
-120.991029999999995
0
LINE
8
Edge.Cuts
6
CONTINUOUS
10
155.5962419999999895
20
-120.991029999999995
11
155.6146329999999978
21
-120.985406999999995
0
LINE
8
Edge.Cuts
6
CONTINUOUS
10
155.6146329999999978
20
-120.985406999999995
11
155.6146339999999952
21
-120.985406999999995
0
LINE
8
Edge.Cuts
6
CONTINUOUS
10
155.6146339999999952
20
-120.985406999999995
11
155.6146349999999927
21
-120.985406999999995
0
LINE
8
Edge.Cuts
6
CONTINUOUS
10
149.1048590000000047
20
-133.3757689999999911
11
161.3778309999999863
21
-139.9014239999999916
0
LINE
8
Edge.Cuts
6
CONTINUOUS
10
161.3778309999999863
20
-139.9014239999999916
11
167.9034859999999867
21
-127.6284519999999958
0
LINE
8
Edge.Cuts
6
CONTINUOUS
10
167.9034859999999867
20
-127.6284519999999958
11
155.6305140000000051
21
-121.1027969999999954
0
LINE
8
Edge.Cuts
6
CONTINUOUS
10
155.6305140000000051
20
-121.1027969999999954
11
149.1048590000000047
21
-133.3757689999999911
0
LINE
8
Edge.Cuts
6
CONTINUOUS
10
132.8170340000000067
20
-114.0225509999999929
11
146.4011739999999975
21
-117.4094569999999891
0
LINE
8
Edge.Cuts
6
CONTINUOUS
10
146.4011739999999975
20
-117.4094569999999891
11
146.418818999999985
21
-117.4177789999999959
0
LINE
8
Edge.Cuts
6
CONTINUOUS
10
146.418818999999985
20
-117.4177789999999959
11
146.4385289999999884
21
-117.4505809999999997
0
LINE
8
Edge.Cuts
6
CONTINUOUS
10
146.4385289999999884
20
-117.4505809999999997
11
146.4375929999999926
21
-117.4700679999999977
0
LINE
8
Edge.Cuts
6
CONTINUOUS
10
146.4375929999999926
20
-117.4700679999999977
11
143.0506869999999822
21
-131.0542079999999885
0
LINE
8
Edge.Cuts
6
CONTINUOUS
10
143.0506869999999822
20
-131.0542079999999885
11
143.0423649999999895
21
-131.0718530000000044
0
LINE
8
Edge.Cuts
6
CONTINUOUS
10
143.0423649999999895
20
-131.0718530000000044
11
143.0095629999999858
21
-131.0915630000000078
0
LINE
8
Edge.Cuts
6
CONTINUOUS
10
143.0095629999999858
20
-131.0915630000000078
11
143.0095619999999883
21
-131.0915619999999819
0
LINE
8
Edge.Cuts
6
CONTINUOUS
10
143.0095619999999883
20
-131.0915619999999819
11
143.0095619999999883
21
-131.0915630000000078
0
LINE
8
Edge.Cuts
6
CONTINUOUS
10
143.0095619999999883
20
-131.0915630000000078
11
143.0095609999999908
21
-131.0915619999999819
0
LINE
8
Edge.Cuts
6
CONTINUOUS
10
143.0095609999999908
20
-131.0915619999999819
11
142.9900759999999877
21
-131.0906269999999836
0
LINE
8
Edge.Cuts
6
CONTINUOUS
10
142.9900759999999877
20
-131.0906269999999836
11
129.405935999999997
21
-127.7037209999999874
0
LINE
8
Edge.Cuts
6
CONTINUOUS
10
129.405935999999997
20
-127.7037209999999874
11
129.3882909999999811
21
-127.6953989999999948
0
LINE
8
Edge.Cuts
6
CONTINUOUS
10
129.3882909999999811
20
-127.6953989999999948
11
129.368581000000006
21
-127.6625959999999935
0
LINE
8
Edge.Cuts
6
CONTINUOUS
10
129.368581000000006
20
-127.6625959999999935
11
129.3695170000000019
21
-127.643109999999993
0
LINE
8
Edge.Cuts
6
CONTINUOUS
10
129.3695170000000019
20
-127.643109999999993
11
132.7564229999999839
21
-114.058969999999988
0
LINE
8
Edge.Cuts
6
CONTINUOUS
10
132.7564229999999839
20
-114.058969999999988
11
132.7647450000000049
21
-114.0413250000000005
0
LINE
8
Edge.Cuts
6
CONTINUOUS
10
132.7647450000000049
20
-114.0413250000000005
11
132.7975480000000061
21
-114.0216149999999971
0
LINE
8
Edge.Cuts
6
CONTINUOUS
10
132.7975480000000061
20
-114.0216149999999971
11
132.8170340000000067
21
-114.0225509999999929
0
LINE
8
Edge.Cuts
6
CONTINUOUS
10
129.4786430000000053
20
-127.6187869999999975
11
142.9657530000000065
21
-130.9814999999999827
0
LINE
8
Edge.Cuts
6
CONTINUOUS
10
142.9657530000000065
20
-130.9814999999999827
11
146.3284659999999917
21
-117.4943899999999957
0
LINE
8
Edge.Cuts
6
CONTINUOUS
10
146.3284659999999917
20
-117.4943899999999957
11
132.8413559999999904
21
-114.1316769999999963
0
LINE
8
Edge.Cuts
6
CONTINUOUS
10
132.8413559999999904
20
-114.1316769999999963
11
129.4786430000000053
21
-127.6187869999999975
0
LINE
8
Edge.Cuts
6
CONTINUOUS
10
87.2918069999999915
20
-126.5845379999999949
11
87.4783539999999959
21
-126.6451509999999985
0
LINE
8
Edge.Cuts
6
CONTINUOUS
10
87.4783539999999959
20
-126.6451509999999985
11
87.6531229999999937
21
-126.7342000000000013
0
LINE
8
Edge.Cuts
6
CONTINUOUS
10
87.6531229999999937
20
-126.7342000000000013
11
87.8118099999999941
21
-126.8494929999999954
0
LINE
8
Edge.Cuts
6
CONTINUOUS
10
87.8118099999999941
20
-126.8494929999999954
11
87.9505070000000018
21
-126.9881899999999888
0
LINE
8
Edge.Cuts
6
CONTINUOUS
10
87.9505070000000018
20
-126.9881899999999888
11
88.0657999999999959
21
-127.1468769999999893
0
LINE
8
Edge.Cuts
6
CONTINUOUS
10
88.0657999999999959
20
-127.1468769999999893
11
88.1548489999999987
21
-127.3216460000000012
0
LINE
8
Edge.Cuts
6
CONTINUOUS
10
88.1548489999999987
20
-127.3216460000000012
11
88.2154620000000023
21
-127.5081929999999915
0
LINE
8
Edge.Cuts
6
CONTINUOUS
10
88.2154620000000023
20
-127.5081929999999915
11
88.2461469999999935
21
-127.7019260000000003
0
LINE
8
Edge.Cuts
6
CONTINUOUS
10
88.2461469999999935
20
-127.7019260000000003
11
88.2461469999999935
21
-127.898073999999994
0
LINE
8
Edge.Cuts
6
CONTINUOUS
10
88.2461469999999935
20
-127.898073999999994
11
88.2154620000000023
21
-128.0918069999999886
0
LINE
8
Edge.Cuts
6
CONTINUOUS
10
88.2154620000000023
20
-128.0918069999999886
11
88.1548489999999987
21
-128.2783540000000073
0
LINE
8
Edge.Cuts
6
CONTINUOUS
10
88.1548489999999987
20
-128.2783540000000073
11
88.0657999999999959
21
-128.453123000000005
0
LINE
8
Edge.Cuts
6
CONTINUOUS
10
88.0657999999999959
20
-128.453123000000005
11
87.9505070000000018
21
-128.6118099999999913
0
LINE
8
Edge.Cuts
6
CONTINUOUS
10
87.9505070000000018
20
-128.6118099999999913
11
87.8118099999999941
21
-128.7505069999999989
0
LINE
8
Edge.Cuts
6
CONTINUOUS
10
87.8118099999999941
20
-128.7505069999999989
11
87.6531229999999937
21
-128.8658000000000072
0
LINE
8
Edge.Cuts
6
CONTINUOUS
10
87.6531229999999937
20
-128.8658000000000072
11
87.4783539999999959
21
-128.9548489999999958
0
LINE
8
Edge.Cuts
6
CONTINUOUS
10
87.4783539999999959
20
-128.9548489999999958
11
87.2918069999999915
21
-129.0154619999999852
0
LINE
8
Edge.Cuts
6
CONTINUOUS
10
87.2918069999999915
20
-129.0154619999999852
11
87.0980739999999969
21
-129.0461469999999906
0
LINE
8
Edge.Cuts
6
CONTINUOUS
10
87.0980739999999969
20
-129.0461469999999906
11
86.9019260000000031
21
-129.0461469999999906
0
LINE
8
Edge.Cuts
6
CONTINUOUS
10
86.9019260000000031
20
-129.0461469999999906
11
86.7081929999999943
21
-129.0154619999999852
0
LINE
8
Edge.Cuts
6
CONTINUOUS
10
86.7081929999999943
20
-129.0154619999999852
11
86.5216459999999898
21
-128.9548489999999958
0
LINE
8
Edge.Cuts
6
CONTINUOUS
10
86.5216459999999898
20
-128.9548489999999958
11
86.3468769999999921
21
-128.8658000000000072
0
LINE
8
Edge.Cuts
6
CONTINUOUS
10
86.3468769999999921
20
-128.8658000000000072
11
86.1881899999999916
21
-128.7505069999999989
0
LINE
8
Edge.Cuts
6
CONTINUOUS
10
86.1881899999999916
20
-128.7505069999999989
11
86.0494929999999982
21
-128.6118099999999913
0
LINE
8
Edge.Cuts
6
CONTINUOUS
10
86.0494929999999982
20
-128.6118099999999913
11
85.9341999999999899
21
-128.453123000000005
0
LINE
8
Edge.Cuts
6
CONTINUOUS
10
85.9341999999999899
20
-128.453123000000005
11
85.8451510000000013
21
-128.2783540000000073
0
LINE
8
Edge.Cuts
6
CONTINUOUS
10
85.8451510000000013
20
-128.2783540000000073
11
85.7845379999999977
21
-128.0918069999999886
0
LINE
8
Edge.Cuts
6
CONTINUOUS
10
85.7845379999999977
20
-128.0918069999999886
11
85.7538529999999923
21
-127.898073999999994
0
LINE
8
Edge.Cuts
6
CONTINUOUS
10
85.7538529999999923
20
-127.898073999999994
11
85.7538529999999923
21
-127.7094929999999948
0
LINE
8
Edge.Cuts
6
CONTINUOUS
10
85.7538529999999923
20
-127.7094929999999948
11
85.7538529999999923
21
-127.7019260000000003
0
LINE
8
Edge.Cuts
6
CONTINUOUS
10
85.7538529999999923
20
-127.7019260000000003
11
85.7845379999999977
21
-127.5081929999999915
0
LINE
8
Edge.Cuts
6
CONTINUOUS
10
85.7845379999999977
20
-127.5081929999999915
11
85.8451510000000013
21
-127.3216460000000012
0
LINE
8
Edge.Cuts
6
CONTINUOUS
10
85.8451510000000013
20
-127.3216460000000012
11
85.9341999999999899
21
-127.1468769999999893
0
LINE
8
Edge.Cuts
6
CONTINUOUS
10
85.9341999999999899
20
-127.1468769999999893
11
86.0494929999999982
21
-126.9881899999999888
0
LINE
8
Edge.Cuts
6
CONTINUOUS
10
86.0494929999999982
20
-126.9881899999999888
11
86.1881899999999916
21
-126.8494929999999954
0
LINE
8
Edge.Cuts
6
CONTINUOUS
10
86.1881899999999916
20
-126.8494929999999954
11
86.3468769999999921
21
-126.7342000000000013
0
LINE
8
Edge.Cuts
6
CONTINUOUS
10
86.3468769999999921
20
-126.7342000000000013
11
86.5216459999999898
21
-126.6451509999999985
0
LINE
8
Edge.Cuts
6
CONTINUOUS
10
86.5216459999999898
20
-126.6451509999999985
11
86.7081929999999943
21
-126.5845379999999949
0
LINE
8
Edge.Cuts
6
CONTINUOUS
10
86.7081929999999943
20
-126.5845379999999949
11
86.9019260000000031
21
-126.5538529999999895
0
LINE
8
Edge.Cuts
6
CONTINUOUS
10
86.9019260000000031
20
-126.5538529999999895
11
87.0980739999999969
21
-126.5538529999999895
0
LINE
8
Edge.Cuts
6
CONTINUOUS
10
87.0980739999999969
20
-126.5538529999999895
11
87.2918069999999915
21
-126.5845379999999949
0
LINE
8
Edge.Cuts
6
CONTINUOUS
10
85.8499999999999943
20
-127.8905069999999995
11
85.8783169999999956
21
-128.0692919999999901
0
LINE
8
Edge.Cuts
6
CONTINUOUS
10
85.8783169999999956
20
-128.0692919999999901
11
85.9342529999999982
21
-128.2414469999999937
0
LINE
8
Edge.Cuts
6
CONTINUOUS
10
85.9342529999999982
20
-128.2414469999999937
11
86.0164319999999947
21
-128.4027309999999886
0
LINE
8
Edge.Cuts
6
CONTINUOUS
10
86.0164319999999947
20
-128.4027309999999886
11
86.1228289999999959
21
-128.5491749999999911
0
LINE
8
Edge.Cuts
6
CONTINUOUS
10
86.1228289999999959
20
-128.5491749999999911
11
86.2508249999999919
21
-128.6771709999999871
0
LINE
8
Edge.Cuts
6
CONTINUOUS
10
86.2508249999999919
20
-128.6771709999999871
11
86.3972689999999943
21
-128.7835680000000025
0
LINE
8
Edge.Cuts
6
CONTINUOUS
10
86.3972689999999943
20
-128.7835680000000025
11
86.5585529999999892
21
-128.8657469999999989
0
LINE
8
Edge.Cuts
6
CONTINUOUS
10
86.5585529999999892
20
-128.8657469999999989
11
86.7307079999999928
21
-128.9216830000000016
0
LINE
8
Edge.Cuts
6
CONTINUOUS
10
86.7307079999999928
20
-128.9216830000000016
11
86.9094929999999977
21
-128.9499999999999886
0
LINE
8
Edge.Cuts
6
CONTINUOUS
10
86.9094929999999977
20
-128.9499999999999886
11
87.0905070000000023
21
-128.9499999999999886
0
LINE
8
Edge.Cuts
6
CONTINUOUS
10
87.0905070000000023
20
-128.9499999999999886
11
87.269291999999993
21
-128.9216830000000016
0
LINE
8
Edge.Cuts
6
CONTINUOUS
10
87.269291999999993
20
-128.9216830000000016
11
87.4414469999999966
21
-128.8657469999999989
0
LINE
8
Edge.Cuts
6
CONTINUOUS
10
87.4414469999999966
20
-128.8657469999999989
11
87.6027309999999915
21
-128.7835680000000025
0
LINE
8
Edge.Cuts
6
CONTINUOUS
10
87.6027309999999915
20
-128.7835680000000025
11
87.7491749999999939
21
-128.6771709999999871
0
LINE
8
Edge.Cuts
6
CONTINUOUS
10
87.7491749999999939
20
-128.6771709999999871
11
87.8771709999999899
21
-128.5491749999999911
0
LINE
8
Edge.Cuts
6
CONTINUOUS
10
87.8771709999999899
20
-128.5491749999999911
11
87.9835679999999911
21
-128.4027309999999886
0
LINE
8
Edge.Cuts
6
CONTINUOUS
10
87.9835679999999911
20
-128.4027309999999886
11
88.0657470000000018
21
-128.2414469999999937
0
LINE
8
Edge.Cuts
6
CONTINUOUS
10
88.0657470000000018
20
-128.2414469999999937
11
88.1216829999999902
21
-128.0692919999999901
0
LINE
8
Edge.Cuts
6
CONTINUOUS
10
88.1216829999999902
20
-128.0692919999999901
11
88.1499999999999915
21
-127.8905069999999995
0
LINE
8
Edge.Cuts
6
CONTINUOUS
10
88.1499999999999915
20
-127.8905069999999995
11
88.1499999999999915
21
-127.7094929999999948
0
LINE
8
Edge.Cuts
6
CONTINUOUS
10
88.1499999999999915
20
-127.7094929999999948
11
88.1216829999999902
21
-127.53070799999999
0
LINE
8
Edge.Cuts
6
CONTINUOUS
10
88.1216829999999902
20
-127.53070799999999
11
88.0657470000000018
21
-127.3585530000000006
0
LINE
8
Edge.Cuts
6
CONTINUOUS
10
88.0657470000000018
20
-127.3585530000000006
11
87.9835679999999911
21
-127.1972689999999915
0
LINE
8
Edge.Cuts
6
CONTINUOUS
10
87.9835679999999911
20
-127.1972689999999915
11
87.8771709999999899
21
-127.050824999999989
0
LINE
8
Edge.Cuts
6
CONTINUOUS
10
87.8771709999999899
20
-127.050824999999989
11
87.7491749999999939
21
-126.922828999999993
0
LINE
8
Edge.Cuts
6
CONTINUOUS
10
87.7491749999999939
20
-126.922828999999993
11
87.6027309999999915
21
-126.8164319999999918
0
LINE
8
Edge.Cuts
6
CONTINUOUS
10
87.6027309999999915
20
-126.8164319999999918
11
87.4414469999999966
21
-126.7342529999999954
0
LINE
8
Edge.Cuts
6
CONTINUOUS
10
87.4414469999999966
20
-126.7342529999999954
11
87.269291999999993
21
-126.6783169999999927
0
LINE
8
Edge.Cuts
6
CONTINUOUS
10
87.269291999999993
20
-126.6783169999999927
11
87.0905070000000023
21
-126.6499999999999915
0
LINE
8
Edge.Cuts
6
CONTINUOUS
10
87.0905070000000023
20
-126.6499999999999915
11
86.9094929999999977
21
-126.6499999999999915
0
LINE
8
Edge.Cuts
6
CONTINUOUS
10
86.9094929999999977
20
-126.6499999999999915
11
86.7307079999999928
21
-126.6783169999999927
0
LINE
8
Edge.Cuts
6
CONTINUOUS
10
86.7307079999999928
20
-126.6783169999999927
11
86.5585529999999892
21
-126.7342529999999954
0
LINE
8
Edge.Cuts
6
CONTINUOUS
10
86.5585529999999892
20
-126.7342529999999954
11
86.3972689999999943
21
-126.8164319999999918
0
LINE
8
Edge.Cuts
6
CONTINUOUS
10
86.3972689999999943
20
-126.8164319999999918
11
86.2508249999999919
21
-126.922828999999993
0
LINE
8
Edge.Cuts
6
CONTINUOUS
10
86.2508249999999919
20
-126.922828999999993
11
86.1228289999999959
21
-127.050824999999989
0
LINE
8
Edge.Cuts
6
CONTINUOUS
10
86.1228289999999959
20
-127.050824999999989
11
86.0164319999999947
21
-127.1972689999999915
0
LINE
8
Edge.Cuts
6
CONTINUOUS
10
86.0164319999999947
20
-127.1972689999999915
11
85.9342529999999982
21
-127.3585530000000006
0
LINE
8
Edge.Cuts
6
CONTINUOUS
10
85.9342529999999982
20
-127.3585530000000006
11
85.8783169999999956
21
-127.53070799999999
0
LINE
8
Edge.Cuts
6
CONTINUOUS
10
85.8783169999999956
20
-127.53070799999999
11
85.8499999999999943
21
-127.7094929999999948
0
LINE
8
Edge.Cuts
6
CONTINUOUS
10
85.8499999999999943
20
-127.7094929999999948
11
85.8499999999999943
21
-127.8905069999999995
0
LINE
8
Edge.Cuts
6
CONTINUOUS
10
180.2918070000000057
20
-123.5845379999999949
11
180.4783539999999959
21
-123.6451509999999985
0
LINE
8
Edge.Cuts
6
CONTINUOUS
10
180.4783539999999959
20
-123.6451509999999985
11
180.6531229999999937
21
-123.7342000000000013
0
LINE
8
Edge.Cuts
6
CONTINUOUS
10
180.6531229999999937
20
-123.7342000000000013
11
180.8118099999999799
21
-123.8494929999999954
0
LINE
8
Edge.Cuts
6
CONTINUOUS
10
180.8118099999999799
20
-123.8494929999999954
11
180.9505069999999876
21
-123.9881899999999888
0
LINE
8
Edge.Cuts
6
CONTINUOUS
10
180.9505069999999876
20
-123.9881899999999888
11
181.0657999999999959
21
-124.1468769999999893
0
LINE
8
Edge.Cuts
6
CONTINUOUS
10
181.0657999999999959
20
-124.1468769999999893
11
181.1548489999999845
21
-124.3216460000000012
0
LINE
8
Edge.Cuts
6
CONTINUOUS
10
181.1548489999999845
20
-124.3216460000000012
11
181.2154620000000023
21
-124.5081929999999915
0
LINE
8
Edge.Cuts
6
CONTINUOUS
10
181.2154620000000023
20
-124.5081929999999915
11
181.2461469999999792
21
-124.7019260000000003
0
LINE
8
Edge.Cuts
6
CONTINUOUS
10
181.2461469999999792
20
-124.7019260000000003
11
181.2461469999999792
21
-124.898073999999994
0
LINE
8
Edge.Cuts
6
CONTINUOUS
10
181.2461469999999792
20
-124.898073999999994
11
181.2154620000000023
21
-125.0918069999999886
0
LINE
8
Edge.Cuts
6
CONTINUOUS
10
181.2154620000000023
20
-125.0918069999999886
11
181.1548489999999845
21
-125.2783539999999931
0
LINE
8
Edge.Cuts
6
CONTINUOUS
10
181.1548489999999845
20
-125.2783539999999931
11
181.0657999999999959
21
-125.4531229999999908
0
LINE
8
Edge.Cuts
6
CONTINUOUS
10
181.0657999999999959
20
-125.4531229999999908
11
180.9505069999999876
21
-125.6118099999999913
0
LINE
8
Edge.Cuts
6
CONTINUOUS
10
180.9505069999999876
20
-125.6118099999999913
11
180.8118099999999799
21
-125.7505069999999989
0
LINE
8
Edge.Cuts
6
CONTINUOUS
10
180.8118099999999799
20
-125.7505069999999989
11
180.6531229999999937
21
-125.865799999999993
0
LINE
8
Edge.Cuts
6
CONTINUOUS
10
180.6531229999999937
20
-125.865799999999993
11
180.4783539999999959
21
-125.9548489999999958
0
LINE
8
Edge.Cuts
6
CONTINUOUS
10
180.4783539999999959
20
-125.9548489999999958
11
180.2918070000000057
21
-126.0154619999999994
0
LINE
8
Edge.Cuts
6
CONTINUOUS
10
180.2918070000000057
20
-126.0154619999999994
11
180.0980739999999969
21
-126.0461469999999906
0
LINE
8
Edge.Cuts
6
CONTINUOUS
10
180.0980739999999969
20
-126.0461469999999906
11
179.9019260000000031
21
-126.0461469999999906
0
LINE
8
Edge.Cuts
6
CONTINUOUS
10
179.9019260000000031
20
-126.0461469999999906
11
179.7081929999999943
21
-126.0154619999999994
0
LINE
8
Edge.Cuts
6
CONTINUOUS
10
179.7081929999999943
20
-126.0154619999999994
11
179.5216460000000041
21
-125.9548489999999958
0
LINE
8
Edge.Cuts
6
CONTINUOUS
10
179.5216460000000041
20
-125.9548489999999958
11
179.3468769999999779
21
-125.865799999999993
0
LINE
8
Edge.Cuts
6
CONTINUOUS
10
179.3468769999999779
20
-125.865799999999993
11
179.1881899999999916
21
-125.7505069999999989
0
LINE
8
Edge.Cuts
6
CONTINUOUS
10
179.1881899999999916
20
-125.7505069999999989
11
179.049492999999984
21
-125.6118099999999913
0
LINE
8
Edge.Cuts
6
CONTINUOUS
10
179.049492999999984
20
-125.6118099999999913
11
178.9342000000000041
21
-125.4531229999999908
0
LINE
8
Edge.Cuts
6
CONTINUOUS
10
178.9342000000000041
20
-125.4531229999999908
11
178.8451509999999871
21
-125.2783539999999931
0
LINE
8
Edge.Cuts
6
CONTINUOUS
10
178.8451509999999871
20
-125.2783539999999931
11
178.7845379999999977
21
-125.0918069999999886
0
LINE
8
Edge.Cuts
6
CONTINUOUS
10
178.7845379999999977
20
-125.0918069999999886
11
178.7538529999999923
21
-124.898073999999994
0
LINE
8
Edge.Cuts
6
CONTINUOUS
10
178.7538529999999923
20
-124.898073999999994
11
178.7538529999999923
21
-124.7094929999999948
0
LINE
8
Edge.Cuts
6
CONTINUOUS
10
178.7538529999999923
20
-124.7094929999999948
11
178.7538529999999923
21
-124.7019260000000003
0
LINE
8
Edge.Cuts
6
CONTINUOUS
10
178.7538529999999923
20
-124.7019260000000003
11
178.7845379999999977
21
-124.5081929999999915
0
LINE
8
Edge.Cuts
6
CONTINUOUS
10
178.7845379999999977
20
-124.5081929999999915
11
178.8451509999999871
21
-124.3216460000000012
0
LINE
8
Edge.Cuts
6
CONTINUOUS
10
178.8451509999999871
20
-124.3216460000000012
11
178.9342000000000041
21
-124.1468769999999893
0
LINE
8
Edge.Cuts
6
CONTINUOUS
10
178.9342000000000041
20
-124.1468769999999893
11
179.049492999999984
21
-123.9881899999999888
0
LINE
8
Edge.Cuts
6
CONTINUOUS
10
179.049492999999984
20
-123.9881899999999888
11
179.1881899999999916
21
-123.8494929999999954
0
LINE
8
Edge.Cuts
6
CONTINUOUS
10
179.1881899999999916
20
-123.8494929999999954
11
179.3468769999999779
21
-123.7342000000000013
0
LINE
8
Edge.Cuts
6
CONTINUOUS
10
179.3468769999999779
20
-123.7342000000000013
11
179.5216460000000041
21
-123.6451509999999985
0
LINE
8
Edge.Cuts
6
CONTINUOUS
10
179.5216460000000041
20
-123.6451509999999985
11
179.7081929999999943
21
-123.5845379999999949
0
LINE
8
Edge.Cuts
6
CONTINUOUS
10
179.7081929999999943
20
-123.5845379999999949
11
179.9019260000000031
21
-123.5538529999999895
0
LINE
8
Edge.Cuts
6
CONTINUOUS
10
179.9019260000000031
20
-123.5538529999999895
11
180.0980739999999969
21
-123.5538529999999895
0
LINE
8
Edge.Cuts
6
CONTINUOUS
10
180.0980739999999969
20
-123.5538529999999895
11
180.2918070000000057
21
-123.5845379999999949
0
LINE
8
Edge.Cuts
6
CONTINUOUS
10
178.8499999999999943
20
-124.8905069999999995
11
178.8783169999999814
21
-125.0692919999999901
0
LINE
8
Edge.Cuts
6
CONTINUOUS
10
178.8783169999999814
20
-125.0692919999999901
11
178.934252999999984
21
-125.2414469999999937
0
LINE
8
Edge.Cuts
6
CONTINUOUS
10
178.934252999999984
20
-125.2414469999999937
11
179.0164319999999805
21
-125.4027309999999886
0
LINE
8
Edge.Cuts
6
CONTINUOUS
10
179.0164319999999805
20
-125.4027309999999886
11
179.1228289999999959
21
-125.5491749999999911
0
LINE
8
Edge.Cuts
6
CONTINUOUS
10
179.1228289999999959
20
-125.5491749999999911
11
179.2508249999999919
21
-125.6771710000000013
0
LINE
8
Edge.Cuts
6
CONTINUOUS
10
179.2508249999999919
20
-125.6771710000000013
11
179.3972689999999943
21
-125.7835679999999883
0
LINE
8
Edge.Cuts
6
CONTINUOUS
10
179.3972689999999943
20
-125.7835679999999883
11
179.5585529999999892
21
-125.8657469999999989
0
LINE
8
Edge.Cuts
6
CONTINUOUS
10
179.5585529999999892
20
-125.8657469999999989
11
179.7307079999999928
21
-125.9216829999999874
0
LINE
8
Edge.Cuts
6
CONTINUOUS
10
179.7307079999999928
20
-125.9216829999999874
11
179.9094929999999977
21
-125.9499999999999886
0
LINE
8
Edge.Cuts
6
CONTINUOUS
10
179.9094929999999977
20
-125.9499999999999886
11
180.0905070000000023
21
-125.9499999999999886
0
LINE
8
Edge.Cuts
6
CONTINUOUS
10
180.0905070000000023
20
-125.9499999999999886
11
180.2692919999999788
21
-125.9216829999999874
0
LINE
8
Edge.Cuts
6
CONTINUOUS
10
180.2692919999999788
20
-125.9216829999999874
11
180.4414469999999824
21
-125.8657469999999989
0
LINE
8
Edge.Cuts
6
CONTINUOUS
10
180.4414469999999824
20
-125.8657469999999989
11
180.6027310000000057
21
-125.7835679999999883
0
LINE
8
Edge.Cuts
6
CONTINUOUS
10
180.6027310000000057
20
-125.7835679999999883
11
180.7491749999999797
21
-125.6771710000000013
0
LINE
8
Edge.Cuts
6
CONTINUOUS
10
180.7491749999999797
20
-125.6771710000000013
11
180.8771710000000041
21
-125.5491749999999911
0
LINE
8
Edge.Cuts
6
CONTINUOUS
10
180.8771710000000041
20
-125.5491749999999911
11
180.9835679999999911
21
-125.4027309999999886
0
LINE
8
Edge.Cuts
6
CONTINUOUS
10
180.9835679999999911
20
-125.4027309999999886
11
181.0657469999999876
21
-125.2414469999999937
0
LINE
8
Edge.Cuts
6
CONTINUOUS
10
181.0657469999999876
20
-125.2414469999999937
11
181.1216829999999902
21
-125.0692919999999901
0
LINE
8
Edge.Cuts
6
CONTINUOUS
10
181.1216829999999902
20
-125.0692919999999901
11
181.1500000000000057
21
-124.8905069999999995
0
LINE
8
Edge.Cuts
6
CONTINUOUS
10
181.1500000000000057
20
-124.8905069999999995
11
181.1500000000000057
21
-124.7094929999999948
0
LINE
8
Edge.Cuts
6
CONTINUOUS
10
181.1500000000000057
20
-124.7094929999999948
11
181.1216829999999902
21
-124.53070799999999
0
LINE
8
Edge.Cuts
6
CONTINUOUS
10
181.1216829999999902
20
-124.53070799999999
11
181.0657469999999876
21
-124.3585530000000006
0
LINE
8
Edge.Cuts
6
CONTINUOUS
10
181.0657469999999876
20
-124.3585530000000006
11
180.9835679999999911
21
-124.1972689999999915
0
LINE
8
Edge.Cuts
6
CONTINUOUS
10
180.9835679999999911
20
-124.1972689999999915
11
180.8771710000000041
21
-124.050824999999989
0
LINE
8
Edge.Cuts
6
CONTINUOUS
10
180.8771710000000041
20
-124.050824999999989
11
180.7491749999999797
21
-123.922828999999993
0
LINE
8
Edge.Cuts
6
CONTINUOUS
10
180.7491749999999797
20
-123.922828999999993
11
180.6027310000000057
21
-123.8164319999999918
0
LINE
8
Edge.Cuts
6
CONTINUOUS
10
180.6027310000000057
20
-123.8164319999999918
11
180.4414469999999824
21
-123.7342529999999954
0
LINE
8
Edge.Cuts
6
CONTINUOUS
10
180.4414469999999824
20
-123.7342529999999954
11
180.2692919999999788
21
-123.6783169999999927
0
LINE
8
Edge.Cuts
6
CONTINUOUS
10
180.2692919999999788
20
-123.6783169999999927
11
180.0905070000000023
21
-123.6499999999999915
0
LINE
8
Edge.Cuts
6
CONTINUOUS
10
180.0905070000000023
20
-123.6499999999999915
11
179.9094929999999977
21
-123.6499999999999915
0
LINE
8
Edge.Cuts
6
CONTINUOUS
10
179.9094929999999977
20
-123.6499999999999915
11
179.7307079999999928
21
-123.6783169999999927
0
LINE
8
Edge.Cuts
6
CONTINUOUS
10
179.7307079999999928
20
-123.6783169999999927
11
179.5585529999999892
21
-123.7342529999999954
0
LINE
8
Edge.Cuts
6
CONTINUOUS
10
179.5585529999999892
20
-123.7342529999999954
11
179.3972689999999943
21
-123.8164319999999918
0
LINE
8
Edge.Cuts
6
CONTINUOUS
10
179.3972689999999943
20
-123.8164319999999918
11
179.2508249999999919
21
-123.922828999999993
0
LINE
8
Edge.Cuts
6
CONTINUOUS
10
179.2508249999999919
20
-123.922828999999993
11
179.1228289999999959
21
-124.050824999999989
0
LINE
8
Edge.Cuts
6
CONTINUOUS
10
179.1228289999999959
20
-124.050824999999989
11
179.0164319999999805
21
-124.1972689999999915
0
LINE
8
Edge.Cuts
6
CONTINUOUS
10
179.0164319999999805
20
-124.1972689999999915
11
178.934252999999984
21
-124.3585530000000006
0
LINE
8
Edge.Cuts
6
CONTINUOUS
10
178.934252999999984
20
-124.3585530000000006
11
178.8783169999999814
21
-124.53070799999999
0
LINE
8
Edge.Cuts
6
CONTINUOUS
10
178.8783169999999814
20
-124.53070799999999
11
178.8499999999999943
21
-124.7094929999999948
0
LINE
8
Edge.Cuts
6
CONTINUOUS
10
178.8499999999999943
20
-124.7094929999999948
11
178.8499999999999943
21
-124.8905069999999995
0
LINE
8
Edge.Cuts
6
CONTINUOUS
10
161.9128649999999823
20
-100.6646839999999941
11
175.4970050000000015
21
-104.0515899999999903
0
LINE
8
Edge.Cuts
6
CONTINUOUS
10
175.4970050000000015
20
-104.0515899999999903
11
175.5146499999999889
21
-104.0599119999999971
0
LINE
8
Edge.Cuts
6
CONTINUOUS
10
175.5146499999999889
20
-104.0599119999999971
11
175.5343599999999924
21
-104.0927140000000009
0
LINE
8
Edge.Cuts
6
CONTINUOUS
10
175.5343599999999924
20
-104.0927140000000009
11
175.5334239999999966
21
-104.1122009999999989
0
LINE
8
Edge.Cuts
6
CONTINUOUS
10
175.5334239999999966
20
-104.1122009999999989
11
172.1465179999999862
21
-117.6963409999999897
0
LINE
8
Edge.Cuts
6
CONTINUOUS
10
172.1465179999999862
20
-117.6963409999999897
11
172.1381959999999935
21
-117.7139859999999913
0
LINE
8
Edge.Cuts
6
CONTINUOUS
10
172.1381959999999935
20
-117.7139859999999913
11
172.1053939999999898
21
-117.7336959999999948
0
LINE
8
Edge.Cuts
6
CONTINUOUS
10
172.1053939999999898
20
-117.7336959999999948
11
172.1053929999999923
21
-117.7336949999999973
0
LINE
8
Edge.Cuts
6
CONTINUOUS
10
172.1053929999999923
20
-117.7336949999999973
11
172.1053929999999923
21
-117.7336959999999948
0
LINE
8
Edge.Cuts
6
CONTINUOUS
10
172.1053929999999923
20
-117.7336959999999948
11
172.1053919999999948
21
-117.7336949999999973
0
LINE
8
Edge.Cuts
6
CONTINUOUS
10
172.1053919999999948
20
-117.7336949999999973
11
172.0859069999999917
21
-117.732759999999999
0
LINE
8
Edge.Cuts
6
CONTINUOUS
10
172.0859069999999917
20
-117.732759999999999
11
158.501767000000001
21
-114.3458539999999886
0
LINE
8
Edge.Cuts
6
CONTINUOUS
10
158.501767000000001
20
-114.3458539999999886
11
158.4841219999999851
21
-114.3375319999999959
0
LINE
8
Edge.Cuts
6
CONTINUOUS
10
158.4841219999999851
20
-114.3375319999999959
11
158.4644119999999816
21
-114.3047289999999947
0
LINE
8
Edge.Cuts
6
CONTINUOUS
10
158.4644119999999816
20
-114.3047289999999947
11
158.4653480000000059
21
-114.2852429999999941
0
LINE
8
Edge.Cuts
6
CONTINUOUS
10
158.4653480000000059
20
-114.2852429999999941
11
161.8522539999999879
21
-100.7011029999999892
0
LINE
8
Edge.Cuts
6
CONTINUOUS
10
161.8522539999999879
20
-100.7011029999999892
11
161.8605759999999805
21
-100.6834580000000017
0
LINE
8
Edge.Cuts
6
CONTINUOUS
10
161.8605759999999805
20
-100.6834580000000017
11
161.8933789999999817
21
-100.6637479999999982
0
LINE
8
Edge.Cuts
6
CONTINUOUS
10
161.8933789999999817
20
-100.6637479999999982
11
161.9128649999999823
21
-100.6646839999999941
0
LINE
8
Edge.Cuts
6
CONTINUOUS
10
158.5744739999999808
20
-114.2609199999999987
11
172.0615839999999821
21
-117.6236329999999981
0
LINE
8
Edge.Cuts
6
CONTINUOUS
10
172.0615839999999821
20
-117.6236329999999981
11
175.4242969999999957
21
-104.1365229999999968
0
LINE
8
Edge.Cuts
6
CONTINUOUS
10
175.4242969999999957
20
-104.1365229999999968
11
161.9371869999999944
21
-100.7738099999999974
0
LINE
8
Edge.Cuts
6
CONTINUOUS
10
161.9371869999999944
20
-100.7738099999999974
11
158.5744739999999808
21
-114.2609199999999987
0
LINE
8
Edge.Cuts
6
CONTINUOUS
10
96.2652339999999924
20
-99.9084959999999995
11
96.2840549999999951
21
-99.9136269999999911
0
LINE
8
Edge.Cuts
6
CONTINUOUS
10
96.2840549999999951
20
-99.9136269999999911
11
96.2840559999999925
21
-99.9136279999999886
0
LINE
8
Edge.Cuts
6
CONTINUOUS
10
96.2840559999999925
20
-99.9136279999999886
11
96.3091620000000006
21
-99.9425090000000012
0
LINE
8
Edge.Cuts
6
CONTINUOUS
10
96.3091620000000006
20
-99.9425090000000012
11
96.3116239999999948
21
-99.9618619999999964
0
LINE
8
Edge.Cuts
6
CONTINUOUS
10
96.3116239999999948
20
-99.9618619999999964
11
95.3350329999999957
21
-113.9277589999999947
0
LINE
8
Edge.Cuts
6
CONTINUOUS
10
95.3350329999999957
20
-113.9277589999999947
11
95.3299019999999899
21
-113.9465809999999948
0
LINE
8
Edge.Cuts
6
CONTINUOUS
10
95.3299019999999899
20
-113.9465809999999948
11
95.3010199999999941
21
-113.9716869999999886
0
LINE
8
Edge.Cuts
6
CONTINUOUS
10
95.3010199999999941
20
-113.9716869999999886
11
95.2816669999999988
21
-113.974148999999997
0
LINE
8
Edge.Cuts
6
CONTINUOUS
10
95.2816669999999988
20
-113.974148999999997
11
81.3157700000000006
21
-112.9975579999999979
0
LINE
8
Edge.Cuts
6
CONTINUOUS
10
81.3157700000000006
20
-112.9975579999999979
11
81.2969480000000004
21
-112.9924269999999922
0
LINE
8
Edge.Cuts
6
CONTINUOUS
10
81.2969480000000004
20
-112.9924269999999922
11
81.2718419999999924
21
-112.9635449999999963
0
LINE
8
Edge.Cuts
6
CONTINUOUS
10
81.2718419999999924
20
-112.9635449999999963
11
81.2693799999999982
21
-112.944192000000001
0
LINE
8
Edge.Cuts
6
CONTINUOUS
10
81.2693799999999982
20
-112.944192000000001
11
82.2459709999999973
21
-98.9782949999999886
0
LINE
8
Edge.Cuts
6
CONTINUOUS
10
82.2459709999999973
20
-98.9782949999999886
11
82.251102000000003
21
-98.9594740000000002
0
LINE
8
Edge.Cuts
6
CONTINUOUS
10
82.251102000000003
20
-98.9594740000000002
11
82.251102000000003
21
-98.9594729999999885
0
LINE
8
Edge.Cuts
6
CONTINUOUS
10
82.251102000000003
20
-98.9594729999999885
11
82.2799839999999989
21
-98.9343669999999946
0
LINE
8
Edge.Cuts
6
CONTINUOUS
10
82.2799839999999989
20
-98.9343669999999946
11
82.2993369999999942
21
-98.9319050000000004
0
LINE
8
Edge.Cuts
6
CONTINUOUS
10
82.2993369999999942
20
-98.9319050000000004
11
96.2652339999999924
21
-99.9084959999999995
0
LINE
8
Edge.Cuts
6
CONTINUOUS
10
81.3726229999999902
20
-112.9012889999999913
11
95.2387639999999891
21
-113.8709049999999934
0
LINE
8
Edge.Cuts
6
CONTINUOUS
10
95.2387639999999891
20
-113.8709049999999934
11
96.2083799999999911
21
-100.0047639999999944
0
LINE
8
Edge.Cuts
6
CONTINUOUS
10
96.2083799999999911
20
-100.0047639999999944
11
82.3422389999999922
21
-99.0351479999999924
0
LINE
8
Edge.Cuts
6
CONTINUOUS
10
82.3422389999999922
20
-99.0351479999999924
11
81.3726229999999902
21
-112.9012889999999913
0
LINE
8
Edge.Cuts
6
CONTINUOUS
10
143.9610899999999845
20
-94.1275770000000023
11
157.5452300000000037
21
-97.5144829999999985
0
LINE
8
Edge.Cuts
6
CONTINUOUS
10
157.5452300000000037
20
-97.5144829999999985
11
157.5628749999999911
21
-97.5228049999999911
0
LINE
8
Edge.Cuts
6
CONTINUOUS
10
157.5628749999999911
20
-97.5228049999999911
11
157.5825849999999946
21
-97.5556069999999949
0
LINE
8
Edge.Cuts
6
CONTINUOUS
10
157.5825849999999946
20
-97.5556069999999949
11
157.5816489999999988
21
-97.5750939999999929
0
LINE
8
Edge.Cuts
6
CONTINUOUS
10
157.5816489999999988
20
-97.5750939999999929
11
154.1947429999999883
21
-111.1592339999999979
0
LINE
8
Edge.Cuts
6
CONTINUOUS
10
154.1947429999999883
20
-111.1592339999999979
11
154.1864209999999957
21
-111.1768789999999996
0
LINE
8
Edge.Cuts
6
CONTINUOUS
10
154.1864209999999957
20
-111.1768789999999996
11
154.153618999999992
21
-111.1965889999999888
0
LINE
8
Edge.Cuts
6
CONTINUOUS
10
154.153618999999992
20
-111.1965889999999888
11
154.1536179999999945
21
-111.1965879999999913
0
LINE
8
Edge.Cuts
6
CONTINUOUS
10
154.1536179999999945
20
-111.1965879999999913
11
154.1536179999999945
21
-111.1965889999999888
0
LINE
8
Edge.Cuts
6
CONTINUOUS
10
154.1536179999999945
20
-111.1965889999999888
11
154.153616999999997
21
-111.1965879999999913
0
LINE
8
Edge.Cuts
6
CONTINUOUS
10
154.153616999999997
20
-111.1965879999999913
11
154.1341319999999939
21
-111.195652999999993
0
LINE
8
Edge.Cuts
6
CONTINUOUS
10
154.1341319999999939
20
-111.195652999999993
11
140.5499920000000031
21
-107.8087469999999968
0
LINE
8
Edge.Cuts
6
CONTINUOUS
10
140.5499920000000031
20
-107.8087469999999968
11
140.5323469999999872
21
-107.80042499999999
0
LINE
8
Edge.Cuts
6
CONTINUOUS
10
140.5323469999999872
20
-107.80042499999999
11
140.5126369999999838
21
-107.7676219999999887
0
LINE
8
Edge.Cuts
6
CONTINUOUS
10
140.5126369999999838
20
-107.7676219999999887
11
140.5135729999999796
21
-107.7481359999999881
0
LINE
8
Edge.Cuts
6
CONTINUOUS
10
140.5135729999999796
20
-107.7481359999999881
11
143.90047899999999
21
-94.1639959999999974
0
LINE
8
Edge.Cuts
6
CONTINUOUS
10
143.90047899999999
20
-94.1639959999999974
11
143.9088009999999827
21
-94.1463509999999957
0
LINE
8
Edge.Cuts
6
CONTINUOUS
10
143.9088009999999827
20
-94.1463509999999957
11
143.9416039999999839
21
-94.1266409999999922
0
LINE
8
Edge.Cuts
6
CONTINUOUS
10
143.9416039999999839
20
-94.1266409999999922
11
143.9610899999999845
21
-94.1275770000000023
0
LINE
8
Edge.Cuts
6
CONTINUOUS
10
140.622698999999983
20
-107.7238129999999927
11
154.1098089999999843
21
-111.0865259999999921
0
LINE
8
Edge.Cuts
6
CONTINUOUS
10
154.1098089999999843
20
-111.0865259999999921
11
157.4725219999999979
21
-97.5994159999999908
0
LINE
8
Edge.Cuts
6
CONTINUOUS
10
157.4725219999999979
20
-97.5994159999999908
11
143.9854119999999966
21
-94.2367029999999914
0
LINE
8
Edge.Cuts
6
CONTINUOUS
10
143.9854119999999966
20
-94.2367029999999914
11
140.622698999999983
21
-107.7238129999999927
0
LINE
8
Edge.Cuts
6
CONTINUOUS
10
118.7363229999999987
20
-88.9610179999999957
11
118.7545609999999954
21
-88.9679280000000006
0
LINE
8
Edge.Cuts
6
CONTINUOUS
10
118.7545609999999954
20
-88.9679280000000006
11
118.754565999999997
21
-88.967928999999998
0
LINE
8
Edge.Cuts
6
CONTINUOUS
10
118.754565999999997
20
-88.967928999999998
11
118.7767889999999937
21
-88.9990839999999963
0
LINE
8
Edge.Cuts
6
CONTINUOUS
10
118.7767889999999937
20
-88.9990839999999963
11
118.7773839999999979
21
-89.0185839999999899
0
LINE
8
Edge.Cuts
6
CONTINUOUS
10
118.7773839999999979
20
-89.0185839999999899
11
116.4667180000000002
21
-102.8265820000000019
0
LINE
8
Edge.Cuts
6
CONTINUOUS
10
116.4667180000000002
20
-102.8265820000000019
11
116.4598069999999979
21
-102.844820999999996
0
LINE
8
Edge.Cuts
6
CONTINUOUS
10
116.4598069999999979
20
-102.844820999999996
11
116.4598069999999979
21
-102.8448259999999976
0
LINE
8
Edge.Cuts
6
CONTINUOUS
10
116.4598069999999979
20
-102.8448259999999976
11
116.4286519999999996
21
-102.8670489999999944
0
LINE
8
Edge.Cuts
6
CONTINUOUS
10
116.4286519999999996
20
-102.8670489999999944
11
116.4091519999999917
21
-102.8676439999999985
0
LINE
8
Edge.Cuts
6
CONTINUOUS
10
116.4091519999999917
20
-102.8676439999999985
11
102.601153999999994
21
-100.5569780000000009
0
LINE
8
Edge.Cuts
6
CONTINUOUS
10
102.601153999999994
20
-100.5569780000000009
11
102.5829099999999983
21
-100.5500660000000011
0
LINE
8
Edge.Cuts
6
CONTINUOUS
10
102.5829099999999983
20
-100.5500660000000011
11
102.560687999999999
21
-100.5189109999999886
0
LINE
8
Edge.Cuts
6
CONTINUOUS
10
102.560687999999999
20
-100.5189109999999886
11
102.5600919999999974
21
-100.4994119999999924
0
LINE
8
Edge.Cuts
6
CONTINUOUS
10
102.5600919999999974
20
-100.4994119999999924
11
104.870757999999995
21
-86.6914129999999972
0
LINE
8
Edge.Cuts
6
CONTINUOUS
10
104.870757999999995
20
-86.6914129999999972
11
104.8776699999999948
21
-86.6731699999999989
0
LINE
8
Edge.Cuts
6
CONTINUOUS
10
104.8776699999999948
20
-86.6731699999999989
11
104.9088249999999931
21
-86.6509470000000022
0
LINE
8
Edge.Cuts
6
CONTINUOUS
10
104.9088249999999931
20
-86.6509470000000022
11
104.9088299999999947
21
-86.6509470000000022
0
LINE
8
Edge.Cuts
6
CONTINUOUS
10
104.9088299999999947
20
-86.6509470000000022
11
104.9283239999999893
21
-86.650351999999998
0
LINE
8
Edge.Cuts
6
CONTINUOUS
10
104.9283239999999893
20
-86.650351999999998
11
118.7363229999999987
21
-88.9610179999999957
0
LINE
8
Edge.Cuts
6
CONTINUOUS
10
102.6669720000000012
20
-100.4666019999999946
11
116.376341999999994
21
-102.7607629999999972
0
LINE
8
Edge.Cuts
6
CONTINUOUS
10
116.376341999999994
20
-102.7607629999999972
11
118.6705029999999965
21
-89.0513929999999903
0
LINE
8
Edge.Cuts
6
CONTINUOUS
10
118.6705029999999965
20
-89.0513929999999903
11
104.9611329999999896
21
-86.7572320000000019
0
LINE
8
Edge.Cuts
6
CONTINUOUS
10
104.9611329999999896
20
-86.7572320000000019
11
102.6669720000000012
21
-100.4666019999999946
0
LINE
8
Edge.Cuts
6
CONTINUOUS
10
166.5093809999999905
20
-82.2290649999999914
11
180.0935209999999813
21
-85.6159710000000018
0
LINE
8
Edge.Cuts
6
CONTINUOUS
10
180.0935209999999813
20
-85.6159710000000018
11
180.1111659999999972
21
-85.6242929999999944
0
LINE
8
Edge.Cuts
6
CONTINUOUS
10
180.1111659999999972
20
-85.6242929999999944
11
180.1308760000000007
21
-85.6570949999999982
0
LINE
8
Edge.Cuts
6
CONTINUOUS
10
180.1308760000000007
20
-85.6570949999999982
11
180.1299400000000048
21
-85.6765819999999962
0
LINE
8
Edge.Cuts
6
CONTINUOUS
10
180.1299400000000048
20
-85.6765819999999962
11
176.7430339999999944
21
-99.2607220000000012
0
LINE
8
Edge.Cuts
6
CONTINUOUS
10
176.7430339999999944
20
-99.2607220000000012
11
176.7347120000000018
21
-99.2783669999999887
0
LINE
8
Edge.Cuts
6
CONTINUOUS
10
176.7347120000000018
20
-99.2783669999999887
11
176.701909999999998
21
-99.2980769999999922
0
LINE
8
Edge.Cuts
6
CONTINUOUS
10
176.701909999999998
20
-99.2980769999999922
11
176.7019090000000006
21
-99.2980759999999947
0
LINE
8
Edge.Cuts
6
CONTINUOUS
10
176.7019090000000006
20
-99.2980759999999947
11
176.7019090000000006
21
-99.2980769999999922
0
LINE
8
Edge.Cuts
6
CONTINUOUS
10
176.7019090000000006
20
-99.2980769999999922
11
176.7019080000000031
21
-99.2980759999999947
0
LINE
8
Edge.Cuts
6
CONTINUOUS
10
176.7019080000000031
20
-99.2980759999999947
11
176.682423
21
-99.2971409999999963
0
LINE
8
Edge.Cuts
6
CONTINUOUS
10
176.682423
20
-99.2971409999999963
11
163.0982829999999808
21
-95.9102350000000001
0
LINE
8
Edge.Cuts
6
CONTINUOUS
10
163.0982829999999808
20
-95.9102350000000001
11
163.0806379999999933
21
-95.9019129999999933
0
LINE
8
Edge.Cuts
6
CONTINUOUS
10
163.0806379999999933
20
-95.9019129999999933
11
163.0609279999999899
21
-95.8691099999999921
0
LINE
8
Edge.Cuts
6
CONTINUOUS
10
163.0609279999999899
20
-95.8691099999999921
11
163.0618639999999857
21
-95.8496239999999915
0
LINE
8
Edge.Cuts
6
CONTINUOUS
10
163.0618639999999857
20
-95.8496239999999915
11
166.4487699999999961
21
-82.2654840000000007
0
LINE
8
Edge.Cuts
6
CONTINUOUS
10
166.4487699999999961
20
-82.2654840000000007
11
166.4570919999999887
21
-82.247838999999999
0
LINE
8
Edge.Cuts
6
CONTINUOUS
10
166.4570919999999887
20
-82.247838999999999
11
166.48989499999999
21
-82.2281289999999956
0
LINE
8
Edge.Cuts
6
CONTINUOUS
10
166.48989499999999
20
-82.2281289999999956
11
166.5093809999999905
21
-82.2290649999999914
0
LINE
8
Edge.Cuts
6
CONTINUOUS
10
163.1709899999999891
20
-95.8253009999999961
11
176.6580999999999904
21
-99.1880139999999955
0
LINE
8
Edge.Cuts
6
CONTINUOUS
10
176.6580999999999904
20
-99.1880139999999955
11
180.020813000000004
21
-85.7009039999999942
0
LINE
8
Edge.Cuts
6
CONTINUOUS
10
180.020813000000004
20
-85.7009039999999942
11
166.5337030000000027
21
-82.3381909999999948
0
LINE
8
Edge.Cuts
6
CONTINUOUS
10
166.5337030000000027
20
-82.3381909999999948
11
163.1709899999999891
21
-95.8253009999999961
0
LINE
8
Edge.Cuts
6
CONTINUOUS
10
127.9446899999999943
20
-79.8281029999999987
11
141.5288299999999992
21
-83.2150089999999949
0
LINE
8
Edge.Cuts
6
CONTINUOUS
10
141.5288299999999992
20
-83.2150089999999949
11
141.5464749999999867
21
-83.2233310000000017
0
LINE
8
Edge.Cuts
6
CONTINUOUS
10
141.5464749999999867
20
-83.2233310000000017
11
141.5661849999999902
21
-83.2561329999999913
0
LINE
8
Edge.Cuts
6
CONTINUOUS
10
141.5661849999999902
20
-83.2561329999999913
11
141.5652489999999943
21
-83.2756199999999893
0
LINE
8
Edge.Cuts
6
CONTINUOUS
10
141.5652489999999943
20
-83.2756199999999893
11
138.1783429999999839
21
-96.8597599999999943
0
LINE
8
Edge.Cuts
6
CONTINUOUS
10
138.1783429999999839
20
-96.8597599999999943
11
138.1700209999999913
21
-96.877404999999996
0
LINE
8
Edge.Cuts
6
CONTINUOUS
10
138.1700209999999913
20
-96.877404999999996
11
138.1372189999999875
21
-96.8971149999999994
0
LINE
8
Edge.Cuts
6
CONTINUOUS
10
138.1372189999999875
20
-96.8971149999999994
11
138.1372179999999901
21
-96.897114000000002
0
LINE
8
Edge.Cuts
6
CONTINUOUS
10
138.1372179999999901
20
-96.897114000000002
11
138.1372179999999901
21
-96.8971149999999994
0
LINE
8
Edge.Cuts
6
CONTINUOUS
10
138.1372179999999901
20
-96.8971149999999994
11
138.1372169999999926
21
-96.897114000000002
0
LINE
8
Edge.Cuts
6
CONTINUOUS
10
138.1372169999999926
20
-96.897114000000002
11
138.1177319999999895
21
-96.8961789999999894
0
LINE
8
Edge.Cuts
6
CONTINUOUS
10
138.1177319999999895
20
-96.8961789999999894
11
124.5335919999999987
21
-93.5092729999999932
0
LINE
8
Edge.Cuts
6
CONTINUOUS
10
124.5335919999999987
20
-93.5092729999999932
11
124.515946999999997
21
-93.5009510000000006
0
LINE
8
Edge.Cuts
6
CONTINUOUS
10
124.515946999999997
20
-93.5009510000000006
11
124.4962369999999936
21
-93.4681479999999993
0
LINE
8
Edge.Cuts
6
CONTINUOUS
10
124.4962369999999936
20
-93.4681479999999993
11
124.4971729999999894
21
-93.4486619999999988
0
LINE
8
Edge.Cuts
6
CONTINUOUS
10
124.4971729999999894
20
-93.4486619999999988
11
127.8840789999999998
21
-79.8645219999999938
0
LINE
8
Edge.Cuts
6
CONTINUOUS
10
127.8840789999999998
20
-79.8645219999999938
11
127.8924009999999925
21
-79.8468769999999921
0
LINE
8
Edge.Cuts
6
CONTINUOUS
10
127.8924009999999925
20
-79.8468769999999921
11
127.9252039999999937
21
-79.8271670000000029
0
LINE
8
Edge.Cuts
6
CONTINUOUS
10
127.9252039999999937
20
-79.8271670000000029
11
127.9446899999999943
21
-79.8281029999999987
0
LINE
8
Edge.Cuts
6
CONTINUOUS
10
124.6062989999999928
20
-93.4243389999999891
11
138.0934089999999799
21
-96.7870519999999885
0
LINE
8
Edge.Cuts
6
CONTINUOUS
10
138.0934089999999799
20
-96.7870519999999885
11
141.4561219999999935
21
-83.2999420000000015
0
LINE
8
Edge.Cuts
6
CONTINUOUS
10
141.4561219999999935
20
-83.2999420000000015
11
127.9690119999999922
21
-79.9372290000000021
0
LINE
8
Edge.Cuts
6
CONTINUOUS
10
127.9690119999999922
20
-79.9372290000000021
11
124.6062989999999928
21
-93.4243389999999891
0
LINE
8
Edge.Cuts
6
CONTINUOUS
10
97.5906069999999914
20
-80.954779000000002
11
97.6094279999999941
21
-80.9599099999999936
0
LINE
8
Edge.Cuts
6
CONTINUOUS
10
97.6094279999999941
20
-80.9599099999999936
11
97.6094289999999916
21
-80.9599109999999911
0
LINE
8
Edge.Cuts
6
CONTINUOUS
10
97.6094289999999916
20
-80.9599109999999911
11
97.6345349999999996
21
-80.9887919999999895
0
LINE
8
Edge.Cuts
6
CONTINUOUS
10
97.6345349999999996
20
-80.9887919999999895
11
97.6369969999999938
21
-81.008144999999999
0
LINE
8
Edge.Cuts
6
CONTINUOUS
10
97.6369969999999938
20
-81.008144999999999
11
96.6604059999999947
21
-94.9740419999999972
0
LINE
8
Edge.Cuts
6
CONTINUOUS
10
96.6604059999999947
20
-94.9740419999999972
11
96.6552749999999889
21
-94.9928639999999973
0
LINE
8
Edge.Cuts
6
CONTINUOUS
10
96.6552749999999889
20
-94.9928639999999973
11
96.6263929999999931
21
-95.0179699999999912
0
LINE
8
Edge.Cuts
6
CONTINUOUS
10
96.6263929999999931
20
-95.0179699999999912
11
96.6070399999999978
21
-95.0204319999999996
0
LINE
8
Edge.Cuts
6
CONTINUOUS
10
96.6070399999999978
20
-95.0204319999999996
11
82.6411429999999996
21
-94.0438410000000005
0
LINE
8
Edge.Cuts
6
CONTINUOUS
10
82.6411429999999996
20
-94.0438410000000005
11
82.6223209999999995
21
-94.0387099999999947
0
LINE
8
Edge.Cuts
6
CONTINUOUS
10
82.6223209999999995
20
-94.0387099999999947
11
82.5972149999999914
21
-94.0098279999999988
0
LINE
8
Edge.Cuts
6
CONTINUOUS
10
82.5972149999999914
20
-94.0098279999999988
11
82.5947529999999972
21
-93.9904749999999893
0
LINE
8
Edge.Cuts
6
CONTINUOUS
10
82.5947529999999972
20
-93.9904749999999893
11
83.5713439999999963
21
-80.0245779999999911
0
LINE
8
Edge.Cuts
6
CONTINUOUS
10
83.5713439999999963
20
-80.0245779999999911
11
83.5764750000000021
21
-80.0057570000000027
0
LINE
8
Edge.Cuts
6
CONTINUOUS
10
83.5764750000000021
20
-80.0057570000000027
11
83.5764750000000021
21
-80.005755999999991
0
LINE
8
Edge.Cuts
6
CONTINUOUS
10
83.5764750000000021
20
-80.005755999999991
11
83.6053569999999979
21
-79.9806499999999971
0
LINE
8
Edge.Cuts
6
CONTINUOUS
10
83.6053569999999979
20
-79.9806499999999971
11
83.6247099999999932
21
-79.9781880000000029
0
LINE
8
Edge.Cuts
6
CONTINUOUS
10
83.6247099999999932
20
-79.9781880000000029
11
97.5906069999999914
21
-80.954779000000002
0
LINE
8
Edge.Cuts
6
CONTINUOUS
10
82.6979959999999892
20
-93.9475719999999939
11
96.5641370000000023
21
-94.9171879999999959
0
LINE
8
Edge.Cuts
6
CONTINUOUS
10
96.5641370000000023
20
-94.9171879999999959
11
97.5337529999999902
21
-81.051046999999997
0
LINE
8
Edge.Cuts
6
CONTINUOUS
10
97.5337529999999902
20
-81.051046999999997
11
83.6676119999999912
21
-80.0814309999999949
0
LINE
8
Edge.Cuts
6
CONTINUOUS
10
83.6676119999999912
20
-80.0814309999999949
11
82.6979959999999892
21
-93.9475719999999939
0
LINE
8
Edge.Cuts
6
CONTINUOUS
10
148.5576059999999927
20
-75.6919579999999996
11
162.1417459999999835
21
-79.0788639999999958
0
LINE
8
Edge.Cuts
6
CONTINUOUS
10
162.1417459999999835
20
-79.0788639999999958
11
162.1593909999999994
21
-79.0871860000000027
0
LINE
8
Edge.Cuts
6
CONTINUOUS
10
162.1593909999999994
20
-79.0871860000000027
11
162.1791010000000028
21
-79.1199879999999922
0
LINE
8
Edge.Cuts
6
CONTINUOUS
10
162.1791010000000028
20
-79.1199879999999922
11
162.1781649999999786
21
-79.1394749999999902
0
LINE
8
Edge.Cuts
6
CONTINUOUS
10
162.1781649999999786
20
-79.1394749999999902
11
158.7912589999999966
21
-92.7236149999999952
0
LINE
8
Edge.Cuts
6
CONTINUOUS
10
158.7912589999999966
20
-92.7236149999999952
11
158.782937000000004
21
-92.7412599999999969
0
LINE
8
Edge.Cuts
6
CONTINUOUS
10
158.782937000000004
20
-92.7412599999999969
11
158.7501350000000002
21
-92.7609700000000004
0
LINE
8
Edge.Cuts
6
CONTINUOUS
10
158.7501350000000002
20
-92.7609700000000004
11
158.7501340000000027
21
-92.7609690000000029
0
LINE
8
Edge.Cuts
6
CONTINUOUS
10
158.7501340000000027
20
-92.7609690000000029
11
158.7501340000000027
21
-92.7609700000000004
0
LINE
8
Edge.Cuts
6
CONTINUOUS
10
158.7501340000000027
20
-92.7609700000000004
11
158.7501330000000053
21
-92.7609690000000029
0
LINE
8
Edge.Cuts
6
CONTINUOUS
10
158.7501330000000053
20
-92.7609690000000029
11
158.7306480000000022
21
-92.7600339999999903
0
LINE
8
Edge.Cuts
6
CONTINUOUS
10
158.7306480000000022
20
-92.7600339999999903
11
145.146507999999983
21
-89.3731279999999941
0
LINE
8
Edge.Cuts
6
CONTINUOUS
10
145.146507999999983
20
-89.3731279999999941
11
145.1288629999999955
21
-89.3648060000000015
0
LINE
8
Edge.Cuts
6
CONTINUOUS
10
145.1288629999999955
20
-89.3648060000000015
11
145.1091529999999921
21
-89.3320030000000003
0
LINE
8
Edge.Cuts
6
CONTINUOUS
10
145.1091529999999921
20
-89.3320030000000003
11
145.1100889999999879
21
-89.3125169999999997
0
LINE
8
Edge.Cuts
6
CONTINUOUS
10
145.1100889999999879
20
-89.3125169999999997
11
148.4969949999999983
21
-75.7283769999999947
0
LINE
8
Edge.Cuts
6
CONTINUOUS
10
148.4969949999999983
20
-75.7283769999999947
11
148.5053169999999909
21
-75.710731999999993
0
LINE
8
Edge.Cuts
6
CONTINUOUS
10
148.5053169999999909
20
-75.710731999999993
11
148.5381199999999922
21
-75.6910219999999896
0
LINE
8
Edge.Cuts
6
CONTINUOUS
10
148.5381199999999922
20
-75.6910219999999896
11
148.5576059999999927
21
-75.6919579999999996
0
LINE
8
Edge.Cuts
6
CONTINUOUS
10
145.2192149999999913
20
-89.2881939999999901
11
158.7063249999999925
21
-92.6509069999999895
0
LINE
8
Edge.Cuts
6
CONTINUOUS
10
158.7063249999999925
20
-92.6509069999999895
11
162.0690380000000062
21
-79.1637970000000024
0
LINE
8
Edge.Cuts
6
CONTINUOUS
10
162.0690380000000062
20
-79.1637970000000024
11
148.5819280000000049
21
-75.801084000000003
0
LINE
8
Edge.Cuts
6
CONTINUOUS
10
148.5819280000000049
20
-75.801084000000003
11
145.2192149999999913
21
-89.2881939999999901
0
LINE
8
Edge.Cuts
6
CONTINUOUS
10
121.8722269999999952
20
-70.2215910000000036
11
121.8904649999999918
21
-70.2285009999999943
0
LINE
8
Edge.Cuts
6
CONTINUOUS
10
121.8904649999999918
20
-70.2285009999999943
11
121.8904699999999934
21
-70.2285019999999918
0
LINE
8
Edge.Cuts
6
CONTINUOUS
10
121.8904699999999934
20
-70.2285019999999918
11
121.9126929999999902
21
-70.25965699999999
0
LINE
8
Edge.Cuts
6
CONTINUOUS
10
121.9126929999999902
20
-70.25965699999999
11
121.9132879999999943
21
-70.2791569999999979
0
LINE
8
Edge.Cuts
6
CONTINUOUS
10
121.9132879999999943
20
-70.2791569999999979
11
119.6026219999999967
21
-84.0871549999999957
0
LINE
8
Edge.Cuts
6
CONTINUOUS
10
119.6026219999999967
20
-84.0871549999999957
11
119.5957109999999943
21
-84.1053939999999898
0
LINE
8
Edge.Cuts
6
CONTINUOUS
10
119.5957109999999943
20
-84.1053939999999898
11
119.5957109999999943
21
-84.1053989999999914
0
LINE
8
Edge.Cuts
6
CONTINUOUS
10
119.5957109999999943
20
-84.1053989999999914
11
119.5645559999999961
21
-84.1276220000000023
0
LINE
8
Edge.Cuts
6
CONTINUOUS
10
119.5645559999999961
20
-84.1276220000000023
11
119.5450559999999882
21
-84.1282169999999923
0
LINE
8
Edge.Cuts
6
CONTINUOUS
10
119.5450559999999882
20
-84.1282169999999923
11
105.7370579999999904
21
-81.8175509999999946
0
LINE
8
Edge.Cuts
6
CONTINUOUS
10
105.7370579999999904
20
-81.8175509999999946
11
105.7188139999999947
21
-81.8106389999999948
0
LINE
8
Edge.Cuts
6
CONTINUOUS
10
105.7188139999999947
20
-81.8106389999999948
11
105.6965919999999954
21
-81.7794839999999965
0
LINE
8
Edge.Cuts
6
CONTINUOUS
10
105.6965919999999954
20
-81.7794839999999965
11
105.6959959999999938
21
-81.7599850000000004
0
LINE
8
Edge.Cuts
6
CONTINUOUS
10
105.6959959999999938
20
-81.7599850000000004
11
108.0066619999999915
21
-67.9519859999999909
0
LINE
8
Edge.Cuts
6
CONTINUOUS
10
108.0066619999999915
20
-67.9519859999999909
11
108.0135739999999913
21
-67.9337429999999927
0
LINE
8
Edge.Cuts
6
CONTINUOUS
10
108.0135739999999913
20
-67.9337429999999927
11
108.0447289999999896
21
-67.9115199999999959
0
LINE
8
Edge.Cuts
6
CONTINUOUS
10
108.0447289999999896
20
-67.9115199999999959
11
108.0447339999999912
21
-67.9115199999999959
0
LINE
8
Edge.Cuts
6
CONTINUOUS
10
108.0447339999999912
20
-67.9115199999999959
11
108.064228
21
-67.9109249999999918
0
LINE
8
Edge.Cuts
6
CONTINUOUS
10
108.064228
20
-67.9109249999999918
11
121.8722269999999952
21
-70.2215910000000036
0
LINE
8
Edge.Cuts
6
CONTINUOUS
10
105.8028759999999977
20
-81.7271750000000026
11
119.5122459999999904
21
-84.0213359999999909
0
LINE
8
Edge.Cuts
6
CONTINUOUS
10
119.5122459999999904
20
-84.0213359999999909
11
121.806406999999993
21
-70.3119659999999982
0
LINE
8
Edge.Cuts
6
CONTINUOUS
10
121.806406999999993
20
-70.3119659999999982
11
108.0970370000000003
21
-68.0178049999999956
0
LINE
8
Edge.Cuts
6
CONTINUOUS
10
108.0970370000000003
20
-68.0178049999999956
11
105.8028759999999977
21
-81.7271750000000026
0
LINE
8
Edge.Cuts
6
CONTINUOUS
10
171.1058969999999988
20
-63.7934459999999959
11
184.6900369999999896
21
-67.1803519999999992
0
LINE
8
Edge.Cuts
6
CONTINUOUS
10
184.6900369999999896
20
-67.1803519999999992
11
184.7076820000000055
21
-67.1886739999999918
0
LINE
8
Edge.Cuts
6
CONTINUOUS
10
184.7076820000000055
20
-67.1886739999999918
11
184.7273919999999805
21
-67.2214759999999956
0
LINE
8
Edge.Cuts
6
CONTINUOUS
10
184.7273919999999805
20
-67.2214759999999956
11
184.7264559999999847
21
-67.2409629999999936
0
LINE
8
Edge.Cuts
6
CONTINUOUS
10
184.7264559999999847
20
-67.2409629999999936
11
181.3395500000000027
21
-80.8251029999999986
0
LINE
8
Edge.Cuts
6
CONTINUOUS
10
181.3395500000000027
20
-80.8251029999999986
11
181.3312279999999816
21
-80.8427480000000003
0
LINE
8
Edge.Cuts
6
CONTINUOUS
10
181.3312279999999816
20
-80.8427480000000003
11
181.2984259999999779
21
-80.8624579999999895
0
LINE
8
Edge.Cuts
6
CONTINUOUS
10
181.2984259999999779
20
-80.8624579999999895
11
181.2984249999999804
21
-80.862456999999992
0
LINE
8
Edge.Cuts
6
CONTINUOUS
10
181.2984249999999804
20
-80.862456999999992
11
181.2984249999999804
21
-80.8624579999999895
0
LINE
8
Edge.Cuts
6
CONTINUOUS
10
181.2984249999999804
20
-80.8624579999999895
11
181.2984239999999829
21
-80.862456999999992
0
LINE
8
Edge.Cuts
6
CONTINUOUS
10
181.2984239999999829
20
-80.862456999999992
11
181.2789389999999798
21
-80.8615219999999937
0
LINE
8
Edge.Cuts
6
CONTINUOUS
10
181.2789389999999798
20
-80.8615219999999937
11
167.6947989999999891
21
-77.4746159999999975
0
LINE
8
Edge.Cuts
6
CONTINUOUS
10
167.6947989999999891
20
-77.4746159999999975
11
167.6771540000000016
21
-77.4662939999999907
0
LINE
8
Edge.Cuts
6
CONTINUOUS
10
167.6771540000000016
20
-77.4662939999999907
11
167.6574439999999981
21
-77.4334909999999894
0
LINE
8
Edge.Cuts
6
CONTINUOUS
10
167.6574439999999981
20
-77.4334909999999894
11
167.658379999999994
21
-77.4140050000000031
0
LINE
8
Edge.Cuts
6
CONTINUOUS
10
167.658379999999994
20
-77.4140050000000031
11
171.0452860000000044
21
-63.8298649999999981
0
LINE
8
Edge.Cuts
6
CONTINUOUS
10
171.0452860000000044
20
-63.8298649999999981
11
171.053607999999997
21
-63.8122199999999964
0
LINE
8
Edge.Cuts
6
CONTINUOUS
10
171.053607999999997
20
-63.8122199999999964
11
171.0864109999999982
21
-63.79251
0
LINE
8
Edge.Cuts
6
CONTINUOUS
10
171.0864109999999982
20
-63.79251
11
171.1058969999999988
21
-63.7934459999999959
0
LINE
8
Edge.Cuts
6
CONTINUOUS
10
167.7675059999999974
20
-77.3896819999999934
11
181.2546159999999986
21
-80.7523949999999928
0
LINE
8
Edge.Cuts
6
CONTINUOUS
10
181.2546159999999986
20
-80.7523949999999928
11
184.6173289999999838
21
-67.2652849999999916
0
LINE
8
Edge.Cuts
6
CONTINUOUS
10
184.6173289999999838
20
-67.2652849999999916
11
171.1302189999999825
21
-63.9025719999999993
0
LINE
8
Edge.Cuts
6
CONTINUOUS
10
171.1302189999999825
20
-63.9025719999999993
11
167.7675059999999974
21
-77.3896819999999934
0
LINE
8
Edge.Cuts
6
CONTINUOUS
10
132.5412059999999883
20
-61.3924839999999961
11
146.1253460000000075
21
-64.7793899999999923
0
LINE
8
Edge.Cuts
6
CONTINUOUS
10
146.1253460000000075
20
-64.7793899999999923
11
146.142990999999995
21
-64.7877119999999991
0
LINE
8
Edge.Cuts
6
CONTINUOUS
10
146.142990999999995
20
-64.7877119999999991
11
146.1627009999999984
21
-64.8205140000000029
0
LINE
8
Edge.Cuts
6
CONTINUOUS
10
146.1627009999999984
20
-64.8205140000000029
11
146.1617650000000026
21
-64.8400010000000009
0
LINE
8
Edge.Cuts
6
CONTINUOUS
10
146.1617650000000026
20
-64.8400010000000009
11
142.7748589999999922
21
-78.4241409999999917
0
LINE
8
Edge.Cuts
6
CONTINUOUS
10
142.7748589999999922
20
-78.4241409999999917
11
142.7665369999999996
21
-78.4417859999999934
0
LINE
8
Edge.Cuts
6
CONTINUOUS
10
142.7665369999999996
20
-78.4417859999999934
11
142.7337349999999958
21
-78.4614959999999968
0
LINE
8
Edge.Cuts
6
CONTINUOUS
10
142.7337349999999958
20
-78.4614959999999968
11
142.7337339999999983
21
-78.4614949999999993
0
LINE
8
Edge.Cuts
6
CONTINUOUS
10
142.7337339999999983
20
-78.4614949999999993
11
142.7337339999999983
21
-78.4614959999999968
0
LINE
8
Edge.Cuts
6
CONTINUOUS
10
142.7337339999999983
20
-78.4614959999999968
11
142.7337330000000009
21
-78.4614949999999993
0
LINE
8
Edge.Cuts
6
CONTINUOUS
10
142.7337330000000009
20
-78.4614949999999993
11
142.7142479999999978
21
-78.460560000000001
0
LINE
8
Edge.Cuts
6
CONTINUOUS
10
142.7142479999999978
20
-78.460560000000001
11
129.130108000000007
21
-75.0736539999999906
0
LINE
8
Edge.Cuts
6
CONTINUOUS
10
129.130108000000007
20
-75.0736539999999906
11
129.1124629999999911
21
-75.0653319999999979
0
LINE
8
Edge.Cuts
6
CONTINUOUS
10
129.1124629999999911
20
-75.0653319999999979
11
129.0927529999999877
21
-75.0325289999999967
0
LINE
8
Edge.Cuts
6
CONTINUOUS
10
129.0927529999999877
20
-75.0325289999999967
11
129.0936889999999835
21
-75.0130429999999961
0
LINE
8
Edge.Cuts
6
CONTINUOUS
10
129.0936889999999835
20
-75.0130429999999961
11
132.4805949999999939
21
-61.4289029999999983
0
LINE
8
Edge.Cuts
6
CONTINUOUS
10
132.4805949999999939
20
-61.4289029999999983
11
132.4889169999999865
21
-61.4112579999999966
0
LINE
8
Edge.Cuts
6
CONTINUOUS
10
132.4889169999999865
20
-61.4112579999999966
11
132.5217199999999877
21
-61.3915480000000002
0
LINE
8
Edge.Cuts
6
CONTINUOUS
10
132.5217199999999877
20
-61.3915480000000002
11
132.5412059999999883
21
-61.3924839999999961
0
LINE
8
Edge.Cuts
6
CONTINUOUS
10
129.2028149999999869
20
-74.9887200000000007
11
142.6899249999999881
21
-78.3514330000000001
0
LINE
8
Edge.Cuts
6
CONTINUOUS
10
142.6899249999999881
20
-78.3514330000000001
11
146.0526380000000017
21
-64.8643229999999988
0
LINE
8
Edge.Cuts
6
CONTINUOUS
10
146.0526380000000017
20
-64.8643229999999988
11
132.5655280000000005
21
-61.5016099999999994
0
LINE
8
Edge.Cuts
6
CONTINUOUS
10
132.5655280000000005
20
-61.5016099999999994
11
129.2028149999999869
21
-74.9887200000000007
0
LINE
8
Edge.Cuts
6
CONTINUOUS
10
98.9159799999999905
20
-62.0010619999999975
11
98.9348009999999931
21
-62.0061929999999961
0
LINE
8
Edge.Cuts
6
CONTINUOUS
10
98.9348009999999931
20
-62.0061929999999961
11
98.9348019999999906
21
-62.0061940000000007
0
LINE
8
Edge.Cuts
6
CONTINUOUS
10
98.9348019999999906
20
-62.0061940000000007
11
98.9599079999999987
21
-62.0350749999999991
0
LINE
8
Edge.Cuts
6
CONTINUOUS
10
98.9599079999999987
20
-62.0350749999999991
11
98.9623699999999928
21
-62.0544279999999944
0
LINE
8
Edge.Cuts
6
CONTINUOUS
10
98.9623699999999928
20
-62.0544279999999944
11
97.9857789999999937
21
-76.0203249999999997
0
LINE
8
Edge.Cuts
6
CONTINUOUS
10
97.9857789999999937
20
-76.0203249999999997
11
97.9806480000000022
21
-76.0391469999999998
0
LINE
8
Edge.Cuts
6
CONTINUOUS
10
97.9806480000000022
20
-76.0391469999999998
11
97.9517659999999921
21
-76.0642529999999937
0
LINE
8
Edge.Cuts
6
CONTINUOUS
10
97.9517659999999921
20
-76.0642529999999937
11
97.9324129999999968
21
-76.0667150000000021
0
LINE
8
Edge.Cuts
6
CONTINUOUS
10
97.9324129999999968
20
-76.0667150000000021
11
83.9665159999999986
21
-75.090124000000003
0
LINE
8
Edge.Cuts
6
CONTINUOUS
10
83.9665159999999986
20
-75.090124000000003
11
83.9476939999999985
21
-75.0849929999999972
0
LINE
8
Edge.Cuts
6
CONTINUOUS
10
83.9476939999999985
20
-75.0849929999999972
11
83.9225879999999904
21
-75.0561110000000014
0
LINE
8
Edge.Cuts
6
CONTINUOUS
10
83.9225879999999904
20
-75.0561110000000014
11
83.9201259999999962
21
-75.0367579999999919
0
LINE
8
Edge.Cuts
6
CONTINUOUS
10
83.9201259999999962
20
-75.0367579999999919
11
84.8967169999999953
21
-61.0708610000000007
0
LINE
8
Edge.Cuts
6
CONTINUOUS
10
84.8967169999999953
20
-61.0708610000000007
11
84.9018480000000011
21
-61.0520399999999981
0
LINE
8
Edge.Cuts
6
CONTINUOUS
10
84.9018480000000011
20
-61.0520399999999981
11
84.9018480000000011
21
-61.0520390000000006
0
LINE
8
Edge.Cuts
6
CONTINUOUS
10
84.9018480000000011
20
-61.0520390000000006
11
84.9307299999999969
21
-61.0269329999999997
0
LINE
8
Edge.Cuts
6
CONTINUOUS
10
84.9307299999999969
20
-61.0269329999999997
11
84.9500829999999922
21
-61.0244709999999984
0
LINE
8
Edge.Cuts
6
CONTINUOUS
10
84.9500829999999922
20
-61.0244709999999984
11
98.9159799999999905
21
-62.0010619999999975
0
LINE
8
Edge.Cuts
6
CONTINUOUS
10
84.0233690000000024
20
-74.9938549999999964
11
97.8895100000000014
21
-75.9634709999999984
0
LINE
8
Edge.Cuts
6
CONTINUOUS
10
97.8895100000000014
20
-75.9634709999999984
11
98.8591259999999892
21
-62.0973299999999995
0
LINE
8
Edge.Cuts
6
CONTINUOUS
10
98.8591259999999892
20
-62.0973299999999995
11
84.9929849999999902
21
-61.1277139999999974
0
LINE
8
Edge.Cuts
6
CONTINUOUS
10
84.9929849999999902
20
-61.1277139999999974
11
84.0233690000000024
21
-74.9938549999999964
0
LINE
8
Edge.Cuts
6
CONTINUOUS
10
153.154122000000001
20
-57.256338999999997
11
166.7382619999999918
21
-60.6432450000000003
0
LINE
8
Edge.Cuts
6
CONTINUOUS
10
166.7382619999999918
20
-60.6432450000000003
11
166.7559069999999792
21
-60.651567
0
LINE
8
Edge.Cuts
6
CONTINUOUS
10
166.7559069999999792
20
-60.651567
11
166.7756169999999827
21
-60.6843689999999967
0
LINE
8
Edge.Cuts
6
CONTINUOUS
10
166.7756169999999827
20
-60.6843689999999967
11
166.7746809999999869
21
-60.7038559999999947
0
LINE
8
Edge.Cuts
6
CONTINUOUS
10
166.7746809999999869
20
-60.7038559999999947
11
163.3877750000000049
21
-74.2879959999999926
0
LINE
8
Edge.Cuts
6
CONTINUOUS
10
163.3877750000000049
20
-74.2879959999999926
11
163.3794529999999838
21
-74.3056409999999943
0
LINE
8
Edge.Cuts
6
CONTINUOUS
10
163.3794529999999838
20
-74.3056409999999943
11
163.3466509999999801
21
-74.3253509999999977
0
LINE
8
Edge.Cuts
6
CONTINUOUS
10
163.3466509999999801
20
-74.3253509999999977
11
163.3466499999999826
21
-74.3253500000000003
0
LINE
8
Edge.Cuts
6
CONTINUOUS
10
163.3466499999999826
20
-74.3253500000000003
11
163.3466499999999826
21
-74.3253509999999977
0
LINE
8
Edge.Cuts
6
CONTINUOUS
10
163.3466499999999826
20
-74.3253509999999977
11
163.3466489999999851
21
-74.3253500000000003
0
LINE
8
Edge.Cuts
6
CONTINUOUS
10
163.3466489999999851
20
-74.3253500000000003
11
163.327163999999982
21
-74.3244150000000019
0
LINE
8
Edge.Cuts
6
CONTINUOUS
10
163.327163999999982
20
-74.3244150000000019
11
149.7430239999999912
21
-70.9375089999999915
0
LINE
8
Edge.Cuts
6
CONTINUOUS
10
149.7430239999999912
20
-70.9375089999999915
11
149.7253790000000038
21
-70.9291869999999989
0
LINE
8
Edge.Cuts
6
CONTINUOUS
10
149.7253790000000038
20
-70.9291869999999989
11
149.7056690000000003
21
-70.8963839999999976
0
LINE
8
Edge.Cuts
6
CONTINUOUS
10
149.7056690000000003
20
-70.8963839999999976
11
149.7066049999999962
21
-70.8768979999999971
0
LINE
8
Edge.Cuts
6
CONTINUOUS
10
149.7066049999999962
20
-70.8768979999999971
11
153.0935110000000066
21
-57.2927579999999992
0
LINE
8
Edge.Cuts
6
CONTINUOUS
10
153.0935110000000066
20
-57.2927579999999992
11
153.1018329999999992
21
-57.2751129999999975
0
LINE
8
Edge.Cuts
6
CONTINUOUS
10
153.1018329999999992
20
-57.2751129999999975
11
153.1346360000000004
21
-57.2554029999999941
0
LINE
8
Edge.Cuts
6
CONTINUOUS
10
153.1346360000000004
20
-57.2554029999999941
11
153.154122000000001
21
-57.256338999999997
0
LINE
8
Edge.Cuts
6
CONTINUOUS
10
149.8157309999999995
20
-70.8525750000000016
11
163.3028410000000008
21
-74.215288000000001
0
LINE
8
Edge.Cuts
6
CONTINUOUS
10
163.3028410000000008
20
-74.215288000000001
11
166.665553999999986
21
-60.7281779999999998
0
LINE
8
Edge.Cuts
6
CONTINUOUS
10
166.665553999999986
20
-60.7281779999999998
11
153.1784439999999847
21
-57.3654650000000004
0
LINE
8
Edge.Cuts
6
CONTINUOUS
10
153.1784439999999847
20
-57.3654650000000004
11
149.8157309999999995
21
-70.8525750000000016
0
LINE
8
Edge.Cuts
6
CONTINUOUS
10
125.0081319999999891
20
-51.4821649999999948
11
125.02637
21
-51.4890749999999997
0
LINE
8
Edge.Cuts
6
CONTINUOUS
10
125.02637
20
-51.4890749999999997
11
125.0263749999999874
21
-51.4890759999999972
0
LINE
8
Edge.Cuts
6
CONTINUOUS
10
125.0263749999999874
20
-51.4890759999999972
11
125.0485979999999984
21
-51.5202309999999954
0
LINE
8
Edge.Cuts
6
CONTINUOUS
10
125.0485979999999984
20
-51.5202309999999954
11
125.0491929999999883
21
-51.5397309999999962
0
LINE
8
Edge.Cuts
6
CONTINUOUS
10
125.0491929999999883
20
-51.5397309999999962
11
122.7385269999999906
21
-65.3477290000000011
0
LINE
8
Edge.Cuts
6
CONTINUOUS
10
122.7385269999999906
20
-65.3477290000000011
11
122.7316159999999883
21
-65.3659679999999952
0
LINE
8
Edge.Cuts
6
CONTINUOUS
10
122.7316159999999883
20
-65.3659679999999952
11
122.7316159999999883
21
-65.3659729999999968
0
LINE
8
Edge.Cuts
6
CONTINUOUS
10
122.7316159999999883
20
-65.3659729999999968
11
122.70046099999999
21
-65.3881959999999935
0
LINE
8
Edge.Cuts
6
CONTINUOUS
10
122.70046099999999
20
-65.3881959999999935
11
122.6809609999999964
21
-65.3887909999999977
0
LINE
8
Edge.Cuts
6
CONTINUOUS
10
122.6809609999999964
20
-65.3887909999999977
11
108.8729629999999986
21
-63.078125
0
LINE
8
Edge.Cuts
6
CONTINUOUS
10
108.8729629999999986
20
-63.078125
11
108.8547189999999887
21
-63.0712130000000002
0
LINE
8
Edge.Cuts
6
CONTINUOUS
10
108.8547189999999887
20
-63.0712130000000002
11
108.8324969999999894
21
-63.0400579999999948
0
LINE
8
Edge.Cuts
6
CONTINUOUS
10
108.8324969999999894
20
-63.0400579999999948
11
108.831901000000002
21
-63.0205589999999987
0
LINE
8
Edge.Cuts
6
CONTINUOUS
10
108.831901000000002
20
-63.0205589999999987
11
111.1425669999999997
21
-49.2125599999999963
0
LINE
8
Edge.Cuts
6
CONTINUOUS
10
111.1425669999999997
20
-49.2125599999999963
11
111.1494789999999995
21
-49.1943169999999981
0
LINE
8
Edge.Cuts
6
CONTINUOUS
10
111.1494789999999995
20
-49.1943169999999981
11
111.1806339999999977
21
-49.1720940000000013
0
LINE
8
Edge.Cuts
6
CONTINUOUS
10
111.1806339999999977
20
-49.1720940000000013
11
111.1806389999999993
21
-49.1720940000000013
0
LINE
8
Edge.Cuts
6
CONTINUOUS
10
111.1806389999999993
20
-49.1720940000000013
11
111.2001329999999939
21
-49.1714989999999972
0
LINE
8
Edge.Cuts
6
CONTINUOUS
10
111.2001329999999939
20
-49.1714989999999972
11
125.0081319999999891
21
-51.4821649999999948
0
LINE
8
Edge.Cuts
6
CONTINUOUS
10
108.9387809999999916
20
-62.9877489999999938
11
122.6481509999999986
21
-65.2819099999999963
0
LINE
8
Edge.Cuts
6
CONTINUOUS
10
122.6481509999999986
20
-65.2819099999999963
11
124.9423120000000011
21
-51.5725399999999965
0
LINE
8
Edge.Cuts
6
CONTINUOUS
10
124.9423120000000011
20
-51.5725399999999965
11
111.2329419999999942
21
-49.278379000000001
0
LINE
8
Edge.Cuts
6
CONTINUOUS
10
111.2329419999999942
20
-49.278379000000001
11
108.9387809999999916
21
-62.9877489999999938
0
LINE
8
Edge.Cuts
6
CONTINUOUS
10
137.1377219999999966
20
-42.956865999999998
11
150.7218619999999873
21
-46.3437720000000013
0
LINE
8
Edge.Cuts
6
CONTINUOUS
10
150.7218619999999873
20
-46.3437720000000013
11
150.7395070000000032
21
-46.352094000000001
0
LINE
8
Edge.Cuts
6
CONTINUOUS
10
150.7395070000000032
20
-46.352094000000001
11
150.7592170000000067
21
-46.3848959999999977
0
LINE
8
Edge.Cuts
6
CONTINUOUS
10
150.7592170000000067
20
-46.3848959999999977
11
150.7582809999999824
21
-46.4043829999999957
0
LINE
8
Edge.Cuts
6
CONTINUOUS
10
150.7582809999999824
20
-46.4043829999999957
11
147.3713750000000005
21
-59.9885230000000007
0
LINE
8
Edge.Cuts
6
CONTINUOUS
10
147.3713750000000005
20
-59.9885230000000007
11
147.3630529999999794
21
-60.0061679999999953
0
LINE
8
Edge.Cuts
6
CONTINUOUS
10
147.3630529999999794
20
-60.0061679999999953
11
147.3302510000000041
21
-60.0258779999999987
0
LINE
8
Edge.Cuts
6
CONTINUOUS
10
147.3302510000000041
20
-60.0258779999999987
11
147.3302500000000066
21
-60.0258769999999942
0
LINE
8
Edge.Cuts
6
CONTINUOUS
10
147.3302500000000066
20
-60.0258769999999942
11
147.3302500000000066
21
-60.0258779999999987
0
LINE
8
Edge.Cuts
6
CONTINUOUS
10
147.3302500000000066
20
-60.0258779999999987
11
147.3302489999999807
21
-60.0258769999999942
0
LINE
8
Edge.Cuts
6
CONTINUOUS
10
147.3302489999999807
20
-60.0258769999999942
11
147.310764000000006
21
-60.0249419999999958
0
LINE
8
Edge.Cuts
6
CONTINUOUS
10
147.310764000000006
20
-60.0249419999999958
11
133.7266239999999868
21
-56.6380359999999996
0
LINE
8
Edge.Cuts
6
CONTINUOUS
10
133.7266239999999868
20
-56.6380359999999996
11
133.7089789999999994
21
-56.6297139999999999
0
LINE
8
Edge.Cuts
6
CONTINUOUS
10
133.7089789999999994
20
-56.6297139999999999
11
133.6892689999999959
21
-56.5969109999999986
0
LINE
8
Edge.Cuts
6
CONTINUOUS
10
133.6892689999999959
20
-56.5969109999999986
11
133.6902049999999917
21
-56.5774249999999981
0
LINE
8
Edge.Cuts
6
CONTINUOUS
10
133.6902049999999917
20
-56.5774249999999981
11
137.0771110000000022
21
-42.9932850000000002
0
LINE
8
Edge.Cuts
6
CONTINUOUS
10
137.0771110000000022
20
-42.9932850000000002
11
137.0854329999999948
21
-42.9756399999999985
0
LINE
8
Edge.Cuts
6
CONTINUOUS
10
137.0854329999999948
20
-42.9756399999999985
11
137.118235999999996
21
-42.9559299999999951
0
LINE
8
Edge.Cuts
6
CONTINUOUS
10
137.118235999999996
20
-42.9559299999999951
11
137.1377219999999966
21
-42.956865999999998
0
LINE
8
Edge.Cuts
6
CONTINUOUS
10
133.7993309999999951
20
-56.5531019999999955
11
147.2864409999999964
21
-59.9158149999999949
0
LINE
8
Edge.Cuts
6
CONTINUOUS
10
147.2864409999999964
20
-59.9158149999999949
11
150.6491539999999816
21
-46.4287050000000008
0
LINE
8
Edge.Cuts
6
CONTINUOUS
10
150.6491539999999816
20
-46.4287050000000008
11
137.1620439999999803
21
-43.0659920000000014
0
LINE
8
Edge.Cuts
6
CONTINUOUS
10
137.1620439999999803
20
-43.0659920000000014
11
133.7993309999999951
21
-56.5531019999999955
0
LINE
8
Edge.Cuts
6
CONTINUOUS
10
178.7918070000000057
20
-53.5845379999999949
11
178.9783539999999959
21
-53.6451509999999985
0
LINE
8
Edge.Cuts
6
CONTINUOUS
10
178.9783539999999959
20
-53.6451509999999985
11
179.1531229999999937
21
-53.7341999999999942
0
LINE
8
Edge.Cuts
6
CONTINUOUS
10
179.1531229999999937
20
-53.7341999999999942
11
179.3118099999999799
21
-53.8494929999999954
0
LINE
8
Edge.Cuts
6
CONTINUOUS
10
179.3118099999999799
20
-53.8494929999999954
11
179.4505069999999876
21
-53.9881899999999959
0
LINE
8
Edge.Cuts
6
CONTINUOUS
10
179.4505069999999876
20
-53.9881899999999959
11
179.5657999999999959
21
-54.1468769999999964
0
LINE
8
Edge.Cuts
6
CONTINUOUS
10
179.5657999999999959
20
-54.1468769999999964
11
179.6548489999999845
21
-54.3216459999999941
0
LINE
8
Edge.Cuts
6
CONTINUOUS
10
179.6548489999999845
20
-54.3216459999999941
11
179.7154620000000023
21
-54.5081929999999986
0
LINE
8
Edge.Cuts
6
CONTINUOUS
10
179.7154620000000023
20
-54.5081929999999986
11
179.7461469999999792
21
-54.7019260000000003
0
LINE
8
Edge.Cuts
6
CONTINUOUS
10
179.7461469999999792
20
-54.7019260000000003
11
179.7461469999999792
21
-54.898073999999994
0
LINE
8
Edge.Cuts
6
CONTINUOUS
10
179.7461469999999792
20
-54.898073999999994
11
179.7154620000000023
21
-55.0918069999999958
0
LINE
8
Edge.Cuts
6
CONTINUOUS
10
179.7154620000000023
20
-55.0918069999999958
11
179.6548489999999845
21
-55.2783540000000002
0
LINE
8
Edge.Cuts
6
CONTINUOUS
10
179.6548489999999845
20
-55.2783540000000002
11
179.5657999999999959
21
-55.4531229999999979
0
LINE
8
Edge.Cuts
6
CONTINUOUS
10
179.5657999999999959
20
-55.4531229999999979
11
179.4505069999999876
21
-55.6118099999999984
0
LINE
8
Edge.Cuts
6
CONTINUOUS
10
179.4505069999999876
20
-55.6118099999999984
11
179.3118099999999799
21
-55.7505069999999989
0
LINE
8
Edge.Cuts
6
CONTINUOUS
10
179.3118099999999799
20
-55.7505069999999989
11
179.1531229999999937
21
-55.8658000000000001
0
LINE
8
Edge.Cuts
6
CONTINUOUS
10
179.1531229999999937
20
-55.8658000000000001
11
178.9783539999999959
21
-55.9548489999999958
0
LINE
8
Edge.Cuts
6
CONTINUOUS
10
178.9783539999999959
20
-55.9548489999999958
11
178.7918070000000057
21
-56.0154619999999994
0
LINE
8
Edge.Cuts
6
CONTINUOUS
10
178.7918070000000057
20
-56.0154619999999994
11
178.5980739999999969
21
-56.0461469999999977
0
LINE
8
Edge.Cuts
6
CONTINUOUS
10
178.5980739999999969
20
-56.0461469999999977
11
178.4019260000000031
21
-56.0461469999999977
0
LINE
8
Edge.Cuts
6
CONTINUOUS
10
178.4019260000000031
20
-56.0461469999999977
11
178.2081929999999943
21
-56.0154619999999994
0
LINE
8
Edge.Cuts
6
CONTINUOUS
10
178.2081929999999943
20
-56.0154619999999994
11
178.0216460000000041
21
-55.9548489999999958
0
LINE
8
Edge.Cuts
6
CONTINUOUS
10
178.0216460000000041
20
-55.9548489999999958
11
177.8468769999999779
21
-55.8658000000000001
0
LINE
8
Edge.Cuts
6
CONTINUOUS
10
177.8468769999999779
20
-55.8658000000000001
11
177.6881899999999916
21
-55.7505069999999989
0
LINE
8
Edge.Cuts
6
CONTINUOUS
10
177.6881899999999916
20
-55.7505069999999989
11
177.549492999999984
21
-55.6118099999999984
0
LINE
8
Edge.Cuts
6
CONTINUOUS
10
177.549492999999984
20
-55.6118099999999984
11
177.4342000000000041
21
-55.4531229999999979
0
LINE
8
Edge.Cuts
6
CONTINUOUS
10
177.4342000000000041
20
-55.4531229999999979
11
177.3451509999999871
21
-55.2783540000000002
0
LINE
8
Edge.Cuts
6
CONTINUOUS
10
177.3451509999999871
20
-55.2783540000000002
11
177.2845379999999977
21
-55.0918069999999958
0
LINE
8
Edge.Cuts
6
CONTINUOUS
10
177.2845379999999977
20
-55.0918069999999958
11
177.2538529999999923
21
-54.898073999999994
0
LINE
8
Edge.Cuts
6
CONTINUOUS
10
177.2538529999999923
20
-54.898073999999994
11
177.2538529999999923
21
-54.7094929999999948
0
LINE
8
Edge.Cuts
6
CONTINUOUS
10
177.2538529999999923
20
-54.7094929999999948
11
177.2538529999999923
21
-54.7019260000000003
0
LINE
8
Edge.Cuts
6
CONTINUOUS
10
177.2538529999999923
20
-54.7019260000000003
11
177.2845379999999977
21
-54.5081929999999986
0
LINE
8
Edge.Cuts
6
CONTINUOUS
10
177.2845379999999977
20
-54.5081929999999986
11
177.3451509999999871
21
-54.3216459999999941
0
LINE
8
Edge.Cuts
6
CONTINUOUS
10
177.3451509999999871
20
-54.3216459999999941
11
177.4342000000000041
21
-54.1468769999999964
0
LINE
8
Edge.Cuts
6
CONTINUOUS
10
177.4342000000000041
20
-54.1468769999999964
11
177.549492999999984
21
-53.9881899999999959
0
LINE
8
Edge.Cuts
6
CONTINUOUS
10
177.549492999999984
20
-53.9881899999999959
11
177.6881899999999916
21
-53.8494929999999954
0
LINE
8
Edge.Cuts
6
CONTINUOUS
10
177.6881899999999916
20
-53.8494929999999954
11
177.8468769999999779
21
-53.7341999999999942
0
LINE
8
Edge.Cuts
6
CONTINUOUS
10
177.8468769999999779
20
-53.7341999999999942
11
178.0216460000000041
21
-53.6451509999999985
0
LINE
8
Edge.Cuts
6
CONTINUOUS
10
178.0216460000000041
20
-53.6451509999999985
11
178.2081929999999943
21
-53.5845379999999949
0
LINE
8
Edge.Cuts
6
CONTINUOUS
10
178.2081929999999943
20
-53.5845379999999949
11
178.4019260000000031
21
-53.5538529999999966
0
LINE
8
Edge.Cuts
6
CONTINUOUS
10
178.4019260000000031
20
-53.5538529999999966
11
178.5980739999999969
21
-53.5538529999999966
0
LINE
8
Edge.Cuts
6
CONTINUOUS
10
178.5980739999999969
20
-53.5538529999999966
11
178.7918070000000057
21
-53.5845379999999949
0
LINE
8
Edge.Cuts
6
CONTINUOUS
10
177.3499999999999943
20
-54.8905069999999995
11
177.3783169999999814
21
-55.0692919999999972
0
LINE
8
Edge.Cuts
6
CONTINUOUS
10
177.3783169999999814
20
-55.0692919999999972
11
177.434252999999984
21
-55.2414470000000009
0
LINE
8
Edge.Cuts
6
CONTINUOUS
10
177.434252999999984
20
-55.2414470000000009
11
177.5164319999999805
21
-55.4027309999999957
0
LINE
8
Edge.Cuts
6
CONTINUOUS
10
177.5164319999999805
20
-55.4027309999999957
11
177.6228289999999959
21
-55.5491749999999982
0
LINE
8
Edge.Cuts
6
CONTINUOUS
10
177.6228289999999959
20
-55.5491749999999982
11
177.7508249999999919
21
-55.6771709999999942
0
LINE
8
Edge.Cuts
6
CONTINUOUS
10
177.7508249999999919
20
-55.6771709999999942
11
177.8972689999999943
21
-55.7835679999999954
0
LINE
8
Edge.Cuts
6
CONTINUOUS
10
177.8972689999999943
20
-55.7835679999999954
11
178.0585529999999892
21
-55.8657469999999989
0
LINE
8
Edge.Cuts
6
CONTINUOUS
10
178.0585529999999892
20
-55.8657469999999989
11
178.2307079999999928
21
-55.9216829999999945
0
LINE
8
Edge.Cuts
6
CONTINUOUS
10
178.2307079999999928
20
-55.9216829999999945
11
178.4094929999999977
21
-55.9499999999999957
0
LINE
8
Edge.Cuts
6
CONTINUOUS
10
178.4094929999999977
20
-55.9499999999999957
11
178.5905070000000023
21
-55.9499999999999957
0
LINE
8
Edge.Cuts
6
CONTINUOUS
10
178.5905070000000023
20
-55.9499999999999957
11
178.7692919999999788
21
-55.9216829999999945
0
LINE
8
Edge.Cuts
6
CONTINUOUS
10
178.7692919999999788
20
-55.9216829999999945
11
178.9414469999999824
21
-55.8657469999999989
0
LINE
8
Edge.Cuts
6
CONTINUOUS
10
178.9414469999999824
20
-55.8657469999999989
11
179.1027310000000057
21
-55.7835679999999954
0
LINE
8
Edge.Cuts
6
CONTINUOUS
10
179.1027310000000057
20
-55.7835679999999954
11
179.2491749999999797
21
-55.6771709999999942
0
LINE
8
Edge.Cuts
6
CONTINUOUS
10
179.2491749999999797
20
-55.6771709999999942
11
179.3771710000000041
21
-55.5491749999999982
0
LINE
8
Edge.Cuts
6
CONTINUOUS
10
179.3771710000000041
20
-55.5491749999999982
11
179.4835679999999911
21
-55.4027309999999957
0
LINE
8
Edge.Cuts
6
CONTINUOUS
10
179.4835679999999911
20
-55.4027309999999957
11
179.5657469999999876
21
-55.2414470000000009
0
LINE
8
Edge.Cuts
6
CONTINUOUS
10
179.5657469999999876
20
-55.2414470000000009
11
179.6216829999999902
21
-55.0692919999999972
0
LINE
8
Edge.Cuts
6
CONTINUOUS
10
179.6216829999999902
20
-55.0692919999999972
11
179.6500000000000057
21
-54.8905069999999995
0
LINE
8
Edge.Cuts
6
CONTINUOUS
10
179.6500000000000057
20
-54.8905069999999995
11
179.6500000000000057
21
-54.7094929999999948
0
LINE
8
Edge.Cuts
6
CONTINUOUS
10
179.6500000000000057
20
-54.7094929999999948
11
179.6216829999999902
21
-54.5307079999999971
0
LINE
8
Edge.Cuts
6
CONTINUOUS
10
179.6216829999999902
20
-54.5307079999999971
11
179.5657469999999876
21
-54.3585530000000006
0
LINE
8
Edge.Cuts
6
CONTINUOUS
10
179.5657469999999876
20
-54.3585530000000006
11
179.4835679999999911
21
-54.1972689999999986
0
LINE
8
Edge.Cuts
6
CONTINUOUS
10
179.4835679999999911
20
-54.1972689999999986
11
179.3771710000000041
21
-54.0508249999999961
0
LINE
8
Edge.Cuts
6
CONTINUOUS
10
179.3771710000000041
20
-54.0508249999999961
11
179.2491749999999797
21
-53.9228290000000001
0
LINE
8
Edge.Cuts
6
CONTINUOUS
10
179.2491749999999797
20
-53.9228290000000001
11
179.1027310000000057
21
-53.8164319999999989
0
LINE
8
Edge.Cuts
6
CONTINUOUS
10
179.1027310000000057
20
-53.8164319999999989
11
178.9414469999999824
21
-53.7342529999999954
0
LINE
8
Edge.Cuts
6
CONTINUOUS
10
178.9414469999999824
20
-53.7342529999999954
11
178.7692919999999788
21
-53.6783169999999998
0
LINE
8
Edge.Cuts
6
CONTINUOUS
10
178.7692919999999788
20
-53.6783169999999998
11
178.5905070000000023
21
-53.6499999999999986
0
LINE
8
Edge.Cuts
6
CONTINUOUS
10
178.5905070000000023
20
-53.6499999999999986
11
178.4094929999999977
21
-53.6499999999999986
0
LINE
8
Edge.Cuts
6
CONTINUOUS
10
178.4094929999999977
20
-53.6499999999999986
11
178.2307079999999928
21
-53.6783169999999998
0
LINE
8
Edge.Cuts
6
CONTINUOUS
10
178.2307079999999928
20
-53.6783169999999998
11
178.0585529999999892
21
-53.7342529999999954
0
LINE
8
Edge.Cuts
6
CONTINUOUS
10
178.0585529999999892
20
-53.7342529999999954
11
177.8972689999999943
21
-53.8164319999999989
0
LINE
8
Edge.Cuts
6
CONTINUOUS
10
177.8972689999999943
20
-53.8164319999999989
11
177.7508249999999919
21
-53.9228290000000001
0
LINE
8
Edge.Cuts
6
CONTINUOUS
10
177.7508249999999919
20
-53.9228290000000001
11
177.6228289999999959
21
-54.0508249999999961
0
LINE
8
Edge.Cuts
6
CONTINUOUS
10
177.6228289999999959
20
-54.0508249999999961
11
177.5164319999999805
21
-54.1972689999999986
0
LINE
8
Edge.Cuts
6
CONTINUOUS
10
177.5164319999999805
20
-54.1972689999999986
11
177.434252999999984
21
-54.3585530000000006
0
LINE
8
Edge.Cuts
6
CONTINUOUS
10
177.434252999999984
20
-54.3585530000000006
11
177.3783169999999814
21
-54.5307079999999971
0
LINE
8
Edge.Cuts
6
CONTINUOUS
10
177.3783169999999814
20
-54.5307079999999971
11
177.3499999999999943
21
-54.7094929999999948
0
LINE
8
Edge.Cuts
6
CONTINUOUS
10
177.3499999999999943
20
-54.7094929999999948
11
177.3499999999999943
21
-54.8905069999999995
0
LINE
8
Edge.Cuts
6
CONTINUOUS
10
87.2918069999999915
20
-52.0845379999999949
11
87.4783539999999959
21
-52.1451509999999985
0
LINE
8
Edge.Cuts
6
CONTINUOUS
10
87.4783539999999959
20
-52.1451509999999985
11
87.6531229999999937
21
-52.2341999999999942
0
LINE
8
Edge.Cuts
6
CONTINUOUS
10
87.6531229999999937
20
-52.2341999999999942
11
87.8118099999999941
21
-52.3494929999999954
0
LINE
8
Edge.Cuts
6
CONTINUOUS
10
87.8118099999999941
20
-52.3494929999999954
11
87.9505070000000018
21
-52.4881899999999959
0
LINE
8
Edge.Cuts
6
CONTINUOUS
10
87.9505070000000018
20
-52.4881899999999959
11
88.0657999999999959
21
-52.6468769999999964
0
LINE
8
Edge.Cuts
6
CONTINUOUS
10
88.0657999999999959
20
-52.6468769999999964
11
88.1548489999999987
21
-52.8216459999999941
0
LINE
8
Edge.Cuts
6
CONTINUOUS
10
88.1548489999999987
20
-52.8216459999999941
11
88.2154620000000023
21
-53.0081929999999986
0
LINE
8
Edge.Cuts
6
CONTINUOUS
10
88.2154620000000023
20
-53.0081929999999986
11
88.2461469999999935
21
-53.2019260000000003
0
LINE
8
Edge.Cuts
6
CONTINUOUS
10
88.2461469999999935
20
-53.2019260000000003
11
88.2461469999999935
21
-53.398073999999994
0
LINE
8
Edge.Cuts
6
CONTINUOUS
10
88.2461469999999935
20
-53.398073999999994
11
88.2154620000000023
21
-53.5918069999999958
0
LINE
8
Edge.Cuts
6
CONTINUOUS
10
88.2154620000000023
20
-53.5918069999999958
11
88.1548489999999987
21
-53.7783540000000002
0
LINE
8
Edge.Cuts
6
CONTINUOUS
10
88.1548489999999987
20
-53.7783540000000002
11
88.0657999999999959
21
-53.9531229999999979
0
LINE
8
Edge.Cuts
6
CONTINUOUS
10
88.0657999999999959
20
-53.9531229999999979
11
87.9505070000000018
21
-54.1118099999999984
0
LINE
8
Edge.Cuts
6
CONTINUOUS
10
87.9505070000000018
20
-54.1118099999999984
11
87.8118099999999941
21
-54.2505069999999989
0
LINE
8
Edge.Cuts
6
CONTINUOUS
10
87.8118099999999941
20
-54.2505069999999989
11
87.6531229999999937
21
-54.3658000000000001
0
LINE
8
Edge.Cuts
6
CONTINUOUS
10
87.6531229999999937
20
-54.3658000000000001
11
87.4783539999999959
21
-54.4548489999999958
0
LINE
8
Edge.Cuts
6
CONTINUOUS
10
87.4783539999999959
20
-54.4548489999999958
11
87.2918069999999915
21
-54.5154619999999994
0
LINE
8
Edge.Cuts
6
CONTINUOUS
10
87.2918069999999915
20
-54.5154619999999994
11
87.0980739999999969
21
-54.5461469999999977
0
LINE
8
Edge.Cuts
6
CONTINUOUS
10
87.0980739999999969
20
-54.5461469999999977
11
86.9019260000000031
21
-54.5461469999999977
0
LINE
8
Edge.Cuts
6
CONTINUOUS
10
86.9019260000000031
20
-54.5461469999999977
11
86.7081929999999943
21
-54.5154619999999994
0
LINE
8
Edge.Cuts
6
CONTINUOUS
10
86.7081929999999943
20
-54.5154619999999994
11
86.5216459999999898
21
-54.4548489999999958
0
LINE
8
Edge.Cuts
6
CONTINUOUS
10
86.5216459999999898
20
-54.4548489999999958
11
86.3468769999999921
21
-54.3658000000000001
0
LINE
8
Edge.Cuts
6
CONTINUOUS
10
86.3468769999999921
20
-54.3658000000000001
11
86.1881899999999916
21
-54.2505069999999989
0
LINE
8
Edge.Cuts
6
CONTINUOUS
10
86.1881899999999916
20
-54.2505069999999989
11
86.0494929999999982
21
-54.1118099999999984
0
LINE
8
Edge.Cuts
6
CONTINUOUS
10
86.0494929999999982
20
-54.1118099999999984
11
85.9341999999999899
21
-53.9531229999999979
0
LINE
8
Edge.Cuts
6
CONTINUOUS
10
85.9341999999999899
20
-53.9531229999999979
11
85.8451510000000013
21
-53.7783540000000002
0
LINE
8
Edge.Cuts
6
CONTINUOUS
10
85.8451510000000013
20
-53.7783540000000002
11
85.7845379999999977
21
-53.5918069999999958
0
LINE
8
Edge.Cuts
6
CONTINUOUS
10
85.7845379999999977
20
-53.5918069999999958
11
85.7538529999999923
21
-53.398073999999994
0
LINE
8
Edge.Cuts
6
CONTINUOUS
10
85.7538529999999923
20
-53.398073999999994
11
85.7538529999999923
21
-53.2094929999999948
0
LINE
8
Edge.Cuts
6
CONTINUOUS
10
85.7538529999999923
20
-53.2094929999999948
11
85.7538529999999923
21
-53.2019260000000003
0
LINE
8
Edge.Cuts
6
CONTINUOUS
10
85.7538529999999923
20
-53.2019260000000003
11
85.7845379999999977
21
-53.0081929999999986
0
LINE
8
Edge.Cuts
6
CONTINUOUS
10
85.7845379999999977
20
-53.0081929999999986
11
85.8451510000000013
21
-52.8216459999999941
0
LINE
8
Edge.Cuts
6
CONTINUOUS
10
85.8451510000000013
20
-52.8216459999999941
11
85.9341999999999899
21
-52.6468769999999964
0
LINE
8
Edge.Cuts
6
CONTINUOUS
10
85.9341999999999899
20
-52.6468769999999964
11
86.0494929999999982
21
-52.4881899999999959
0
LINE
8
Edge.Cuts
6
CONTINUOUS
10
86.0494929999999982
20
-52.4881899999999959
11
86.1881899999999916
21
-52.3494929999999954
0
LINE
8
Edge.Cuts
6
CONTINUOUS
10
86.1881899999999916
20
-52.3494929999999954
11
86.3468769999999921
21
-52.2341999999999942
0
LINE
8
Edge.Cuts
6
CONTINUOUS
10
86.3468769999999921
20
-52.2341999999999942
11
86.5216459999999898
21
-52.1451509999999985
0
LINE
8
Edge.Cuts
6
CONTINUOUS
10
86.5216459999999898
20
-52.1451509999999985
11
86.7081929999999943
21
-52.0845379999999949
0
LINE
8
Edge.Cuts
6
CONTINUOUS
10
86.7081929999999943
20
-52.0845379999999949
11
86.9019260000000031
21
-52.0538529999999966
0
LINE
8
Edge.Cuts
6
CONTINUOUS
10
86.9019260000000031
20
-52.0538529999999966
11
87.0980739999999969
21
-52.0538529999999966
0
LINE
8
Edge.Cuts
6
CONTINUOUS
10
87.0980739999999969
20
-52.0538529999999966
11
87.2918069999999915
21
-52.0845379999999949
0
LINE
8
Edge.Cuts
6
CONTINUOUS
10
85.8499999999999943
20
-53.3905069999999995
11
85.8783169999999956
21
-53.5692919999999972
0
LINE
8
Edge.Cuts
6
CONTINUOUS
10
85.8783169999999956
20
-53.5692919999999972
11
85.9342529999999982
21
-53.7414470000000009
0
LINE
8
Edge.Cuts
6
CONTINUOUS
10
85.9342529999999982
20
-53.7414470000000009
11
86.0164319999999947
21
-53.9027309999999957
0
LINE
8
Edge.Cuts
6
CONTINUOUS
10
86.0164319999999947
20
-53.9027309999999957
11
86.1228289999999959
21
-54.0491749999999982
0
LINE
8
Edge.Cuts
6
CONTINUOUS
10
86.1228289999999959
20
-54.0491749999999982
11
86.2508249999999919
21
-54.1771709999999942
0
LINE
8
Edge.Cuts
6
CONTINUOUS
10
86.2508249999999919
20
-54.1771709999999942
11
86.3972689999999943
21
-54.2835679999999954
0
LINE
8
Edge.Cuts
6
CONTINUOUS
10
86.3972689999999943
20
-54.2835679999999954
11
86.5585529999999892
21
-54.3657469999999989
0
LINE
8
Edge.Cuts
6
CONTINUOUS
10
86.5585529999999892
20
-54.3657469999999989
11
86.7307079999999928
21
-54.4216829999999945
0
LINE
8
Edge.Cuts
6
CONTINUOUS
10
86.7307079999999928
20
-54.4216829999999945
11
86.9094929999999977
21
-54.4499999999999957
0
LINE
8
Edge.Cuts
6
CONTINUOUS
10
86.9094929999999977
20
-54.4499999999999957
11
87.0905070000000023
21
-54.4499999999999957
0
LINE
8
Edge.Cuts
6
CONTINUOUS
10
87.0905070000000023
20
-54.4499999999999957
11
87.269291999999993
21
-54.4216829999999945
0
LINE
8
Edge.Cuts
6
CONTINUOUS
10
87.269291999999993
20
-54.4216829999999945
11
87.4414469999999966
21
-54.3657469999999989
0
LINE
8
Edge.Cuts
6
CONTINUOUS
10
87.4414469999999966
20
-54.3657469999999989
11
87.6027309999999915
21
-54.2835679999999954
0
LINE
8
Edge.Cuts
6
CONTINUOUS
10
87.6027309999999915
20
-54.2835679999999954
11
87.7491749999999939
21
-54.1771709999999942
0
LINE
8
Edge.Cuts
6
CONTINUOUS
10
87.7491749999999939
20
-54.1771709999999942
11
87.8771709999999899
21
-54.0491749999999982
0
LINE
8
Edge.Cuts
6
CONTINUOUS
10
87.8771709999999899
20
-54.0491749999999982
11
87.9835679999999911
21
-53.9027309999999957
0
LINE
8
Edge.Cuts
6
CONTINUOUS
10
87.9835679999999911
20
-53.9027309999999957
11
88.0657470000000018
21
-53.7414470000000009
0
LINE
8
Edge.Cuts
6
CONTINUOUS
10
88.0657470000000018
20
-53.7414470000000009
11
88.1216829999999902
21
-53.5692919999999972
0
LINE
8
Edge.Cuts
6
CONTINUOUS
10
88.1216829999999902
20
-53.5692919999999972
11
88.1499999999999915
21
-53.3905069999999995
0
LINE
8
Edge.Cuts
6
CONTINUOUS
10
88.1499999999999915
20
-53.3905069999999995
11
88.1499999999999915
21
-53.2094929999999948
0
LINE
8
Edge.Cuts
6
CONTINUOUS
10
88.1499999999999915
20
-53.2094929999999948
11
88.1216829999999902
21
-53.0307079999999971
0
LINE
8
Edge.Cuts
6
CONTINUOUS
10
88.1216829999999902
20
-53.0307079999999971
11
88.0657470000000018
21
-52.8585530000000006
0
LINE
8
Edge.Cuts
6
CONTINUOUS
10
88.0657470000000018
20
-52.8585530000000006
11
87.9835679999999911
21
-52.6972689999999986
0
LINE
8
Edge.Cuts
6
CONTINUOUS
10
87.9835679999999911
20
-52.6972689999999986
11
87.8771709999999899
21
-52.5508249999999961
0
LINE
8
Edge.Cuts
6
CONTINUOUS
10
87.8771709999999899
20
-52.5508249999999961
11
87.7491749999999939
21
-52.4228290000000001
0
LINE
8
Edge.Cuts
6
CONTINUOUS
10
87.7491749999999939
20
-52.4228290000000001
11
87.6027309999999915
21
-52.3164319999999989
0
LINE
8
Edge.Cuts
6
CONTINUOUS
10
87.6027309999999915
20
-52.3164319999999989
11
87.4414469999999966
21
-52.2342529999999954
0
LINE
8
Edge.Cuts
6
CONTINUOUS
10
87.4414469999999966
20
-52.2342529999999954
11
87.269291999999993
21
-52.1783169999999998
0
LINE
8
Edge.Cuts
6
CONTINUOUS
10
87.269291999999993
20
-52.1783169999999998
11
87.0905070000000023
21
-52.1499999999999986
0
LINE
8
Edge.Cuts
6
CONTINUOUS
10
87.0905070000000023
20
-52.1499999999999986
11
86.9094929999999977
21
-52.1499999999999986
0
LINE
8
Edge.Cuts
6
CONTINUOUS
10
86.9094929999999977
20
-52.1499999999999986
11
86.7307079999999928
21
-52.1783169999999998
0
LINE
8
Edge.Cuts
6
CONTINUOUS
10
86.7307079999999928
20
-52.1783169999999998
11
86.5585529999999892
21
-52.2342529999999954
0
LINE
8
Edge.Cuts
6
CONTINUOUS
10
86.5585529999999892
20
-52.2342529999999954
11
86.3972689999999943
21
-52.3164319999999989
0
LINE
8
Edge.Cuts
6
CONTINUOUS
10
86.3972689999999943
20
-52.3164319999999989
11
86.2508249999999919
21
-52.4228290000000001
0
LINE
8
Edge.Cuts
6
CONTINUOUS
10
86.2508249999999919
20
-52.4228290000000001
11
86.1228289999999959
21
-52.5508249999999961
0
LINE
8
Edge.Cuts
6
CONTINUOUS
10
86.1228289999999959
20
-52.5508249999999961
11
86.0164319999999947
21
-52.6972689999999986
0
LINE
8
Edge.Cuts
6
CONTINUOUS
10
86.0164319999999947
20
-52.6972689999999986
11
85.9342529999999982
21
-52.8585530000000006
0
LINE
8
Edge.Cuts
6
CONTINUOUS
10
85.9342529999999982
20
-52.8585530000000006
11
85.8783169999999956
21
-53.0307079999999971
0
LINE
8
Edge.Cuts
6
CONTINUOUS
10
85.8783169999999956
20
-53.0307079999999971
11
85.8499999999999943
21
-53.2094929999999948
0
LINE
8
Edge.Cuts
6
CONTINUOUS
10
85.8499999999999943
20
-53.2094929999999948
11
85.8499999999999943
21
-53.3905069999999995
0
LINE
8
Edge.Cuts
6
CONTINUOUS
10
135.5072339999999826
20
-39.5286399999999958
11
135.7191069999999797
21
-39.551719999999996
0
LINE
8
Edge.Cuts
6
CONTINUOUS
10
135.7191069999999797
20
-39.551719999999996
11
135.7196749999999952
21
-39.5520099999999957
0
LINE
8
Edge.Cuts
6
CONTINUOUS
10
135.7196749999999952
20
-39.5520099999999957
11
135.7220199999999863
21
-39.5522440000000017
0
LINE
8
Edge.Cuts
6
CONTINUOUS
10
135.7220199999999863
20
-39.5522440000000017
11
187.3033449999999789
21
-49.8763900000000007
0
LINE
8
Edge.Cuts
6
CONTINUOUS
10
187.3033449999999789
20
-49.8763900000000007
11
187.3048459999999977
21
-49.8768469999999979
0
LINE
8
Edge.Cuts
6
CONTINUOUS
10
187.3048459999999977
20
-49.8768469999999979
11
187.3052969999999959
21
-49.8768069999999994
0
LINE
8
Edge.Cuts
6
CONTINUOUS
10
187.3052969999999959
20
-49.8768069999999994
11
187.5509569999999826
21
-49.9491569999999996
0
LINE
8
Edge.Cuts
6
CONTINUOUS
10
187.5509569999999826
20
-49.9491569999999996
11
187.7858049999999821
21
-50.051286999999995
0
LINE
8
Edge.Cuts
6
CONTINUOUS
10
187.7858049999999821
20
-50.051286999999995
11
188.006243999999981
21
-50.1816339999999954
0
LINE
8
Edge.Cuts
6
CONTINUOUS
10
188.006243999999981
20
-50.1816339999999954
11
188.2089019999999948
21
-50.3382019999999955
0
LINE
8
Edge.Cuts
6
CONTINUOUS
10
188.2089019999999948
20
-50.3382019999999955
11
188.3906759999999849
21
-50.5185949999999977
0
LINE
8
Edge.Cuts
6
CONTINUOUS
10
188.3906759999999849
20
-50.5185949999999977
11
188.548784999999981
21
-50.7200539999999975
0
LINE
8
Edge.Cuts
6
CONTINUOUS
10
188.548784999999981
20
-50.7200539999999975
11
188.6808079999999848
21
-50.9394929999999988
0
LINE
8
Edge.Cuts
6
CONTINUOUS
10
188.6808079999999848
20
-50.9394929999999988
11
188.7847249999999804
21
-51.1735539999999958
0
LINE
8
Edge.Cuts
6
CONTINUOUS
10
188.7847249999999804
20
-51.1735539999999958
11
188.8589460000000031
21
-51.4186559999999986
0
LINE
8
Edge.Cuts
6
CONTINUOUS
10
188.8589460000000031
20
-51.4186559999999986
11
188.9023339999999962
21
-51.6710469999999944
0
LINE
8
Edge.Cuts
6
CONTINUOUS
10
188.9023339999999962
20
-51.6710469999999944
11
188.9140109999999879
21
-51.9222589999999968
0
LINE
8
Edge.Cuts
6
CONTINUOUS
10
188.9140109999999879
20
-51.9222589999999968
11
188.9142129999999895
21
-51.9238959999999992
0
LINE
8
Edge.Cuts
6
CONTINUOUS
10
188.9142129999999895
20
-51.9238959999999992
11
191.1004079999999874
21
-142.5084039999999845
0
LINE
8
Edge.Cuts
6
CONTINUOUS
10
191.1004079999999874
20
-142.5084039999999845
11
191.0993210000000033
21
-142.5230669999999975
0
LINE
8
Edge.Cuts
6
CONTINUOUS
10
191.0993210000000033
20
-142.5230669999999975
11
191.0939309999999978
21
-142.5370189999999866
0
LINE
8
Edge.Cuts
6
CONTINUOUS
10
191.0939309999999978
20
-142.5370189999999866
11
191.093277999999998
21
-142.542176999999981
0
LINE
8
Edge.Cuts
6
CONTINUOUS
10
191.093277999999998
20
-142.542176999999981
11
190.9974789999999985
21
-142.722219999999993
0
LINE
8
Edge.Cuts
6
CONTINUOUS
10
190.9974789999999985
20
-142.722219999999993
11
190.8846130000000016
21
-142.8920860000000062
0
LINE
8
Edge.Cuts
6
CONTINUOUS
10
190.8846130000000016
20
-142.8920860000000062
11
190.755753999999996
21
-143.0501620000000003
0
LINE
8
Edge.Cuts
6
CONTINUOUS
10
190.755753999999996
20
-143.0501620000000003
11
190.7552649999999801
21
-143.0504439999999988
0
LINE
8
Edge.Cuts
6
CONTINUOUS
10
190.7552649999999801
20
-143.0504439999999988
11
190.7539840000000027
21
-143.0520649999999989
0
LINE
8
Edge.Cuts
6
CONTINUOUS
10
190.7539840000000027
20
-143.0520649999999989
11
174.4979569999999853
21
-159.9070959999999957
0
LINE
8
Edge.Cuts
6
CONTINUOUS
10
174.4979569999999853
20
-159.9070959999999957
11
174.49580899999998
21
-159.9089239999999847
0
LINE
8
Edge.Cuts
6
CONTINUOUS
10
174.49580899999998
20
-159.9089239999999847
11
174.4954559999999901
21
-159.9095709999999997
0
LINE
8
Edge.Cuts
6
CONTINUOUS
10
174.4954559999999901
20
-159.9095709999999997
11
174.3161559999999781
21
-160.060436999999979
0
LINE
8
Edge.Cuts
6
CONTINUOUS
10
174.3161559999999781
20
-160.060436999999979
11
174.1208319999999787
21
-160.1898889999999938
0
LINE
8
Edge.Cuts
6
CONTINUOUS
10
174.1208319999999787
20
-160.1898889999999938
11
173.9120299999999872
21
-160.2962409999999807
0
LINE
8
Edge.Cuts
6
CONTINUOUS
10
173.9120299999999872
20
-160.2962409999999807
11
173.6924689999999885
21
-160.3781079999999974
0
LINE
8
Edge.Cuts
6
CONTINUOUS
10
173.6924689999999885
20
-160.3781079999999974
11
173.4650099999999782
21
-160.4344239999999786
0
LINE
8
Edge.Cuts
6
CONTINUOUS
10
173.4650099999999782
20
-160.4344239999999786
11
173.2326149999999814
21
-160.4644539999999893
0
LINE
8
Edge.Cuts
6
CONTINUOUS
10
173.2326149999999814
20
-160.4644539999999893
11
172.9983119999999985
21
-160.4678069999999934
0
LINE
8
Edge.Cuts
6
CONTINUOUS
10
172.9983119999999985
20
-160.4678069999999934
11
172.9979600000000062
21
-160.4676749999999856
0
LINE
8
Edge.Cuts
6
CONTINUOUS
10
172.9979600000000062
20
-160.4676749999999856
11
172.9973609999999837
21
-160.4677609999999959
0
LINE
8
Edge.Cuts
6
CONTINUOUS
10
172.9973609999999837
20
-160.4677609999999959
11
172.9828320000000019
21
-160.4655099999999948
0
LINE
8
Edge.Cuts
6
CONTINUOUS
10
172.9828320000000019
20
-160.4655099999999948
11
131.5813119999999969
21
-149.8132249999999885
0
LINE
8
Edge.Cuts
6
CONTINUOUS
10
131.5813119999999969
20
-149.8132249999999885
11
131.5698579999999822
21
-149.8090440000000001
0
LINE
8
Edge.Cuts
6
CONTINUOUS
10
131.5698579999999822
20
-149.8090440000000001
11
131.5688040000000001
21
-149.8087950000000035
0
LINE
8
Edge.Cuts
6
CONTINUOUS
10
131.5688040000000001
20
-149.8087950000000035
11
131.5684249999999906
21
-149.8085209999999847
0
LINE
8
Edge.Cuts
6
CONTINUOUS
10
131.5684249999999906
20
-149.8085209999999847
11
131.5674999999999955
21
-149.8081839999999829
0
LINE
8
Edge.Cuts
6
CONTINUOUS
10
131.5674999999999955
20
-149.8081839999999829
11
131.5563630000000046
21
-149.7998120000000029
0
LINE
8
Edge.Cuts
6
CONTINUOUS
10
131.5563630000000046
20
-149.7998120000000029
11
131.5450779999999895
21
-149.7916649999999947
0
LINE
8
Edge.Cuts
6
CONTINUOUS
10
131.5450779999999895
20
-149.7916649999999947
11
131.5446919999999977
21
-149.7910399999999811
0
LINE
8
Edge.Cuts
6
CONTINUOUS
10
131.5446919999999977
20
-149.7910399999999811
11
131.5441079999999943
21
-149.790600999999981
0
LINE
8
Edge.Cuts
6
CONTINUOUS
10
131.5441079999999943
20
-149.790600999999981
11
131.5370230000000049
21
-149.7786089999999888
0
LINE
8
Edge.Cuts
6
CONTINUOUS
10
131.5370230000000049
20
-149.7786089999999888
11
131.5297139999999843
21
-149.766760000000005
0
LINE
8
Edge.Cuts
6
CONTINUOUS
10
131.5297139999999843
20
-149.766760000000005
11
131.5295969999999954
21
-149.7660379999999805
0
LINE
8
Edge.Cuts
6
CONTINUOUS
10
131.5295969999999954
20
-149.7660379999999805
11
131.5292239999999993
21
-149.7654059999999845
0
LINE
8
Edge.Cuts
6
CONTINUOUS
10
131.5292239999999993
20
-149.7654059999999845
11
131.5272659999999973
21
-149.7516049999999836
0
LINE
8
Edge.Cuts
6
CONTINUOUS
10
131.5272659999999973
20
-149.7516049999999836
11
131.5250489999999957
21
-149.7378709999999842
0
LINE
8
Edge.Cuts
6
CONTINUOUS
10
131.5250489999999957
20
-149.7378709999999842
11
131.525180000000006
21
-149.7368960000000015
0
LINE
8
Edge.Cuts
6
CONTINUOUS
10
131.525180000000006
20
-149.7368960000000015
11
131.5251149999999996
21
-149.7364319999999793
0
LINE
8
Edge.Cuts
6
CONTINUOUS
10
131.5251149999999996
20
-149.7364319999999793
11
131.5253859999999975
21
-149.7353769999999997
0
LINE
8
Edge.Cuts
6
CONTINUOUS
10
131.5253859999999975
20
-149.7353769999999997
11
131.5270199999999932
21
-149.7233009999999922
0
LINE
8
Edge.Cuts
6
CONTINUOUS
10
131.5270199999999932
20
-149.7233009999999922
11
134.4100019999999915
21
-137.5545400000000029
0
LINE
8
Edge.Cuts
6
CONTINUOUS
10
134.4100019999999915
20
-137.5545400000000029
11
127.854225999999997
21
-135.8911339999999939
0
LINE
8
Edge.Cuts
6
CONTINUOUS
10
127.854225999999997
20
-135.8911339999999939
11
124.7726899999999972
21
-148.0184699999999793
0
LINE
8
Edge.Cuts
6
CONTINUOUS
10
124.7726899999999972
20
-148.0184699999999793
11
124.7677240000000012
21
-148.0322009999999864
0
LINE
8
Edge.Cuts
6
CONTINUOUS
10
124.7677240000000012
20
-148.0322009999999864
11
124.7677119999999888
21
-148.0322510000000023
0
LINE
8
Edge.Cuts
6
CONTINUOUS
10
124.7677119999999888
20
-148.0322510000000023
11
124.7677009999999882
21
-148.0322639999999978
0
LINE
8
Edge.Cuts
6
CONTINUOUS
10
124.7677009999999882
20
-148.0322639999999978
11
124.7676899999999875
21
-148.0322969999999998
0
LINE
8
Edge.Cuts
6
CONTINUOUS
10
124.7676899999999875
20
-148.0322969999999998
11
124.7586869999999948
21
-148.0443489999999827
0
LINE
8
Edge.Cuts
6
CONTINUOUS
10
124.7586869999999948
20
-148.0443489999999827
11
124.7502149999999972
21
-148.0557079999999814
0
LINE
8
Edge.Cuts
6
CONTINUOUS
10
124.7502149999999972
20
-148.0557079999999814
11
124.7501939999999934
21
-148.0557199999999796
0
LINE
8
Edge.Cuts
6
CONTINUOUS
10
124.7501939999999934
20
-148.0557199999999796
11
124.7501779999999911
21
-148.0557419999999809
0
LINE
8
Edge.Cuts
6
CONTINUOUS
10
124.7501779999999911
20
-148.0557419999999809
11
124.7374069999999904
21
-148.06333699999999
0
LINE
8
Edge.Cuts
6
CONTINUOUS
10
124.7374069999999904
20
-148.06333699999999
11
124.7250749999999897
21
-148.070684
0
LINE
8
Edge.Cuts
6
CONTINUOUS
10
124.7250749999999897
20
-148.070684
11
124.7250489999999985
21
-148.0706869999999924
0
LINE
8
Edge.Cuts
6
CONTINUOUS
10
124.7250489999999985
20
-148.0706869999999924
11
124.7250269999999972
21
-148.0707009999999855
0
LINE
8
Edge.Cuts
6
CONTINUOUS
10
124.7250269999999972
20
-148.0707009999999855
11
124.7099939999999947
21
-148.0728790000000004
0
LINE
8
Edge.Cuts
6
CONTINUOUS
10
124.7099939999999947
20
-148.0728790000000004
11
124.6961159999999893
21
-148.0748989999999878
0
LINE
8
Edge.Cuts
6
CONTINUOUS
10
124.6961159999999893
20
-148.0748989999999878
11
124.696083999999999
21
-148.0748940000000005
0
LINE
8
Edge.Cuts
6
CONTINUOUS
10
124.696083999999999
20
-148.0748940000000005
11
124.6960659999999876
21
-148.0748969999999929
0
LINE
8
Edge.Cuts
6
CONTINUOUS
10
124.6960659999999876
20
-148.0748969999999929
11
124.6960119999999961
21
-148.0748829999999998
0
LINE
8
Edge.Cuts
6
CONTINUOUS
10
124.6960119999999961
20
-148.0748829999999998
11
124.6815779999999876
21
-148.0727019999999925
0
LINE
8
Edge.Cuts
6
CONTINUOUS
10
124.6815779999999876
20
-148.0727019999999925
11
114.938492999999994
21
-145.6039859999999919
0
LINE
8
Edge.Cuts
6
CONTINUOUS
10
114.938492999999994
20
-145.6039859999999919
11
114.9246629999999953
21
-145.5989959999999996
0
LINE
8
Edge.Cuts
6
CONTINUOUS
10
114.9246629999999953
20
-145.5989959999999996
11
114.9012059999999877
21
-145.5814989999999796
0
LINE
8
Edge.Cuts
6
CONTINUOUS
10
114.9012059999999877
20
-145.5814989999999796
11
114.8862299999999976
21
-145.5563589999999863
0
LINE
8
Edge.Cuts
6
CONTINUOUS
10
114.8862299999999976
20
-145.5563589999999863
11
114.8820139999999981
21
-145.5274000000000001
0
LINE
8
Edge.Cuts
6
CONTINUOUS
10
114.8820139999999981
20
-145.5274000000000001
11
114.8892019999999974
21
-145.4990329999999972
0
LINE
8
Edge.Cuts
6
CONTINUOUS
10
114.8892019999999974
20
-145.4990329999999972
11
114.906698999999989
21
-145.4755759999999896
0
LINE
8
Edge.Cuts
6
CONTINUOUS
10
114.906698999999989
20
-145.4755759999999896
11
114.9214649999999978
21
-145.4667790000000025
0
LINE
8
Edge.Cuts
6
CONTINUOUS
10
114.9214649999999978
20
-145.4667790000000025
11
119.8677979999999934
21
-125.6281249999999972
0
LINE
8
Edge.Cuts
6
CONTINUOUS
10
119.8677979999999934
20
-125.6281249999999972
11
119.8821299999999894
21
-125.5706409999999948
0
LINE
8
Edge.Cuts
6
CONTINUOUS
10
119.8821299999999894
20
-125.5706409999999948
11
119.8800619999999952
21
-125.4521719999999902
0
LINE
8
Edge.Cuts
6
CONTINUOUS
10
119.8800619999999952
20
-125.4521719999999902
11
119.8474019999999882
21
-125.3382749999999959
0
LINE
8
Edge.Cuts
6
CONTINUOUS
10
119.8474019999999882
20
-125.3382749999999959
11
119.7863770000000017
21
-125.2367119999999971
0
LINE
8
Edge.Cuts
6
CONTINUOUS
10
119.7863770000000017
20
-125.2367119999999971
11
119.7011449999999968
21
-125.1544029999999879
0
LINE
8
Edge.Cuts
6
CONTINUOUS
10
119.7011449999999968
20
-125.1544029999999879
11
119.5975129999999922
21
-125.0969589999999982
0
LINE
8
Edge.Cuts
6
CONTINUOUS
10
119.5975129999999922
20
-125.0969589999999982
11
119.5400300000000016
21
-125.082626999999988
0
LINE
8
Edge.Cuts
6
CONTINUOUS
10
119.5400300000000016
20
-125.082626999999988
11
107.4113329999999991
21
-122.0586039999999883
0
LINE
8
Edge.Cuts
6
CONTINUOUS
10
107.4113329999999991
20
-122.0586039999999883
11
107.3538489999999967
21
-122.0442719999999923
0
LINE
8
Edge.Cuts
6
CONTINUOUS
10
107.3538489999999967
20
-122.0442719999999923
11
107.2353799999999922
21
-122.0463400000000007
0
LINE
8
Edge.Cuts
6
CONTINUOUS
10
107.2353799999999922
20
-122.0463400000000007
11
107.1214829999999978
21
-122.078998999999996
0
LINE
8
Edge.Cuts
6
CONTINUOUS
10
107.1214829999999978
20
-122.078998999999996
11
107.0199190000000016
21
-122.1400249999999943
0
LINE
8
Edge.Cuts
6
CONTINUOUS
10
107.0199190000000016
20
-122.1400249999999943
11
106.9376109999999898
21
-122.2252569999999992
0
LINE
8
Edge.Cuts
6
CONTINUOUS
10
106.9376109999999898
20
-122.2252569999999992
11
106.8801670000000001
21
-122.3288879999999921
0
LINE
8
Edge.Cuts
6
CONTINUOUS
10
106.8801670000000001
20
-122.3288879999999921
11
106.8658349999999899
21
-122.3863719999999944
0
LINE
8
Edge.Cuts
6
CONTINUOUS
10
106.8658349999999899
20
-122.3863719999999944
11
101.9195019999999943
21
-142.2250290000000064
0
LINE
8
Edge.Cuts
6
CONTINUOUS
10
101.9195019999999943
20
-142.2250290000000064
11
101.92837999999999
21
-142.2396329999999978
0
LINE
8
Edge.Cuts
6
CONTINUOUS
10
101.92837999999999
20
-142.2396329999999978
11
101.9328529999999944
21
-142.2685529999999972
0
LINE
8
Edge.Cuts
6
CONTINUOUS
10
101.9328529999999944
20
-142.2685529999999972
11
101.9259189999999933
21
-142.2969839999999806
0
LINE
8
Edge.Cuts
6
CONTINUOUS
10
101.9259189999999933
20
-142.2969839999999806
11
101.9086329999999947
21
-142.3205959999999948
0
LINE
8
Edge.Cuts
6
CONTINUOUS
10
101.9086329999999947
20
-142.3205959999999948
11
101.8836269999999899
21
-142.3357959999999878
0
LINE
8
Edge.Cuts
6
CONTINUOUS
10
101.8836269999999899
20
-142.3357959999999878
11
101.8547069999999906
21
-142.3402690000000064
0
LINE
8
Edge.Cuts
6
CONTINUOUS
10
101.8547069999999906
20
-142.3402690000000064
11
101.8401499999999942
21
-142.3382019999999955
0
LINE
8
Edge.Cuts
6
CONTINUOUS
10
101.8401499999999942
20
-142.3382019999999955
11
78.3088759999999979
21
-136.5988769999999874
0
LINE
8
Edge.Cuts
6
CONTINUOUS
10
78.3088759999999979
20
-136.5988769999999874
11
78.2950019999999967
21
-136.5940099999999973
0
LINE
8
Edge.Cuts
6
CONTINUOUS
10
78.2950019999999967
20
-136.5940099999999973
11
78.2713899999999967
21
-136.5767239999999845
0
LINE
8
Edge.Cuts
6
CONTINUOUS
10
78.2713899999999967
20
-136.5767239999999845
11
78.2561910000000012
21
-136.5517179999999939
0
LINE
8
Edge.Cuts
6
CONTINUOUS
10
78.2561910000000012
20
-136.5517179999999939
11
78.2540829999999943
21
-136.5380930000000035
0
LINE
8
Edge.Cuts
6
CONTINUOUS
10
78.2540829999999943
20
-136.5380930000000035
11
78.0765469999999908
21
-136.4379109999999855
0
LINE
8
Edge.Cuts
6
CONTINUOUS
10
78.0765469999999908
20
-136.4379109999999855
11
77.8650849999999934
21
-136.279720999999995
0
LINE
8
Edge.Cuts
6
CONTINUOUS
10
77.8650849999999934
20
-136.279720999999995
11
77.6756419999999963
21
-136.0957339999999931
0
LINE
8
Edge.Cuts
6
CONTINUOUS
10
77.6756419999999963
20
-136.0957339999999931
11
77.5113410000000016
21
-135.8889839999999936
0
LINE
8
Edge.Cuts
6
CONTINUOUS
10
77.5113410000000016
20
-135.8889839999999936
11
77.3748930000000001
21
-135.6628819999999962
0
LINE
8
Edge.Cuts
6
CONTINUOUS
10
77.3748930000000001
20
-135.6628819999999962
11
77.268548999999993
21
-135.4211569999999938
0
LINE
8
Edge.Cuts
6
CONTINUOUS
10
77.268548999999993
20
-135.4211569999999938
11
77.1940620000000024
21
-135.1677949999999839
0
LINE
8
Edge.Cuts
6
CONTINUOUS
10
77.1940620000000024
20
-135.1677949999999839
11
77.1531619999999947
21
-134.9101369999999918
0
LINE
8
Edge.Cuts
6
CONTINUOUS
10
77.1531619999999947
20
-134.9101369999999918
11
77.1529340000000019
21
-134.9094539999999824
0
LINE
8
Edge.Cuts
6
CONTINUOUS
10
77.1529340000000019
20
-134.9094539999999824
11
77.152906999999999
21
-134.9085330000000056
0
LINE
8
Edge.Cuts
6
CONTINUOUS
10
77.152906999999999
20
-134.9085330000000056
11
77.1526609999999948
21
-134.9069769999999835
0
LINE
8
Edge.Cuts
6
CONTINUOUS
10
77.1526609999999948
20
-134.9069769999999835
11
77.1528409999999951
21
-134.9061739999999929
0
LINE
8
Edge.Cuts
6
CONTINUOUS
10
77.1528409999999951
20
-134.9061739999999929
11
77.1525189999999981
21
-134.8947569999999985
0
LINE
8
Edge.Cuts
6
CONTINUOUS
10
77.1525189999999981
20
-134.8947569999999985
11
83.0251839999999959
21
-51.0935709999999972
0
LINE
8
Edge.Cuts
6
CONTINUOUS
10
83.0251839999999959
20
-51.0935709999999972
11
83.0276439999999951
21
-51.079074999999996
0
LINE
8
Edge.Cuts
6
CONTINUOUS
10
83.0276439999999951
20
-51.079074999999996
11
83.0407050000000027
21
-51.0528879999999958
0
LINE
8
Edge.Cuts
6
CONTINUOUS
10
83.0407050000000027
20
-51.0528879999999958
11
83.0627929999999992
21
-51.0336929999999995
0
LINE
8
Edge.Cuts
6
CONTINUOUS
10
83.0627929999999992
20
-51.0336929999999995
11
83.0905459999999891
21
-51.0244119999999981
0
LINE
8
Edge.Cuts
6
CONTINUOUS
10
83.0905459999999891
20
-51.0244119999999981
11
83.1147670000000005
21
-51.0261089999999982
0
LINE
8
Edge.Cuts
6
CONTINUOUS
10
83.1147670000000005
20
-51.0261089999999982
11
83.2230950000000007
21
-50.8025529999999961
0
LINE
8
Edge.Cuts
6
CONTINUOUS
10
83.2230950000000007
20
-50.8025529999999961
11
83.3642519999999934
21
-50.585721999999997
0
LINE
8
Edge.Cuts
6
CONTINUOUS
10
83.3642519999999934
20
-50.585721999999997
11
83.5315109999999947
21
-50.3883259999999993
0
LINE
8
Edge.Cuts
6
CONTINUOUS
10
83.5315109999999947
20
-50.3883259999999993
11
83.7222249999999946
21
-50.2134859999999961
0
LINE
8
Edge.Cuts
6
CONTINUOUS
10
83.7222249999999946
20
-50.2134859999999961
11
83.9333779999999905
21
-50.0639679999999956
0
LINE
8
Edge.Cuts
6
CONTINUOUS
10
83.9333779999999905
20
-50.0639679999999956
11
84.1616279999999932
21
-49.9421389999999974
0
LINE
8
Edge.Cuts
6
CONTINUOUS
10
84.1616279999999932
20
-49.9421389999999974
11
84.3962429999999983
21
-49.8526409999999984
0
LINE
8
Edge.Cuts
6
CONTINUOUS
10
84.3962429999999983
20
-49.8526409999999984
11
84.3966429999999974
21
-49.8523719999999955
0
LINE
8
Edge.Cuts
6
CONTINUOUS
10
84.3966429999999974
20
-49.8523719999999955
11
84.3982329999999905
21
-49.8518819999999963
0
LINE
8
Edge.Cuts
6
CONTINUOUS
10
84.3982329999999905
20
-49.8518819999999963
11
84.4033670000000029
21
-49.8499239999999944
0
LINE
8
Edge.Cuts
6
CONTINUOUS
10
84.4033670000000029
20
-49.8499239999999944
11
84.4045440000000013
21
-49.8499379999999945
0
LINE
8
Edge.Cuts
6
CONTINUOUS
10
84.4045440000000013
20
-49.8499379999999945
11
84.4106949999999898
21
-49.848044999999999
0
LINE
8
Edge.Cuts
6
CONTINUOUS
10
84.4106949999999898
20
-49.848044999999999
11
135.0773299999999892
21
-39.5465480000000014
0
LINE
8
Edge.Cuts
6
CONTINUOUS
10
135.0773299999999892
20
-39.5465480000000014
11
135.0810400000000016
21
-39.5461659999999995
0
LINE
8
Edge.Cuts
6
CONTINUOUS
10
135.0810400000000016
20
-39.5461659999999995
11
135.0818500000000029
21
-39.5457719999999995
0
LINE
8
Edge.Cuts
6
CONTINUOUS
10
135.0818500000000029
20
-39.5457719999999995
11
135.294117
21
-39.5266510000000011
0
LINE
8
Edge.Cuts
6
CONTINUOUS
10
135.294117
20
-39.5266510000000011
11
135.5072339999999826
21
-39.5286399999999958
0
LINE
8
Edge.Cuts
6
CONTINUOUS
10
135.2009809999999845
20
-39.680495999999998
11
135.1049759999999935
21
-39.693995000000001
0
LINE
8
Edge.Cuts
6
CONTINUOUS
10
135.1049759999999935
20
-39.693995000000001
11
84.4442979999999892
21
-49.9942810000000009
0
LINE
8
Edge.Cuts
6
CONTINUOUS
10
84.4442979999999892
20
-49.9942810000000009
11
84.3331639999999965
21
-50.028852999999998
0
LINE
8
Edge.Cuts
6
CONTINUOUS
10
84.3331639999999965
20
-50.028852999999998
11
84.1144419999999968
21
-50.128464000000001
0
LINE
8
Edge.Cuts
6
CONTINUOUS
10
84.1144419999999968
20
-50.128464000000001
11
83.9099530000000016
21
-50.2547429999999977
0
LINE
8
Edge.Cuts
6
CONTINUOUS
10
83.9099530000000016
20
-50.2547429999999977
11
83.7229320000000001
21
-50.4056919999999948
0
LINE
8
Edge.Cuts
6
CONTINUOUS
10
83.7229320000000001
20
-50.4056919999999948
11
83.5563399999999916
21
-50.5789229999999961
0
LINE
8
Edge.Cuts
6
CONTINUOUS
10
83.5563399999999916
20
-50.5789229999999961
11
83.4128089999999958
21
-50.7716959999999986
0
LINE
8
Edge.Cuts
6
CONTINUOUS
10
83.4128089999999958
20
-50.7716959999999986
11
83.2946129999999982
21
-50.9809599999999961
0
LINE
8
Edge.Cuts
6
CONTINUOUS
10
83.2946129999999982
20
-50.9809599999999961
11
83.2036190000000033
21
-51.2034060000000011
0
LINE
8
Edge.Cuts
6
CONTINUOUS
10
83.2036190000000033
20
-51.2034060000000011
11
83.1724320000000006
21
-51.3194569999999999
0
LINE
8
Edge.Cuts
6
CONTINUOUS
10
83.1724320000000006
20
-51.3194569999999999
11
83.1581860000000006
21
-51.3413619999999966
0
LINE
8
Edge.Cuts
6
CONTINUOUS
10
83.1581860000000006
20
-51.3413619999999966
11
77.3025810000000035
21
-134.899123000000003
0
LINE
8
Edge.Cuts
6
CONTINUOUS
10
77.3025810000000035
20
-134.899123000000003
11
77.3134390000000025
21
-135.015151000000003
0
LINE
8
Edge.Cuts
6
CONTINUOUS
10
77.3134390000000025
20
-135.015151000000003
11
77.3673780000000022
21
-135.2544709999999952
0
LINE
8
Edge.Cuts
6
CONTINUOUS
10
77.3673780000000022
20
-135.2544709999999952
11
77.4515439999999984
21
-135.4849049999999977
0
LINE
8
Edge.Cuts
6
CONTINUOUS
10
77.4515439999999984
20
-135.4849049999999977
11
77.5645489999999995
21
-135.702651000000003
0
LINE
8
Edge.Cuts
6
CONTINUOUS
10
77.5645489999999995
20
-135.702651000000003
11
77.7045299999999912
21
-135.9041179999999827
0
LINE
8
Edge.Cuts
6
CONTINUOUS
10
77.7045299999999912
20
-135.9041179999999827
11
77.8691769999999934
21
-136.0859829999999988
0
LINE
8
Edge.Cuts
6
CONTINUOUS
10
77.8691769999999934
20
-136.0859829999999988
11
78.055774999999997
21
-136.2452459999999803
0
LINE
8
Edge.Cuts
6
CONTINUOUS
10
78.055774999999997
20
-136.2452459999999803
11
78.2612459999999999
21
-136.3792809999999918
0
LINE
8
Edge.Cuts
6
CONTINUOUS
10
78.2612459999999999
20
-136.3792809999999918
11
78.3717159999999922
21
-136.4325939999999946
0
LINE
8
Edge.Cuts
6
CONTINUOUS
10
78.3717159999999922
20
-136.4325939999999946
11
78.4051970000000011
21
-136.464650000000006
0
LINE
8
Edge.Cuts
6
CONTINUOUS
10
78.4051970000000011
20
-136.464650000000006
11
78.405824999999993
21
-136.4681249999999864
0
LINE
8
Edge.Cuts
6
CONTINUOUS
10
78.405824999999993
20
-136.4681249999999864
11
101.8274889999999999
21
-142.1807159999999897
0
LINE
8
Edge.Cuts
6
CONTINUOUS
10
101.8274889999999999
20
-142.1807159999999897
11
106.7688050000000004
21
-122.3621799999999951
0
LINE
8
Edge.Cuts
6
CONTINUOUS
10
106.7688050000000004
20
-122.3621799999999951
11
106.8117929999999944
21
-122.2467649999999963
0
LINE
8
Edge.Cuts
6
CONTINUOUS
10
106.8117929999999944
20
-122.2467649999999963
11
106.8793859999999967
21
-122.1438089999999903
0
LINE
8
Edge.Cuts
6
CONTINUOUS
10
106.8793859999999967
20
-122.1438089999999903
11
106.9681939999999969
21
-122.0584759999999989
0
LINE
8
Edge.Cuts
6
CONTINUOUS
10
106.9681939999999969
20
-122.0584759999999989
11
107.0737629999999996
21
-121.9950429999999955
0
LINE
8
Edge.Cuts
6
CONTINUOUS
10
107.0737629999999996
20
-121.9950429999999955
11
107.1908009999999933
21
-121.9566919999999897
0
LINE
8
Edge.Cuts
6
CONTINUOUS
10
107.1908009999999933
20
-121.9566919999999897
11
107.3134379999999908
21
-121.9453460000000007
0
LINE
8
Edge.Cuts
6
CONTINUOUS
10
107.3134379999999908
20
-121.9453460000000007
11
107.4355249999999984
21
-121.9615739999999988
0
LINE
8
Edge.Cuts
6
CONTINUOUS
10
107.4355249999999984
20
-121.9615739999999988
11
119.5642220000000009
21
-124.9855969999999985
0
LINE
8
Edge.Cuts
6
CONTINUOUS
10
119.5642220000000009
20
-124.9855969999999985
11
119.6796369999999996
21
-125.02858599999999
0
LINE
8
Edge.Cuts
6
CONTINUOUS
10
119.6796369999999996
20
-125.02858599999999
11
119.7825929999999914
21
-125.0961779999999948
0
LINE
8
Edge.Cuts
6
CONTINUOUS
10
119.7825929999999914
20
-125.0961779999999948
11
119.8679259999999971
21
-125.184985999999995
0
LINE
8
Edge.Cuts
6
CONTINUOUS
10
119.8679259999999971
20
-125.184985999999995
11
119.9313579999999888
21
-125.2905549999999977
0
LINE
8
Edge.Cuts
6
CONTINUOUS
10
119.9313579999999888
20
-125.2905549999999977
11
119.9697089999999946
21
-125.4075929999999914
0
LINE
8
Edge.Cuts
6
CONTINUOUS
10
119.9697089999999946
20
-125.4075929999999914
11
119.9810549999999978
21
-125.5302299999999889
0
LINE
8
Edge.Cuts
6
CONTINUOUS
10
119.9810549999999978
20
-125.5302299999999889
11
119.9648279999999971
21
-125.6523169999999965
0
LINE
8
Edge.Cuts
6
CONTINUOUS
10
119.9648279999999971
20
-125.6523169999999965
11
115.0235259999999897
21
-145.4707919999999888
0
LINE
8
Edge.Cuts
6
CONTINUOUS
10
115.0235259999999897
20
-145.4707919999999888
11
124.6457679999999897
21
-147.9088879999999904
0
LINE
8
Edge.Cuts
6
CONTINUOUS
10
124.6457679999999897
20
-147.9088879999999904
11
127.7273099999999886
21
-135.7815300000000036
0
LINE
8
Edge.Cuts
6
CONTINUOUS
10
127.7273099999999886
20
-135.7815300000000036
11
127.7322909999999894
21
-135.7677539999999965
0
LINE
8
Edge.Cuts
6
CONTINUOUS
10
127.7322909999999894
20
-135.7677539999999965
11
127.7322989999999976
21
-135.7677259999999819
0
LINE
8
Edge.Cuts
6
CONTINUOUS
10
127.7322989999999976
20
-135.7677259999999819
11
127.7323039999999992
21
-135.7677180000000021
0
LINE
8
Edge.Cuts
6
CONTINUOUS
10
127.7323039999999992
20
-135.7677180000000021
11
127.7323099999999982
21
-135.7677039999999806
0
LINE
8
Edge.Cuts
6
CONTINUOUS
10
127.7323099999999982
20
-135.7677039999999806
11
127.7404009999999914
21
-135.7568699999999922
0
LINE
8
Edge.Cuts
6
CONTINUOUS
10
127.7404009999999914
20
-135.7568699999999922
11
127.749803
21
-135.7442749999999876
0
LINE
8
Edge.Cuts
6
CONTINUOUS
10
127.749803
20
-135.7442749999999876
11
127.7498140000000006
21
-135.7442680000000053
0
LINE
8
Edge.Cuts
6
CONTINUOUS
10
127.7498140000000006
20
-135.7442680000000053
11
127.7498219999999947
21
-135.7442580000000021
0
LINE
8
Edge.Cuts
6
CONTINUOUS
10
127.7498219999999947
20
-135.7442580000000021
11
127.7628619999999984
21
-135.7365010000000041
0
LINE
8
Edge.Cuts
6
CONTINUOUS
10
127.7628619999999984
20
-135.7365010000000041
11
127.7749489999999923
21
-135.7293080000000032
0
LINE
8
Edge.Cuts
6
CONTINUOUS
10
127.7749489999999923
20
-135.7293080000000032
11
127.774959999999993
21
-135.7293059999999798
0
LINE
8
Edge.Cuts
6
CONTINUOUS
10
127.774959999999993
20
-135.7293059999999798
11
127.7749729999999886
21
-135.7292989999999975
0
LINE
8
Edge.Cuts
6
CONTINUOUS
10
127.7749729999999886
20
-135.7292989999999975
11
127.7891169999999903
21
-135.727249999999998
0
LINE
8
Edge.Cuts
6
CONTINUOUS
10
127.7891169999999903
20
-135.727249999999998
11
127.8039079999999927
21
-135.7251019999999926
0
LINE
8
Edge.Cuts
6
CONTINUOUS
10
127.8039079999999927
20
-135.7251019999999926
11
127.8039269999999874
21
-135.7251039999999875
0
LINE
8
Edge.Cuts
6
CONTINUOUS
10
127.8039269999999874
20
-135.7251039999999875
11
127.8039339999999982
21
-135.7251039999999875
0
LINE
8
Edge.Cuts
6
CONTINUOUS
10
127.8039339999999982
20
-135.7251039999999875
11
127.8039519999999953
21
-135.7251080000000059
0
LINE
8
Edge.Cuts
6
CONTINUOUS
10
127.8039519999999953
20
-135.7251080000000059
11
127.818444999999997
21
-135.7273040000000037
0
LINE
8
Edge.Cuts
6
CONTINUOUS
10
127.818444999999997
20
-135.7273040000000037
11
134.5184449999999856
21
-137.4273039999999924
0
LINE
8
Edge.Cuts
6
CONTINUOUS
10
134.5184449999999856
20
-137.4273039999999924
11
134.5302810000000022
21
-137.4315789999999993
0
LINE
8
Edge.Cuts
6
CONTINUOUS
10
134.5302810000000022
20
-137.4315789999999993
11
134.5311959999999942
21
-137.4317959999999914
0
LINE
8
Edge.Cuts
6
CONTINUOUS
10
134.5311959999999942
20
-137.4317959999999914
11
134.5315099999999973
21
-137.4320229999999867
0
LINE
8
Edge.Cuts
6
CONTINUOUS
10
134.5315099999999973
20
-137.4320229999999867
11
134.532274000000001
21
-137.4322990000000004
0
LINE
8
Edge.Cuts
6
CONTINUOUS
10
134.532274000000001
20
-137.4322990000000004
11
134.543549999999982
21
-137.4407149999999831
0
LINE
8
Edge.Cuts
6
CONTINUOUS
10
134.543549999999982
20
-137.4407149999999831
11
134.5549220000000048
21
-137.4489260000000002
0
LINE
8
Edge.Cuts
6
CONTINUOUS
10
134.5549220000000048
20
-137.4489260000000002
11
134.5552390000000003
21
-137.4494399999999814
0
LINE
8
Edge.Cuts
6
CONTINUOUS
10
134.5552390000000003
20
-137.4494399999999814
11
134.5557249999999954
21
-137.4498030000000028
0
LINE
8
Edge.Cuts
6
CONTINUOUS
10
134.5557249999999954
20
-137.4498030000000028
11
134.5629239999999811
21
-137.4618969999999933
0
LINE
8
Edge.Cuts
6
CONTINUOUS
10
134.5629239999999811
20
-137.4618969999999933
11
134.5702859999999816
21
-137.4738309999999899
0
LINE
8
Edge.Cuts
6
CONTINUOUS
10
134.5702859999999816
20
-137.4738309999999899
11
134.5703819999999951
21
-137.474425999999994
0
LINE
8
Edge.Cuts
6
CONTINUOUS
10
134.5703819999999951
20
-137.474425999999994
11
134.5706930000000057
21
-137.474948999999981
0
LINE
8
Edge.Cuts
6
CONTINUOUS
10
134.5706930000000057
20
-137.474948999999981
11
134.5727129999999931
21
-137.4888640000000066
0
LINE
8
Edge.Cuts
6
CONTINUOUS
10
134.5727129999999931
20
-137.4888640000000066
11
134.5749509999999987
21
-137.5027199999999823
0
LINE
8
Edge.Cuts
6
CONTINUOUS
10
134.5749509999999987
20
-137.5027199999999823
11
134.5748419999999896
21
-137.5035230000000013
0
LINE
8
Edge.Cuts
6
CONTINUOUS
10
134.5748419999999896
20
-137.5035230000000013
11
134.5748979999999904
21
-137.5039079999999956
0
LINE
8
Edge.Cuts
6
CONTINUOUS
10
134.5748979999999904
20
-137.5039079999999956
11
134.5746670000000051
21
-137.5048170000000027
0
LINE
8
Edge.Cuts
6
CONTINUOUS
10
134.5746670000000051
20
-137.5048170000000027
11
134.5729800000000012
21
-137.5172900000000027
0
LINE
8
Edge.Cuts
6
CONTINUOUS
10
134.5729800000000012
20
-137.5172900000000027
11
131.6899410000000046
21
-149.6862889999999879
0
LINE
8
Edge.Cuts
6
CONTINUOUS
10
131.6899410000000046
20
-149.6862889999999879
11
173.0125889999999913
21
-160.3182809999999847
0
LINE
8
Edge.Cuts
6
CONTINUOUS
10
173.0125889999999913
20
-160.3182809999999847
11
173.1134089999999901
21
-160.3225999999999942
0
LINE
8
Edge.Cuts
6
CONTINUOUS
10
173.1134089999999901
20
-160.3225999999999942
11
173.3304169999999829
21
-160.3070769999999925
0
LINE
8
Edge.Cuts
6
CONTINUOUS
10
173.3304169999999829
20
-160.3070769999999925
11
173.544241999999997
21
-160.2669279999999787
0
LINE
8
Edge.Cuts
6
CONTINUOUS
10
173.544241999999997
20
-160.2669279999999787
11
173.752098999999987
21
-160.2026749999999993
0
LINE
8
Edge.Cuts
6
CONTINUOUS
10
173.752098999999987
20
-160.2026749999999993
11
173.9512809999999945
21
-160.1151559999999847
0
LINE
8
Edge.Cuts
6
CONTINUOUS
10
173.9512809999999945
20
-160.1151559999999847
11
174.1391930000000059
21
-160.0055109999999843
0
LINE
8
Edge.Cuts
6
CONTINUOUS
10
174.1391930000000059
20
-160.0055109999999843
11
174.3133880000000033
21
-159.8751670000000047
0
LINE
8
Edge.Cuts
6
CONTINUOUS
10
174.3133880000000033
20
-159.8751670000000047
11
174.391194999999982
21
-159.801714000000004
0
LINE
8
Edge.Cuts
6
CONTINUOUS
10
174.391194999999982
20
-159.801714000000004
11
190.6450920000000053
21
-142.9488929999999982
0
LINE
8
Edge.Cuts
6
CONTINUOUS
10
190.6450920000000053
20
-142.9488929999999982
11
190.7076619999999991
21
-142.879400000000004
0
LINE
8
Edge.Cuts
6
CONTINUOUS
10
190.7076619999999991
20
-142.879400000000004
11
190.820132000000001
21
-142.7268129999999928
0
LINE
8
Edge.Cuts
6
CONTINUOUS
10
190.820132000000001
20
-142.7268129999999928
11
190.9172209999999836
21
-142.5640070000000037
0
LINE
8
Edge.Cuts
6
CONTINUOUS
10
190.9172209999999836
20
-142.5640070000000037
11
190.9500239999999849
21
-142.4943079999999895
0
LINE
8
Edge.Cuts
6
CONTINUOUS
10
190.9500239999999849
20
-142.4943079999999895
11
188.7642569999999864
21
-51.9275159999999971
0
LINE
8
Edge.Cuts
6
CONTINUOUS
10
188.7642569999999864
20
-51.9275159999999971
11
188.7644310000000019
21
-51.9251569999999987
0
LINE
8
Edge.Cuts
6
CONTINUOUS
10
188.7644310000000019
20
-51.9251569999999987
11
188.7642439999999908
21
-51.9245479999999944
0
LINE
8
Edge.Cuts
6
CONTINUOUS
10
188.7642439999999908
20
-51.9245479999999944
11
188.7662939999999878
21
-51.7936309999999978
0
LINE
8
Edge.Cuts
6
CONTINUOUS
10
188.7662939999999878
20
-51.7936309999999978
11
188.7347560000000044
21
-51.5336719999999957
0
LINE
8
Edge.Cuts
6
CONTINUOUS
10
188.7347560000000044
20
-51.5336719999999957
11
188.6682209999999884
21
-51.2804009999999977
0
LINE
8
Edge.Cuts
6
CONTINUOUS
10
188.6682209999999884
20
-51.2804009999999977
11
188.5679189999999892
21
-51.0385059999999982
0
LINE
8
Edge.Cuts
6
CONTINUOUS
10
188.5679189999999892
20
-51.0385059999999982
11
188.4357080000000053
21
-50.8124669999999981
0
LINE
8
Edge.Cuts
6
CONTINUOUS
10
188.4357080000000053
20
-50.8124669999999981
11
188.2740359999999953
21
-50.606468999999997
0
LINE
8
Edge.Cuts
6
CONTINUOUS
10
188.2740359999999953
20
-50.606468999999997
11
188.0858949999999936
21
-50.4243239999999986
0
LINE
8
Edge.Cuts
6
CONTINUOUS
10
188.0858949999999936
20
-50.4243239999999986
11
187.8747699999999838
21
-50.2694059999999965
0
LINE
8
Edge.Cuts
6
CONTINUOUS
10
187.8747699999999838
20
-50.2694059999999965
11
187.64456899999999
21
-50.1445829999999972
0
LINE
8
Edge.Cuts
6
CONTINUOUS
10
187.64456899999999
20
-50.1445829999999972
11
187.3995539999999949
21
-50.0521659999999997
0
LINE
8
Edge.Cuts
6
CONTINUOUS
10
187.3995539999999949
20
-50.0521659999999997
11
187.2728899999999896
21
-50.0232679999999945
0
LINE
8
Edge.Cuts
6
CONTINUOUS
10
187.2728899999999896
20
-50.0232679999999945
11
135.6940329999999904
21
-39.6996159999999989
0
LINE
8
Edge.Cuts
6
CONTINUOUS
10
135.6940329999999904
20
-39.6996159999999989
11
135.5974829999999827
21
-39.6841969999999975
0
LINE
8
Edge.Cuts
6
CONTINUOUS
10
135.5974829999999827
20
-39.6841969999999975
11
135.3993240000000071
21
-39.6725080000000005
0
LINE
8
Edge.Cuts
6
CONTINUOUS
10
135.3993240000000071
20
-39.6725080000000005
11
135.2009809999999845
21
-39.680495999999998
  0
ENDSEC
  0
EOF
