%TF.GenerationSoftware,KiCad,Pcbnew,10.0.2-rc1*%
%TF.CreationDate,2026-06-21T00:23:21+09:00*%
%TF.ProjectId,board,626f6172-642e-46b6-9963-61645f706362,v1.0.0*%
%TF.SameCoordinates,Original*%
%TF.FileFunction,Legend,Top*%
%TF.FilePolarity,Positive*%
%FSLAX46Y46*%
G04 Gerber Fmt 4.6, Leading zero omitted, Abs format (unit mm)*
G04 Created by KiCad (PCBNEW 10.0.2-rc1) date 2026-06-21 00:23:21*
%MOMM*%
%LPD*%
G01*
G04 APERTURE LIST*
%ADD10C,0.150000*%
%ADD11C,0.120000*%
G04 APERTURE END LIST*
D10*
X88661475Y-115465981D02*
X92152949Y-115710129D01*
X89114892Y-108981815D02*
X88661475Y-115465981D01*
X89986848Y-96512264D02*
X93478322Y-96756412D01*
X90440265Y-90028098D02*
X89986848Y-96512264D01*
X91312221Y-77558547D02*
X94803695Y-77802695D01*
X91765638Y-71074381D02*
X91312221Y-77558547D01*
X91783194Y-106662296D02*
X89114892Y-108981815D01*
X92152949Y-115710129D02*
X92327341Y-113216219D01*
X92327341Y-113216219D02*
X94322469Y-113355732D01*
X92341245Y-98681784D02*
X91783194Y-106662296D01*
X93108567Y-87708579D02*
X90440265Y-90028098D01*
X93478322Y-96756412D02*
X93652714Y-94262502D01*
X93652714Y-94262502D02*
X95647842Y-94402015D01*
X93666618Y-79728067D02*
X93108567Y-87708579D01*
X94322469Y-113355732D02*
X95389789Y-112427924D01*
X94433940Y-68754862D02*
X91765638Y-71074381D01*
X94803695Y-77802695D02*
X94978087Y-75308785D01*
X94978087Y-75308785D02*
X96973215Y-75448298D01*
X94991991Y-60774350D02*
X94433940Y-68754862D01*
X95389789Y-112427924D02*
X96331502Y-98960809D01*
X95647842Y-94402015D02*
X96715162Y-93474207D01*
X96331502Y-98960809D02*
X92341245Y-98681784D01*
X96715162Y-93474207D02*
X97656875Y-80007093D01*
X96973215Y-75448298D02*
X98040535Y-74520490D01*
X97656875Y-80007093D02*
X93666618Y-79728067D01*
X98040535Y-74520490D02*
X98982248Y-61053376D01*
X98982248Y-61053376D02*
X94991991Y-60774350D01*
X103273596Y-90479760D02*
X111163880Y-91800141D01*
X103933786Y-86534617D02*
X103273596Y-90479760D01*
X106409500Y-71740333D02*
X114299785Y-73060714D01*
X107069691Y-67795191D02*
X106409500Y-71740333D01*
X107403786Y-59739859D02*
X109869500Y-60152478D01*
X107981452Y-56287859D02*
X107403786Y-59739859D01*
X109539405Y-62125049D02*
X110360643Y-63276382D01*
X109869500Y-60152478D02*
X109539405Y-62125049D01*
X110360643Y-63276382D02*
X123675498Y-65504525D01*
X111163880Y-91800141D02*
X113216975Y-94678474D01*
X113216975Y-94678474D02*
X119627832Y-95751283D01*
X114299785Y-73060714D02*
X116352880Y-75939047D01*
X114392309Y-57360668D02*
X107981452Y-56287859D01*
X116352880Y-75939047D02*
X122763736Y-77011857D01*
X116445404Y-60239001D02*
X114392309Y-57360668D01*
X117248642Y-88762760D02*
X103933786Y-86534617D01*
X117739784Y-91886665D02*
X118069880Y-89914093D01*
X118069880Y-89914093D02*
X117248642Y-88762760D01*
X119627832Y-95751283D02*
X120205498Y-92299284D01*
X120205498Y-92299284D02*
X117739784Y-91886665D01*
X120384546Y-70023334D02*
X107069691Y-67795191D01*
X120875689Y-73147238D02*
X121205784Y-71174667D01*
X121205784Y-71174667D02*
X120384546Y-70023334D01*
X122763736Y-77011857D02*
X123341403Y-73559857D01*
X123341403Y-73559857D02*
X120875689Y-73147238D01*
X123675498Y-65504525D02*
X124335689Y-61559382D01*
X124335689Y-61559382D02*
X116445404Y-60239001D01*
X125994611Y-83515879D02*
X133756977Y-85451254D01*
X126962299Y-79634696D02*
X125994611Y-83515879D01*
X130591127Y-65080260D02*
X138353493Y-67015635D01*
X130866955Y-117710327D02*
X138629321Y-119645702D01*
X131558815Y-61199077D02*
X130591127Y-65080260D01*
X131834643Y-113829144D02*
X130866955Y-117710327D01*
X132523894Y-53194789D02*
X134949634Y-53799594D01*
X133370621Y-49798754D02*
X132523894Y-53194789D01*
X133756977Y-85451254D02*
X135577912Y-88481798D01*
X134465790Y-55740186D02*
X135194164Y-56952403D01*
X134949634Y-53799594D02*
X134465790Y-55740186D01*
X135194164Y-56952403D02*
X148293156Y-60218349D01*
X135577912Y-88481798D02*
X141884834Y-90054290D01*
X138353493Y-67015635D02*
X140174428Y-70046179D01*
X138629321Y-119645702D02*
X140450255Y-122676246D01*
X139677543Y-51371247D02*
X133370621Y-49798754D01*
X140061291Y-82900641D02*
X126962299Y-79634696D01*
X140174428Y-70046179D02*
X146481350Y-71618672D01*
X140305821Y-86053451D02*
X140789665Y-84112859D01*
X140450255Y-122676246D02*
X146757178Y-124248738D01*
X140789665Y-84112859D02*
X140061291Y-82900641D01*
X141498478Y-54401791D02*
X139677543Y-51371247D01*
X141884834Y-90054290D02*
X142731560Y-86658255D01*
X142011011Y-97815352D02*
X149773377Y-99750727D01*
X142731560Y-86658255D02*
X140305821Y-86053451D01*
X142978699Y-93934169D02*
X142011011Y-97815352D01*
X144657807Y-64465023D02*
X131558815Y-61199077D01*
X144902337Y-67617832D02*
X145386181Y-65677240D01*
X144933635Y-117095089D02*
X131834643Y-113829144D01*
X145178165Y-120247898D02*
X145662009Y-118307307D01*
X145386181Y-65677240D02*
X144657807Y-64465023D01*
X145662009Y-118307307D02*
X144933635Y-117095089D01*
X146481350Y-71618672D02*
X147328076Y-68222637D01*
X146607527Y-79379733D02*
X154369893Y-81315109D01*
X146757178Y-124248738D02*
X147603904Y-120852703D01*
X147328076Y-68222637D02*
X144902337Y-67617832D01*
X147575215Y-75498551D02*
X146607527Y-79379733D01*
X147603904Y-120852703D02*
X145178165Y-120247898D01*
X148293156Y-60218349D02*
X149260843Y-56337166D01*
X149260843Y-56337166D02*
X141498478Y-54401791D01*
X149773377Y-99750727D02*
X151594311Y-102781271D01*
X151204043Y-60944115D02*
X158966409Y-62879490D01*
X151594311Y-102781271D02*
X157901234Y-104353764D01*
X152171731Y-57062932D02*
X151204043Y-60944115D01*
X152849007Y-124097496D02*
X159912588Y-127853269D01*
X154369893Y-81315109D02*
X156190827Y-84345653D01*
X154726893Y-120565706D02*
X152849007Y-124097496D01*
X156077691Y-97200115D02*
X142978699Y-93934169D01*
X156190827Y-84345653D02*
X162497750Y-85918145D01*
X156322221Y-100352924D02*
X156806065Y-98412333D01*
X156806065Y-98412333D02*
X156077691Y-97200115D01*
X157901234Y-104353764D02*
X158747960Y-100957729D01*
X158747960Y-100957729D02*
X156322221Y-100352924D01*
X158966409Y-62879490D02*
X160787344Y-65910034D01*
X159912588Y-127853269D02*
X160946278Y-131234316D01*
X159962786Y-104352460D02*
X167725152Y-106287835D01*
X160674207Y-78764496D02*
X147575215Y-75498551D01*
X160787344Y-65910034D02*
X167094266Y-67482526D01*
X160918737Y-81917305D02*
X161402581Y-79976714D01*
X160930474Y-100471277D02*
X159962786Y-104352460D01*
X160946278Y-131234316D02*
X166685437Y-134285882D01*
X161402581Y-79976714D02*
X160674207Y-78764496D01*
X162497750Y-85918145D02*
X163344476Y-82522110D01*
X162868457Y-96832016D02*
X166749640Y-97799703D01*
X163344476Y-82522110D02*
X160918737Y-81917305D01*
X165270723Y-60328877D02*
X152171731Y-57062932D01*
X165515253Y-63481686D02*
X165999097Y-61541095D01*
X165999097Y-61541095D02*
X165270723Y-60328877D01*
X166121219Y-130021886D02*
X167060162Y-128255991D01*
X166134403Y-83733023D02*
X162868457Y-96832016D01*
X166379409Y-144487714D02*
X169256768Y-147266348D01*
X166646686Y-126903572D02*
X154726893Y-120565706D01*
X166685437Y-134285882D02*
X168328588Y-131195565D01*
X166749640Y-97799703D02*
X168685015Y-90037338D01*
X167060162Y-128255991D02*
X166646686Y-126903572D01*
X167094266Y-67482526D02*
X167940992Y-64086491D01*
X167346620Y-83004650D02*
X166134403Y-83733023D01*
X167464973Y-78396397D02*
X171346156Y-79364085D01*
X167725152Y-106287835D02*
X169546086Y-109318379D01*
X167940992Y-64086491D02*
X165515253Y-63481686D01*
X168328588Y-131195565D02*
X166121219Y-130021886D01*
X168685015Y-90037338D02*
X171715559Y-88216403D01*
X169256768Y-147266348D02*
X174814035Y-141511630D01*
X169287212Y-83488493D02*
X167346620Y-83004650D01*
X169546086Y-109318379D02*
X175853009Y-110890871D01*
X169892016Y-81062754D02*
X169287212Y-83488493D01*
X170730919Y-65297405D02*
X167464973Y-78396397D01*
X171346156Y-79364085D02*
X173281531Y-71601719D01*
X171715559Y-88216403D02*
X173288051Y-81909481D01*
X171943136Y-64569031D02*
X170730919Y-65297405D01*
X173281531Y-71601719D02*
X176312075Y-69780784D01*
X173288051Y-81909481D02*
X169892016Y-81062754D01*
X173883728Y-65052875D02*
X171943136Y-64569031D01*
X174029466Y-103737222D02*
X160930474Y-100471277D01*
X174273996Y-106890031D02*
X174757840Y-104949440D01*
X174488532Y-62627135D02*
X173883728Y-65052875D01*
X174757840Y-104949440D02*
X174029466Y-103737222D01*
X174814035Y-141511630D02*
X178349031Y-141449926D01*
X175757297Y-134776627D02*
X166379409Y-144487714D01*
X175853009Y-110890871D02*
X176699735Y-107494836D01*
X176312075Y-69780784D02*
X177884567Y-63473862D01*
X176699735Y-107494836D02*
X174273996Y-106890031D01*
X177171295Y-134751946D02*
X175757297Y-134776627D01*
X177884567Y-63473862D02*
X174488532Y-62627135D01*
X178349031Y-141449926D02*
X182864310Y-136774217D01*
X178609975Y-136141262D02*
X177171295Y-134751946D01*
X180346621Y-134342913D02*
X178609975Y-136141262D01*
X182864310Y-136774217D02*
X180346621Y-134342913D01*
X139166666Y-137229819D02*
X139166666Y-137944104D01*
X139166666Y-137944104D02*
X139119047Y-138086961D01*
X139119047Y-138086961D02*
X139023809Y-138182200D01*
X139023809Y-138182200D02*
X138880952Y-138229819D01*
X138880952Y-138229819D02*
X138785714Y-138229819D01*
X139642857Y-138229819D02*
X139642857Y-137229819D01*
X139642857Y-137229819D02*
X140023809Y-137229819D01*
X140023809Y-137229819D02*
X140119047Y-137277438D01*
X140119047Y-137277438D02*
X140166666Y-137325057D01*
X140166666Y-137325057D02*
X140214285Y-137420295D01*
X140214285Y-137420295D02*
X140214285Y-137563152D01*
X140214285Y-137563152D02*
X140166666Y-137658390D01*
X140166666Y-137658390D02*
X140119047Y-137706009D01*
X140119047Y-137706009D02*
X140023809Y-137753628D01*
X140023809Y-137753628D02*
X139642857Y-137753628D01*
X140595238Y-137325057D02*
X140642857Y-137277438D01*
X140642857Y-137277438D02*
X140738095Y-137229819D01*
X140738095Y-137229819D02*
X140976190Y-137229819D01*
X140976190Y-137229819D02*
X141071428Y-137277438D01*
X141071428Y-137277438D02*
X141119047Y-137325057D01*
X141119047Y-137325057D02*
X141166666Y-137420295D01*
X141166666Y-137420295D02*
X141166666Y-137515533D01*
X141166666Y-137515533D02*
X141119047Y-137658390D01*
X141119047Y-137658390D02*
X140547619Y-138229819D01*
X140547619Y-138229819D02*
X141166666Y-138229819D01*
X98524996Y-140340279D02*
X98451069Y-140321847D01*
X98451069Y-140321847D02*
X98388662Y-140257210D01*
X98388662Y-140257210D02*
X98363218Y-140201789D01*
X98363218Y-140201789D02*
X98349295Y-140100164D01*
X98349295Y-140100164D02*
X98358412Y-139906130D01*
X98358412Y-139906130D02*
X98416012Y-139675107D01*
X98416012Y-139675107D02*
X98499056Y-139499505D01*
X98499056Y-139499505D02*
X98559060Y-139416312D01*
X98559060Y-139416312D02*
X98607544Y-139379323D01*
X98607544Y-139379323D02*
X98692991Y-139351551D01*
X98692991Y-139351551D02*
X98766918Y-139369983D01*
X98766918Y-139369983D02*
X98829326Y-139434620D01*
X98829326Y-139434620D02*
X98854769Y-139490040D01*
X98854769Y-139490040D02*
X98868693Y-139591666D01*
X98868693Y-139591666D02*
X98859576Y-139785700D01*
X98859576Y-139785700D02*
X98801975Y-140016723D01*
X98801975Y-140016723D02*
X98718931Y-140192325D01*
X98718931Y-140192325D02*
X98658928Y-140275518D01*
X98658928Y-140275518D02*
X98610444Y-140312506D01*
X98610444Y-140312506D02*
X98524996Y-140340279D01*
X99122655Y-136840920D02*
X99566219Y-136951512D01*
X99344437Y-136896216D02*
X99102515Y-137866512D01*
X99102515Y-137866512D02*
X99211002Y-137746330D01*
X99211002Y-137746330D02*
X99307970Y-137672353D01*
X99307970Y-137672353D02*
X99393417Y-137644581D01*
X99961818Y-135364848D02*
X99913334Y-135401837D01*
X99913334Y-135401837D02*
X99827887Y-135429609D01*
X99827887Y-135429609D02*
X99643069Y-135383529D01*
X99643069Y-135383529D02*
X99580661Y-135318892D01*
X99580661Y-135318892D02*
X99555218Y-135263471D01*
X99555218Y-135263471D02*
X99541294Y-135161846D01*
X99541294Y-135161846D02*
X99564335Y-135069437D01*
X99564335Y-135069437D02*
X99635858Y-134940039D01*
X99635858Y-134940039D02*
X100217663Y-134496177D01*
X100217663Y-134496177D02*
X99737136Y-134376369D01*
X100590223Y-133001921D02*
X100109696Y-132882112D01*
X100109696Y-132882112D02*
X100460602Y-132576988D01*
X100460602Y-132576988D02*
X100349711Y-132549340D01*
X100349711Y-132549340D02*
X100287304Y-132484703D01*
X100287304Y-132484703D02*
X100261861Y-132429283D01*
X100261861Y-132429283D02*
X100247937Y-132327658D01*
X100247937Y-132327658D02*
X100305538Y-132096635D01*
X100305538Y-132096635D02*
X100365541Y-132013442D01*
X100365541Y-132013442D02*
X100414025Y-131976453D01*
X100414025Y-131976453D02*
X100499472Y-131948681D01*
X100499472Y-131948681D02*
X100721254Y-132003977D01*
X100721254Y-132003977D02*
X100783662Y-132068614D01*
X100783662Y-132068614D02*
X100809105Y-132124035D01*
X100878746Y-130112562D02*
X101040027Y-129465698D01*
X100971403Y-130528278D02*
X101329023Y-129881290D01*
X101329023Y-129881290D02*
X100848496Y-129761481D01*
X101375623Y-127962226D02*
X101745259Y-128054387D01*
X101745259Y-128054387D02*
X101897424Y-127601558D01*
X101897424Y-127601558D02*
X101848940Y-127638546D01*
X101848940Y-127638546D02*
X101763493Y-127666318D01*
X101763493Y-127666318D02*
X101578674Y-127620238D01*
X101578674Y-127620238D02*
X101516267Y-127555601D01*
X101516267Y-127555601D02*
X101490824Y-127500181D01*
X101490824Y-127500181D02*
X101476900Y-127398556D01*
X101476900Y-127398556D02*
X101534501Y-127167533D01*
X101534501Y-127167533D02*
X101594504Y-127084340D01*
X101594504Y-127084340D02*
X101642988Y-127047351D01*
X101642988Y-127047351D02*
X101728435Y-127019579D01*
X101728435Y-127019579D02*
X101913254Y-127065659D01*
X101913254Y-127065659D02*
X101975661Y-127130296D01*
X101975661Y-127130296D02*
X102001104Y-127185717D01*
X102027068Y-125506891D02*
X102174923Y-125543756D01*
X102174923Y-125543756D02*
X102260370Y-125515983D01*
X102260370Y-125515983D02*
X102308854Y-125478995D01*
X102308854Y-125478995D02*
X102417342Y-125358813D01*
X102417342Y-125358813D02*
X102500386Y-125183211D01*
X102500386Y-125183211D02*
X102592546Y-124813575D01*
X102592546Y-124813575D02*
X102578623Y-124711949D01*
X102578623Y-124711949D02*
X102553179Y-124656529D01*
X102553179Y-124656529D02*
X102490772Y-124591892D01*
X102490772Y-124591892D02*
X102342917Y-124555028D01*
X102342917Y-124555028D02*
X102257470Y-124582800D01*
X102257470Y-124582800D02*
X102208986Y-124619789D01*
X102208986Y-124619789D02*
X102148983Y-124702982D01*
X102148983Y-124702982D02*
X102091382Y-124934005D01*
X102091382Y-124934005D02*
X102105306Y-125035630D01*
X102105306Y-125035630D02*
X102130749Y-125091050D01*
X102130749Y-125091050D02*
X102193156Y-125155687D01*
X102193156Y-125155687D02*
X102341011Y-125192551D01*
X102341011Y-125192551D02*
X102426458Y-125164779D01*
X102426458Y-125164779D02*
X102474942Y-125127790D01*
X102474942Y-125127790D02*
X102534946Y-125044597D01*
X103048150Y-123143717D02*
X102530659Y-123014692D01*
X102530659Y-123014692D02*
X103105254Y-122127341D01*
X103581494Y-120217245D02*
X103643901Y-120281882D01*
X103643901Y-120281882D02*
X103669345Y-120337302D01*
X103669345Y-120337302D02*
X103683268Y-120438927D01*
X103683268Y-120438927D02*
X103671748Y-120485132D01*
X103671748Y-120485132D02*
X103611744Y-120568325D01*
X103611744Y-120568325D02*
X103563261Y-120605313D01*
X103563261Y-120605313D02*
X103477813Y-120633086D01*
X103477813Y-120633086D02*
X103329959Y-120596222D01*
X103329959Y-120596222D02*
X103267551Y-120531585D01*
X103267551Y-120531585D02*
X103242108Y-120476164D01*
X103242108Y-120476164D02*
X103228184Y-120374539D01*
X103228184Y-120374539D02*
X103239704Y-120328334D01*
X103239704Y-120328334D02*
X103299708Y-120245141D01*
X103299708Y-120245141D02*
X103348192Y-120208153D01*
X103348192Y-120208153D02*
X103433639Y-120180381D01*
X103433639Y-120180381D02*
X103581494Y-120217245D01*
X103581494Y-120217245D02*
X103666941Y-120189472D01*
X103666941Y-120189472D02*
X103715425Y-120152484D01*
X103715425Y-120152484D02*
X103775429Y-120069291D01*
X103775429Y-120069291D02*
X103821509Y-119884473D01*
X103821509Y-119884473D02*
X103807586Y-119782847D01*
X103807586Y-119782847D02*
X103782142Y-119727427D01*
X103782142Y-119727427D02*
X103719735Y-119662790D01*
X103719735Y-119662790D02*
X103571880Y-119625926D01*
X103571880Y-119625926D02*
X103486433Y-119653698D01*
X103486433Y-119653698D02*
X103437949Y-119690687D01*
X103437949Y-119690687D02*
X103377946Y-119773880D01*
X103377946Y-119773880D02*
X103331865Y-119958698D01*
X103331865Y-119958698D02*
X103345789Y-120060323D01*
X103345789Y-120060323D02*
X103371232Y-120115744D01*
X103371232Y-120115744D02*
X103433639Y-120180381D01*
X109776211Y-118285317D02*
X109628357Y-118248453D01*
X109628357Y-118248453D02*
X109542909Y-118276225D01*
X109542909Y-118276225D02*
X109494426Y-118313214D01*
X109494426Y-118313214D02*
X109385938Y-118433395D01*
X109385938Y-118433395D02*
X109302894Y-118608998D01*
X109302894Y-118608998D02*
X109210733Y-118978634D01*
X109210733Y-118978634D02*
X109224657Y-119080259D01*
X109224657Y-119080259D02*
X109250100Y-119135680D01*
X109250100Y-119135680D02*
X109312508Y-119200317D01*
X109312508Y-119200317D02*
X109460362Y-119237181D01*
X109460362Y-119237181D02*
X109545810Y-119209408D01*
X109545810Y-119209408D02*
X109594293Y-119172420D01*
X109594293Y-119172420D02*
X109654297Y-119089227D01*
X109654297Y-119089227D02*
X109711898Y-118858204D01*
X109711898Y-118858204D02*
X109697974Y-118756579D01*
X109697974Y-118756579D02*
X109672531Y-118701158D01*
X109672531Y-118701158D02*
X109610123Y-118636522D01*
X109610123Y-118636522D02*
X109462269Y-118599657D01*
X109462269Y-118599657D02*
X109376821Y-118627430D01*
X109376821Y-118627430D02*
X109328338Y-118664418D01*
X109328338Y-118664418D02*
X109268334Y-118747611D01*
X112240764Y-118899798D02*
X112684328Y-119010390D01*
X112462546Y-118955094D02*
X112220624Y-119925390D01*
X112220624Y-119925390D02*
X112329111Y-119805208D01*
X112329111Y-119805208D02*
X112426079Y-119731231D01*
X112426079Y-119731231D02*
X112511526Y-119703459D01*
X111518314Y-119750284D02*
X111444387Y-119731852D01*
X111444387Y-119731852D02*
X111381980Y-119667215D01*
X111381980Y-119667215D02*
X111356536Y-119611795D01*
X111356536Y-119611795D02*
X111342613Y-119510170D01*
X111342613Y-119510170D02*
X111351730Y-119316135D01*
X111351730Y-119316135D02*
X111409330Y-119085113D01*
X111409330Y-119085113D02*
X111492374Y-118909510D01*
X111492374Y-118909510D02*
X111552378Y-118826317D01*
X111552378Y-118826317D02*
X111600862Y-118789329D01*
X111600862Y-118789329D02*
X111686309Y-118761556D01*
X111686309Y-118761556D02*
X111760236Y-118779989D01*
X111760236Y-118779989D02*
X111822643Y-118844625D01*
X111822643Y-118844625D02*
X111848087Y-118900046D01*
X111848087Y-118900046D02*
X111862010Y-119001671D01*
X111862010Y-119001671D02*
X111852894Y-119195705D01*
X111852894Y-119195705D02*
X111795293Y-119426728D01*
X111795293Y-119426728D02*
X111712249Y-119602330D01*
X111712249Y-119602330D02*
X111652245Y-119685523D01*
X111652245Y-119685523D02*
X111603762Y-119722512D01*
X111603762Y-119722512D02*
X111518314Y-119750284D01*
X114705315Y-119514281D02*
X115148879Y-119624873D01*
X114927097Y-119569577D02*
X114685175Y-120539873D01*
X114685175Y-120539873D02*
X114793662Y-120419691D01*
X114793662Y-120419691D02*
X114890630Y-120345714D01*
X114890630Y-120345714D02*
X114976077Y-120317942D01*
X113966042Y-119329959D02*
X114409605Y-119440552D01*
X114187824Y-119385255D02*
X113945902Y-120355551D01*
X113945902Y-120355551D02*
X114054389Y-120235370D01*
X114054389Y-120235370D02*
X114151357Y-120161393D01*
X114151357Y-120161393D02*
X114236804Y-120133620D01*
X117169866Y-120128763D02*
X117613430Y-120239355D01*
X117391648Y-120184059D02*
X117149726Y-121154355D01*
X117149726Y-121154355D02*
X117258213Y-121034173D01*
X117258213Y-121034173D02*
X117355181Y-120960196D01*
X117355181Y-120960196D02*
X117440628Y-120932424D01*
X116655275Y-120932921D02*
X116606791Y-120969909D01*
X116606791Y-120969909D02*
X116521344Y-120997681D01*
X116521344Y-120997681D02*
X116336525Y-120951601D01*
X116336525Y-120951601D02*
X116274118Y-120886964D01*
X116274118Y-120886964D02*
X116248675Y-120831544D01*
X116248675Y-120831544D02*
X116234751Y-120729919D01*
X116234751Y-120729919D02*
X116257791Y-120637509D01*
X116257791Y-120637509D02*
X116329315Y-120508112D01*
X116329315Y-120508112D02*
X116911120Y-120064250D01*
X116911120Y-120064250D02*
X116430593Y-119944441D01*
X119247035Y-145506863D02*
X119616672Y-145599023D01*
X119616672Y-145599023D02*
X119768836Y-145146194D01*
X119768836Y-145146194D02*
X119720353Y-145183182D01*
X119720353Y-145183182D02*
X119634905Y-145210955D01*
X119634905Y-145210955D02*
X119450087Y-145164874D01*
X119450087Y-145164874D02*
X119387680Y-145100238D01*
X119387680Y-145100238D02*
X119362236Y-145044817D01*
X119362236Y-145044817D02*
X119348313Y-144943192D01*
X119348313Y-144943192D02*
X119405913Y-144712169D01*
X119405913Y-144712169D02*
X119465917Y-144628976D01*
X119465917Y-144628976D02*
X119514401Y-144591988D01*
X119514401Y-144591988D02*
X119599848Y-144564215D01*
X119599848Y-144564215D02*
X119784667Y-144610296D01*
X119784667Y-144610296D02*
X119847074Y-144674932D01*
X119847074Y-144674932D02*
X119872517Y-144730353D01*
X118988290Y-145442350D02*
X118971466Y-144407542D01*
X118971466Y-144407542D02*
X118470799Y-145313325D01*
X120797129Y-143226509D02*
X120859536Y-143291146D01*
X120859536Y-143291146D02*
X120970427Y-143318794D01*
X120970427Y-143318794D02*
X121092838Y-143300237D01*
X121092838Y-143300237D02*
X121189805Y-143226261D01*
X121189805Y-143226261D02*
X121249809Y-143143067D01*
X121249809Y-143143067D02*
X121332853Y-142967465D01*
X121332853Y-142967465D02*
X121367413Y-142828852D01*
X121367413Y-142828852D02*
X121376530Y-142634817D01*
X121376530Y-142634817D02*
X121362607Y-142533192D01*
X121362607Y-142533192D02*
X121311719Y-142422351D01*
X121311719Y-142422351D02*
X121212349Y-142348498D01*
X121212349Y-142348498D02*
X121138421Y-142330066D01*
X121138421Y-142330066D02*
X121016010Y-142348622D01*
X121016010Y-142348622D02*
X120967527Y-142385611D01*
X120967527Y-142385611D02*
X120886886Y-142709043D01*
X120886886Y-142709043D02*
X121034740Y-142745907D01*
X120657894Y-142210257D02*
X120415972Y-143180553D01*
X120415972Y-143180553D02*
X120214330Y-142099664D01*
X120214330Y-142099664D02*
X119972408Y-143069960D01*
X119844694Y-142007503D02*
X119602772Y-142977799D01*
X119602772Y-142977799D02*
X119417954Y-142931719D01*
X119417954Y-142931719D02*
X119318583Y-142857866D01*
X119318583Y-142857866D02*
X119267696Y-142747025D01*
X119267696Y-142747025D02*
X119253772Y-142645400D01*
X119253772Y-142645400D02*
X119262889Y-142451365D01*
X119262889Y-142451365D02*
X119297449Y-142312752D01*
X119297449Y-142312752D02*
X119380493Y-142137149D01*
X119380493Y-142137149D02*
X119440497Y-142053956D01*
X119440497Y-142053956D02*
X119537465Y-141979979D01*
X119537465Y-141979979D02*
X119659876Y-141961423D01*
X119659876Y-141961423D02*
X119844694Y-142007503D01*
X121658835Y-140872675D02*
X121178308Y-140752866D01*
X121178308Y-140752866D02*
X121529214Y-140447742D01*
X121529214Y-140447742D02*
X121418323Y-140420094D01*
X121418323Y-140420094D02*
X121355916Y-140355457D01*
X121355916Y-140355457D02*
X121330473Y-140300037D01*
X121330473Y-140300037D02*
X121316549Y-140198411D01*
X121316549Y-140198411D02*
X121374150Y-139967389D01*
X121374150Y-139967389D02*
X121434153Y-139884196D01*
X121434153Y-139884196D02*
X121482637Y-139847207D01*
X121482637Y-139847207D02*
X121568084Y-139819435D01*
X121568084Y-139819435D02*
X121789866Y-139874731D01*
X121789866Y-139874731D02*
X121852274Y-139939368D01*
X121852274Y-139939368D02*
X121877717Y-139994788D01*
X120956526Y-140697570D02*
X120939702Y-139662761D01*
X120939702Y-139662761D02*
X120439035Y-140568545D01*
X120254217Y-140522464D02*
X119773689Y-140402655D01*
X119773689Y-140402655D02*
X120124596Y-140097531D01*
X120124596Y-140097531D02*
X120013705Y-140069883D01*
X120013705Y-140069883D02*
X119951298Y-140005247D01*
X119951298Y-140005247D02*
X119925854Y-139949826D01*
X119925854Y-139949826D02*
X119911931Y-139848201D01*
X119911931Y-139848201D02*
X119969531Y-139617178D01*
X119969531Y-139617178D02*
X120029535Y-139533985D01*
X120029535Y-139533985D02*
X120078019Y-139496996D01*
X120078019Y-139496996D02*
X120163466Y-139469224D01*
X120163466Y-139469224D02*
X120385248Y-139524520D01*
X120385248Y-139524520D02*
X120447655Y-139589157D01*
X120447655Y-139589157D02*
X120473099Y-139644578D01*
X119634417Y-120743244D02*
X120077981Y-120853836D01*
X119856199Y-120798540D02*
X119614277Y-121768836D01*
X119614277Y-121768836D02*
X119722764Y-121648654D01*
X119722764Y-121648654D02*
X119819732Y-121574677D01*
X119819732Y-121574677D02*
X119905179Y-121546905D01*
X119133749Y-121649027D02*
X118653222Y-121529218D01*
X118653222Y-121529218D02*
X119004128Y-121224094D01*
X119004128Y-121224094D02*
X118893237Y-121196446D01*
X118893237Y-121196446D02*
X118830830Y-121131809D01*
X118830830Y-121131809D02*
X118805386Y-121076388D01*
X118805386Y-121076388D02*
X118791463Y-120974763D01*
X118791463Y-120974763D02*
X118849063Y-120743740D01*
X118849063Y-120743740D02*
X118909067Y-120660547D01*
X118909067Y-120660547D02*
X118957551Y-120623559D01*
X118957551Y-120623559D02*
X119042998Y-120595786D01*
X119042998Y-120595786D02*
X119264780Y-120651083D01*
X119264780Y-120651083D02*
X119327187Y-120715719D01*
X119327187Y-120715719D02*
X119352631Y-120771140D01*
X121594049Y-138140610D02*
X121545565Y-138177598D01*
X121545565Y-138177598D02*
X121460117Y-138205371D01*
X121460117Y-138205371D02*
X121275299Y-138159290D01*
X121275299Y-138159290D02*
X121212892Y-138094654D01*
X121212892Y-138094654D02*
X121187448Y-138039233D01*
X121187448Y-138039233D02*
X121173525Y-137937608D01*
X121173525Y-137937608D02*
X121196565Y-137845199D01*
X121196565Y-137845199D02*
X121268089Y-137715801D01*
X121268089Y-137715801D02*
X121849894Y-137271939D01*
X121849894Y-137271939D02*
X121369367Y-137152130D01*
X120999730Y-137059969D02*
X120851875Y-137023105D01*
X120851875Y-137023105D02*
X120766428Y-137050878D01*
X120766428Y-137050878D02*
X120717944Y-137087866D01*
X120717944Y-137087866D02*
X120609457Y-137208048D01*
X120609457Y-137208048D02*
X120526413Y-137383650D01*
X120526413Y-137383650D02*
X120434252Y-137753286D01*
X120434252Y-137753286D02*
X120448175Y-137854911D01*
X120448175Y-137854911D02*
X120473619Y-137910332D01*
X120473619Y-137910332D02*
X120536026Y-137974969D01*
X120536026Y-137974969D02*
X120683881Y-138011833D01*
X120683881Y-138011833D02*
X120769328Y-137984061D01*
X120769328Y-137984061D02*
X120817812Y-137947072D01*
X120817812Y-137947072D02*
X120877816Y-137863879D01*
X120877816Y-137863879D02*
X120935416Y-137632856D01*
X120935416Y-137632856D02*
X120921493Y-137531231D01*
X120921493Y-137531231D02*
X120896049Y-137475810D01*
X120896049Y-137475810D02*
X120833642Y-137411174D01*
X120833642Y-137411174D02*
X120685787Y-137374309D01*
X120685787Y-137374309D02*
X120600340Y-137402082D01*
X120600340Y-137402082D02*
X120551856Y-137439070D01*
X120551856Y-137439070D02*
X120491852Y-137522263D01*
X122208530Y-135676059D02*
X122160046Y-135713047D01*
X122160046Y-135713047D02*
X122074598Y-135740820D01*
X122074598Y-135740820D02*
X121889780Y-135694739D01*
X121889780Y-135694739D02*
X121827373Y-135630103D01*
X121827373Y-135630103D02*
X121801929Y-135574682D01*
X121801929Y-135574682D02*
X121788006Y-135473057D01*
X121788006Y-135473057D02*
X121811046Y-135380648D01*
X121811046Y-135380648D02*
X121882570Y-135251250D01*
X121882570Y-135251250D02*
X122464375Y-134807388D01*
X122464375Y-134807388D02*
X121983848Y-134687579D01*
X121402042Y-135131441D02*
X121464450Y-135196078D01*
X121464450Y-135196078D02*
X121489893Y-135251498D01*
X121489893Y-135251498D02*
X121503817Y-135353123D01*
X121503817Y-135353123D02*
X121492297Y-135399328D01*
X121492297Y-135399328D02*
X121432293Y-135482521D01*
X121432293Y-135482521D02*
X121383809Y-135519510D01*
X121383809Y-135519510D02*
X121298362Y-135547282D01*
X121298362Y-135547282D02*
X121150507Y-135510418D01*
X121150507Y-135510418D02*
X121088100Y-135445781D01*
X121088100Y-135445781D02*
X121062656Y-135390360D01*
X121062656Y-135390360D02*
X121048733Y-135288735D01*
X121048733Y-135288735D02*
X121060253Y-135242531D01*
X121060253Y-135242531D02*
X121120257Y-135159338D01*
X121120257Y-135159338D02*
X121168740Y-135122349D01*
X121168740Y-135122349D02*
X121254188Y-135094577D01*
X121254188Y-135094577D02*
X121402042Y-135131441D01*
X121402042Y-135131441D02*
X121487490Y-135103669D01*
X121487490Y-135103669D02*
X121535974Y-135066680D01*
X121535974Y-135066680D02*
X121595977Y-134983487D01*
X121595977Y-134983487D02*
X121642058Y-134798669D01*
X121642058Y-134798669D02*
X121628134Y-134697044D01*
X121628134Y-134697044D02*
X121602691Y-134641623D01*
X121602691Y-134641623D02*
X121540284Y-134576986D01*
X121540284Y-134576986D02*
X121392429Y-134540122D01*
X121392429Y-134540122D02*
X121306982Y-134567894D01*
X121306982Y-134567894D02*
X121258498Y-134604883D01*
X121258498Y-134604883D02*
X121198494Y-134688076D01*
X121198494Y-134688076D02*
X121152414Y-134872894D01*
X121152414Y-134872894D02*
X121166337Y-134974519D01*
X121166337Y-134974519D02*
X121191781Y-135029940D01*
X121191781Y-135029940D02*
X121254188Y-135094577D01*
X122823012Y-133211508D02*
X122774528Y-133248496D01*
X122774528Y-133248496D02*
X122689080Y-133276269D01*
X122689080Y-133276269D02*
X122504262Y-133230188D01*
X122504262Y-133230188D02*
X122441855Y-133165552D01*
X122441855Y-133165552D02*
X122416411Y-133110131D01*
X122416411Y-133110131D02*
X122402488Y-133008506D01*
X122402488Y-133008506D02*
X122425528Y-132916097D01*
X122425528Y-132916097D02*
X122497052Y-132786699D01*
X122497052Y-132786699D02*
X123078857Y-132342837D01*
X123078857Y-132342837D02*
X122598330Y-132223028D01*
X122097662Y-133128811D02*
X121580171Y-132999786D01*
X121580171Y-132999786D02*
X122154766Y-132112435D01*
X123437494Y-130746957D02*
X123389010Y-130783945D01*
X123389010Y-130783945D02*
X123303562Y-130811718D01*
X123303562Y-130811718D02*
X123118744Y-130765637D01*
X123118744Y-130765637D02*
X123056337Y-130701001D01*
X123056337Y-130701001D02*
X123030893Y-130645580D01*
X123030893Y-130645580D02*
X123016970Y-130543955D01*
X123016970Y-130543955D02*
X123040010Y-130451546D01*
X123040010Y-130451546D02*
X123111534Y-130322148D01*
X123111534Y-130322148D02*
X123693339Y-129878286D01*
X123693339Y-129878286D02*
X123212812Y-129758477D01*
X122305544Y-130562884D02*
X122453398Y-130599748D01*
X122453398Y-130599748D02*
X122538846Y-130571975D01*
X122538846Y-130571975D02*
X122587329Y-130534987D01*
X122587329Y-130534987D02*
X122695817Y-130414805D01*
X122695817Y-130414805D02*
X122778861Y-130239203D01*
X122778861Y-130239203D02*
X122871022Y-129869567D01*
X122871022Y-129869567D02*
X122857098Y-129767942D01*
X122857098Y-129767942D02*
X122831655Y-129712521D01*
X122831655Y-129712521D02*
X122769248Y-129647884D01*
X122769248Y-129647884D02*
X122621393Y-129611020D01*
X122621393Y-129611020D02*
X122535946Y-129638792D01*
X122535946Y-129638792D02*
X122487462Y-129675781D01*
X122487462Y-129675781D02*
X122427458Y-129758974D01*
X122427458Y-129758974D02*
X122369858Y-129989997D01*
X122369858Y-129989997D02*
X122383781Y-130091622D01*
X122383781Y-130091622D02*
X122409225Y-130147043D01*
X122409225Y-130147043D02*
X122471632Y-130211679D01*
X122471632Y-130211679D02*
X122619486Y-130248544D01*
X122619486Y-130248544D02*
X122704934Y-130220771D01*
X122704934Y-130220771D02*
X122753417Y-130183783D01*
X122753417Y-130183783D02*
X122813421Y-130100590D01*
X123827293Y-127293925D02*
X124270856Y-127404518D01*
X124049074Y-127349222D02*
X123807153Y-128319517D01*
X123807153Y-128319517D02*
X123915640Y-128199336D01*
X123915640Y-128199336D02*
X124012608Y-128125359D01*
X124012608Y-128125359D02*
X124098055Y-128097586D01*
X122883061Y-128089115D02*
X123252698Y-128181276D01*
X123252698Y-128181276D02*
X123404862Y-127728447D01*
X123404862Y-127728447D02*
X123356378Y-127765435D01*
X123356378Y-127765435D02*
X123270931Y-127793208D01*
X123270931Y-127793208D02*
X123086113Y-127747127D01*
X123086113Y-127747127D02*
X123023706Y-127682491D01*
X123023706Y-127682491D02*
X122998262Y-127627070D01*
X122998262Y-127627070D02*
X122984339Y-127525445D01*
X122984339Y-127525445D02*
X123041939Y-127294422D01*
X123041939Y-127294422D02*
X123101943Y-127211229D01*
X123101943Y-127211229D02*
X123150427Y-127174240D01*
X123150427Y-127174240D02*
X123235874Y-127146468D01*
X123235874Y-127146468D02*
X123420692Y-127192548D01*
X123420692Y-127192548D02*
X123483099Y-127257185D01*
X123483099Y-127257185D02*
X123508543Y-127312606D01*
X124441775Y-124829374D02*
X124885338Y-124939967D01*
X124663556Y-124884671D02*
X124421635Y-125854966D01*
X124421635Y-125854966D02*
X124530122Y-125734785D01*
X124530122Y-125734785D02*
X124627090Y-125660808D01*
X124627090Y-125660808D02*
X124712537Y-125633035D01*
X123615147Y-125310349D02*
X123776429Y-124663485D01*
X123707805Y-125726065D02*
X124065424Y-125079077D01*
X124065424Y-125079077D02*
X123584897Y-124959269D01*
X136126666Y-137184819D02*
X136126666Y-137899104D01*
X136126666Y-137899104D02*
X136079047Y-138041961D01*
X136079047Y-138041961D02*
X135983809Y-138137200D01*
X135983809Y-138137200D02*
X135840952Y-138184819D01*
X135840952Y-138184819D02*
X135745714Y-138184819D01*
X136602857Y-138184819D02*
X136602857Y-137184819D01*
X136602857Y-137184819D02*
X136983809Y-137184819D01*
X136983809Y-137184819D02*
X137079047Y-137232438D01*
X137079047Y-137232438D02*
X137126666Y-137280057D01*
X137126666Y-137280057D02*
X137174285Y-137375295D01*
X137174285Y-137375295D02*
X137174285Y-137518152D01*
X137174285Y-137518152D02*
X137126666Y-137613390D01*
X137126666Y-137613390D02*
X137079047Y-137661009D01*
X137079047Y-137661009D02*
X136983809Y-137708628D01*
X136983809Y-137708628D02*
X136602857Y-137708628D01*
X138031428Y-137518152D02*
X138031428Y-138184819D01*
X137793333Y-137137200D02*
X137555238Y-137851485D01*
X137555238Y-137851485D02*
X138174285Y-137851485D01*
%TO.C,AudioJack*%
X124918800Y-150191534D02*
X130352456Y-151546297D01*
X125160070Y-148190462D02*
X128087325Y-136449884D01*
X125160070Y-148190462D02*
X131078874Y-149666186D01*
X125402644Y-148250943D02*
X124918800Y-150191534D01*
X128087325Y-136449884D02*
X134006129Y-137925607D01*
X130836300Y-149605705D02*
X130352456Y-151546297D01*
X131078874Y-149666186D02*
X134006129Y-137925607D01*
%TO.C,JP2*%
D11*
X139000000Y-134125000D02*
X141000000Y-134125000D01*
X139000000Y-136925000D02*
X139000000Y-134125000D01*
X141000000Y-134125000D02*
X141000000Y-136925000D01*
X141000000Y-136925000D02*
X139000000Y-136925000D01*
%TO.C,JP4*%
X136000000Y-134075000D02*
X138000000Y-134075000D01*
X136000000Y-136875000D02*
X136000000Y-134075000D01*
X138000000Y-134075000D02*
X138000000Y-136875000D01*
X138000000Y-136875000D02*
X136000000Y-136875000D01*
%TD*%
M02*
