M48
; DRILL file KiCad 10.0.2 date 2026-07-30T14:12:09
; FORMAT={-:-/ absolute / metric / decimal}
; #@! TF.CreationDate,2026-07-30T14:12:09+09:00
; #@! TF.GenerationSoftware,Kicad,Pcbnew,10.0.2
; #@! TF.FileFunction,Plated,1,2,PTH
FMAT,2
METRIC
; #@! TA.AperFunction,Plated,PTH,ViaDrill
T1C0.300
; #@! TA.AperFunction,Plated,PTH,ViaDrill
T2C0.400
; #@! TA.AperFunction,Plated,PTH,ComponentDrill
T3C0.850
; #@! TA.AperFunction,Plated,PTH,ComponentDrill
T4C0.900
%
G90
G05
T1
X103.0Y-71.0
X117.8Y-92.0
X120.27Y-143.4
X125.8Y-73.2
X131.06Y-147.16
X139.14Y-142.76
X140.2Y-86.2
X148.22Y-91.32
X151.02Y-116.4
X161.0Y-146.8
X168.8Y-122.0
X169.4Y-83.6
X171.6Y-56.2
X172.95Y-99.85
X174.0Y-65.2
T2
X92.096Y-113.204
X93.429Y-94.394
X94.731Y-75.316
X109.934Y-60.015
X120.929Y-73.321
X135.044Y-53.569
X144.821Y-67.77
X145.015Y-120.188
X156.398Y-100.478
X160.867Y-82.057
X165.532Y-63.726
X165.965Y-130.108
X174.294Y-106.998
X178.821Y-136.277
T3
X85.03Y-134.743
X86.1Y-119.44
X87.564Y-134.92
X88.634Y-119.617
X90.097Y-135.097
X91.167Y-119.794
X92.631Y-135.274
X93.701Y-119.972
X95.165Y-135.451
X96.235Y-120.149
X97.699Y-135.628
X98.769Y-120.326
X100.233Y-135.806
X101.303Y-120.503
X102.766Y-135.983
X103.836Y-120.68
X105.3Y-136.16
X105.531Y-133.58
X105.708Y-131.046
X105.885Y-128.512
X106.062Y-125.978
X106.239Y-123.445
X106.37Y-120.857
T4
G00X172.43Y-126.43
M15
G01X172.818Y-126.527
M16
G05
G00X173.869Y-126.761
M15
G01X173.481Y-126.665
M16
G05
G00X173.914Y-122.032
M15
G01X173.526Y-121.935
M16
G05
G00X174.61Y-122.233
M15
G01X174.998Y-122.33
M16
G05
G00X177.75Y-127.729
M15
G01X177.362Y-127.632
M16
G05
G00X178.491Y-123.201
M15
G01X178.879Y-123.297
M16
G05
G00X180.661Y-128.455
M15
G01X180.273Y-128.358
M16
G05
G00X181.402Y-123.926
M15
G01X181.79Y-124.023
M16
G05
M30
