%TF.GenerationSoftware,KiCad,Pcbnew,10.0.2-rc1*%
%TF.CreationDate,2026-06-21T00:23:21+09:00*%
%TF.ProjectId,board,626f6172-642e-46b6-9963-61645f706362,v1.0.0*%
%TF.SameCoordinates,Original*%
%TF.FileFunction,Soldermask,Top*%
%TF.FilePolarity,Negative*%
%FSLAX46Y46*%
G04 Gerber Fmt 4.6, Leading zero omitted, Abs format (unit mm)*
G04 Created by KiCad (PCBNEW 10.0.2-rc1) date 2026-06-21 00:23:21*
%MOMM*%
%LPD*%
G01*
G04 APERTURE LIST*
G04 Aperture macros list*
%AMHorizOval*
0 Thick line with rounded ends*
0 $1 width*
0 $2 $3 position (X,Y) of the first rounded end (center of the circle)*
0 $4 $5 position (X,Y) of the second rounded end (center of the circle)*
0 Add line between two ends*
20,1,$1,$2,$3,$4,$5,0*
0 Add two circle primitives to create the rounded ends*
1,1,$1,$2,$3*
1,1,$1,$4,$5*%
%AMRotRect*
0 Rectangle, with rotation*
0 The origin of the aperture is its center*
0 $1 length*
0 $2 width*
0 $3 Rotation angle, in degrees counterclockwise*
0 Add horizontal line*
21,1,$1,$2,0,0,$3*%
%AMOutline5P*
0 Free polygon, 5 corners , with rotation*
0 The origin of the aperture is its center*
0 number of corners: always 5*
0 $1 to $10 corner X, Y*
0 $11 Rotation angle, in degrees counterclockwise*
0 create outline with 5 corners*
4,1,5,$1,$2,$3,$4,$5,$6,$7,$8,$9,$10,$1,$2,$11*%
%AMOutline6P*
0 Free polygon, 6 corners , with rotation*
0 The origin of the aperture is its center*
0 number of corners: always 6*
0 $1 to $12 corner X, Y*
0 $13 Rotation angle, in degrees counterclockwise*
0 create outline with 6 corners*
4,1,6,$1,$2,$3,$4,$5,$6,$7,$8,$9,$10,$11,$12,$1,$2,$13*%
%AMOutline7P*
0 Free polygon, 7 corners , with rotation*
0 The origin of the aperture is its center*
0 number of corners: always 7*
0 $1 to $14 corner X, Y*
0 $15 Rotation angle, in degrees counterclockwise*
0 create outline with 7 corners*
4,1,7,$1,$2,$3,$4,$5,$6,$7,$8,$9,$10,$11,$12,$13,$14,$1,$2,$15*%
%AMOutline8P*
0 Free polygon, 8 corners , with rotation*
0 The origin of the aperture is its center*
0 number of corners: always 8*
0 $1 to $16 corner X, Y*
0 $17 Rotation angle, in degrees counterclockwise*
0 create outline with 8 corners*
4,1,8,$1,$2,$3,$4,$5,$6,$7,$8,$9,$10,$11,$12,$13,$14,$15,$16,$1,$2,$17*%
%AMFreePoly0*
4,1,6,1.000000,0.000000,0.500000,-0.750000,-0.500000,-0.750000,-0.500000,0.750000,0.500000,0.750000,1.000000,0.000000,1.000000,0.000000,$1*%
%AMFreePoly1*
4,1,6,0.500000,-0.750000,-0.650000,-0.750000,-0.150000,0.000000,-0.650000,0.750000,0.500000,0.750000,0.500000,-0.750000,0.500000,-0.750000,$1*%
G04 Aperture macros list end*
%ADD10C,1.701800*%
%ADD11C,3.000000*%
%ADD12C,3.987800*%
%ADD13RotRect,2.550000X2.500000X346.000000*%
%ADD14RotRect,2.550000X2.500000X166.000000*%
%ADD15RotRect,2.550000X2.500000X76.000000*%
%ADD16C,0.800000*%
%ADD17HorizOval,1.600000X0.048384X0.194059X-0.048384X-0.194059X0*%
%ADD18RotRect,2.550000X2.500000X266.000000*%
%ADD19FreePoly0,270.000000*%
%ADD20FreePoly1,270.000000*%
%ADD21RotRect,2.550000X2.500000X170.500000*%
%ADD22RotRect,2.550000X2.500000X350.500000*%
%ADD23RotRect,2.550000X2.500000X46.000000*%
%ADD24HorizOval,1.500000X0.533663X-0.133057X-0.533663X0.133057X0*%
%ADD25HorizOval,1.500000X-0.133057X-0.533663X0.133057X0.533663X0*%
%ADD26HorizOval,1.500000X-0.533663X0.133057X0.533663X-0.133057X0*%
%ADD27Outline8P,-1.300000X0.450000X-1.000000X0.750000X1.000000X0.750000X1.300000X0.450000X1.300000X-0.450000X1.000000X-0.750000X-1.000000X-0.750000X-1.300000X-0.450000X166.000000*%
%ADD28RotRect,2.600000X1.500000X166.000000*%
%ADD29RotRect,2.550000X2.500000X332.000000*%
%ADD30HorizOval,1.600000X-0.048384X-0.194059X0.048384X0.194059X0*%
G04 APERTURE END LIST*
%TO.C,JP2*%
G36*
X139250000Y-134300000D02*
G01*
X140750000Y-134300000D01*
X140750000Y-136750000D01*
X139250000Y-136750000D01*
X139250000Y-134300000D01*
G37*
%TO.C,JP4*%
G36*
X136250000Y-134250000D02*
G01*
X137750000Y-134250000D01*
X137750000Y-136700000D01*
X136250000Y-136700000D01*
X136250000Y-134250000D01*
G37*
%TD*%
D10*
%TO.C,SW13*%
X162070284Y-107969759D03*
D11*
X163917041Y-105812448D03*
X165763798Y-103655138D03*
D12*
X166999386Y-109198722D03*
D11*
X170692900Y-104884101D03*
X171310694Y-107655893D03*
D10*
X171928488Y-110427685D03*
D13*
X174488413Y-108448187D03*
X162559882Y-102856312D03*
%TD*%
D10*
%TO.C,SW9*%
X147153345Y-52719867D03*
D11*
X145306588Y-54877178D03*
X143459831Y-57034488D03*
D12*
X142224243Y-51490904D03*
D11*
X138530729Y-55805525D03*
X137912935Y-53033733D03*
D10*
X137295141Y-50261941D03*
D14*
X134735216Y-52241439D03*
X146663747Y-57833314D03*
%TD*%
D10*
%TO.C,SW14*%
X170366939Y-95692205D03*
D11*
X168209628Y-93845448D03*
X166052318Y-91998691D03*
D12*
X171595902Y-90763103D03*
D11*
X167281281Y-87069589D03*
X170053073Y-86451795D03*
D10*
X172824865Y-85834001D03*
D15*
X170845367Y-83274076D03*
X165253492Y-95202607D03*
%TD*%
D16*
%TO.C,AudioJack*%
X128506547Y-147375851D03*
X130200000Y-140583781D03*
D17*
X127387708Y-142356070D03*
X126661942Y-145266957D03*
X133084870Y-138520403D03*
X128355395Y-138474887D03*
%TD*%
D10*
%TO.C,SW2*%
X90470238Y-82431685D03*
D11*
X92915460Y-83875772D03*
X95360682Y-85319860D03*
D12*
X90115875Y-87499310D03*
D11*
X95006319Y-90387486D03*
X92383916Y-91477207D03*
D10*
X89761512Y-92566935D03*
D18*
X92155463Y-94744233D03*
X95591018Y-82025904D03*
%TD*%
D19*
%TO.C,JP2*%
X140000000Y-134800000D03*
D20*
X140000000Y-136250000D03*
%TD*%
D10*
%TO.C,SW16*%
X132974453Y-121327626D03*
D11*
X134821210Y-119170315D03*
X136667967Y-117013005D03*
D12*
X137903555Y-122556589D03*
D11*
X141597069Y-118241968D03*
X142214863Y-121013760D03*
D10*
X142832657Y-123785552D03*
D13*
X145392582Y-121806054D03*
X133464051Y-116214179D03*
%TD*%
D10*
%TO.C,SW6*%
X121950878Y-58118587D03*
D11*
X120279074Y-60414142D03*
X118607271Y-62709697D03*
D12*
X116940547Y-57280145D03*
D11*
X113596940Y-61871255D03*
X112763578Y-59156479D03*
D10*
X111930216Y-56441703D03*
D21*
X109533493Y-58615948D03*
X121863986Y-63254684D03*
%TD*%
D10*
%TO.C,SW4*%
X105658407Y-93920556D03*
D11*
X107330211Y-91625001D03*
X109002014Y-89329446D03*
D12*
X110668738Y-94758998D03*
D11*
X114012345Y-90167888D03*
X114845707Y-92882664D03*
D10*
X115679069Y-95597440D03*
D22*
X118075792Y-93423195D03*
X105745299Y-88784459D03*
%TD*%
D10*
%TO.C,SW15*%
X174963455Y-77256586D03*
D11*
X172806144Y-75409829D03*
X170648834Y-73563072D03*
D12*
X176192418Y-72327484D03*
D11*
X171877797Y-68633970D03*
X174649589Y-68016176D03*
D10*
X177421381Y-67398382D03*
D15*
X175441883Y-64838457D03*
X169850008Y-76766988D03*
%TD*%
D10*
%TO.C,SW5*%
X108794311Y-75181129D03*
D11*
X110466115Y-72885574D03*
X112137918Y-70590019D03*
D12*
X113804642Y-76019571D03*
D11*
X117148249Y-71428461D03*
X117981611Y-74143237D03*
D10*
X118814973Y-76858013D03*
D22*
X121211696Y-74683768D03*
X108881203Y-70045032D03*
%TD*%
D10*
%TO.C,SW18*%
X173443190Y-147249851D03*
D11*
X172498284Y-144571857D03*
X171553377Y-141893864D03*
D12*
X176972055Y-143595605D03*
D11*
X175082241Y-138239617D03*
X177791580Y-139090488D03*
D10*
X180500920Y-139941359D03*
D23*
X180066586Y-136734650D03*
X169259615Y-144269124D03*
%TD*%
D24*
%TO.C,U?*%
X100864757Y-140379039D03*
X101479239Y-137914487D03*
X102093721Y-135449936D03*
X102708202Y-132985385D03*
X103322684Y-130520834D03*
X103937165Y-128056283D03*
X104551647Y-125591732D03*
X105166129Y-123127181D03*
X105780610Y-120662629D03*
D25*
X108911881Y-120876505D03*
X111376432Y-121490987D03*
X113840985Y-122105469D03*
X116305535Y-122719950D03*
X118770086Y-123334432D03*
D26*
X121635243Y-124615633D03*
X121020761Y-127080185D03*
X120406279Y-129544736D03*
X119791798Y-132009287D03*
X119177316Y-134473838D03*
X118562835Y-136938389D03*
D27*
X117948353Y-139402940D03*
D28*
X117333871Y-141867491D03*
D27*
X116719390Y-144332043D03*
%TD*%
D10*
%TO.C,SW17*%
X154018799Y-128117195D03*
D11*
X156332600Y-126470737D03*
X158646402Y-124824279D03*
D12*
X158504173Y-130502111D03*
D11*
X163131775Y-127209195D03*
X163060661Y-130048111D03*
D10*
X162989547Y-132887027D03*
D29*
X165952314Y-131585630D03*
X155730909Y-123274084D03*
%TD*%
D10*
%TO.C,SW7*%
X128102109Y-87133178D03*
D11*
X129948866Y-84975867D03*
X131795623Y-82818557D03*
D12*
X133031211Y-88362141D03*
D11*
X136724725Y-84047520D03*
X137342519Y-86819312D03*
D10*
X137960313Y-89591104D03*
D13*
X140520238Y-87611606D03*
X128591707Y-82019731D03*
%TD*%
D10*
%TO.C,SW11*%
X148715025Y-82997033D03*
D11*
X150561782Y-80839722D03*
X152408539Y-78682412D03*
D12*
X153644127Y-84225996D03*
D11*
X157337641Y-79911375D03*
X157955435Y-82683167D03*
D10*
X158573229Y-85454959D03*
D13*
X161133154Y-83475461D03*
X149204623Y-77883586D03*
%TD*%
D10*
%TO.C,SW10*%
X144118509Y-101432652D03*
D11*
X145965266Y-99275341D03*
X147812023Y-97118031D03*
D12*
X149047611Y-102661615D03*
D11*
X152741125Y-98346994D03*
X153358919Y-101118786D03*
D10*
X153976713Y-103890578D03*
D13*
X156536638Y-101911080D03*
X144608107Y-96319205D03*
%TD*%
D10*
%TO.C,SW12*%
X153311541Y-64561414D03*
D11*
X155158298Y-62404103D03*
X157005055Y-60246793D03*
D12*
X158240643Y-65790377D03*
D11*
X161934157Y-61475756D03*
X162551951Y-64247548D03*
D10*
X163169745Y-67019340D03*
D13*
X165729670Y-65039842D03*
X153801139Y-59447967D03*
%TD*%
D10*
%TO.C,SW1*%
X89144865Y-101385402D03*
D11*
X91590087Y-102829489D03*
X94035309Y-104273577D03*
D12*
X88790502Y-106453027D03*
D11*
X93680946Y-109341203D03*
X91058543Y-110430924D03*
D10*
X88436139Y-111520652D03*
D18*
X90830090Y-113697950D03*
X94265645Y-100979621D03*
%TD*%
D10*
%TO.C,SW3*%
X91795611Y-63477968D03*
D11*
X94240833Y-64922055D03*
X96686055Y-66366143D03*
D12*
X91441248Y-68545593D03*
D11*
X96331692Y-71433769D03*
X93709289Y-72523490D03*
D10*
X91086885Y-73613218D03*
D18*
X93480836Y-75790516D03*
X96916391Y-63072187D03*
%TD*%
D10*
%TO.C,SW8*%
X132698625Y-68697559D03*
D11*
X134545382Y-66540248D03*
X136392139Y-64382938D03*
D12*
X137627727Y-69926522D03*
D11*
X141321241Y-65611901D03*
X141939035Y-68383693D03*
D10*
X142556829Y-71155485D03*
D13*
X145116754Y-69175987D03*
X133188223Y-63584112D03*
%TD*%
D19*
%TO.C,JP4*%
X137000000Y-134750000D03*
D20*
X137000000Y-136200000D03*
%TD*%
D16*
%TO.C,AudioJack*%
X130168491Y-140600000D03*
X128475038Y-147392070D03*
D30*
X131819560Y-143485130D03*
X131093793Y-146396017D03*
X128590000Y-137423781D03*
X132787247Y-139603947D03*
%TD*%
M02*
