%TF.GenerationSoftware,KiCad,Pcbnew,10.0.2-rc1*%
%TF.CreationDate,2026-06-21T00:23:21+09:00*%
%TF.ProjectId,board,626f6172-642e-46b6-9963-61645f706362,v1.0.0*%
%TF.SameCoordinates,Original*%
%TF.FileFunction,AssemblyDrawing,Bot*%
%FSLAX46Y46*%
G04 Gerber Fmt 4.6, Leading zero omitted, Abs format (unit mm)*
G04 Created by KiCad (PCBNEW 10.0.2-rc1) date 2026-06-21 00:23:21*
%MOMM*%
%LPD*%
G01*
G04 APERTURE LIST*
%ADD10C,0.150000*%
%ADD11C,0.100000*%
G04 APERTURE END LIST*
D10*
X134026799Y-155634828D02*
X133472344Y-155496587D01*
X133507650Y-156536003D02*
X133749571Y-155565707D01*
X132352535Y-156248000D02*
X132791168Y-155866596D01*
X132906990Y-156386242D02*
X133148912Y-155415946D01*
X133148912Y-155415946D02*
X132779275Y-155323785D01*
X132779275Y-155323785D02*
X132675346Y-155346950D01*
X132675346Y-155346950D02*
X132617622Y-155381634D01*
X132617622Y-155381634D02*
X132548377Y-155462523D01*
X132548377Y-155462523D02*
X132513817Y-155601137D01*
X132513817Y-155601137D02*
X132536981Y-155705066D01*
X132536981Y-155705066D02*
X132571665Y-155762791D01*
X132571665Y-155762791D02*
X132652554Y-155832035D01*
X132652554Y-155832035D02*
X133022191Y-155924196D01*
X131382240Y-156006079D02*
X131820872Y-155624674D01*
X131936694Y-156144320D02*
X132178616Y-155174024D01*
X132178616Y-155174024D02*
X131808980Y-155081863D01*
X131808980Y-155081863D02*
X131705051Y-155105028D01*
X131705051Y-155105028D02*
X131647326Y-155139712D01*
X131647326Y-155139712D02*
X131578081Y-155220601D01*
X131578081Y-155220601D02*
X131543521Y-155359215D01*
X131543521Y-155359215D02*
X131566685Y-155463144D01*
X131566685Y-155463144D02*
X131601370Y-155520869D01*
X131601370Y-155520869D02*
X131682259Y-155590113D01*
X131682259Y-155590113D02*
X132051895Y-155682274D01*
X131024123Y-155867713D02*
X130873989Y-155879358D01*
X130873989Y-155879358D02*
X130642967Y-155821757D01*
X130642967Y-155821757D02*
X130562078Y-155752512D01*
X130562078Y-155752512D02*
X130527393Y-155694788D01*
X130527393Y-155694788D02*
X130504229Y-155590859D01*
X130504229Y-155590859D02*
X130527269Y-155498449D01*
X130527269Y-155498449D02*
X130596514Y-155417560D01*
X130596514Y-155417560D02*
X130654238Y-155382876D01*
X130654238Y-155382876D02*
X130758168Y-155359712D01*
X130758168Y-155359712D02*
X130954506Y-155359587D01*
X130954506Y-155359587D02*
X131058435Y-155336423D01*
X131058435Y-155336423D02*
X131116160Y-155301739D01*
X131116160Y-155301739D02*
X131185405Y-155220850D01*
X131185405Y-155220850D02*
X131208445Y-155128440D01*
X131208445Y-155128440D02*
X131185280Y-155024511D01*
X131185280Y-155024511D02*
X131150596Y-154966787D01*
X131150596Y-154966787D02*
X131069707Y-154897542D01*
X131069707Y-154897542D02*
X130838684Y-154839941D01*
X130838684Y-154839941D02*
X130688550Y-154851586D01*
X130134468Y-155302360D02*
X129395195Y-155118038D01*
X128840989Y-155372474D02*
X129082911Y-154402178D01*
X129082911Y-154402178D02*
X128713275Y-154310017D01*
X128713275Y-154310017D02*
X128609345Y-154333182D01*
X128609345Y-154333182D02*
X128551621Y-154367866D01*
X128551621Y-154367866D02*
X128482376Y-154448755D01*
X128482376Y-154448755D02*
X128447816Y-154587369D01*
X128447816Y-154587369D02*
X128470980Y-154691298D01*
X128470980Y-154691298D02*
X128505665Y-154749023D01*
X128505665Y-154749023D02*
X128586554Y-154818267D01*
X128586554Y-154818267D02*
X128956190Y-154910428D01*
X127835388Y-154091136D02*
X127662587Y-154784204D01*
X127662587Y-154784204D02*
X127674231Y-154934338D01*
X127674231Y-154934338D02*
X127743600Y-155049787D01*
X127743600Y-155049787D02*
X127870693Y-155130552D01*
X127870693Y-155130552D02*
X127963102Y-155153592D01*
X127223581Y-154576594D02*
X126484308Y-154392272D01*
X126264433Y-153699452D02*
X125663774Y-153549691D01*
X125663774Y-153549691D02*
X125895045Y-153999968D01*
X125895045Y-153999968D02*
X125756431Y-153965408D01*
X125756431Y-153965408D02*
X125652502Y-153988572D01*
X125652502Y-153988572D02*
X125594777Y-154023257D01*
X125594777Y-154023257D02*
X125525533Y-154104146D01*
X125525533Y-154104146D02*
X125467932Y-154335169D01*
X125467932Y-154335169D02*
X125491097Y-154439098D01*
X125491097Y-154439098D02*
X125525781Y-154496823D01*
X125525781Y-154496823D02*
X125606670Y-154566067D01*
X125606670Y-154566067D02*
X125883897Y-154635188D01*
X125883897Y-154635188D02*
X125987827Y-154612024D01*
X125987827Y-154612024D02*
X126045551Y-154577339D01*
X125271097Y-153549940D02*
X125236413Y-153492215D01*
X125236413Y-153492215D02*
X125155523Y-153422970D01*
X125155523Y-153422970D02*
X124924501Y-153365370D01*
X124924501Y-153365370D02*
X124820571Y-153388534D01*
X124820571Y-153388534D02*
X124762847Y-153423219D01*
X124762847Y-153423219D02*
X124693602Y-153504108D01*
X124693602Y-153504108D02*
X124670562Y-153596517D01*
X124670562Y-153596517D02*
X124682206Y-153746651D01*
X124682206Y-153746651D02*
X125098420Y-154439346D01*
X125098420Y-154439346D02*
X124497761Y-154289585D01*
X124139023Y-153169528D02*
X124046614Y-153146488D01*
X124046614Y-153146488D02*
X123942685Y-153169652D01*
X123942685Y-153169652D02*
X123884960Y-153204337D01*
X123884960Y-153204337D02*
X123815715Y-153285226D01*
X123815715Y-153285226D02*
X123723431Y-153458524D01*
X123723431Y-153458524D02*
X123665830Y-153689547D01*
X123665830Y-153689547D02*
X123665954Y-153885885D01*
X123665954Y-153885885D02*
X123689119Y-153989814D01*
X123689119Y-153989814D02*
X123723803Y-154047539D01*
X123723803Y-154047539D02*
X123804692Y-154116784D01*
X123804692Y-154116784D02*
X123897101Y-154139824D01*
X123897101Y-154139824D02*
X124001030Y-154116660D01*
X124001030Y-154116660D02*
X124058755Y-154081975D01*
X124058755Y-154081975D02*
X124128000Y-154001086D01*
X124128000Y-154001086D02*
X124220285Y-153827788D01*
X124220285Y-153827788D02*
X124277885Y-153596765D01*
X124277885Y-153596765D02*
X124277761Y-153400427D01*
X124277761Y-153400427D02*
X124254597Y-153296498D01*
X124254597Y-153296498D02*
X124219912Y-153238773D01*
X124219912Y-153238773D02*
X124139023Y-153169528D01*
X123273153Y-153689795D02*
X122811108Y-153574594D01*
X123296442Y-153990063D02*
X123214932Y-152939126D01*
X123214932Y-152939126D02*
X122649578Y-153828782D01*
X122534129Y-153898150D02*
X121794856Y-153713829D01*
X121586873Y-153563819D02*
X121828795Y-152593524D01*
X121828795Y-152593524D02*
X121459158Y-152501363D01*
X121459158Y-152501363D02*
X121355229Y-152524527D01*
X121355229Y-152524527D02*
X121297505Y-152559212D01*
X121297505Y-152559212D02*
X121228260Y-152640101D01*
X121228260Y-152640101D02*
X121193699Y-152778714D01*
X121193699Y-152778714D02*
X121216864Y-152882644D01*
X121216864Y-152882644D02*
X121251548Y-152940368D01*
X121251548Y-152940368D02*
X121332437Y-153009613D01*
X121332437Y-153009613D02*
X121702074Y-153101774D01*
X120616577Y-153321897D02*
X120858499Y-152351602D01*
X120154532Y-153206697D02*
X120396454Y-152236401D01*
X120396454Y-152236401D02*
X119600077Y-153068456D01*
X119600077Y-153068456D02*
X119841999Y-152098160D01*
D11*
X129686562Y-146322012D02*
X129993605Y-146055028D01*
X130074680Y-146418780D02*
X130244025Y-145739573D01*
X130244025Y-145739573D02*
X129985280Y-145675061D01*
X129985280Y-145675061D02*
X129912529Y-145691276D01*
X129912529Y-145691276D02*
X129872122Y-145715555D01*
X129872122Y-145715555D02*
X129823651Y-145772177D01*
X129823651Y-145772177D02*
X129799458Y-145869207D01*
X129799458Y-145869207D02*
X129815673Y-145941957D01*
X129815673Y-145941957D02*
X129839953Y-145982365D01*
X129839953Y-145982365D02*
X129896575Y-146030836D01*
X129896575Y-146030836D02*
X130155320Y-146095349D01*
X129395473Y-146249435D02*
X129508370Y-145796630D01*
X129564818Y-145570228D02*
X129589097Y-145610635D01*
X129589097Y-145610635D02*
X129548690Y-145634915D01*
X129548690Y-145634915D02*
X129524411Y-145594507D01*
X129524411Y-145594507D02*
X129564818Y-145570228D01*
X129564818Y-145570228D02*
X129548690Y-145634915D01*
X129184938Y-145715990D02*
X129072041Y-146168795D01*
X129168810Y-145780676D02*
X129144531Y-145740269D01*
X129144531Y-145740269D02*
X129087909Y-145691798D01*
X129087909Y-145691798D02*
X128990879Y-145667606D01*
X128990879Y-145667606D02*
X128918129Y-145683821D01*
X128918129Y-145683821D02*
X128869657Y-145740443D01*
X128869657Y-145740443D02*
X128780953Y-146096218D01*
X128279329Y-145490196D02*
X128142240Y-146040030D01*
X128142240Y-146040030D02*
X128158455Y-146112781D01*
X128158455Y-146112781D02*
X128182734Y-146153188D01*
X128182734Y-146153188D02*
X128239357Y-146201659D01*
X128239357Y-146201659D02*
X128336386Y-146225852D01*
X128336386Y-146225852D02*
X128409137Y-146209637D01*
X128174496Y-145910658D02*
X128231119Y-145959129D01*
X128231119Y-145959129D02*
X128360491Y-145991385D01*
X128360491Y-145991385D02*
X128433242Y-145975170D01*
X128433242Y-145975170D02*
X128473649Y-145950891D01*
X128473649Y-145950891D02*
X128522120Y-145894269D01*
X128522120Y-145894269D02*
X128570505Y-145700210D01*
X128570505Y-145700210D02*
X128554290Y-145627459D01*
X128554290Y-145627459D02*
X128530011Y-145587052D01*
X128530011Y-145587052D02*
X128473388Y-145538581D01*
X128473388Y-145538581D02*
X128344015Y-145506324D01*
X128344015Y-145506324D02*
X128271265Y-145522539D01*
X128028561Y-145255904D02*
X128004282Y-145215497D01*
X128004282Y-145215497D02*
X127947660Y-145167025D01*
X127947660Y-145167025D02*
X127785944Y-145126705D01*
X127785944Y-145126705D02*
X127713193Y-145142920D01*
X127713193Y-145142920D02*
X127672786Y-145167199D01*
X127672786Y-145167199D02*
X127624315Y-145223821D01*
X127624315Y-145223821D02*
X127608186Y-145288508D01*
X127608186Y-145288508D02*
X127616337Y-145393601D01*
X127616337Y-145393601D02*
X127907687Y-145878488D01*
X127907687Y-145878488D02*
X127487226Y-145773656D01*
X130412328Y-143411125D02*
X130719371Y-143144141D01*
X130800446Y-143507893D02*
X130969791Y-142828686D01*
X130969791Y-142828686D02*
X130711046Y-142764174D01*
X130711046Y-142764174D02*
X130638295Y-142780389D01*
X130638295Y-142780389D02*
X130597888Y-142804668D01*
X130597888Y-142804668D02*
X130549417Y-142861290D01*
X130549417Y-142861290D02*
X130525224Y-142958320D01*
X130525224Y-142958320D02*
X130541439Y-143031070D01*
X130541439Y-143031070D02*
X130565719Y-143071478D01*
X130565719Y-143071478D02*
X130622341Y-143119949D01*
X130622341Y-143119949D02*
X130881086Y-143184462D01*
X130121239Y-143338548D02*
X130234136Y-142885743D01*
X130290584Y-142659341D02*
X130314863Y-142699748D01*
X130314863Y-142699748D02*
X130274456Y-142724028D01*
X130274456Y-142724028D02*
X130250177Y-142683620D01*
X130250177Y-142683620D02*
X130290584Y-142659341D01*
X130290584Y-142659341D02*
X130274456Y-142724028D01*
X129910704Y-142805103D02*
X129797807Y-143257908D01*
X129894576Y-142869789D02*
X129870297Y-142829382D01*
X129870297Y-142829382D02*
X129813675Y-142780911D01*
X129813675Y-142780911D02*
X129716645Y-142756719D01*
X129716645Y-142756719D02*
X129643895Y-142772934D01*
X129643895Y-142772934D02*
X129595423Y-142829556D01*
X129595423Y-142829556D02*
X129506719Y-143185331D01*
X129005095Y-142579309D02*
X128868006Y-143129143D01*
X128868006Y-143129143D02*
X128884221Y-143201894D01*
X128884221Y-143201894D02*
X128908500Y-143242301D01*
X128908500Y-143242301D02*
X128965123Y-143290772D01*
X128965123Y-143290772D02*
X129062152Y-143314965D01*
X129062152Y-143314965D02*
X129134903Y-143298750D01*
X128900262Y-142999771D02*
X128956885Y-143048242D01*
X128956885Y-143048242D02*
X129086257Y-143080498D01*
X129086257Y-143080498D02*
X129159008Y-143064283D01*
X129159008Y-143064283D02*
X129199415Y-143040004D01*
X129199415Y-143040004D02*
X129247886Y-142983382D01*
X129247886Y-142983382D02*
X129296271Y-142789323D01*
X129296271Y-142789323D02*
X129280056Y-142716572D01*
X129280056Y-142716572D02*
X129255777Y-142676165D01*
X129255777Y-142676165D02*
X129199154Y-142627694D01*
X129199154Y-142627694D02*
X129069781Y-142595437D01*
X129069781Y-142595437D02*
X128997031Y-142611652D01*
X128212992Y-142862769D02*
X128601110Y-142959537D01*
X128407051Y-142911153D02*
X128576396Y-142231946D01*
X128576396Y-142231946D02*
X128616890Y-142345104D01*
X128616890Y-142345104D02*
X128665448Y-142425918D01*
X128665448Y-142425918D02*
X128722071Y-142474390D01*
X131262477Y-139036860D02*
X130874359Y-138940091D01*
X130899072Y-139667683D02*
X131068418Y-138988476D01*
X130478611Y-139562850D02*
X130591508Y-139110045D01*
X130647957Y-138883643D02*
X130672236Y-138924050D01*
X130672236Y-138924050D02*
X130631828Y-138948329D01*
X130631828Y-138948329D02*
X130607549Y-138907922D01*
X130607549Y-138907922D02*
X130647957Y-138883643D01*
X130647957Y-138883643D02*
X130631828Y-138948329D01*
X130268077Y-139029405D02*
X130098731Y-139708612D01*
X130260012Y-139061748D02*
X130203390Y-139013277D01*
X130203390Y-139013277D02*
X130074017Y-138981020D01*
X130074017Y-138981020D02*
X130001267Y-138997235D01*
X130001267Y-138997235D02*
X129960860Y-139021515D01*
X129960860Y-139021515D02*
X129912388Y-139078137D01*
X129912388Y-139078137D02*
X129864004Y-139272196D01*
X129864004Y-139272196D02*
X129880219Y-139344946D01*
X129880219Y-139344946D02*
X129904498Y-139385354D01*
X129904498Y-139385354D02*
X129961121Y-139433825D01*
X129961121Y-139433825D02*
X130090493Y-139466081D01*
X130090493Y-139466081D02*
X130163244Y-139449866D01*
X132523382Y-138595455D02*
X132418289Y-138603606D01*
X132418289Y-138603606D02*
X132256573Y-138563285D01*
X132256573Y-138563285D02*
X132199950Y-138514814D01*
X132199950Y-138514814D02*
X132175671Y-138474407D01*
X132175671Y-138474407D02*
X132159456Y-138401656D01*
X132159456Y-138401656D02*
X132175584Y-138336970D01*
X132175584Y-138336970D02*
X132224056Y-138280348D01*
X132224056Y-138280348D02*
X132264463Y-138256069D01*
X132264463Y-138256069D02*
X132337213Y-138239854D01*
X132337213Y-138239854D02*
X132474650Y-138239767D01*
X132474650Y-138239767D02*
X132547401Y-138223552D01*
X132547401Y-138223552D02*
X132587808Y-138199272D01*
X132587808Y-138199272D02*
X132636279Y-138142650D01*
X132636279Y-138142650D02*
X132652407Y-138077964D01*
X132652407Y-138077964D02*
X132636192Y-138005213D01*
X132636192Y-138005213D02*
X132611913Y-137964806D01*
X132611913Y-137964806D02*
X132555291Y-137916335D01*
X132555291Y-137916335D02*
X132393575Y-137876014D01*
X132393575Y-137876014D02*
X132288481Y-137884165D01*
X131739081Y-138434260D02*
X131811832Y-138418045D01*
X131811832Y-138418045D02*
X131860303Y-138361423D01*
X131860303Y-138361423D02*
X132005456Y-137779246D01*
X131229654Y-138272892D02*
X131286276Y-138321363D01*
X131286276Y-138321363D02*
X131415649Y-138353620D01*
X131415649Y-138353620D02*
X131488399Y-138337405D01*
X131488399Y-138337405D02*
X131536871Y-138280782D01*
X131536871Y-138280782D02*
X131601383Y-138022037D01*
X131601383Y-138022037D02*
X131585168Y-137949286D01*
X131585168Y-137949286D02*
X131528546Y-137900815D01*
X131528546Y-137900815D02*
X131399173Y-137868559D01*
X131399173Y-137868559D02*
X131326423Y-137884774D01*
X131326423Y-137884774D02*
X131277951Y-137941396D01*
X131277951Y-137941396D02*
X131261823Y-138006082D01*
X131261823Y-138006082D02*
X131569127Y-138151409D01*
X130647477Y-138127739D02*
X130704099Y-138176210D01*
X130704099Y-138176210D02*
X130833472Y-138208466D01*
X130833472Y-138208466D02*
X130906222Y-138192251D01*
X130906222Y-138192251D02*
X130954693Y-138135629D01*
X130954693Y-138135629D02*
X131019206Y-137876884D01*
X131019206Y-137876884D02*
X131002991Y-137804133D01*
X131002991Y-137804133D02*
X130946368Y-137755662D01*
X130946368Y-137755662D02*
X130816996Y-137723406D01*
X130816996Y-137723406D02*
X130744245Y-137739621D01*
X130744245Y-137739621D02*
X130695774Y-137796243D01*
X130695774Y-137796243D02*
X130679646Y-137860929D01*
X130679646Y-137860929D02*
X130986950Y-138006256D01*
X130493564Y-137642765D02*
X130218951Y-138055249D01*
X130218951Y-138055249D02*
X130170132Y-137562124D01*
X129547808Y-137853561D02*
X129604431Y-137902032D01*
X129604431Y-137902032D02*
X129733803Y-137934288D01*
X129733803Y-137934288D02*
X129806554Y-137918073D01*
X129806554Y-137918073D02*
X129855025Y-137861451D01*
X129855025Y-137861451D02*
X129919538Y-137602705D01*
X129919538Y-137602705D02*
X129903323Y-137529955D01*
X129903323Y-137529955D02*
X129846700Y-137481484D01*
X129846700Y-137481484D02*
X129717328Y-137449227D01*
X129717328Y-137449227D02*
X129644577Y-137465443D01*
X129644577Y-137465443D02*
X129596106Y-137522065D01*
X129596106Y-137522065D02*
X129579978Y-137586751D01*
X129579978Y-137586751D02*
X129887281Y-137732078D01*
D10*
X139307200Y-127498808D02*
X139354819Y-127641665D01*
X139354819Y-127641665D02*
X139354819Y-127879760D01*
X139354819Y-127879760D02*
X139307200Y-127974998D01*
X139307200Y-127974998D02*
X139259580Y-128022617D01*
X139259580Y-128022617D02*
X139164342Y-128070236D01*
X139164342Y-128070236D02*
X139069104Y-128070236D01*
X139069104Y-128070236D02*
X138973866Y-128022617D01*
X138973866Y-128022617D02*
X138926247Y-127974998D01*
X138926247Y-127974998D02*
X138878628Y-127879760D01*
X138878628Y-127879760D02*
X138831009Y-127689284D01*
X138831009Y-127689284D02*
X138783390Y-127594046D01*
X138783390Y-127594046D02*
X138735771Y-127546427D01*
X138735771Y-127546427D02*
X138640533Y-127498808D01*
X138640533Y-127498808D02*
X138545295Y-127498808D01*
X138545295Y-127498808D02*
X138450057Y-127546427D01*
X138450057Y-127546427D02*
X138402438Y-127594046D01*
X138402438Y-127594046D02*
X138354819Y-127689284D01*
X138354819Y-127689284D02*
X138354819Y-127927379D01*
X138354819Y-127927379D02*
X138402438Y-128070236D01*
X139354819Y-128641665D02*
X139307200Y-128546427D01*
X139307200Y-128546427D02*
X139259580Y-128498808D01*
X139259580Y-128498808D02*
X139164342Y-128451189D01*
X139164342Y-128451189D02*
X138878628Y-128451189D01*
X138878628Y-128451189D02*
X138783390Y-128498808D01*
X138783390Y-128498808D02*
X138735771Y-128546427D01*
X138735771Y-128546427D02*
X138688152Y-128641665D01*
X138688152Y-128641665D02*
X138688152Y-128784522D01*
X138688152Y-128784522D02*
X138735771Y-128879760D01*
X138735771Y-128879760D02*
X138783390Y-128927379D01*
X138783390Y-128927379D02*
X138878628Y-128974998D01*
X138878628Y-128974998D02*
X139164342Y-128974998D01*
X139164342Y-128974998D02*
X139259580Y-128927379D01*
X139259580Y-128927379D02*
X139307200Y-128879760D01*
X139307200Y-128879760D02*
X139354819Y-128784522D01*
X139354819Y-128784522D02*
X139354819Y-128641665D01*
X139354819Y-129546427D02*
X139307200Y-129451189D01*
X139307200Y-129451189D02*
X139211961Y-129403570D01*
X139211961Y-129403570D02*
X138354819Y-129403570D01*
X139354819Y-130355951D02*
X138354819Y-130355951D01*
X139307200Y-130355951D02*
X139354819Y-130260713D01*
X139354819Y-130260713D02*
X139354819Y-130070237D01*
X139354819Y-130070237D02*
X139307200Y-129974999D01*
X139307200Y-129974999D02*
X139259580Y-129927380D01*
X139259580Y-129927380D02*
X139164342Y-129879761D01*
X139164342Y-129879761D02*
X138878628Y-129879761D01*
X138878628Y-129879761D02*
X138783390Y-129927380D01*
X138783390Y-129927380D02*
X138735771Y-129974999D01*
X138735771Y-129974999D02*
X138688152Y-130070237D01*
X138688152Y-130070237D02*
X138688152Y-130260713D01*
X138688152Y-130260713D02*
X138735771Y-130355951D01*
X139307200Y-131213094D02*
X139354819Y-131117856D01*
X139354819Y-131117856D02*
X139354819Y-130927380D01*
X139354819Y-130927380D02*
X139307200Y-130832142D01*
X139307200Y-130832142D02*
X139211961Y-130784523D01*
X139211961Y-130784523D02*
X138831009Y-130784523D01*
X138831009Y-130784523D02*
X138735771Y-130832142D01*
X138735771Y-130832142D02*
X138688152Y-130927380D01*
X138688152Y-130927380D02*
X138688152Y-131117856D01*
X138688152Y-131117856D02*
X138735771Y-131213094D01*
X138735771Y-131213094D02*
X138831009Y-131260713D01*
X138831009Y-131260713D02*
X138926247Y-131260713D01*
X138926247Y-131260713D02*
X139021485Y-130784523D01*
X139354819Y-131689285D02*
X138688152Y-131689285D01*
X138878628Y-131689285D02*
X138783390Y-131736904D01*
X138783390Y-131736904D02*
X138735771Y-131784523D01*
X138735771Y-131784523D02*
X138688152Y-131879761D01*
X138688152Y-131879761D02*
X138688152Y-131974999D01*
X138354819Y-132594047D02*
X139069104Y-132594047D01*
X139069104Y-132594047D02*
X139211961Y-132546428D01*
X139211961Y-132546428D02*
X139307200Y-132451190D01*
X139307200Y-132451190D02*
X139354819Y-132308333D01*
X139354819Y-132308333D02*
X139354819Y-132213095D01*
X138688152Y-133498809D02*
X139354819Y-133498809D01*
X138688152Y-133070238D02*
X139211961Y-133070238D01*
X139211961Y-133070238D02*
X139307200Y-133117857D01*
X139307200Y-133117857D02*
X139354819Y-133213095D01*
X139354819Y-133213095D02*
X139354819Y-133355952D01*
X139354819Y-133355952D02*
X139307200Y-133451190D01*
X139307200Y-133451190D02*
X139259580Y-133498809D01*
X139354819Y-133975000D02*
X138688152Y-133975000D01*
X138783390Y-133975000D02*
X138735771Y-134022619D01*
X138735771Y-134022619D02*
X138688152Y-134117857D01*
X138688152Y-134117857D02*
X138688152Y-134260714D01*
X138688152Y-134260714D02*
X138735771Y-134355952D01*
X138735771Y-134355952D02*
X138831009Y-134403571D01*
X138831009Y-134403571D02*
X139354819Y-134403571D01*
X138831009Y-134403571D02*
X138735771Y-134451190D01*
X138735771Y-134451190D02*
X138688152Y-134546428D01*
X138688152Y-134546428D02*
X138688152Y-134689285D01*
X138688152Y-134689285D02*
X138735771Y-134784524D01*
X138735771Y-134784524D02*
X138831009Y-134832143D01*
X138831009Y-134832143D02*
X139354819Y-134832143D01*
X138688152Y-135308333D02*
X139688152Y-135308333D01*
X138735771Y-135308333D02*
X138688152Y-135403571D01*
X138688152Y-135403571D02*
X138688152Y-135594047D01*
X138688152Y-135594047D02*
X138735771Y-135689285D01*
X138735771Y-135689285D02*
X138783390Y-135736904D01*
X138783390Y-135736904D02*
X138878628Y-135784523D01*
X138878628Y-135784523D02*
X139164342Y-135784523D01*
X139164342Y-135784523D02*
X139259580Y-135736904D01*
X139259580Y-135736904D02*
X139307200Y-135689285D01*
X139307200Y-135689285D02*
X139354819Y-135594047D01*
X139354819Y-135594047D02*
X139354819Y-135403571D01*
X139354819Y-135403571D02*
X139307200Y-135308333D01*
X139307200Y-136594047D02*
X139354819Y-136498809D01*
X139354819Y-136498809D02*
X139354819Y-136308333D01*
X139354819Y-136308333D02*
X139307200Y-136213095D01*
X139307200Y-136213095D02*
X139211961Y-136165476D01*
X139211961Y-136165476D02*
X138831009Y-136165476D01*
X138831009Y-136165476D02*
X138735771Y-136213095D01*
X138735771Y-136213095D02*
X138688152Y-136308333D01*
X138688152Y-136308333D02*
X138688152Y-136498809D01*
X138688152Y-136498809D02*
X138735771Y-136594047D01*
X138735771Y-136594047D02*
X138831009Y-136641666D01*
X138831009Y-136641666D02*
X138926247Y-136641666D01*
X138926247Y-136641666D02*
X139021485Y-136165476D01*
X139354819Y-137070238D02*
X138688152Y-137070238D01*
X138878628Y-137070238D02*
X138783390Y-137117857D01*
X138783390Y-137117857D02*
X138735771Y-137165476D01*
X138735771Y-137165476D02*
X138688152Y-137260714D01*
X138688152Y-137260714D02*
X138688152Y-137355952D01*
X139450057Y-137451191D02*
X139450057Y-138213095D01*
X138450057Y-138403572D02*
X138402438Y-138451191D01*
X138402438Y-138451191D02*
X138354819Y-138546429D01*
X138354819Y-138546429D02*
X138354819Y-138784524D01*
X138354819Y-138784524D02*
X138402438Y-138879762D01*
X138402438Y-138879762D02*
X138450057Y-138927381D01*
X138450057Y-138927381D02*
X138545295Y-138975000D01*
X138545295Y-138975000D02*
X138640533Y-138975000D01*
X138640533Y-138975000D02*
X138783390Y-138927381D01*
X138783390Y-138927381D02*
X139354819Y-138355953D01*
X139354819Y-138355953D02*
X139354819Y-138975000D01*
X139450057Y-139165477D02*
X139450057Y-139927381D01*
X138354819Y-140355953D02*
X138354819Y-140546429D01*
X138354819Y-140546429D02*
X138402438Y-140641667D01*
X138402438Y-140641667D02*
X138497676Y-140736905D01*
X138497676Y-140736905D02*
X138688152Y-140784524D01*
X138688152Y-140784524D02*
X139021485Y-140784524D01*
X139021485Y-140784524D02*
X139211961Y-140736905D01*
X139211961Y-140736905D02*
X139307200Y-140641667D01*
X139307200Y-140641667D02*
X139354819Y-140546429D01*
X139354819Y-140546429D02*
X139354819Y-140355953D01*
X139354819Y-140355953D02*
X139307200Y-140260715D01*
X139307200Y-140260715D02*
X139211961Y-140165477D01*
X139211961Y-140165477D02*
X139021485Y-140117858D01*
X139021485Y-140117858D02*
X138688152Y-140117858D01*
X138688152Y-140117858D02*
X138497676Y-140165477D01*
X138497676Y-140165477D02*
X138402438Y-140260715D01*
X138402438Y-140260715D02*
X138354819Y-140355953D01*
X138688152Y-141213096D02*
X139688152Y-141213096D01*
X138735771Y-141213096D02*
X138688152Y-141308334D01*
X138688152Y-141308334D02*
X138688152Y-141498810D01*
X138688152Y-141498810D02*
X138735771Y-141594048D01*
X138735771Y-141594048D02*
X138783390Y-141641667D01*
X138783390Y-141641667D02*
X138878628Y-141689286D01*
X138878628Y-141689286D02*
X139164342Y-141689286D01*
X139164342Y-141689286D02*
X139259580Y-141641667D01*
X139259580Y-141641667D02*
X139307200Y-141594048D01*
X139307200Y-141594048D02*
X139354819Y-141498810D01*
X139354819Y-141498810D02*
X139354819Y-141308334D01*
X139354819Y-141308334D02*
X139307200Y-141213096D01*
X139307200Y-142498810D02*
X139354819Y-142403572D01*
X139354819Y-142403572D02*
X139354819Y-142213096D01*
X139354819Y-142213096D02*
X139307200Y-142117858D01*
X139307200Y-142117858D02*
X139211961Y-142070239D01*
X139211961Y-142070239D02*
X138831009Y-142070239D01*
X138831009Y-142070239D02*
X138735771Y-142117858D01*
X138735771Y-142117858D02*
X138688152Y-142213096D01*
X138688152Y-142213096D02*
X138688152Y-142403572D01*
X138688152Y-142403572D02*
X138735771Y-142498810D01*
X138735771Y-142498810D02*
X138831009Y-142546429D01*
X138831009Y-142546429D02*
X138926247Y-142546429D01*
X138926247Y-142546429D02*
X139021485Y-142070239D01*
X138688152Y-142975001D02*
X139354819Y-142975001D01*
X138783390Y-142975001D02*
X138735771Y-143022620D01*
X138735771Y-143022620D02*
X138688152Y-143117858D01*
X138688152Y-143117858D02*
X138688152Y-143260715D01*
X138688152Y-143260715D02*
X138735771Y-143355953D01*
X138735771Y-143355953D02*
X138831009Y-143403572D01*
X138831009Y-143403572D02*
X139354819Y-143403572D01*
X142307200Y-127548808D02*
X142354819Y-127691665D01*
X142354819Y-127691665D02*
X142354819Y-127929760D01*
X142354819Y-127929760D02*
X142307200Y-128024998D01*
X142307200Y-128024998D02*
X142259580Y-128072617D01*
X142259580Y-128072617D02*
X142164342Y-128120236D01*
X142164342Y-128120236D02*
X142069104Y-128120236D01*
X142069104Y-128120236D02*
X141973866Y-128072617D01*
X141973866Y-128072617D02*
X141926247Y-128024998D01*
X141926247Y-128024998D02*
X141878628Y-127929760D01*
X141878628Y-127929760D02*
X141831009Y-127739284D01*
X141831009Y-127739284D02*
X141783390Y-127644046D01*
X141783390Y-127644046D02*
X141735771Y-127596427D01*
X141735771Y-127596427D02*
X141640533Y-127548808D01*
X141640533Y-127548808D02*
X141545295Y-127548808D01*
X141545295Y-127548808D02*
X141450057Y-127596427D01*
X141450057Y-127596427D02*
X141402438Y-127644046D01*
X141402438Y-127644046D02*
X141354819Y-127739284D01*
X141354819Y-127739284D02*
X141354819Y-127977379D01*
X141354819Y-127977379D02*
X141402438Y-128120236D01*
X142354819Y-128691665D02*
X142307200Y-128596427D01*
X142307200Y-128596427D02*
X142259580Y-128548808D01*
X142259580Y-128548808D02*
X142164342Y-128501189D01*
X142164342Y-128501189D02*
X141878628Y-128501189D01*
X141878628Y-128501189D02*
X141783390Y-128548808D01*
X141783390Y-128548808D02*
X141735771Y-128596427D01*
X141735771Y-128596427D02*
X141688152Y-128691665D01*
X141688152Y-128691665D02*
X141688152Y-128834522D01*
X141688152Y-128834522D02*
X141735771Y-128929760D01*
X141735771Y-128929760D02*
X141783390Y-128977379D01*
X141783390Y-128977379D02*
X141878628Y-129024998D01*
X141878628Y-129024998D02*
X142164342Y-129024998D01*
X142164342Y-129024998D02*
X142259580Y-128977379D01*
X142259580Y-128977379D02*
X142307200Y-128929760D01*
X142307200Y-128929760D02*
X142354819Y-128834522D01*
X142354819Y-128834522D02*
X142354819Y-128691665D01*
X142354819Y-129596427D02*
X142307200Y-129501189D01*
X142307200Y-129501189D02*
X142211961Y-129453570D01*
X142211961Y-129453570D02*
X141354819Y-129453570D01*
X142354819Y-130405951D02*
X141354819Y-130405951D01*
X142307200Y-130405951D02*
X142354819Y-130310713D01*
X142354819Y-130310713D02*
X142354819Y-130120237D01*
X142354819Y-130120237D02*
X142307200Y-130024999D01*
X142307200Y-130024999D02*
X142259580Y-129977380D01*
X142259580Y-129977380D02*
X142164342Y-129929761D01*
X142164342Y-129929761D02*
X141878628Y-129929761D01*
X141878628Y-129929761D02*
X141783390Y-129977380D01*
X141783390Y-129977380D02*
X141735771Y-130024999D01*
X141735771Y-130024999D02*
X141688152Y-130120237D01*
X141688152Y-130120237D02*
X141688152Y-130310713D01*
X141688152Y-130310713D02*
X141735771Y-130405951D01*
X142307200Y-131263094D02*
X142354819Y-131167856D01*
X142354819Y-131167856D02*
X142354819Y-130977380D01*
X142354819Y-130977380D02*
X142307200Y-130882142D01*
X142307200Y-130882142D02*
X142211961Y-130834523D01*
X142211961Y-130834523D02*
X141831009Y-130834523D01*
X141831009Y-130834523D02*
X141735771Y-130882142D01*
X141735771Y-130882142D02*
X141688152Y-130977380D01*
X141688152Y-130977380D02*
X141688152Y-131167856D01*
X141688152Y-131167856D02*
X141735771Y-131263094D01*
X141735771Y-131263094D02*
X141831009Y-131310713D01*
X141831009Y-131310713D02*
X141926247Y-131310713D01*
X141926247Y-131310713D02*
X142021485Y-130834523D01*
X142354819Y-131739285D02*
X141688152Y-131739285D01*
X141878628Y-131739285D02*
X141783390Y-131786904D01*
X141783390Y-131786904D02*
X141735771Y-131834523D01*
X141735771Y-131834523D02*
X141688152Y-131929761D01*
X141688152Y-131929761D02*
X141688152Y-132024999D01*
X141354819Y-132644047D02*
X142069104Y-132644047D01*
X142069104Y-132644047D02*
X142211961Y-132596428D01*
X142211961Y-132596428D02*
X142307200Y-132501190D01*
X142307200Y-132501190D02*
X142354819Y-132358333D01*
X142354819Y-132358333D02*
X142354819Y-132263095D01*
X141688152Y-133548809D02*
X142354819Y-133548809D01*
X141688152Y-133120238D02*
X142211961Y-133120238D01*
X142211961Y-133120238D02*
X142307200Y-133167857D01*
X142307200Y-133167857D02*
X142354819Y-133263095D01*
X142354819Y-133263095D02*
X142354819Y-133405952D01*
X142354819Y-133405952D02*
X142307200Y-133501190D01*
X142307200Y-133501190D02*
X142259580Y-133548809D01*
X142354819Y-134025000D02*
X141688152Y-134025000D01*
X141783390Y-134025000D02*
X141735771Y-134072619D01*
X141735771Y-134072619D02*
X141688152Y-134167857D01*
X141688152Y-134167857D02*
X141688152Y-134310714D01*
X141688152Y-134310714D02*
X141735771Y-134405952D01*
X141735771Y-134405952D02*
X141831009Y-134453571D01*
X141831009Y-134453571D02*
X142354819Y-134453571D01*
X141831009Y-134453571D02*
X141735771Y-134501190D01*
X141735771Y-134501190D02*
X141688152Y-134596428D01*
X141688152Y-134596428D02*
X141688152Y-134739285D01*
X141688152Y-134739285D02*
X141735771Y-134834524D01*
X141735771Y-134834524D02*
X141831009Y-134882143D01*
X141831009Y-134882143D02*
X142354819Y-134882143D01*
X141688152Y-135358333D02*
X142688152Y-135358333D01*
X141735771Y-135358333D02*
X141688152Y-135453571D01*
X141688152Y-135453571D02*
X141688152Y-135644047D01*
X141688152Y-135644047D02*
X141735771Y-135739285D01*
X141735771Y-135739285D02*
X141783390Y-135786904D01*
X141783390Y-135786904D02*
X141878628Y-135834523D01*
X141878628Y-135834523D02*
X142164342Y-135834523D01*
X142164342Y-135834523D02*
X142259580Y-135786904D01*
X142259580Y-135786904D02*
X142307200Y-135739285D01*
X142307200Y-135739285D02*
X142354819Y-135644047D01*
X142354819Y-135644047D02*
X142354819Y-135453571D01*
X142354819Y-135453571D02*
X142307200Y-135358333D01*
X142307200Y-136644047D02*
X142354819Y-136548809D01*
X142354819Y-136548809D02*
X142354819Y-136358333D01*
X142354819Y-136358333D02*
X142307200Y-136263095D01*
X142307200Y-136263095D02*
X142211961Y-136215476D01*
X142211961Y-136215476D02*
X141831009Y-136215476D01*
X141831009Y-136215476D02*
X141735771Y-136263095D01*
X141735771Y-136263095D02*
X141688152Y-136358333D01*
X141688152Y-136358333D02*
X141688152Y-136548809D01*
X141688152Y-136548809D02*
X141735771Y-136644047D01*
X141735771Y-136644047D02*
X141831009Y-136691666D01*
X141831009Y-136691666D02*
X141926247Y-136691666D01*
X141926247Y-136691666D02*
X142021485Y-136215476D01*
X142354819Y-137120238D02*
X141688152Y-137120238D01*
X141878628Y-137120238D02*
X141783390Y-137167857D01*
X141783390Y-137167857D02*
X141735771Y-137215476D01*
X141735771Y-137215476D02*
X141688152Y-137310714D01*
X141688152Y-137310714D02*
X141688152Y-137405952D01*
X142450057Y-137501191D02*
X142450057Y-138263095D01*
X141450057Y-138453572D02*
X141402438Y-138501191D01*
X141402438Y-138501191D02*
X141354819Y-138596429D01*
X141354819Y-138596429D02*
X141354819Y-138834524D01*
X141354819Y-138834524D02*
X141402438Y-138929762D01*
X141402438Y-138929762D02*
X141450057Y-138977381D01*
X141450057Y-138977381D02*
X141545295Y-139025000D01*
X141545295Y-139025000D02*
X141640533Y-139025000D01*
X141640533Y-139025000D02*
X141783390Y-138977381D01*
X141783390Y-138977381D02*
X142354819Y-138405953D01*
X142354819Y-138405953D02*
X142354819Y-139025000D01*
X142450057Y-139215477D02*
X142450057Y-139977381D01*
X141354819Y-140405953D02*
X141354819Y-140596429D01*
X141354819Y-140596429D02*
X141402438Y-140691667D01*
X141402438Y-140691667D02*
X141497676Y-140786905D01*
X141497676Y-140786905D02*
X141688152Y-140834524D01*
X141688152Y-140834524D02*
X142021485Y-140834524D01*
X142021485Y-140834524D02*
X142211961Y-140786905D01*
X142211961Y-140786905D02*
X142307200Y-140691667D01*
X142307200Y-140691667D02*
X142354819Y-140596429D01*
X142354819Y-140596429D02*
X142354819Y-140405953D01*
X142354819Y-140405953D02*
X142307200Y-140310715D01*
X142307200Y-140310715D02*
X142211961Y-140215477D01*
X142211961Y-140215477D02*
X142021485Y-140167858D01*
X142021485Y-140167858D02*
X141688152Y-140167858D01*
X141688152Y-140167858D02*
X141497676Y-140215477D01*
X141497676Y-140215477D02*
X141402438Y-140310715D01*
X141402438Y-140310715D02*
X141354819Y-140405953D01*
X141688152Y-141263096D02*
X142688152Y-141263096D01*
X141735771Y-141263096D02*
X141688152Y-141358334D01*
X141688152Y-141358334D02*
X141688152Y-141548810D01*
X141688152Y-141548810D02*
X141735771Y-141644048D01*
X141735771Y-141644048D02*
X141783390Y-141691667D01*
X141783390Y-141691667D02*
X141878628Y-141739286D01*
X141878628Y-141739286D02*
X142164342Y-141739286D01*
X142164342Y-141739286D02*
X142259580Y-141691667D01*
X142259580Y-141691667D02*
X142307200Y-141644048D01*
X142307200Y-141644048D02*
X142354819Y-141548810D01*
X142354819Y-141548810D02*
X142354819Y-141358334D01*
X142354819Y-141358334D02*
X142307200Y-141263096D01*
X142307200Y-142548810D02*
X142354819Y-142453572D01*
X142354819Y-142453572D02*
X142354819Y-142263096D01*
X142354819Y-142263096D02*
X142307200Y-142167858D01*
X142307200Y-142167858D02*
X142211961Y-142120239D01*
X142211961Y-142120239D02*
X141831009Y-142120239D01*
X141831009Y-142120239D02*
X141735771Y-142167858D01*
X141735771Y-142167858D02*
X141688152Y-142263096D01*
X141688152Y-142263096D02*
X141688152Y-142453572D01*
X141688152Y-142453572D02*
X141735771Y-142548810D01*
X141735771Y-142548810D02*
X141831009Y-142596429D01*
X141831009Y-142596429D02*
X141926247Y-142596429D01*
X141926247Y-142596429D02*
X142021485Y-142120239D01*
X141688152Y-143025001D02*
X142354819Y-143025001D01*
X141783390Y-143025001D02*
X141735771Y-143072620D01*
X141735771Y-143072620D02*
X141688152Y-143167858D01*
X141688152Y-143167858D02*
X141688152Y-143310715D01*
X141688152Y-143310715D02*
X141735771Y-143405953D01*
X141735771Y-143405953D02*
X141831009Y-143453572D01*
X141831009Y-143453572D02*
X142354819Y-143453572D01*
M02*
