%TF.GenerationSoftware,KiCad,Pcbnew,10.0.2*%
%TF.CreationDate,2026-07-30T14:12:14+09:00*%
%TF.ProjectId,board,626f6172-642e-46b6-9963-61645f706362,v1.0.0*%
%TF.SameCoordinates,Original*%
%TF.FileFunction,AssemblyDrawing,Top*%
%FSLAX46Y46*%
G04 Gerber Fmt 4.6, Leading zero omitted, Abs format (unit mm)*
G04 Created by KiCad (PCBNEW 10.0.2) date 2026-07-30 14:12:14*
%MOMM*%
%LPD*%
G01*
G04 APERTURE LIST*
%ADD10C,0.150000*%
%ADD11C,0.100000*%
G04 APERTURE END LIST*
D10*
X187247379Y-135333596D02*
X187385620Y-134779142D01*
X188286795Y-135298291D02*
X187316499Y-135056369D01*
X188574797Y-134143177D02*
X188032111Y-134351408D01*
X188436556Y-134697631D02*
X187466261Y-134455710D01*
X187466261Y-134455710D02*
X187558421Y-134086073D01*
X187558421Y-134086073D02*
X187627666Y-134005184D01*
X187627666Y-134005184D02*
X187685391Y-133970500D01*
X187685391Y-133970500D02*
X187789320Y-133947335D01*
X187789320Y-133947335D02*
X187927934Y-133981895D01*
X187927934Y-133981895D02*
X188008823Y-134051140D01*
X188008823Y-134051140D02*
X188043507Y-134108865D01*
X188043507Y-134108865D02*
X188066672Y-134212794D01*
X188066672Y-134212794D02*
X187974511Y-134582431D01*
X188816719Y-133172881D02*
X188274033Y-133381112D01*
X188678478Y-133727336D02*
X187708183Y-133485414D01*
X187708183Y-133485414D02*
X187800343Y-133115777D01*
X187800343Y-133115777D02*
X187869588Y-133034888D01*
X187869588Y-133034888D02*
X187927313Y-133000204D01*
X187927313Y-133000204D02*
X188031242Y-132977039D01*
X188031242Y-132977039D02*
X188169856Y-133011600D01*
X188169856Y-133011600D02*
X188250745Y-133080844D01*
X188250745Y-133080844D02*
X188285429Y-133138569D01*
X188285429Y-133138569D02*
X188308593Y-133242498D01*
X188308593Y-133242498D02*
X188216433Y-133612135D01*
X188862676Y-132791724D02*
X188943440Y-132664631D01*
X188943440Y-132664631D02*
X189001041Y-132433608D01*
X189001041Y-132433608D02*
X188977876Y-132329679D01*
X188977876Y-132329679D02*
X188943192Y-132271954D01*
X188943192Y-132271954D02*
X188862303Y-132202709D01*
X188862303Y-132202709D02*
X188769894Y-132179669D01*
X188769894Y-132179669D02*
X188665965Y-132202834D01*
X188665965Y-132202834D02*
X188608240Y-132237518D01*
X188608240Y-132237518D02*
X188538995Y-132318407D01*
X188538995Y-132318407D02*
X188446710Y-132491705D01*
X188446710Y-132491705D02*
X188377466Y-132572594D01*
X188377466Y-132572594D02*
X188319741Y-132607279D01*
X188319741Y-132607279D02*
X188215812Y-132630443D01*
X188215812Y-132630443D02*
X188123403Y-132607403D01*
X188123403Y-132607403D02*
X188042514Y-132538158D01*
X188042514Y-132538158D02*
X188007829Y-132480434D01*
X188007829Y-132480434D02*
X187984665Y-132376504D01*
X187984665Y-132376504D02*
X188042265Y-132145482D01*
X188042265Y-132145482D02*
X188123030Y-132018388D01*
X188781166Y-131740788D02*
X188965487Y-131001515D01*
X189450324Y-130631630D02*
X188480029Y-130389709D01*
X188480029Y-130389709D02*
X188572189Y-130020072D01*
X188572189Y-130020072D02*
X188641434Y-129939183D01*
X188641434Y-129939183D02*
X188699159Y-129904499D01*
X188699159Y-129904499D02*
X188803088Y-129881334D01*
X188803088Y-129881334D02*
X188941702Y-129915895D01*
X188941702Y-129915895D02*
X189022591Y-129985139D01*
X189022591Y-129985139D02*
X189057275Y-130042864D01*
X189057275Y-130042864D02*
X189080439Y-130146793D01*
X189080439Y-130146793D02*
X188988279Y-130516430D01*
X188791071Y-129142186D02*
X189484139Y-129314987D01*
X189484139Y-129314987D02*
X189611233Y-129395752D01*
X189611233Y-129395752D02*
X189680602Y-129511201D01*
X189680602Y-129511201D02*
X189692246Y-129661335D01*
X189692246Y-129661335D02*
X189669206Y-129753744D01*
X189506931Y-128829901D02*
X189691253Y-128090628D01*
X189182754Y-127571231D02*
X189332515Y-126970571D01*
X189332515Y-126970571D02*
X189621511Y-127386164D01*
X189621511Y-127386164D02*
X189656071Y-127247550D01*
X189656071Y-127247550D02*
X189725316Y-127166661D01*
X189725316Y-127166661D02*
X189783041Y-127131977D01*
X189783041Y-127131977D02*
X189886970Y-127108812D01*
X189886970Y-127108812D02*
X190117993Y-127166413D01*
X190117993Y-127166413D02*
X190198882Y-127235658D01*
X190198882Y-127235658D02*
X190233566Y-127293382D01*
X190233566Y-127293382D02*
X190256731Y-127397311D01*
X190256731Y-127397311D02*
X190187610Y-127674539D01*
X190187610Y-127674539D02*
X190118365Y-127755428D01*
X190118365Y-127755428D02*
X190060641Y-127790112D01*
X189517085Y-126623975D02*
X189482401Y-126566250D01*
X189482401Y-126566250D02*
X189459236Y-126462321D01*
X189459236Y-126462321D02*
X189516837Y-126231298D01*
X189516837Y-126231298D02*
X189586081Y-126150409D01*
X189586081Y-126150409D02*
X189643806Y-126115725D01*
X189643806Y-126115725D02*
X189747735Y-126092560D01*
X189747735Y-126092560D02*
X189840144Y-126115601D01*
X189840144Y-126115601D02*
X189967238Y-126196365D01*
X189967238Y-126196365D02*
X190383452Y-126889061D01*
X190383452Y-126889061D02*
X190533213Y-126288402D01*
X189712678Y-125445821D02*
X189735718Y-125353412D01*
X189735718Y-125353412D02*
X189804963Y-125272523D01*
X189804963Y-125272523D02*
X189862688Y-125237838D01*
X189862688Y-125237838D02*
X189966617Y-125214674D01*
X189966617Y-125214674D02*
X190162955Y-125214550D01*
X190162955Y-125214550D02*
X190393978Y-125272150D01*
X190393978Y-125272150D02*
X190567276Y-125364435D01*
X190567276Y-125364435D02*
X190648165Y-125433680D01*
X190648165Y-125433680D02*
X190682850Y-125491404D01*
X190682850Y-125491404D02*
X190706014Y-125595334D01*
X190706014Y-125595334D02*
X190682974Y-125687743D01*
X190682974Y-125687743D02*
X190613729Y-125768632D01*
X190613729Y-125768632D02*
X190556005Y-125803316D01*
X190556005Y-125803316D02*
X190452075Y-125826481D01*
X190452075Y-125826481D02*
X190255737Y-125826605D01*
X190255737Y-125826605D02*
X190024714Y-125769004D01*
X190024714Y-125769004D02*
X189851416Y-125676719D01*
X189851416Y-125676719D02*
X189770527Y-125607475D01*
X189770527Y-125607475D02*
X189735843Y-125549750D01*
X189735843Y-125549750D02*
X189712678Y-125445821D01*
X190578548Y-124925554D02*
X190693749Y-124463508D01*
X190832735Y-125087083D02*
X189943080Y-124521730D01*
X189943080Y-124521730D02*
X190994016Y-124440220D01*
X191109466Y-124370850D02*
X191293787Y-123631578D01*
X191258979Y-123377514D02*
X190288683Y-123135592D01*
X190288683Y-123135592D02*
X190380844Y-122765956D01*
X190380844Y-122765956D02*
X190450088Y-122685067D01*
X190450088Y-122685067D02*
X190507813Y-122650382D01*
X190507813Y-122650382D02*
X190611742Y-122627218D01*
X190611742Y-122627218D02*
X190750356Y-122661778D01*
X190750356Y-122661778D02*
X190831245Y-122731023D01*
X190831245Y-122731023D02*
X190865929Y-122788748D01*
X190865929Y-122788748D02*
X190889094Y-122892677D01*
X190889094Y-122892677D02*
X190796933Y-123262313D01*
X191500900Y-122407219D02*
X190530605Y-122165297D01*
X191616101Y-121945173D02*
X190645806Y-121703252D01*
X190645806Y-121703252D02*
X191754342Y-121390719D01*
X191754342Y-121390719D02*
X190784047Y-121148797D01*
D11*
X172908318Y-126006661D02*
X172964853Y-125917695D01*
X172964853Y-125917695D02*
X173005174Y-125755979D01*
X173005174Y-125755979D02*
X172988959Y-125683229D01*
X172988959Y-125683229D02*
X172964680Y-125642822D01*
X172964680Y-125642822D02*
X172908057Y-125594350D01*
X172908057Y-125594350D02*
X172843371Y-125578222D01*
X172843371Y-125578222D02*
X172770620Y-125594437D01*
X172770620Y-125594437D02*
X172730213Y-125618716D01*
X172730213Y-125618716D02*
X172681742Y-125675339D01*
X172681742Y-125675339D02*
X172617142Y-125796647D01*
X172617142Y-125796647D02*
X172568671Y-125853270D01*
X172568671Y-125853270D02*
X172528264Y-125877549D01*
X172528264Y-125877549D02*
X172455513Y-125893764D01*
X172455513Y-125893764D02*
X172390827Y-125877636D01*
X172390827Y-125877636D02*
X172334205Y-125829165D01*
X172334205Y-125829165D02*
X172309926Y-125788757D01*
X172309926Y-125788757D02*
X172293710Y-125716007D01*
X172293710Y-125716007D02*
X172334031Y-125554291D01*
X172334031Y-125554291D02*
X172390566Y-125465325D01*
X173134199Y-125238488D02*
X173085727Y-125295110D01*
X173085727Y-125295110D02*
X173012977Y-125311325D01*
X173012977Y-125311325D02*
X172430800Y-125166172D01*
X173230881Y-124712933D02*
X173247096Y-124785683D01*
X173247096Y-124785683D02*
X173214840Y-124915056D01*
X173214840Y-124915056D02*
X173166368Y-124971678D01*
X173166368Y-124971678D02*
X173093618Y-124987893D01*
X173093618Y-124987893D02*
X172834872Y-124923381D01*
X172834872Y-124923381D02*
X172778250Y-124874909D01*
X172778250Y-124874909D02*
X172762035Y-124802159D01*
X172762035Y-124802159D02*
X172794291Y-124672786D01*
X172794291Y-124672786D02*
X172842762Y-124616164D01*
X172842762Y-124616164D02*
X172915513Y-124599949D01*
X172915513Y-124599949D02*
X172980199Y-124616077D01*
X172980199Y-124616077D02*
X172964245Y-124955637D01*
X173376034Y-124130755D02*
X173392249Y-124203506D01*
X173392249Y-124203506D02*
X173359993Y-124332878D01*
X173359993Y-124332878D02*
X173311521Y-124389501D01*
X173311521Y-124389501D02*
X173238771Y-124405716D01*
X173238771Y-124405716D02*
X172980025Y-124341203D01*
X172980025Y-124341203D02*
X172923403Y-124292732D01*
X172923403Y-124292732D02*
X172907188Y-124219981D01*
X172907188Y-124219981D02*
X172939444Y-124090609D01*
X172939444Y-124090609D02*
X172987916Y-124033986D01*
X172987916Y-124033986D02*
X173060666Y-124017771D01*
X173060666Y-124017771D02*
X173125352Y-124033899D01*
X173125352Y-124033899D02*
X173109398Y-124373459D01*
X173020085Y-123767177D02*
X173513210Y-123718358D01*
X173513210Y-123718358D02*
X173100725Y-123443745D01*
X173650212Y-123031087D02*
X173666427Y-123103837D01*
X173666427Y-123103837D02*
X173634171Y-123233210D01*
X173634171Y-123233210D02*
X173585699Y-123289833D01*
X173585699Y-123289833D02*
X173512949Y-123306048D01*
X173512949Y-123306048D02*
X173254203Y-123241535D01*
X173254203Y-123241535D02*
X173197581Y-123193064D01*
X173197581Y-123193064D02*
X173181366Y-123120313D01*
X173181366Y-123120313D02*
X173213622Y-122990941D01*
X173213622Y-122990941D02*
X173262094Y-122934318D01*
X173262094Y-122934318D02*
X173334844Y-122918103D01*
X173334844Y-122918103D02*
X173399530Y-122934231D01*
X173399530Y-122934231D02*
X173383576Y-123273791D01*
X173890015Y-125100573D02*
X173986784Y-124712455D01*
X174617606Y-125075859D02*
X173938399Y-124906514D01*
X174722439Y-124655398D02*
X174269634Y-124542501D01*
X174043232Y-124486053D02*
X174067511Y-124526460D01*
X174067511Y-124526460D02*
X174107919Y-124502181D01*
X174107919Y-124502181D02*
X174083639Y-124461774D01*
X174083639Y-124461774D02*
X174043232Y-124486053D01*
X174043232Y-124486053D02*
X174107919Y-124502181D01*
X174350275Y-124219070D02*
X175029482Y-124388415D01*
X174382618Y-124227134D02*
X174366403Y-124154383D01*
X174366403Y-124154383D02*
X174398659Y-124025010D01*
X174398659Y-124025010D02*
X174447131Y-123968388D01*
X174447131Y-123968388D02*
X174487538Y-123944109D01*
X174487538Y-123944109D02*
X174560288Y-123927894D01*
X174560288Y-123927894D02*
X174754348Y-123976278D01*
X174754348Y-123976278D02*
X174810970Y-124024750D01*
X174810970Y-124024750D02*
X174835249Y-124065157D01*
X174835249Y-124065157D02*
X174851464Y-124137907D01*
X174851464Y-124137907D02*
X174819208Y-124267280D01*
X174819208Y-124267280D02*
X174770736Y-124323902D01*
X178151382Y-126403528D02*
X177771502Y-126549290D01*
X178054614Y-126791647D02*
X177375407Y-126622301D01*
X177375407Y-126622301D02*
X177439919Y-126363556D01*
X177439919Y-126363556D02*
X177488390Y-126306933D01*
X177488390Y-126306933D02*
X177528798Y-126282654D01*
X177528798Y-126282654D02*
X177601548Y-126266439D01*
X177601548Y-126266439D02*
X177698578Y-126290631D01*
X177698578Y-126290631D02*
X177755200Y-126339103D01*
X177755200Y-126339103D02*
X177779479Y-126379510D01*
X177779479Y-126379510D02*
X177795694Y-126452260D01*
X177795694Y-126452260D02*
X177731182Y-126711006D01*
X178223959Y-126112440D02*
X177771154Y-125999543D01*
X177544752Y-125943094D02*
X177569031Y-125983502D01*
X177569031Y-125983502D02*
X177609438Y-125959222D01*
X177609438Y-125959222D02*
X177585159Y-125918815D01*
X177585159Y-125918815D02*
X177544752Y-125943094D01*
X177544752Y-125943094D02*
X177609438Y-125959222D01*
X177851795Y-125676111D02*
X178304600Y-125789008D01*
X177916481Y-125692239D02*
X177892202Y-125651832D01*
X177892202Y-125651832D02*
X177875987Y-125579082D01*
X177875987Y-125579082D02*
X177900179Y-125482052D01*
X177900179Y-125482052D02*
X177948651Y-125425430D01*
X177948651Y-125425430D02*
X178021401Y-125409215D01*
X178021401Y-125409215D02*
X178377176Y-125497919D01*
X178077589Y-124770502D02*
X178627423Y-124907591D01*
X178627423Y-124907591D02*
X178684045Y-124956062D01*
X178684045Y-124956062D02*
X178708324Y-124996470D01*
X178708324Y-124996470D02*
X178724539Y-125069220D01*
X178724539Y-125069220D02*
X178700347Y-125166250D01*
X178700347Y-125166250D02*
X178651876Y-125222872D01*
X178498050Y-124875335D02*
X178514265Y-124948085D01*
X178514265Y-124948085D02*
X178482009Y-125077458D01*
X178482009Y-125077458D02*
X178433538Y-125134080D01*
X178433538Y-125134080D02*
X178393130Y-125158360D01*
X178393130Y-125158360D02*
X178320380Y-125174575D01*
X178320380Y-125174575D02*
X178126321Y-125126190D01*
X178126321Y-125126190D02*
X178069698Y-125077719D01*
X178069698Y-125077719D02*
X178045419Y-125037312D01*
X178045419Y-125037312D02*
X178029204Y-124964561D01*
X178029204Y-124964561D02*
X178061460Y-124835188D01*
X178061460Y-124835188D02*
X178109932Y-124778566D01*
X178699738Y-124204192D02*
X178602970Y-124592311D01*
X178651354Y-124398251D02*
X177972147Y-124228906D01*
X177972147Y-124228906D02*
X178053049Y-124317785D01*
X178053049Y-124317785D02*
X178101607Y-124398599D01*
X178101607Y-124398599D02*
X178117822Y-124471350D01*
X181062269Y-127129294D02*
X180682389Y-127275056D01*
X180965501Y-127517413D02*
X180286294Y-127348067D01*
X180286294Y-127348067D02*
X180350806Y-127089322D01*
X180350806Y-127089322D02*
X180399277Y-127032699D01*
X180399277Y-127032699D02*
X180439685Y-127008420D01*
X180439685Y-127008420D02*
X180512435Y-126992205D01*
X180512435Y-126992205D02*
X180609465Y-127016397D01*
X180609465Y-127016397D02*
X180666087Y-127064869D01*
X180666087Y-127064869D02*
X180690366Y-127105276D01*
X180690366Y-127105276D02*
X180706581Y-127178026D01*
X180706581Y-127178026D02*
X180642069Y-127436772D01*
X181134846Y-126838206D02*
X180682041Y-126725309D01*
X180455639Y-126668860D02*
X180479918Y-126709268D01*
X180479918Y-126709268D02*
X180520325Y-126684988D01*
X180520325Y-126684988D02*
X180496046Y-126644581D01*
X180496046Y-126644581D02*
X180455639Y-126668860D01*
X180455639Y-126668860D02*
X180520325Y-126684988D01*
X180762682Y-126401877D02*
X181215487Y-126514774D01*
X180827368Y-126418005D02*
X180803089Y-126377598D01*
X180803089Y-126377598D02*
X180786874Y-126304848D01*
X180786874Y-126304848D02*
X180811066Y-126207818D01*
X180811066Y-126207818D02*
X180859538Y-126151196D01*
X180859538Y-126151196D02*
X180932288Y-126134981D01*
X180932288Y-126134981D02*
X181288063Y-126223685D01*
X180988476Y-125496268D02*
X181538310Y-125633357D01*
X181538310Y-125633357D02*
X181594932Y-125681828D01*
X181594932Y-125681828D02*
X181619211Y-125722236D01*
X181619211Y-125722236D02*
X181635426Y-125794986D01*
X181635426Y-125794986D02*
X181611234Y-125892016D01*
X181611234Y-125892016D02*
X181562763Y-125948638D01*
X181408937Y-125601101D02*
X181425152Y-125673851D01*
X181425152Y-125673851D02*
X181392896Y-125803224D01*
X181392896Y-125803224D02*
X181344425Y-125859846D01*
X181344425Y-125859846D02*
X181304017Y-125884126D01*
X181304017Y-125884126D02*
X181231267Y-125900341D01*
X181231267Y-125900341D02*
X181037208Y-125851956D01*
X181037208Y-125851956D02*
X180980585Y-125803485D01*
X180980585Y-125803485D02*
X180956306Y-125763078D01*
X180956306Y-125763078D02*
X180940091Y-125690327D01*
X180940091Y-125690327D02*
X180972347Y-125560954D01*
X180972347Y-125560954D02*
X181020819Y-125504332D01*
X180899336Y-125164859D02*
X180875057Y-125124452D01*
X180875057Y-125124452D02*
X180858842Y-125051702D01*
X180858842Y-125051702D02*
X180899162Y-124889986D01*
X180899162Y-124889986D02*
X180947634Y-124833363D01*
X180947634Y-124833363D02*
X180988041Y-124809084D01*
X180988041Y-124809084D02*
X181060791Y-124792869D01*
X181060791Y-124792869D02*
X181125478Y-124808997D01*
X181125478Y-124808997D02*
X181214443Y-124865533D01*
X181214443Y-124865533D02*
X181505793Y-125350420D01*
X181505793Y-125350420D02*
X181610625Y-124929958D01*
D10*
X101257143Y-114454819D02*
X101257143Y-113454819D01*
X101257143Y-113931009D02*
X101828571Y-113931009D01*
X101828571Y-114454819D02*
X101828571Y-113454819D01*
X102495238Y-113454819D02*
X102685714Y-113454819D01*
X102685714Y-113454819D02*
X102780952Y-113502438D01*
X102780952Y-113502438D02*
X102876190Y-113597676D01*
X102876190Y-113597676D02*
X102923809Y-113788152D01*
X102923809Y-113788152D02*
X102923809Y-114121485D01*
X102923809Y-114121485D02*
X102876190Y-114311961D01*
X102876190Y-114311961D02*
X102780952Y-114407200D01*
X102780952Y-114407200D02*
X102685714Y-114454819D01*
X102685714Y-114454819D02*
X102495238Y-114454819D01*
X102495238Y-114454819D02*
X102400000Y-114407200D01*
X102400000Y-114407200D02*
X102304762Y-114311961D01*
X102304762Y-114311961D02*
X102257143Y-114121485D01*
X102257143Y-114121485D02*
X102257143Y-113788152D01*
X102257143Y-113788152D02*
X102304762Y-113597676D01*
X102304762Y-113597676D02*
X102400000Y-113502438D01*
X102400000Y-113502438D02*
X102495238Y-113454819D01*
X103828571Y-114454819D02*
X103352381Y-114454819D01*
X103352381Y-114454819D02*
X103352381Y-113454819D01*
X104161905Y-113931009D02*
X104495238Y-113931009D01*
X104638095Y-114454819D02*
X104161905Y-114454819D01*
X104161905Y-114454819D02*
X104161905Y-113454819D01*
X104161905Y-113454819D02*
X104638095Y-113454819D01*
X105542857Y-113454819D02*
X105066667Y-113454819D01*
X105066667Y-113454819D02*
X105019048Y-113931009D01*
X105019048Y-113931009D02*
X105066667Y-113883390D01*
X105066667Y-113883390D02*
X105161905Y-113835771D01*
X105161905Y-113835771D02*
X105400000Y-113835771D01*
X105400000Y-113835771D02*
X105495238Y-113883390D01*
X105495238Y-113883390D02*
X105542857Y-113931009D01*
X105542857Y-113931009D02*
X105590476Y-114026247D01*
X105590476Y-114026247D02*
X105590476Y-114264342D01*
X105590476Y-114264342D02*
X105542857Y-114359580D01*
X105542857Y-114359580D02*
X105495238Y-114407200D01*
X105495238Y-114407200D02*
X105400000Y-114454819D01*
X105400000Y-114454819D02*
X105161905Y-114454819D01*
X105161905Y-114454819D02*
X105066667Y-114407200D01*
X105066667Y-114407200D02*
X105019048Y-114359580D01*
X177317143Y-118704819D02*
X177317143Y-117704819D01*
X177317143Y-118181009D02*
X177888571Y-118181009D01*
X177888571Y-118704819D02*
X177888571Y-117704819D01*
X178555238Y-117704819D02*
X178745714Y-117704819D01*
X178745714Y-117704819D02*
X178840952Y-117752438D01*
X178840952Y-117752438D02*
X178936190Y-117847676D01*
X178936190Y-117847676D02*
X178983809Y-118038152D01*
X178983809Y-118038152D02*
X178983809Y-118371485D01*
X178983809Y-118371485D02*
X178936190Y-118561961D01*
X178936190Y-118561961D02*
X178840952Y-118657200D01*
X178840952Y-118657200D02*
X178745714Y-118704819D01*
X178745714Y-118704819D02*
X178555238Y-118704819D01*
X178555238Y-118704819D02*
X178460000Y-118657200D01*
X178460000Y-118657200D02*
X178364762Y-118561961D01*
X178364762Y-118561961D02*
X178317143Y-118371485D01*
X178317143Y-118371485D02*
X178317143Y-118038152D01*
X178317143Y-118038152D02*
X178364762Y-117847676D01*
X178364762Y-117847676D02*
X178460000Y-117752438D01*
X178460000Y-117752438D02*
X178555238Y-117704819D01*
X179888571Y-118704819D02*
X179412381Y-118704819D01*
X179412381Y-118704819D02*
X179412381Y-117704819D01*
X180221905Y-118181009D02*
X180555238Y-118181009D01*
X180698095Y-118704819D02*
X180221905Y-118704819D01*
X180221905Y-118704819D02*
X180221905Y-117704819D01*
X180221905Y-117704819D02*
X180698095Y-117704819D01*
X181031429Y-117704819D02*
X181650476Y-117704819D01*
X181650476Y-117704819D02*
X181317143Y-118085771D01*
X181317143Y-118085771D02*
X181460000Y-118085771D01*
X181460000Y-118085771D02*
X181555238Y-118133390D01*
X181555238Y-118133390D02*
X181602857Y-118181009D01*
X181602857Y-118181009D02*
X181650476Y-118276247D01*
X181650476Y-118276247D02*
X181650476Y-118514342D01*
X181650476Y-118514342D02*
X181602857Y-118609580D01*
X181602857Y-118609580D02*
X181555238Y-118657200D01*
X181555238Y-118657200D02*
X181460000Y-118704819D01*
X181460000Y-118704819D02*
X181174286Y-118704819D01*
X181174286Y-118704819D02*
X181079048Y-118657200D01*
X181079048Y-118657200D02*
X181031429Y-118609580D01*
X84857143Y-56254819D02*
X84857143Y-55254819D01*
X84857143Y-55731009D02*
X85428571Y-55731009D01*
X85428571Y-56254819D02*
X85428571Y-55254819D01*
X86095238Y-55254819D02*
X86285714Y-55254819D01*
X86285714Y-55254819D02*
X86380952Y-55302438D01*
X86380952Y-55302438D02*
X86476190Y-55397676D01*
X86476190Y-55397676D02*
X86523809Y-55588152D01*
X86523809Y-55588152D02*
X86523809Y-55921485D01*
X86523809Y-55921485D02*
X86476190Y-56111961D01*
X86476190Y-56111961D02*
X86380952Y-56207200D01*
X86380952Y-56207200D02*
X86285714Y-56254819D01*
X86285714Y-56254819D02*
X86095238Y-56254819D01*
X86095238Y-56254819D02*
X86000000Y-56207200D01*
X86000000Y-56207200D02*
X85904762Y-56111961D01*
X85904762Y-56111961D02*
X85857143Y-55921485D01*
X85857143Y-55921485D02*
X85857143Y-55588152D01*
X85857143Y-55588152D02*
X85904762Y-55397676D01*
X85904762Y-55397676D02*
X86000000Y-55302438D01*
X86000000Y-55302438D02*
X86095238Y-55254819D01*
X87428571Y-56254819D02*
X86952381Y-56254819D01*
X86952381Y-56254819D02*
X86952381Y-55254819D01*
X87761905Y-55731009D02*
X88095238Y-55731009D01*
X88238095Y-56254819D02*
X87761905Y-56254819D01*
X87761905Y-56254819D02*
X87761905Y-55254819D01*
X87761905Y-55254819D02*
X88238095Y-55254819D01*
X89190476Y-56254819D02*
X88619048Y-56254819D01*
X88904762Y-56254819D02*
X88904762Y-55254819D01*
X88904762Y-55254819D02*
X88809524Y-55397676D01*
X88809524Y-55397676D02*
X88714286Y-55492914D01*
X88714286Y-55492914D02*
X88619048Y-55540533D01*
X176357143Y-57754819D02*
X176357143Y-56754819D01*
X176357143Y-57231009D02*
X176928571Y-57231009D01*
X176928571Y-57754819D02*
X176928571Y-56754819D01*
X177595238Y-56754819D02*
X177785714Y-56754819D01*
X177785714Y-56754819D02*
X177880952Y-56802438D01*
X177880952Y-56802438D02*
X177976190Y-56897676D01*
X177976190Y-56897676D02*
X178023809Y-57088152D01*
X178023809Y-57088152D02*
X178023809Y-57421485D01*
X178023809Y-57421485D02*
X177976190Y-57611961D01*
X177976190Y-57611961D02*
X177880952Y-57707200D01*
X177880952Y-57707200D02*
X177785714Y-57754819D01*
X177785714Y-57754819D02*
X177595238Y-57754819D01*
X177595238Y-57754819D02*
X177500000Y-57707200D01*
X177500000Y-57707200D02*
X177404762Y-57611961D01*
X177404762Y-57611961D02*
X177357143Y-57421485D01*
X177357143Y-57421485D02*
X177357143Y-57088152D01*
X177357143Y-57088152D02*
X177404762Y-56897676D01*
X177404762Y-56897676D02*
X177500000Y-56802438D01*
X177500000Y-56802438D02*
X177595238Y-56754819D01*
X178928571Y-57754819D02*
X178452381Y-57754819D01*
X178452381Y-57754819D02*
X178452381Y-56754819D01*
X179261905Y-57231009D02*
X179595238Y-57231009D01*
X179738095Y-57754819D02*
X179261905Y-57754819D01*
X179261905Y-57754819D02*
X179261905Y-56754819D01*
X179261905Y-56754819D02*
X179738095Y-56754819D01*
X180119048Y-56850057D02*
X180166667Y-56802438D01*
X180166667Y-56802438D02*
X180261905Y-56754819D01*
X180261905Y-56754819D02*
X180500000Y-56754819D01*
X180500000Y-56754819D02*
X180595238Y-56802438D01*
X180595238Y-56802438D02*
X180642857Y-56850057D01*
X180642857Y-56850057D02*
X180690476Y-56945295D01*
X180690476Y-56945295D02*
X180690476Y-57040533D01*
X180690476Y-57040533D02*
X180642857Y-57183390D01*
X180642857Y-57183390D02*
X180071429Y-57754819D01*
X180071429Y-57754819D02*
X180690476Y-57754819D01*
X149357143Y-147754819D02*
X149357143Y-146754819D01*
X149357143Y-147231009D02*
X149928571Y-147231009D01*
X149928571Y-147754819D02*
X149928571Y-146754819D01*
X150595238Y-146754819D02*
X150785714Y-146754819D01*
X150785714Y-146754819D02*
X150880952Y-146802438D01*
X150880952Y-146802438D02*
X150976190Y-146897676D01*
X150976190Y-146897676D02*
X151023809Y-147088152D01*
X151023809Y-147088152D02*
X151023809Y-147421485D01*
X151023809Y-147421485D02*
X150976190Y-147611961D01*
X150976190Y-147611961D02*
X150880952Y-147707200D01*
X150880952Y-147707200D02*
X150785714Y-147754819D01*
X150785714Y-147754819D02*
X150595238Y-147754819D01*
X150595238Y-147754819D02*
X150500000Y-147707200D01*
X150500000Y-147707200D02*
X150404762Y-147611961D01*
X150404762Y-147611961D02*
X150357143Y-147421485D01*
X150357143Y-147421485D02*
X150357143Y-147088152D01*
X150357143Y-147088152D02*
X150404762Y-146897676D01*
X150404762Y-146897676D02*
X150500000Y-146802438D01*
X150500000Y-146802438D02*
X150595238Y-146754819D01*
X151928571Y-147754819D02*
X151452381Y-147754819D01*
X151452381Y-147754819D02*
X151452381Y-146754819D01*
X152261905Y-147231009D02*
X152595238Y-147231009D01*
X152738095Y-147754819D02*
X152261905Y-147754819D01*
X152261905Y-147754819D02*
X152261905Y-146754819D01*
X152261905Y-146754819D02*
X152738095Y-146754819D01*
X153595238Y-147088152D02*
X153595238Y-147754819D01*
X153357143Y-146707200D02*
X153119048Y-147421485D01*
X153119048Y-147421485D02*
X153738095Y-147421485D01*
X131167200Y-154411191D02*
X131214819Y-154268334D01*
X131214819Y-154268334D02*
X131214819Y-154030239D01*
X131214819Y-154030239D02*
X131167200Y-153935001D01*
X131167200Y-153935001D02*
X131119580Y-153887382D01*
X131119580Y-153887382D02*
X131024342Y-153839763D01*
X131024342Y-153839763D02*
X130929104Y-153839763D01*
X130929104Y-153839763D02*
X130833866Y-153887382D01*
X130833866Y-153887382D02*
X130786247Y-153935001D01*
X130786247Y-153935001D02*
X130738628Y-154030239D01*
X130738628Y-154030239D02*
X130691009Y-154220715D01*
X130691009Y-154220715D02*
X130643390Y-154315953D01*
X130643390Y-154315953D02*
X130595771Y-154363572D01*
X130595771Y-154363572D02*
X130500533Y-154411191D01*
X130500533Y-154411191D02*
X130405295Y-154411191D01*
X130405295Y-154411191D02*
X130310057Y-154363572D01*
X130310057Y-154363572D02*
X130262438Y-154315953D01*
X130262438Y-154315953D02*
X130214819Y-154220715D01*
X130214819Y-154220715D02*
X130214819Y-153982620D01*
X130214819Y-153982620D02*
X130262438Y-153839763D01*
X131214819Y-153268334D02*
X131167200Y-153363572D01*
X131167200Y-153363572D02*
X131119580Y-153411191D01*
X131119580Y-153411191D02*
X131024342Y-153458810D01*
X131024342Y-153458810D02*
X130738628Y-153458810D01*
X130738628Y-153458810D02*
X130643390Y-153411191D01*
X130643390Y-153411191D02*
X130595771Y-153363572D01*
X130595771Y-153363572D02*
X130548152Y-153268334D01*
X130548152Y-153268334D02*
X130548152Y-153125477D01*
X130548152Y-153125477D02*
X130595771Y-153030239D01*
X130595771Y-153030239D02*
X130643390Y-152982620D01*
X130643390Y-152982620D02*
X130738628Y-152935001D01*
X130738628Y-152935001D02*
X131024342Y-152935001D01*
X131024342Y-152935001D02*
X131119580Y-152982620D01*
X131119580Y-152982620D02*
X131167200Y-153030239D01*
X131167200Y-153030239D02*
X131214819Y-153125477D01*
X131214819Y-153125477D02*
X131214819Y-153268334D01*
X131214819Y-152363572D02*
X131167200Y-152458810D01*
X131167200Y-152458810D02*
X131071961Y-152506429D01*
X131071961Y-152506429D02*
X130214819Y-152506429D01*
X131214819Y-151554048D02*
X130214819Y-151554048D01*
X131167200Y-151554048D02*
X131214819Y-151649286D01*
X131214819Y-151649286D02*
X131214819Y-151839762D01*
X131214819Y-151839762D02*
X131167200Y-151935000D01*
X131167200Y-151935000D02*
X131119580Y-151982619D01*
X131119580Y-151982619D02*
X131024342Y-152030238D01*
X131024342Y-152030238D02*
X130738628Y-152030238D01*
X130738628Y-152030238D02*
X130643390Y-151982619D01*
X130643390Y-151982619D02*
X130595771Y-151935000D01*
X130595771Y-151935000D02*
X130548152Y-151839762D01*
X130548152Y-151839762D02*
X130548152Y-151649286D01*
X130548152Y-151649286D02*
X130595771Y-151554048D01*
X131167200Y-150696905D02*
X131214819Y-150792143D01*
X131214819Y-150792143D02*
X131214819Y-150982619D01*
X131214819Y-150982619D02*
X131167200Y-151077857D01*
X131167200Y-151077857D02*
X131071961Y-151125476D01*
X131071961Y-151125476D02*
X130691009Y-151125476D01*
X130691009Y-151125476D02*
X130595771Y-151077857D01*
X130595771Y-151077857D02*
X130548152Y-150982619D01*
X130548152Y-150982619D02*
X130548152Y-150792143D01*
X130548152Y-150792143D02*
X130595771Y-150696905D01*
X130595771Y-150696905D02*
X130691009Y-150649286D01*
X130691009Y-150649286D02*
X130786247Y-150649286D01*
X130786247Y-150649286D02*
X130881485Y-151125476D01*
X131214819Y-150220714D02*
X130548152Y-150220714D01*
X130738628Y-150220714D02*
X130643390Y-150173095D01*
X130643390Y-150173095D02*
X130595771Y-150125476D01*
X130595771Y-150125476D02*
X130548152Y-150030238D01*
X130548152Y-150030238D02*
X130548152Y-149935000D01*
X130214819Y-149315952D02*
X130929104Y-149315952D01*
X130929104Y-149315952D02*
X131071961Y-149363571D01*
X131071961Y-149363571D02*
X131167200Y-149458809D01*
X131167200Y-149458809D02*
X131214819Y-149601666D01*
X131214819Y-149601666D02*
X131214819Y-149696904D01*
X130548152Y-148411190D02*
X131214819Y-148411190D01*
X130548152Y-148839761D02*
X131071961Y-148839761D01*
X131071961Y-148839761D02*
X131167200Y-148792142D01*
X131167200Y-148792142D02*
X131214819Y-148696904D01*
X131214819Y-148696904D02*
X131214819Y-148554047D01*
X131214819Y-148554047D02*
X131167200Y-148458809D01*
X131167200Y-148458809D02*
X131119580Y-148411190D01*
X131214819Y-147934999D02*
X130548152Y-147934999D01*
X130643390Y-147934999D02*
X130595771Y-147887380D01*
X130595771Y-147887380D02*
X130548152Y-147792142D01*
X130548152Y-147792142D02*
X130548152Y-147649285D01*
X130548152Y-147649285D02*
X130595771Y-147554047D01*
X130595771Y-147554047D02*
X130691009Y-147506428D01*
X130691009Y-147506428D02*
X131214819Y-147506428D01*
X130691009Y-147506428D02*
X130595771Y-147458809D01*
X130595771Y-147458809D02*
X130548152Y-147363571D01*
X130548152Y-147363571D02*
X130548152Y-147220714D01*
X130548152Y-147220714D02*
X130595771Y-147125475D01*
X130595771Y-147125475D02*
X130691009Y-147077856D01*
X130691009Y-147077856D02*
X131214819Y-147077856D01*
X130548152Y-146601666D02*
X131548152Y-146601666D01*
X130595771Y-146601666D02*
X130548152Y-146506428D01*
X130548152Y-146506428D02*
X130548152Y-146315952D01*
X130548152Y-146315952D02*
X130595771Y-146220714D01*
X130595771Y-146220714D02*
X130643390Y-146173095D01*
X130643390Y-146173095D02*
X130738628Y-146125476D01*
X130738628Y-146125476D02*
X131024342Y-146125476D01*
X131024342Y-146125476D02*
X131119580Y-146173095D01*
X131119580Y-146173095D02*
X131167200Y-146220714D01*
X131167200Y-146220714D02*
X131214819Y-146315952D01*
X131214819Y-146315952D02*
X131214819Y-146506428D01*
X131214819Y-146506428D02*
X131167200Y-146601666D01*
X131167200Y-145315952D02*
X131214819Y-145411190D01*
X131214819Y-145411190D02*
X131214819Y-145601666D01*
X131214819Y-145601666D02*
X131167200Y-145696904D01*
X131167200Y-145696904D02*
X131071961Y-145744523D01*
X131071961Y-145744523D02*
X130691009Y-145744523D01*
X130691009Y-145744523D02*
X130595771Y-145696904D01*
X130595771Y-145696904D02*
X130548152Y-145601666D01*
X130548152Y-145601666D02*
X130548152Y-145411190D01*
X130548152Y-145411190D02*
X130595771Y-145315952D01*
X130595771Y-145315952D02*
X130691009Y-145268333D01*
X130691009Y-145268333D02*
X130786247Y-145268333D01*
X130786247Y-145268333D02*
X130881485Y-145744523D01*
X131214819Y-144839761D02*
X130548152Y-144839761D01*
X130738628Y-144839761D02*
X130643390Y-144792142D01*
X130643390Y-144792142D02*
X130595771Y-144744523D01*
X130595771Y-144744523D02*
X130548152Y-144649285D01*
X130548152Y-144649285D02*
X130548152Y-144554047D01*
X131310057Y-144458809D02*
X131310057Y-143696904D01*
X130310057Y-143506427D02*
X130262438Y-143458808D01*
X130262438Y-143458808D02*
X130214819Y-143363570D01*
X130214819Y-143363570D02*
X130214819Y-143125475D01*
X130214819Y-143125475D02*
X130262438Y-143030237D01*
X130262438Y-143030237D02*
X130310057Y-142982618D01*
X130310057Y-142982618D02*
X130405295Y-142934999D01*
X130405295Y-142934999D02*
X130500533Y-142934999D01*
X130500533Y-142934999D02*
X130643390Y-142982618D01*
X130643390Y-142982618D02*
X131214819Y-143554046D01*
X131214819Y-143554046D02*
X131214819Y-142934999D01*
X131310057Y-142744523D02*
X131310057Y-141982618D01*
X130214819Y-141554046D02*
X130214819Y-141363570D01*
X130214819Y-141363570D02*
X130262438Y-141268332D01*
X130262438Y-141268332D02*
X130357676Y-141173094D01*
X130357676Y-141173094D02*
X130548152Y-141125475D01*
X130548152Y-141125475D02*
X130881485Y-141125475D01*
X130881485Y-141125475D02*
X131071961Y-141173094D01*
X131071961Y-141173094D02*
X131167200Y-141268332D01*
X131167200Y-141268332D02*
X131214819Y-141363570D01*
X131214819Y-141363570D02*
X131214819Y-141554046D01*
X131214819Y-141554046D02*
X131167200Y-141649284D01*
X131167200Y-141649284D02*
X131071961Y-141744522D01*
X131071961Y-141744522D02*
X130881485Y-141792141D01*
X130881485Y-141792141D02*
X130548152Y-141792141D01*
X130548152Y-141792141D02*
X130357676Y-141744522D01*
X130357676Y-141744522D02*
X130262438Y-141649284D01*
X130262438Y-141649284D02*
X130214819Y-141554046D01*
X130548152Y-140696903D02*
X131548152Y-140696903D01*
X130595771Y-140696903D02*
X130548152Y-140601665D01*
X130548152Y-140601665D02*
X130548152Y-140411189D01*
X130548152Y-140411189D02*
X130595771Y-140315951D01*
X130595771Y-140315951D02*
X130643390Y-140268332D01*
X130643390Y-140268332D02*
X130738628Y-140220713D01*
X130738628Y-140220713D02*
X131024342Y-140220713D01*
X131024342Y-140220713D02*
X131119580Y-140268332D01*
X131119580Y-140268332D02*
X131167200Y-140315951D01*
X131167200Y-140315951D02*
X131214819Y-140411189D01*
X131214819Y-140411189D02*
X131214819Y-140601665D01*
X131214819Y-140601665D02*
X131167200Y-140696903D01*
X131167200Y-139411189D02*
X131214819Y-139506427D01*
X131214819Y-139506427D02*
X131214819Y-139696903D01*
X131214819Y-139696903D02*
X131167200Y-139792141D01*
X131167200Y-139792141D02*
X131071961Y-139839760D01*
X131071961Y-139839760D02*
X130691009Y-139839760D01*
X130691009Y-139839760D02*
X130595771Y-139792141D01*
X130595771Y-139792141D02*
X130548152Y-139696903D01*
X130548152Y-139696903D02*
X130548152Y-139506427D01*
X130548152Y-139506427D02*
X130595771Y-139411189D01*
X130595771Y-139411189D02*
X130691009Y-139363570D01*
X130691009Y-139363570D02*
X130786247Y-139363570D01*
X130786247Y-139363570D02*
X130881485Y-139839760D01*
X130548152Y-138934998D02*
X131214819Y-138934998D01*
X130643390Y-138934998D02*
X130595771Y-138887379D01*
X130595771Y-138887379D02*
X130548152Y-138792141D01*
X130548152Y-138792141D02*
X130548152Y-138649284D01*
X130548152Y-138649284D02*
X130595771Y-138554046D01*
X130595771Y-138554046D02*
X130691009Y-138506427D01*
X130691009Y-138506427D02*
X131214819Y-138506427D01*
%TO.C,U?*%
X106793569Y-137597715D02*
X83350814Y-135958438D01*
X106793569Y-137597715D02*
X108049186Y-119641562D01*
X101713172Y-134485744D02*
X97423646Y-134185792D01*
X100360441Y-133758009D02*
X100311378Y-133765806D01*
X100311378Y-133765806D02*
X100261683Y-133771152D01*
X100408660Y-133747949D02*
X100360441Y-133758009D01*
X100261683Y-133771152D02*
X100211359Y-133774049D01*
X100456149Y-133735430D02*
X100408660Y-133747949D01*
X100211359Y-133774049D02*
X100160417Y-133774297D01*
X100502689Y-133720741D02*
X100456149Y-133735430D01*
X100160417Y-133774297D02*
X100109045Y-133772108D01*
X100548275Y-133703881D02*
X100502689Y-133720741D01*
X100109045Y-133772108D02*
X99111481Y-133702351D01*
X100592811Y-133684841D02*
X100548275Y-133703881D01*
X100636290Y-133663722D02*
X100592811Y-133684841D01*
X100678505Y-133640610D02*
X100636290Y-133663722D01*
X100719655Y-133615520D02*
X100678505Y-133640610D01*
X97423646Y-134185792D02*
X97660825Y-130793973D01*
X100759336Y-133588522D02*
X100719655Y-133615520D01*
X100797744Y-133559631D02*
X100759336Y-133588522D01*
X100834768Y-133529039D02*
X100797744Y-133559631D01*
X100870208Y-133496732D02*
X100834768Y-133529039D01*
X100904065Y-133462711D02*
X100870208Y-133496732D01*
X100936328Y-133427075D02*
X100904065Y-133462711D01*
X100966895Y-133389917D02*
X100936328Y-133427075D01*
X99111481Y-133702351D02*
X99060304Y-133697369D01*
X99060304Y-133697369D02*
X99009892Y-133690034D01*
X100995664Y-133351229D02*
X100966895Y-133389917D01*
X99009892Y-133690034D02*
X98960461Y-133680162D01*
X98960461Y-133680162D02*
X98911995Y-133667952D01*
X101022628Y-133311112D02*
X100995664Y-133351229D01*
X98911995Y-133667952D02*
X98864493Y-133653402D01*
X101047681Y-133269660D02*
X101022628Y-133311112D01*
X98864493Y-133653402D02*
X98818144Y-133636728D01*
X98818144Y-133636728D02*
X98772859Y-133617723D01*
X101070822Y-133226869D02*
X101047681Y-133269660D01*
X98772859Y-133617723D02*
X98728819Y-133596700D01*
X101091845Y-133182828D02*
X101070822Y-133226869D01*
X98728819Y-133596700D02*
X98686022Y-133573659D01*
X98686022Y-133573659D02*
X98644568Y-133548606D01*
X101110744Y-133137636D02*
X101091845Y-133182828D01*
X98644568Y-133548606D02*
X98604451Y-133521642D01*
X101127524Y-133091194D02*
X101110744Y-133137636D01*
X98604451Y-133521642D02*
X98565864Y-133492880D01*
X101142066Y-133043793D02*
X101127524Y-133091194D01*
X98565864Y-133492880D02*
X98528606Y-133462307D01*
X98528606Y-133462307D02*
X98493070Y-133430049D01*
X101154277Y-132995327D02*
X101142066Y-133043793D01*
X98493070Y-133430049D02*
X98459054Y-133396094D01*
X101164057Y-132945788D02*
X101154277Y-132995327D01*
X98459054Y-133396094D02*
X98426649Y-133360647D01*
X101171483Y-132895484D02*
X101164057Y-132945788D01*
X98426649Y-133360647D02*
X98396050Y-133323722D01*
X101176366Y-132844300D02*
X101171483Y-132895484D01*
X98396050Y-133323722D02*
X98367259Y-133285320D01*
X83350814Y-135958438D02*
X84606431Y-118002285D01*
X98367259Y-133285320D02*
X98340268Y-133245541D01*
X98340268Y-133245541D02*
X98315170Y-133204490D01*
X98315170Y-133204490D02*
X98292065Y-133162175D01*
X98292065Y-133162175D02*
X98270947Y-133118696D01*
X101190317Y-132644787D02*
X101176366Y-132844300D01*
X98270947Y-133118696D02*
X98251908Y-133074160D01*
X101192612Y-132593321D02*
X101190317Y-132644787D01*
X98251908Y-133074160D02*
X98234946Y-133028565D01*
X101192259Y-132542473D02*
X101192612Y-132593321D01*
X98234946Y-133028565D02*
X98220257Y-132982027D01*
X101189469Y-132492055D02*
X101192259Y-132542473D01*
X98220257Y-132982027D02*
X98207833Y-132934645D01*
X101184123Y-132442362D02*
X101189469Y-132492055D01*
X98207833Y-132934645D02*
X98197678Y-132886319D01*
X101176319Y-132393398D02*
X101184123Y-132442362D01*
X98197678Y-132886319D02*
X98189875Y-132837356D01*
X101166166Y-132345072D02*
X101176319Y-132393398D01*
X98189875Y-132837356D02*
X98184529Y-132787662D01*
X101153740Y-132297690D02*
X101166166Y-132345072D01*
X98184529Y-132787662D02*
X98181739Y-132737244D01*
X101139051Y-132251152D02*
X101153740Y-132297690D01*
X98181739Y-132737244D02*
X98181385Y-132686396D01*
X101122089Y-132205558D02*
X101139051Y-132251152D01*
X98181385Y-132686396D02*
X98183674Y-132635030D01*
X101103050Y-132161021D02*
X101122089Y-132205558D01*
X98183674Y-132635030D02*
X98197624Y-132435518D01*
X101081932Y-132117542D02*
X101103050Y-132161021D01*
X101058827Y-132075227D02*
X101081932Y-132117542D01*
X101033729Y-132034176D02*
X101058827Y-132075227D01*
X101006739Y-131994397D02*
X101033729Y-132034176D01*
X100977947Y-131955995D02*
X101006739Y-131994397D01*
X98197624Y-132435518D02*
X98202514Y-132384233D01*
X100947348Y-131919070D02*
X100977947Y-131955995D01*
X98202514Y-132384233D02*
X98209942Y-132333929D01*
X100914942Y-131883623D02*
X100947348Y-131919070D01*
X98209942Y-132333929D02*
X98219721Y-132284391D01*
X100880928Y-131849668D02*
X100914942Y-131883623D01*
X98219721Y-132284391D02*
X98231931Y-132235924D01*
X100845391Y-131817410D02*
X100880928Y-131849668D01*
X100808133Y-131786837D02*
X100845391Y-131817410D01*
X98231931Y-132235924D02*
X98246473Y-132188523D01*
X100769546Y-131758075D02*
X100808133Y-131786837D01*
X98246473Y-132188523D02*
X98263254Y-132142081D01*
X100729429Y-131731112D02*
X100769546Y-131758075D01*
X98263254Y-132142081D02*
X98282152Y-132096887D01*
X100687975Y-131706058D02*
X100729429Y-131731112D01*
X100645178Y-131683018D02*
X100687975Y-131706058D01*
X98282152Y-132096887D02*
X98303176Y-132052848D01*
X100601138Y-131661994D02*
X100645178Y-131683018D01*
X98303176Y-132052848D02*
X98326316Y-132010058D01*
X100555853Y-131642989D02*
X100601138Y-131661994D01*
X100509504Y-131626315D02*
X100555853Y-131642989D01*
X98326316Y-132010058D02*
X98351369Y-131968605D01*
X100462002Y-131611765D02*
X100509504Y-131626315D01*
X98351369Y-131968605D02*
X98378334Y-131928488D01*
X100413536Y-131599555D02*
X100462002Y-131611765D01*
X100364105Y-131589683D02*
X100413536Y-131599555D01*
X98378334Y-131928488D02*
X98407102Y-131889800D01*
X100313693Y-131582349D02*
X100364105Y-131589683D01*
X100262509Y-131577468D02*
X100313693Y-131582349D01*
X98407102Y-131889800D02*
X98437671Y-131852642D01*
X98437671Y-131852642D02*
X98469934Y-131817006D01*
X98469934Y-131817006D02*
X98503789Y-131782985D01*
X98503789Y-131782985D02*
X98539228Y-131750678D01*
X98539228Y-131750678D02*
X98576253Y-131720087D01*
X98576253Y-131720087D02*
X98614662Y-131691195D01*
X98614662Y-131691195D02*
X98654342Y-131664197D01*
X101950351Y-131093926D02*
X101713172Y-134485744D01*
X98654342Y-131664197D02*
X98695493Y-131639107D01*
X98695493Y-131639107D02*
X98737707Y-131615995D01*
X98737707Y-131615995D02*
X98781186Y-131594877D01*
X98781186Y-131594877D02*
X98825723Y-131575837D01*
X99264945Y-131507710D02*
X100262509Y-131577468D01*
X98825723Y-131575837D02*
X98871311Y-131558976D01*
X99213580Y-131505421D02*
X99264945Y-131507710D01*
X98871311Y-131558976D02*
X98917848Y-131544287D01*
X99162639Y-131505668D02*
X99213580Y-131505421D01*
X98917848Y-131544287D02*
X98965338Y-131531769D01*
X99112314Y-131508564D02*
X99162639Y-131505668D01*
X98965338Y-131531769D02*
X99013557Y-131521708D01*
X99062620Y-131513912D02*
X99112314Y-131508564D01*
X99013557Y-131521708D02*
X99062620Y-131513912D01*
X97660825Y-130793973D02*
X101950351Y-131093926D01*
X102347956Y-125407912D02*
X98058430Y-125107958D01*
X100995225Y-124680177D02*
X100946162Y-124687973D01*
X100946162Y-124687973D02*
X100896467Y-124693319D01*
X101043444Y-124670116D02*
X100995225Y-124680177D01*
X100896467Y-124693319D02*
X100846143Y-124696216D01*
X101090933Y-124657598D02*
X101043444Y-124670116D01*
X100846143Y-124696216D02*
X100795201Y-124696464D01*
X101137471Y-124642908D02*
X101090933Y-124657598D01*
X100795201Y-124696464D02*
X100743829Y-124694275D01*
X101183059Y-124626048D02*
X101137471Y-124642908D01*
X100743829Y-124694275D02*
X99746265Y-124624518D01*
X101227595Y-124607008D02*
X101183059Y-124626048D01*
X101271074Y-124585889D02*
X101227595Y-124607008D01*
X101313288Y-124562777D02*
X101271074Y-124585889D01*
X101354440Y-124537687D02*
X101313288Y-124562777D01*
X98058430Y-125107958D02*
X98295602Y-121716240D01*
X101394119Y-124510689D02*
X101354440Y-124537687D01*
X101432528Y-124481798D02*
X101394119Y-124510689D01*
X101469552Y-124451206D02*
X101432528Y-124481798D01*
X101504992Y-124418899D02*
X101469552Y-124451206D01*
X101538848Y-124384879D02*
X101504992Y-124418899D01*
X101571113Y-124349242D02*
X101538848Y-124384879D01*
X101601679Y-124312084D02*
X101571113Y-124349242D01*
X99746265Y-124624518D02*
X99695088Y-124619536D01*
X99695088Y-124619536D02*
X99644676Y-124612201D01*
X101630448Y-124273396D02*
X101601679Y-124312084D01*
X99644676Y-124612201D02*
X99595245Y-124602329D01*
X99595245Y-124602329D02*
X99546779Y-124590119D01*
X101657412Y-124233279D02*
X101630448Y-124273396D01*
X99546779Y-124590119D02*
X99499277Y-124575569D01*
X101682465Y-124191827D02*
X101657412Y-124233279D01*
X99499277Y-124575569D02*
X99452928Y-124558895D01*
X99452928Y-124558895D02*
X99407643Y-124539891D01*
X101705606Y-124149036D02*
X101682465Y-124191827D01*
X99407643Y-124539891D02*
X99363602Y-124518867D01*
X101726629Y-124104995D02*
X101705606Y-124149036D01*
X99363602Y-124518867D02*
X99320806Y-124495826D01*
X99320806Y-124495826D02*
X99279352Y-124470773D01*
X101745527Y-124059803D02*
X101726629Y-124104995D01*
X99279352Y-124470773D02*
X99239235Y-124443809D01*
X101762308Y-124013361D02*
X101745527Y-124059803D01*
X99239235Y-124443809D02*
X99200647Y-124415047D01*
X101776850Y-123965960D02*
X101762308Y-124013361D01*
X99200647Y-124415047D02*
X99163390Y-124384474D01*
X99163390Y-124384474D02*
X99127853Y-124352216D01*
X101789061Y-123917494D02*
X101776850Y-123965960D01*
X99127853Y-124352216D02*
X99093839Y-124318261D01*
X101798840Y-123867955D02*
X101789061Y-123917494D01*
X99093839Y-124318261D02*
X99061433Y-124282814D01*
X101806268Y-123817651D02*
X101798840Y-123867955D01*
X99061433Y-124282814D02*
X99030834Y-124245889D01*
X101811150Y-123766467D02*
X101806268Y-123817651D01*
X99030834Y-124245889D02*
X99002042Y-124207487D01*
X99002042Y-124207487D02*
X98975052Y-124167708D01*
X98975052Y-124167708D02*
X98949954Y-124126657D01*
X98949954Y-124126657D02*
X98926850Y-124084342D01*
X98926850Y-124084342D02*
X98905731Y-124040864D01*
X101825101Y-123566954D02*
X101811150Y-123766467D01*
X98905731Y-124040864D02*
X98886692Y-123996327D01*
X101827396Y-123515489D02*
X101825101Y-123566954D01*
X98886692Y-123996327D02*
X98869732Y-123950733D01*
X101827042Y-123464640D02*
X101827396Y-123515489D01*
X98869732Y-123950733D02*
X98855042Y-123904194D01*
X101824253Y-123414223D02*
X101827042Y-123464640D01*
X98855042Y-123904194D02*
X98842616Y-123856813D01*
X101818906Y-123364528D02*
X101824253Y-123414223D01*
X98842616Y-123856813D02*
X98832462Y-123808486D01*
X101811103Y-123315565D02*
X101818906Y-123364528D01*
X98832462Y-123808486D02*
X98824659Y-123759523D01*
X101800950Y-123267240D02*
X101811103Y-123315565D01*
X98824659Y-123759523D02*
X98819313Y-123709829D01*
X101788524Y-123219857D02*
X101800950Y-123267240D01*
X98819313Y-123709829D02*
X98816522Y-123659411D01*
X101773835Y-123173319D02*
X101788524Y-123219857D01*
X98816522Y-123659411D02*
X98816169Y-123608563D01*
X101756874Y-123127725D02*
X101773835Y-123173319D01*
X98816169Y-123608563D02*
X98818458Y-123557198D01*
X101737834Y-123083188D02*
X101756874Y-123127725D01*
X98818458Y-123557198D02*
X98832408Y-123357685D01*
X101716716Y-123039709D02*
X101737834Y-123083188D01*
X101693611Y-122997394D02*
X101716716Y-123039709D01*
X101668514Y-122956343D02*
X101693611Y-122997394D01*
X101641522Y-122916564D02*
X101668514Y-122956343D01*
X101612731Y-122878162D02*
X101641522Y-122916564D01*
X98832408Y-123357685D02*
X98837298Y-123306401D01*
X101582133Y-122841237D02*
X101612731Y-122878162D01*
X98837298Y-123306401D02*
X98844725Y-123256096D01*
X101549726Y-122805790D02*
X101582133Y-122841237D01*
X98844725Y-123256096D02*
X98854504Y-123206558D01*
X101515711Y-122771835D02*
X101549726Y-122805790D01*
X98854504Y-123206558D02*
X98866715Y-123158092D01*
X101480176Y-122739577D02*
X101515711Y-122771835D01*
X101442917Y-122709004D02*
X101480176Y-122739577D01*
X98866715Y-123158092D02*
X98881258Y-123110690D01*
X101404330Y-122680242D02*
X101442917Y-122709004D01*
X98881258Y-123110690D02*
X98898037Y-123064248D01*
X101364213Y-122653279D02*
X101404330Y-122680242D01*
X98898037Y-123064248D02*
X98916936Y-123019056D01*
X101322759Y-122628226D02*
X101364213Y-122653279D01*
X101279963Y-122605183D02*
X101322759Y-122628226D01*
X98916936Y-123019056D02*
X98937960Y-122975015D01*
X101235922Y-122584161D02*
X101279963Y-122605183D01*
X98937960Y-122975015D02*
X98961101Y-122932226D01*
X101190637Y-122565156D02*
X101235922Y-122584161D01*
X101144287Y-122548482D02*
X101190637Y-122565156D01*
X98961101Y-122932226D02*
X98986153Y-122890772D01*
X101096787Y-122533933D02*
X101144287Y-122548482D01*
X98986153Y-122890772D02*
X99013118Y-122850656D01*
X101048321Y-122521723D02*
X101096787Y-122533933D01*
X100998889Y-122511850D02*
X101048321Y-122521723D01*
X99013118Y-122850656D02*
X99041886Y-122811967D01*
X100948478Y-122504517D02*
X100998889Y-122511850D01*
X100897300Y-122499534D02*
X100948478Y-122504517D01*
X99041886Y-122811967D02*
X99072453Y-122774809D01*
X99072453Y-122774809D02*
X99104717Y-122739173D01*
X99104717Y-122739173D02*
X99138573Y-122705152D01*
X99138573Y-122705152D02*
X99174013Y-122672845D01*
X99174013Y-122672845D02*
X99211037Y-122642251D01*
X99211037Y-122642251D02*
X99249445Y-122613362D01*
X99249445Y-122613362D02*
X99289126Y-122586365D01*
X102585128Y-122016193D02*
X102347956Y-125407912D01*
X99289126Y-122586365D02*
X99330276Y-122561274D01*
X99330276Y-122561274D02*
X99372492Y-122538162D01*
X99372492Y-122538162D02*
X99415970Y-122517044D01*
X99415970Y-122517044D02*
X99460507Y-122498005D01*
X99899736Y-122429778D02*
X100897300Y-122499534D01*
X99460507Y-122498005D02*
X99506094Y-122481143D01*
X99848364Y-122427589D02*
X99899736Y-122429778D01*
X99506094Y-122481143D02*
X99552632Y-122466454D01*
X99797423Y-122427835D02*
X99848364Y-122427589D01*
X99552632Y-122466454D02*
X99600121Y-122453936D01*
X99747098Y-122430732D02*
X99797423Y-122427835D01*
X99600121Y-122453936D02*
X99648341Y-122443875D01*
X99697404Y-122436079D02*
X99747098Y-122430732D01*
X99648341Y-122443875D02*
X99697404Y-122436079D01*
X98295602Y-121716240D02*
X102585128Y-122016193D01*
X108049186Y-119641562D02*
X84606431Y-118002285D01*
%TD*%
M02*
