M48
; DRILL file KiCad 10.0.2-rc1 date 2026-06-21T00:23:18
; FORMAT={-:-/ absolute / metric / decimal}
; #@! TF.CreationDate,2026-06-21T00:23:18+09:00
; #@! TF.GenerationSoftware,Kicad,Pcbnew,10.0.2-rc1
; #@! TF.FileFunction,NonPlated,1,2,NPTH
FMAT,2
METRIC
; #@! TA.AperFunction,NonPlated,NPTH,ComponentDrill
T1C0.800
; #@! TA.AperFunction,NonPlated,NPTH,ComponentDrill
T2C1.702
; #@! TA.AperFunction,NonPlated,NPTH,ComponentDrill
T3C3.000
; #@! TA.AperFunction,NonPlated,NPTH,ComponentDrill
T4C3.988
%
G90
G05
T1
X128.475Y-147.392
X128.507Y-147.376
X130.168Y-140.6
X130.2Y-140.584
T2
X88.436Y-111.521
X89.145Y-101.385
X89.762Y-92.567
X90.47Y-82.432
X91.087Y-73.613
X91.796Y-63.478
X105.658Y-93.921
X108.794Y-75.181
X111.93Y-56.442
X115.679Y-95.597
X118.815Y-76.858
X121.951Y-58.119
X128.102Y-87.133
X132.699Y-68.698
X132.974Y-121.328
X137.295Y-50.262
X137.96Y-89.591
X142.557Y-71.155
X142.833Y-123.786
X144.119Y-101.433
X147.153Y-52.72
X148.715Y-82.997
X153.312Y-64.561
X153.977Y-103.891
X154.019Y-128.117
X158.573Y-85.455
X162.07Y-107.97
X162.99Y-132.887
X163.17Y-67.019
X170.367Y-95.692
X171.928Y-110.428
X172.825Y-85.834
X173.443Y-147.25
X174.963Y-77.257
X177.421Y-67.398
X180.501Y-139.941
T3
X91.059Y-110.431
X91.59Y-102.829
X92.384Y-91.477
X92.915Y-83.876
X93.681Y-109.341
X93.709Y-72.523
X94.035Y-104.274
X94.241Y-64.922
X95.006Y-90.387
X95.361Y-85.32
X96.332Y-71.434
X96.686Y-66.366
X107.33Y-91.625
X109.002Y-89.329
X110.466Y-72.886
X112.138Y-70.59
X112.764Y-59.156
X113.597Y-61.871
X114.012Y-90.168
X114.846Y-92.883
X117.148Y-71.428
X117.982Y-74.143
X118.607Y-62.71
X120.279Y-60.414
X129.949Y-84.976
X131.796Y-82.819
X134.545Y-66.54
X134.821Y-119.17
X136.392Y-64.383
X136.668Y-117.013
X136.725Y-84.048
X137.343Y-86.819
X137.913Y-53.034
X138.531Y-55.806
X141.321Y-65.612
X141.597Y-118.242
X141.939Y-68.384
X142.215Y-121.014
X143.46Y-57.034
X145.307Y-54.877
X145.965Y-99.275
X147.812Y-97.118
X150.562Y-80.84
X152.409Y-78.682
X152.741Y-98.347
X153.359Y-101.119
X155.158Y-62.404
X156.333Y-126.471
X157.005Y-60.247
X157.338Y-79.911
X157.955Y-82.683
X158.646Y-124.824
X161.934Y-61.476
X162.552Y-64.248
X163.061Y-130.048
X163.132Y-127.209
X163.917Y-105.812
X165.764Y-103.655
X166.052Y-91.999
X167.281Y-87.07
X168.21Y-93.845
X170.053Y-86.452
X170.649Y-73.563
X170.693Y-104.884
X171.311Y-107.656
X171.553Y-141.894
X171.878Y-68.634
X172.498Y-144.572
X172.806Y-75.41
X174.65Y-68.016
X175.082Y-138.24
X177.792Y-139.09
T4
X88.791Y-106.453
X90.116Y-87.499
X91.441Y-68.546
X110.669Y-94.759
X113.805Y-76.02
X116.941Y-57.28
X133.031Y-88.362
X137.628Y-69.927
X137.904Y-122.557
X142.224Y-51.491
X149.048Y-102.662
X153.644Y-84.226
X158.241Y-65.79
X158.504Y-130.502
X166.999Y-109.199
X171.596Y-90.763
X176.192Y-72.327
X176.972Y-143.596
M30
