%TF.GenerationSoftware,KiCad,Pcbnew,10.0.2-rc1*%
%TF.CreationDate,2026-06-21T00:23:21+09:00*%
%TF.ProjectId,board,626f6172-642e-46b6-9963-61645f706362,v1.0.0*%
%TF.SameCoordinates,Original*%
%TF.FileFunction,Profile,NP*%
%FSLAX46Y46*%
G04 Gerber Fmt 4.6, Leading zero omitted, Abs format (unit mm)*
G04 Created by KiCad (PCBNEW 10.0.2-rc1) date 2026-06-21 00:23:21*
%MOMM*%
%LPD*%
G01*
G04 APERTURE LIST*
%TA.AperFunction,Profile*%
%ADD10C,0.150000*%
%TD*%
%TA.AperFunction,Profile*%
%ADD11C,0.050000*%
%TD*%
%TA.AperFunction,Profile*%
%ADD12C,0.100000*%
%TD*%
G04 APERTURE END LIST*
D10*
X83500000Y-51800000D02*
G75*
G02*
X85500000Y-49800000I2000000J0D01*
G01*
X83500000Y-136237429D02*
X83500000Y-51800000D01*
X85016156Y-138178020D02*
G75*
G02*
X83499972Y-136237429I483844J1940620D01*
G01*
X85016160Y-138178020D02*
X101857922Y-142265338D01*
X85500000Y-49800000D02*
X181500000Y-49800000D01*
X131391097Y-149740591D02*
X114956914Y-145531284D01*
X131874941Y-149800000D02*
G75*
G02*
X131391095Y-149740601I-41J2000000D01*
G01*
X178569528Y-149800000D02*
X131874941Y-149800000D01*
X180099350Y-149088271D02*
G75*
G02*
X178569528Y-149800021I-1529850J1288271D01*
G01*
X181500000Y-49800000D02*
G75*
G02*
X183500000Y-51800000I0J-2000000D01*
G01*
X183029822Y-145608336D02*
X180099350Y-149088271D01*
X183500000Y-51800000D02*
X183500000Y-144320064D01*
X183500000Y-144320065D02*
G75*
G02*
X183029840Y-145608351I-2000000J-35D01*
G01*
%TO.C,HOLE5*%
D11*
X89000000Y-127800000D02*
G75*
G02*
X85000000Y-127800000I-2000000J0D01*
G01*
X85000000Y-127800000D02*
G75*
G02*
X89000000Y-127800000I2000000J0D01*
G01*
%TO.C,HOLE3*%
X182000000Y-124800000D02*
G75*
G02*
X178000000Y-124800000I-2000000J0D01*
G01*
X178000000Y-124800000D02*
G75*
G02*
X182000000Y-124800000I2000000J0D01*
G01*
%TO.C,HOLE1*%
X89000000Y-53300000D02*
G75*
G02*
X85000000Y-53300000I-2000000J0D01*
G01*
X85000000Y-53300000D02*
G75*
G02*
X89000000Y-53300000I2000000J0D01*
G01*
%TO.C,HOLE2*%
X180500000Y-54800000D02*
G75*
G02*
X176500000Y-54800000I-2000000J0D01*
G01*
X176500000Y-54800000D02*
G75*
G02*
X180500000Y-54800000I2000000J0D01*
G01*
%TO.C,HOLE4*%
X153500000Y-144800000D02*
G75*
G02*
X149500000Y-144800000I-2000000J0D01*
G01*
X149500000Y-144800000D02*
G75*
G02*
X153500000Y-144800000I2000000J0D01*
G01*
%TO.C,U?*%
D12*
X106817320Y-122374276D02*
X101857922Y-142265338D01*
X114956914Y-145531284D02*
X119916313Y-125640221D01*
X119552126Y-125034112D02*
X107423429Y-122010089D01*
X106817320Y-122374276D02*
G75*
G02*
X107423429Y-122010089I485148J-120961D01*
G01*
X119552126Y-125034112D02*
G75*
G02*
X119916313Y-125640221I-120962J-485149D01*
G01*
%TD*%
M02*
