%TF.GenerationSoftware,KiCad,Pcbnew,10.0.2-rc1*%
%TF.CreationDate,2026-06-21T00:23:21+09:00*%
%TF.ProjectId,board,626f6172-642e-46b6-9963-61645f706362,v1.0.0*%
%TF.SameCoordinates,Original*%
%TF.FileFunction,OtherDrawing,Comment*%
%FSLAX46Y46*%
G04 Gerber Fmt 4.6, Leading zero omitted, Abs format (unit mm)*
G04 Created by KiCad (PCBNEW 10.0.2-rc1) date 2026-06-21 00:23:21*
%MOMM*%
%LPD*%
G01*
G04 APERTURE LIST*
%ADD10C,0.150000*%
G04 APERTURE END LIST*
D10*
X128117817Y-134467480D02*
X128579863Y-134582680D01*
X127956288Y-134721667D02*
X128521642Y-133832012D01*
X128521642Y-133832012D02*
X128603152Y-134882948D01*
X129503706Y-134420406D02*
X129342425Y-135067269D01*
X129087865Y-134316725D02*
X128961144Y-134824975D01*
X128961144Y-134824975D02*
X128984308Y-134928904D01*
X128984308Y-134928904D02*
X129065197Y-134998149D01*
X129065197Y-134998149D02*
X129203811Y-135032709D01*
X129203811Y-135032709D02*
X129307740Y-135009545D01*
X129307740Y-135009545D02*
X129365465Y-134974860D01*
X130220311Y-135286151D02*
X130462233Y-134315855D01*
X130231832Y-135239947D02*
X130127902Y-135263111D01*
X130127902Y-135263111D02*
X129943084Y-135217031D01*
X129943084Y-135217031D02*
X129862195Y-135147786D01*
X129862195Y-135147786D02*
X129827511Y-135090061D01*
X129827511Y-135090061D02*
X129804346Y-134986132D01*
X129804346Y-134986132D02*
X129873467Y-134708905D01*
X129873467Y-134708905D02*
X129942711Y-134628016D01*
X129942711Y-134628016D02*
X130000436Y-134593331D01*
X130000436Y-134593331D02*
X130104365Y-134570167D01*
X130104365Y-134570167D02*
X130289184Y-134616247D01*
X130289184Y-134616247D02*
X130370073Y-134685492D01*
X130682357Y-135401352D02*
X130843638Y-134754488D01*
X130924279Y-134431056D02*
X130866554Y-134465741D01*
X130866554Y-134465741D02*
X130901239Y-134523466D01*
X130901239Y-134523466D02*
X130958963Y-134488781D01*
X130958963Y-134488781D02*
X130924279Y-134431056D01*
X130924279Y-134431056D02*
X130901239Y-134523466D01*
X131283016Y-135551113D02*
X131202127Y-135481868D01*
X131202127Y-135481868D02*
X131167442Y-135424144D01*
X131167442Y-135424144D02*
X131144278Y-135320215D01*
X131144278Y-135320215D02*
X131213399Y-135042987D01*
X131213399Y-135042987D02*
X131282643Y-134962098D01*
X131282643Y-134962098D02*
X131340368Y-134927414D01*
X131340368Y-134927414D02*
X131444297Y-134904249D01*
X131444297Y-134904249D02*
X131582911Y-134938810D01*
X131582911Y-134938810D02*
X131663800Y-135008054D01*
X131663800Y-135008054D02*
X131698484Y-135065779D01*
X131698484Y-135065779D02*
X131721649Y-135169708D01*
X131721649Y-135169708D02*
X131652528Y-135446936D01*
X131652528Y-135446936D02*
X131583283Y-135527825D01*
X131583283Y-135527825D02*
X131525559Y-135562509D01*
X131525559Y-135562509D02*
X131421630Y-135585673D01*
X131421630Y-135585673D02*
X131283016Y-135551113D01*
X132541438Y-134834259D02*
X132368637Y-135527328D01*
X132368637Y-135527328D02*
X132287872Y-135654421D01*
X132287872Y-135654421D02*
X132172423Y-135723790D01*
X132172423Y-135723790D02*
X132022289Y-135735435D01*
X132022289Y-135735435D02*
X131929880Y-135712394D01*
X133177403Y-136023437D02*
X133304124Y-135515187D01*
X133304124Y-135515187D02*
X133280960Y-135411258D01*
X133280960Y-135411258D02*
X133200071Y-135342013D01*
X133200071Y-135342013D02*
X133015252Y-135295933D01*
X133015252Y-135295933D02*
X132911323Y-135319097D01*
X133188923Y-135977232D02*
X133084994Y-136000397D01*
X133084994Y-136000397D02*
X132853971Y-135942796D01*
X132853971Y-135942796D02*
X132773082Y-135873552D01*
X132773082Y-135873552D02*
X132749918Y-135769622D01*
X132749918Y-135769622D02*
X132772958Y-135677213D01*
X132772958Y-135677213D02*
X132842203Y-135596324D01*
X132842203Y-135596324D02*
X132946132Y-135573160D01*
X132946132Y-135573160D02*
X133177155Y-135630760D01*
X133177155Y-135630760D02*
X133281084Y-135607596D01*
X134066810Y-136196114D02*
X133962881Y-136219279D01*
X133962881Y-136219279D02*
X133778062Y-136173198D01*
X133778062Y-136173198D02*
X133697173Y-136103953D01*
X133697173Y-136103953D02*
X133662489Y-136046229D01*
X133662489Y-136046229D02*
X133639325Y-135942300D01*
X133639325Y-135942300D02*
X133708445Y-135665072D01*
X133708445Y-135665072D02*
X133777690Y-135584183D01*
X133777690Y-135584183D02*
X133835415Y-135549499D01*
X133835415Y-135549499D02*
X133939344Y-135526334D01*
X133939344Y-135526334D02*
X134124162Y-135572415D01*
X134124162Y-135572415D02*
X134205051Y-135641659D01*
X134471131Y-136346000D02*
X134713053Y-135375704D01*
X134655701Y-135999403D02*
X134840767Y-136438160D01*
X135002049Y-135791296D02*
X134540252Y-136068772D01*
X128086308Y-134483699D02*
X128548354Y-134598899D01*
X127924779Y-134737886D02*
X128490133Y-133848231D01*
X128490133Y-133848231D02*
X128571643Y-134899167D01*
X129472197Y-134436625D02*
X129310916Y-135083488D01*
X129056356Y-134332944D02*
X128929635Y-134841194D01*
X128929635Y-134841194D02*
X128952799Y-134945123D01*
X128952799Y-134945123D02*
X129033688Y-135014368D01*
X129033688Y-135014368D02*
X129172302Y-135048928D01*
X129172302Y-135048928D02*
X129276231Y-135025764D01*
X129276231Y-135025764D02*
X129333956Y-134991079D01*
X130188802Y-135302370D02*
X130430724Y-134332074D01*
X130200323Y-135256166D02*
X130096393Y-135279330D01*
X130096393Y-135279330D02*
X129911575Y-135233250D01*
X129911575Y-135233250D02*
X129830686Y-135164005D01*
X129830686Y-135164005D02*
X129796002Y-135106280D01*
X129796002Y-135106280D02*
X129772837Y-135002351D01*
X129772837Y-135002351D02*
X129841958Y-134725124D01*
X129841958Y-134725124D02*
X129911202Y-134644235D01*
X129911202Y-134644235D02*
X129968927Y-134609550D01*
X129968927Y-134609550D02*
X130072856Y-134586386D01*
X130072856Y-134586386D02*
X130257675Y-134632466D01*
X130257675Y-134632466D02*
X130338564Y-134701711D01*
X130650848Y-135417571D02*
X130812129Y-134770707D01*
X130892770Y-134447275D02*
X130835045Y-134481960D01*
X130835045Y-134481960D02*
X130869730Y-134539685D01*
X130869730Y-134539685D02*
X130927454Y-134505000D01*
X130927454Y-134505000D02*
X130892770Y-134447275D01*
X130892770Y-134447275D02*
X130869730Y-134539685D01*
X131251507Y-135567332D02*
X131170618Y-135498087D01*
X131170618Y-135498087D02*
X131135933Y-135440363D01*
X131135933Y-135440363D02*
X131112769Y-135336434D01*
X131112769Y-135336434D02*
X131181890Y-135059206D01*
X131181890Y-135059206D02*
X131251134Y-134978317D01*
X131251134Y-134978317D02*
X131308859Y-134943633D01*
X131308859Y-134943633D02*
X131412788Y-134920468D01*
X131412788Y-134920468D02*
X131551402Y-134955029D01*
X131551402Y-134955029D02*
X131632291Y-135024273D01*
X131632291Y-135024273D02*
X131666975Y-135081998D01*
X131666975Y-135081998D02*
X131690140Y-135185927D01*
X131690140Y-135185927D02*
X131621019Y-135463155D01*
X131621019Y-135463155D02*
X131551774Y-135544044D01*
X131551774Y-135544044D02*
X131494050Y-135578728D01*
X131494050Y-135578728D02*
X131390121Y-135601892D01*
X131390121Y-135601892D02*
X131251507Y-135567332D01*
X132509929Y-134850478D02*
X132337128Y-135543547D01*
X132337128Y-135543547D02*
X132256363Y-135670640D01*
X132256363Y-135670640D02*
X132140914Y-135740009D01*
X132140914Y-135740009D02*
X131990780Y-135751654D01*
X131990780Y-135751654D02*
X131898371Y-135728613D01*
X133145894Y-136039656D02*
X133272615Y-135531406D01*
X133272615Y-135531406D02*
X133249451Y-135427477D01*
X133249451Y-135427477D02*
X133168562Y-135358232D01*
X133168562Y-135358232D02*
X132983743Y-135312152D01*
X132983743Y-135312152D02*
X132879814Y-135335316D01*
X133157414Y-135993451D02*
X133053485Y-136016616D01*
X133053485Y-136016616D02*
X132822462Y-135959015D01*
X132822462Y-135959015D02*
X132741573Y-135889771D01*
X132741573Y-135889771D02*
X132718409Y-135785841D01*
X132718409Y-135785841D02*
X132741449Y-135693432D01*
X132741449Y-135693432D02*
X132810694Y-135612543D01*
X132810694Y-135612543D02*
X132914623Y-135589379D01*
X132914623Y-135589379D02*
X133145646Y-135646979D01*
X133145646Y-135646979D02*
X133249575Y-135623815D01*
X134035301Y-136212333D02*
X133931372Y-136235498D01*
X133931372Y-136235498D02*
X133746553Y-136189417D01*
X133746553Y-136189417D02*
X133665664Y-136120172D01*
X133665664Y-136120172D02*
X133630980Y-136062448D01*
X133630980Y-136062448D02*
X133607816Y-135958519D01*
X133607816Y-135958519D02*
X133676936Y-135681291D01*
X133676936Y-135681291D02*
X133746181Y-135600402D01*
X133746181Y-135600402D02*
X133803906Y-135565718D01*
X133803906Y-135565718D02*
X133907835Y-135542553D01*
X133907835Y-135542553D02*
X134092653Y-135588634D01*
X134092653Y-135588634D02*
X134173542Y-135657878D01*
X134439622Y-136362219D02*
X134681544Y-135391923D01*
X134624192Y-136015622D02*
X134809258Y-136454379D01*
X134970540Y-135807515D02*
X134508743Y-136084991D01*
%TO.C,SW13*%
X155483319Y-116118273D02*
X160079835Y-97682655D01*
X158513863Y-114297339D02*
X158755785Y-113327043D01*
X158513863Y-114297339D02*
X159484158Y-114539261D01*
X160079835Y-97682655D02*
X178515453Y-102279171D01*
X161658847Y-101683494D02*
X161900769Y-100713199D01*
X162871065Y-100955121D02*
X161900769Y-100713199D01*
X171127707Y-117442323D02*
X172098003Y-117684245D01*
X172339925Y-116713950D02*
X172098003Y-117684245D01*
X173918937Y-120714789D02*
X155483319Y-116118273D01*
X175484909Y-104100105D02*
X174514614Y-103858183D01*
X175484909Y-104100105D02*
X175242987Y-105070401D01*
X178515453Y-102279171D02*
X173918937Y-120714789D01*
%TO.C,SW9*%
X130708176Y-58410455D02*
X135304692Y-39974837D01*
X133738720Y-56589521D02*
X133980642Y-55619225D01*
X133738720Y-56589521D02*
X134709015Y-56831443D01*
X135304692Y-39974837D02*
X153740310Y-44571353D01*
X136883704Y-43975676D02*
X137125626Y-43005381D01*
X138095922Y-43247303D02*
X137125626Y-43005381D01*
X146352564Y-59734505D02*
X147322860Y-59976427D01*
X147564782Y-59006132D02*
X147322860Y-59976427D01*
X149143794Y-63006971D02*
X130708176Y-58410455D01*
X150709766Y-46392287D02*
X149739471Y-46150365D01*
X150709766Y-46392287D02*
X150467844Y-47362583D01*
X153740310Y-44571353D02*
X149143794Y-63006971D01*
%TO.C,SW14*%
X160079835Y-97682654D02*
X164676351Y-79247036D01*
X163352301Y-94891424D02*
X163110379Y-95861720D01*
X164080674Y-96103642D02*
X163110379Y-95861720D01*
X164676351Y-79247036D02*
X183111969Y-83843552D01*
X166497285Y-82277580D02*
X166255363Y-83247875D01*
X166497285Y-82277580D02*
X167467581Y-82519502D01*
X176694519Y-99248626D02*
X175724223Y-99006704D01*
X176694519Y-99248626D02*
X176936441Y-98278331D01*
X178515453Y-102279170D02*
X160079835Y-97682654D01*
X179111130Y-85422564D02*
X180081425Y-85664486D01*
X179839503Y-86634782D02*
X180081425Y-85664486D01*
X183111969Y-83843552D02*
X178515453Y-102279170D01*
%TO.C,SW2*%
X79976330Y-96313482D02*
X81301703Y-77359765D01*
X81301703Y-77359765D02*
X100255420Y-78685138D01*
X82714388Y-92996399D02*
X82644631Y-93993963D01*
X83621222Y-80028066D02*
X83551462Y-81025630D01*
X83621222Y-80028066D02*
X84618786Y-80097823D01*
X83642195Y-94063723D02*
X82644631Y-93993963D01*
X96589555Y-80934897D02*
X97587119Y-81004657D01*
X96610528Y-94970554D02*
X95612964Y-94900797D01*
X96610528Y-94970554D02*
X96680288Y-93972990D01*
X97517362Y-82002221D02*
X97587119Y-81004657D01*
X98930047Y-97638855D02*
X79976330Y-96313482D01*
X100255420Y-78685138D02*
X98930047Y-97638855D01*
%TO.C,SW16*%
X126387488Y-129476140D02*
X130984004Y-111040522D01*
X129418032Y-127655206D02*
X129659954Y-126684910D01*
X129418032Y-127655206D02*
X130388327Y-127897128D01*
X130984004Y-111040522D02*
X149419622Y-115637038D01*
X132563016Y-115041361D02*
X132804938Y-114071066D01*
X133775234Y-114312988D02*
X132804938Y-114071066D01*
X142031876Y-130800190D02*
X143002172Y-131042112D01*
X143244094Y-130071817D02*
X143002172Y-131042112D01*
X144823106Y-134072656D02*
X126387488Y-129476140D01*
X146389078Y-117457972D02*
X145418783Y-117216050D01*
X146389078Y-117457972D02*
X146147156Y-118428268D01*
X149419622Y-115637038D02*
X144823106Y-134072656D01*
%TO.C,SW6*%
X106002882Y-65081906D02*
X109138786Y-46342480D01*
X108881215Y-63028811D02*
X109046262Y-62042525D01*
X108881215Y-63028811D02*
X109867500Y-63193859D01*
X109138786Y-46342480D02*
X127878212Y-49478384D01*
X111026833Y-50207098D02*
X111191881Y-49220813D01*
X112178167Y-49385860D02*
X111191881Y-49220813D01*
X121702927Y-65174430D02*
X122689213Y-65339477D01*
X122854261Y-64353192D02*
X122689213Y-65339477D01*
X124742308Y-68217810D02*
X106002882Y-65081906D01*
X124999879Y-51531479D02*
X124013594Y-51366431D01*
X124999879Y-51531479D02*
X124834832Y-52517765D01*
X127878212Y-49478384D02*
X124742308Y-68217810D01*
%TO.C,SW4*%
X99731073Y-102560759D02*
X102866977Y-83821333D01*
X102609406Y-100507664D02*
X102774453Y-99521378D01*
X102609406Y-100507664D02*
X103595691Y-100672712D01*
X102866977Y-83821333D02*
X121606403Y-86957237D01*
X104755024Y-87685951D02*
X104920072Y-86699666D01*
X105906358Y-86864713D02*
X104920072Y-86699666D01*
X115431118Y-102653283D02*
X116417404Y-102818330D01*
X116582452Y-101832045D02*
X116417404Y-102818330D01*
X118470499Y-105696663D02*
X99731073Y-102560759D01*
X118728070Y-89010332D02*
X117741785Y-88845284D01*
X118728070Y-89010332D02*
X118563023Y-89996618D01*
X121606403Y-86957237D02*
X118470499Y-105696663D01*
%TO.C,SW15*%
X164676351Y-79247035D02*
X169272867Y-60811417D01*
X167948817Y-76455805D02*
X167706895Y-77426101D01*
X168677190Y-77668023D02*
X167706895Y-77426101D01*
X169272867Y-60811417D02*
X187708485Y-65407933D01*
X171093801Y-63841961D02*
X170851879Y-64812256D01*
X171093801Y-63841961D02*
X172064097Y-64083883D01*
X181291035Y-80813007D02*
X180320739Y-80571085D01*
X181291035Y-80813007D02*
X181532957Y-79842712D01*
X183111969Y-83843551D02*
X164676351Y-79247035D01*
X183707646Y-66986945D02*
X184677941Y-67228867D01*
X184436019Y-68199163D02*
X184677941Y-67228867D01*
X187708485Y-65407933D02*
X183111969Y-83843551D01*
%TO.C,SW5*%
X102866977Y-83821332D02*
X106002881Y-65081906D01*
X105745310Y-81768237D02*
X105910357Y-80781951D01*
X105745310Y-81768237D02*
X106731595Y-81933285D01*
X106002881Y-65081906D02*
X124742307Y-68217810D01*
X107890928Y-68946524D02*
X108055976Y-67960239D01*
X109042262Y-68125286D02*
X108055976Y-67960239D01*
X118567022Y-83913856D02*
X119553308Y-84078903D01*
X119718356Y-83092618D02*
X119553308Y-84078903D01*
X121606403Y-86957236D02*
X102866977Y-83821332D01*
X121863974Y-70270905D02*
X120877689Y-70105857D01*
X121863974Y-70270905D02*
X121698927Y-71257191D01*
X124742307Y-68217810D02*
X121606403Y-86957236D01*
%TO.C,SW18*%
X163539072Y-143830079D02*
X176737581Y-130162622D01*
X167768726Y-143049035D02*
X167074068Y-143768375D01*
X167793408Y-144463033D02*
X167074068Y-143768375D01*
X176737581Y-130162622D02*
X190405038Y-143361131D01*
X176799285Y-133697618D02*
X176104627Y-134416958D01*
X176799285Y-133697618D02*
X177518625Y-134392276D01*
X177144825Y-153493592D02*
X176425485Y-152798934D01*
X177144825Y-153493592D02*
X177839483Y-152774252D01*
X177206529Y-157028588D02*
X163539072Y-143830079D01*
X186150702Y-142728177D02*
X186870042Y-143422835D01*
X186175384Y-144142175D02*
X186870042Y-143422835D01*
X190405038Y-143361131D02*
X177206529Y-157028588D01*
%TO.C,SW17*%
X145656191Y-134430133D02*
X154576151Y-117654129D01*
X149037239Y-133396443D02*
X149506710Y-132513497D01*
X149037239Y-133396443D02*
X149920187Y-133865915D01*
X154576151Y-117654129D02*
X171352155Y-126574089D01*
X155140369Y-121918125D02*
X155609841Y-121035177D01*
X156492787Y-121504648D02*
X155609841Y-121035177D01*
X160515559Y-139499574D02*
X161398505Y-139969045D01*
X161867977Y-139086097D02*
X161398505Y-139969045D01*
X162432195Y-143350093D02*
X145656191Y-134430133D01*
X167971107Y-127607779D02*
X167088159Y-127138307D01*
X167971107Y-127607779D02*
X167501636Y-128490725D01*
X171352155Y-126574089D02*
X162432195Y-143350093D01*
%TO.C,SW7*%
X121515144Y-95281692D02*
X126111660Y-76846074D01*
X124545688Y-93460758D02*
X124787610Y-92490462D01*
X124545688Y-93460758D02*
X125515983Y-93702680D01*
X126111660Y-76846074D02*
X144547278Y-81442590D01*
X127690672Y-80846913D02*
X127932594Y-79876618D01*
X128902890Y-80118540D02*
X127932594Y-79876618D01*
X137159532Y-96605742D02*
X138129828Y-96847664D01*
X138371750Y-95877369D02*
X138129828Y-96847664D01*
X139950762Y-99878208D02*
X121515144Y-95281692D01*
X141516734Y-83263524D02*
X140546439Y-83021602D01*
X141516734Y-83263524D02*
X141274812Y-84233820D01*
X144547278Y-81442590D02*
X139950762Y-99878208D01*
%TO.C,SW11*%
X142128060Y-91145547D02*
X146724576Y-72709929D01*
X145158604Y-89324613D02*
X145400526Y-88354317D01*
X145158604Y-89324613D02*
X146128899Y-89566535D01*
X146724576Y-72709929D02*
X165160194Y-77306445D01*
X148303588Y-76710768D02*
X148545510Y-75740473D01*
X149515806Y-75982395D02*
X148545510Y-75740473D01*
X157772448Y-92469597D02*
X158742744Y-92711519D01*
X158984666Y-91741224D02*
X158742744Y-92711519D01*
X160563678Y-95742063D02*
X142128060Y-91145547D01*
X162129650Y-79127379D02*
X161159355Y-78885457D01*
X162129650Y-79127379D02*
X161887728Y-80097675D01*
X165160194Y-77306445D02*
X160563678Y-95742063D01*
%TO.C,SW10*%
X137531544Y-109581166D02*
X142128060Y-91145548D01*
X140562088Y-107760232D02*
X140804010Y-106789936D01*
X140562088Y-107760232D02*
X141532383Y-108002154D01*
X142128060Y-91145548D02*
X160563678Y-95742064D01*
X143707072Y-95146387D02*
X143948994Y-94176092D01*
X144919290Y-94418014D02*
X143948994Y-94176092D01*
X153175932Y-110905216D02*
X154146228Y-111147138D01*
X154388150Y-110176843D02*
X154146228Y-111147138D01*
X155967162Y-114177682D02*
X137531544Y-109581166D01*
X157533134Y-97562998D02*
X156562839Y-97321076D01*
X157533134Y-97562998D02*
X157291212Y-98533294D01*
X160563678Y-95742064D02*
X155967162Y-114177682D01*
%TO.C,SW12*%
X146724576Y-72709928D02*
X151321092Y-54274310D01*
X149755120Y-70888994D02*
X149997042Y-69918698D01*
X149755120Y-70888994D02*
X150725415Y-71130916D01*
X151321092Y-54274310D02*
X169756710Y-58870826D01*
X152900104Y-58275149D02*
X153142026Y-57304854D01*
X154112322Y-57546776D02*
X153142026Y-57304854D01*
X162368964Y-74033978D02*
X163339260Y-74275900D01*
X163581182Y-73305605D02*
X163339260Y-74275900D01*
X165160194Y-77306444D02*
X146724576Y-72709928D01*
X166726166Y-60691760D02*
X165755871Y-60449838D01*
X166726166Y-60691760D02*
X166484244Y-61662056D01*
X169756710Y-58870826D02*
X165160194Y-77306444D01*
%TO.C,SW1*%
X78650957Y-115267199D02*
X79976330Y-96313482D01*
X79976330Y-96313482D02*
X98930047Y-97638855D01*
X81389015Y-111950116D02*
X81319258Y-112947680D01*
X82295849Y-98981783D02*
X82226089Y-99979347D01*
X82295849Y-98981783D02*
X83293413Y-99051540D01*
X82316822Y-113017440D02*
X81319258Y-112947680D01*
X95264182Y-99888614D02*
X96261746Y-99958374D01*
X95285155Y-113924271D02*
X94287591Y-113854514D01*
X95285155Y-113924271D02*
X95354915Y-112926707D01*
X96191989Y-100955938D02*
X96261746Y-99958374D01*
X97604674Y-116592572D02*
X78650957Y-115267199D01*
X98930047Y-97638855D02*
X97604674Y-116592572D01*
%TO.C,SW3*%
X81301703Y-77359765D02*
X82627076Y-58406048D01*
X82627076Y-58406048D02*
X101580793Y-59731421D01*
X84039761Y-74042682D02*
X83970004Y-75040246D01*
X84946595Y-61074349D02*
X84876835Y-62071913D01*
X84946595Y-61074349D02*
X85944159Y-61144106D01*
X84967568Y-75110006D02*
X83970004Y-75040246D01*
X97914928Y-61981180D02*
X98912492Y-62050940D01*
X97935901Y-76016837D02*
X96938337Y-75947080D01*
X97935901Y-76016837D02*
X98005661Y-75019273D01*
X98842735Y-63048504D02*
X98912492Y-62050940D01*
X100255420Y-78685138D02*
X81301703Y-77359765D01*
X101580793Y-59731421D02*
X100255420Y-78685138D01*
%TO.C,SW8*%
X126111660Y-76846073D02*
X130708176Y-58410455D01*
X129142204Y-75025139D02*
X129384126Y-74054843D01*
X129142204Y-75025139D02*
X130112499Y-75267061D01*
X130708176Y-58410455D02*
X149143794Y-63006971D01*
X132287188Y-62411294D02*
X132529110Y-61440999D01*
X133499406Y-61682921D02*
X132529110Y-61440999D01*
X141756048Y-78170123D02*
X142726344Y-78412045D01*
X142968266Y-77441750D02*
X142726344Y-78412045D01*
X144547278Y-81442589D02*
X126111660Y-76846073D01*
X146113250Y-64827905D02*
X145142955Y-64585983D01*
X146113250Y-64827905D02*
X145871328Y-65798201D01*
X149143794Y-63006971D02*
X144547278Y-81442589D01*
%TD*%
M02*
