%TF.GenerationSoftware,KiCad,Pcbnew,10.0.2*%
%TF.CreationDate,2026-07-30T14:12:14+09:00*%
%TF.ProjectId,board,626f6172-642e-46b6-9963-61645f706362,v1.0.0*%
%TF.SameCoordinates,Original*%
%TF.FileFunction,AssemblyDrawing,Bot*%
%FSLAX46Y46*%
G04 Gerber Fmt 4.6, Leading zero omitted, Abs format (unit mm)*
G04 Created by KiCad (PCBNEW 10.0.2) date 2026-07-30 14:12:14*
%MOMM*%
%LPD*%
G01*
G04 APERTURE LIST*
%ADD10C,0.150000*%
%ADD11C,0.100000*%
G04 APERTURE END LIST*
D10*
X190834826Y-121041693D02*
X190696585Y-121596148D01*
X191736001Y-121560842D02*
X190765705Y-121318921D01*
X191447998Y-122715957D02*
X191066594Y-122277324D01*
X191586240Y-122161502D02*
X190615944Y-121919580D01*
X190615944Y-121919580D02*
X190523783Y-122289217D01*
X190523783Y-122289217D02*
X190546948Y-122393146D01*
X190546948Y-122393146D02*
X190581632Y-122450870D01*
X190581632Y-122450870D02*
X190662521Y-122520115D01*
X190662521Y-122520115D02*
X190801135Y-122554675D01*
X190801135Y-122554675D02*
X190905064Y-122531511D01*
X190905064Y-122531511D02*
X190962789Y-122496827D01*
X190962789Y-122496827D02*
X191032033Y-122415938D01*
X191032033Y-122415938D02*
X191124194Y-122046301D01*
X191206077Y-123686252D02*
X190824672Y-123247620D01*
X191344318Y-123131798D02*
X190374022Y-122889876D01*
X190374022Y-122889876D02*
X190281861Y-123259512D01*
X190281861Y-123259512D02*
X190305026Y-123363441D01*
X190305026Y-123363441D02*
X190339710Y-123421166D01*
X190339710Y-123421166D02*
X190420599Y-123490411D01*
X190420599Y-123490411D02*
X190559213Y-123524971D01*
X190559213Y-123524971D02*
X190663142Y-123501807D01*
X190663142Y-123501807D02*
X190720867Y-123467122D01*
X190720867Y-123467122D02*
X190790111Y-123386233D01*
X190790111Y-123386233D02*
X190882272Y-123016597D01*
X191067711Y-124044369D02*
X191079356Y-124194503D01*
X191079356Y-124194503D02*
X191021755Y-124425525D01*
X191021755Y-124425525D02*
X190952510Y-124506414D01*
X190952510Y-124506414D02*
X190894786Y-124541099D01*
X190894786Y-124541099D02*
X190790857Y-124564263D01*
X190790857Y-124564263D02*
X190698447Y-124541223D01*
X190698447Y-124541223D02*
X190617558Y-124471978D01*
X190617558Y-124471978D02*
X190582874Y-124414254D01*
X190582874Y-124414254D02*
X190559710Y-124310324D01*
X190559710Y-124310324D02*
X190559585Y-124113986D01*
X190559585Y-124113986D02*
X190536421Y-124010057D01*
X190536421Y-124010057D02*
X190501737Y-123952332D01*
X190501737Y-123952332D02*
X190420848Y-123883087D01*
X190420848Y-123883087D02*
X190328438Y-123860047D01*
X190328438Y-123860047D02*
X190224509Y-123883212D01*
X190224509Y-123883212D02*
X190166785Y-123917896D01*
X190166785Y-123917896D02*
X190097540Y-123998785D01*
X190097540Y-123998785D02*
X190039939Y-124229808D01*
X190039939Y-124229808D02*
X190051584Y-124379942D01*
X190502358Y-124934024D02*
X190318036Y-125673297D01*
X190572472Y-126227503D02*
X189602176Y-125985581D01*
X189602176Y-125985581D02*
X189510015Y-126355217D01*
X189510015Y-126355217D02*
X189533180Y-126459147D01*
X189533180Y-126459147D02*
X189567864Y-126516871D01*
X189567864Y-126516871D02*
X189648753Y-126586116D01*
X189648753Y-126586116D02*
X189787367Y-126620676D01*
X189787367Y-126620676D02*
X189891296Y-126597512D01*
X189891296Y-126597512D02*
X189949021Y-126562827D01*
X189949021Y-126562827D02*
X190018265Y-126481938D01*
X190018265Y-126481938D02*
X190110426Y-126112302D01*
X189291134Y-127233104D02*
X189984202Y-127405905D01*
X189984202Y-127405905D02*
X190134336Y-127394261D01*
X190134336Y-127394261D02*
X190249785Y-127324892D01*
X190249785Y-127324892D02*
X190330550Y-127197799D01*
X190330550Y-127197799D02*
X190353590Y-127105390D01*
X189776592Y-127844911D02*
X189592270Y-128584184D01*
X188899450Y-128804059D02*
X188749689Y-129404718D01*
X188749689Y-129404718D02*
X189199966Y-129173447D01*
X189199966Y-129173447D02*
X189165406Y-129312061D01*
X189165406Y-129312061D02*
X189188570Y-129415990D01*
X189188570Y-129415990D02*
X189223255Y-129473715D01*
X189223255Y-129473715D02*
X189304144Y-129542959D01*
X189304144Y-129542959D02*
X189535167Y-129600560D01*
X189535167Y-129600560D02*
X189639096Y-129577395D01*
X189639096Y-129577395D02*
X189696821Y-129542711D01*
X189696821Y-129542711D02*
X189766065Y-129461822D01*
X189766065Y-129461822D02*
X189835186Y-129184595D01*
X189835186Y-129184595D02*
X189812022Y-129080665D01*
X189812022Y-129080665D02*
X189777337Y-129022941D01*
X188749938Y-129797395D02*
X188692213Y-129832079D01*
X188692213Y-129832079D02*
X188622968Y-129912969D01*
X188622968Y-129912969D02*
X188565368Y-130143991D01*
X188565368Y-130143991D02*
X188588532Y-130247921D01*
X188588532Y-130247921D02*
X188623217Y-130305645D01*
X188623217Y-130305645D02*
X188704106Y-130374890D01*
X188704106Y-130374890D02*
X188796515Y-130397930D01*
X188796515Y-130397930D02*
X188946649Y-130386286D01*
X188946649Y-130386286D02*
X189639344Y-129970072D01*
X189639344Y-129970072D02*
X189489583Y-130570731D01*
X188369526Y-130929469D02*
X188346486Y-131021878D01*
X188346486Y-131021878D02*
X188369650Y-131125807D01*
X188369650Y-131125807D02*
X188404335Y-131183532D01*
X188404335Y-131183532D02*
X188485224Y-131252777D01*
X188485224Y-131252777D02*
X188658522Y-131345061D01*
X188658522Y-131345061D02*
X188889545Y-131402662D01*
X188889545Y-131402662D02*
X189085883Y-131402538D01*
X189085883Y-131402538D02*
X189189812Y-131379373D01*
X189189812Y-131379373D02*
X189247537Y-131344689D01*
X189247537Y-131344689D02*
X189316782Y-131263800D01*
X189316782Y-131263800D02*
X189339822Y-131171391D01*
X189339822Y-131171391D02*
X189316658Y-131067462D01*
X189316658Y-131067462D02*
X189281973Y-131009737D01*
X189281973Y-131009737D02*
X189201084Y-130940492D01*
X189201084Y-130940492D02*
X189027786Y-130848207D01*
X189027786Y-130848207D02*
X188796763Y-130790607D01*
X188796763Y-130790607D02*
X188600425Y-130790731D01*
X188600425Y-130790731D02*
X188496496Y-130813895D01*
X188496496Y-130813895D02*
X188438771Y-130848580D01*
X188438771Y-130848580D02*
X188369526Y-130929469D01*
X188889793Y-131795339D02*
X188774592Y-132257384D01*
X189190061Y-131772050D02*
X188139124Y-131853560D01*
X188139124Y-131853560D02*
X189028780Y-132418914D01*
X189098148Y-132534363D02*
X188913827Y-133273636D01*
X188763817Y-133481619D02*
X187793522Y-133239697D01*
X187793522Y-133239697D02*
X187701361Y-133609334D01*
X187701361Y-133609334D02*
X187724525Y-133713263D01*
X187724525Y-133713263D02*
X187759210Y-133770987D01*
X187759210Y-133770987D02*
X187840099Y-133840232D01*
X187840099Y-133840232D02*
X187978712Y-133874793D01*
X187978712Y-133874793D02*
X188082642Y-133851628D01*
X188082642Y-133851628D02*
X188140366Y-133816944D01*
X188140366Y-133816944D02*
X188209611Y-133736055D01*
X188209611Y-133736055D02*
X188301772Y-133366418D01*
X188521895Y-134451915D02*
X187551600Y-134209993D01*
X188406695Y-134913960D02*
X187436399Y-134672038D01*
X187436399Y-134672038D02*
X188268454Y-135468415D01*
X188268454Y-135468415D02*
X187298158Y-135226493D01*
D11*
X173795456Y-122545106D02*
X173803607Y-122650199D01*
X173803607Y-122650199D02*
X173763286Y-122811915D01*
X173763286Y-122811915D02*
X173714815Y-122868538D01*
X173714815Y-122868538D02*
X173674408Y-122892817D01*
X173674408Y-122892817D02*
X173601657Y-122909032D01*
X173601657Y-122909032D02*
X173536971Y-122892904D01*
X173536971Y-122892904D02*
X173480349Y-122844432D01*
X173480349Y-122844432D02*
X173456070Y-122804025D01*
X173456070Y-122804025D02*
X173439855Y-122731275D01*
X173439855Y-122731275D02*
X173439768Y-122593838D01*
X173439768Y-122593838D02*
X173423553Y-122521087D01*
X173423553Y-122521087D02*
X173399273Y-122480680D01*
X173399273Y-122480680D02*
X173342651Y-122432209D01*
X173342651Y-122432209D02*
X173277965Y-122416081D01*
X173277965Y-122416081D02*
X173205214Y-122432296D01*
X173205214Y-122432296D02*
X173164807Y-122456575D01*
X173164807Y-122456575D02*
X173116336Y-122513197D01*
X173116336Y-122513197D02*
X173076015Y-122674913D01*
X173076015Y-122674913D02*
X173084166Y-122780007D01*
X173634261Y-123329407D02*
X173618046Y-123256656D01*
X173618046Y-123256656D02*
X173561424Y-123208185D01*
X173561424Y-123208185D02*
X172979247Y-123063032D01*
X173472893Y-123838834D02*
X173521364Y-123782212D01*
X173521364Y-123782212D02*
X173553621Y-123652839D01*
X173553621Y-123652839D02*
X173537406Y-123580089D01*
X173537406Y-123580089D02*
X173480783Y-123531617D01*
X173480783Y-123531617D02*
X173222038Y-123467105D01*
X173222038Y-123467105D02*
X173149287Y-123483320D01*
X173149287Y-123483320D02*
X173100816Y-123539942D01*
X173100816Y-123539942D02*
X173068560Y-123669315D01*
X173068560Y-123669315D02*
X173084775Y-123742065D01*
X173084775Y-123742065D02*
X173141397Y-123790537D01*
X173141397Y-123790537D02*
X173206083Y-123806665D01*
X173206083Y-123806665D02*
X173351410Y-123499361D01*
X173327740Y-124421011D02*
X173376211Y-124364389D01*
X173376211Y-124364389D02*
X173408467Y-124235016D01*
X173408467Y-124235016D02*
X173392252Y-124162266D01*
X173392252Y-124162266D02*
X173335630Y-124113795D01*
X173335630Y-124113795D02*
X173076885Y-124049282D01*
X173076885Y-124049282D02*
X173004134Y-124065497D01*
X173004134Y-124065497D02*
X172955663Y-124122120D01*
X172955663Y-124122120D02*
X172923407Y-124251492D01*
X172923407Y-124251492D02*
X172939622Y-124324243D01*
X172939622Y-124324243D02*
X172996244Y-124372714D01*
X172996244Y-124372714D02*
X173060930Y-124388842D01*
X173060930Y-124388842D02*
X173206257Y-124081538D01*
X172842766Y-124574924D02*
X173255250Y-124849537D01*
X173255250Y-124849537D02*
X172762125Y-124898356D01*
X173053562Y-125520680D02*
X173102033Y-125464057D01*
X173102033Y-125464057D02*
X173134289Y-125334685D01*
X173134289Y-125334685D02*
X173118074Y-125261934D01*
X173118074Y-125261934D02*
X173061452Y-125213463D01*
X173061452Y-125213463D02*
X172802706Y-125148950D01*
X172802706Y-125148950D02*
X172729956Y-125165165D01*
X172729956Y-125165165D02*
X172681485Y-125221788D01*
X172681485Y-125221788D02*
X172649228Y-125351160D01*
X172649228Y-125351160D02*
X172665444Y-125423911D01*
X172665444Y-125423911D02*
X172722066Y-125472382D01*
X172722066Y-125472382D02*
X172786752Y-125488510D01*
X172786752Y-125488510D02*
X172932079Y-125181207D01*
X174236860Y-123806013D02*
X174140091Y-124194131D01*
X174867683Y-124169418D02*
X174188476Y-124000072D01*
X174762850Y-124589879D02*
X174310045Y-124476982D01*
X174083643Y-124420533D02*
X174124050Y-124396254D01*
X174124050Y-124396254D02*
X174148329Y-124436662D01*
X174148329Y-124436662D02*
X174107922Y-124460941D01*
X174107922Y-124460941D02*
X174083643Y-124420533D01*
X174083643Y-124420533D02*
X174148329Y-124436662D01*
X174229405Y-124800413D02*
X174908612Y-124969759D01*
X174261748Y-124808478D02*
X174213277Y-124865100D01*
X174213277Y-124865100D02*
X174181020Y-124994473D01*
X174181020Y-124994473D02*
X174197235Y-125067223D01*
X174197235Y-125067223D02*
X174221515Y-125107630D01*
X174221515Y-125107630D02*
X174278137Y-125156102D01*
X174278137Y-125156102D02*
X174472196Y-125204486D01*
X174472196Y-125204486D02*
X174544946Y-125188271D01*
X174544946Y-125188271D02*
X174585354Y-125163992D01*
X174585354Y-125163992D02*
X174633825Y-125107369D01*
X174633825Y-125107369D02*
X174666081Y-124977997D01*
X174666081Y-124977997D02*
X174649866Y-124905246D01*
X178611125Y-124656162D02*
X178344141Y-124349119D01*
X178707893Y-124268044D02*
X178028686Y-124098699D01*
X178028686Y-124098699D02*
X177964174Y-124357444D01*
X177964174Y-124357444D02*
X177980389Y-124430195D01*
X177980389Y-124430195D02*
X178004668Y-124470602D01*
X178004668Y-124470602D02*
X178061290Y-124519073D01*
X178061290Y-124519073D02*
X178158320Y-124543266D01*
X178158320Y-124543266D02*
X178231070Y-124527051D01*
X178231070Y-124527051D02*
X178271478Y-124502771D01*
X178271478Y-124502771D02*
X178319949Y-124446149D01*
X178319949Y-124446149D02*
X178384462Y-124187404D01*
X178538548Y-124947251D02*
X178085743Y-124834354D01*
X177859341Y-124777906D02*
X177899748Y-124753627D01*
X177899748Y-124753627D02*
X177924028Y-124794034D01*
X177924028Y-124794034D02*
X177883620Y-124818313D01*
X177883620Y-124818313D02*
X177859341Y-124777906D01*
X177859341Y-124777906D02*
X177924028Y-124794034D01*
X178005103Y-125157786D02*
X178457908Y-125270683D01*
X178069789Y-125173914D02*
X178029382Y-125198193D01*
X178029382Y-125198193D02*
X177980911Y-125254815D01*
X177980911Y-125254815D02*
X177956719Y-125351845D01*
X177956719Y-125351845D02*
X177972934Y-125424595D01*
X177972934Y-125424595D02*
X178029556Y-125473067D01*
X178029556Y-125473067D02*
X178385331Y-125561771D01*
X177779309Y-126063395D02*
X178329143Y-126200484D01*
X178329143Y-126200484D02*
X178401894Y-126184269D01*
X178401894Y-126184269D02*
X178442301Y-126159990D01*
X178442301Y-126159990D02*
X178490772Y-126103367D01*
X178490772Y-126103367D02*
X178514965Y-126006338D01*
X178514965Y-126006338D02*
X178498750Y-125933587D01*
X178199771Y-126168228D02*
X178248242Y-126111605D01*
X178248242Y-126111605D02*
X178280498Y-125982233D01*
X178280498Y-125982233D02*
X178264283Y-125909482D01*
X178264283Y-125909482D02*
X178240004Y-125869075D01*
X178240004Y-125869075D02*
X178183382Y-125820604D01*
X178183382Y-125820604D02*
X177989323Y-125772219D01*
X177989323Y-125772219D02*
X177916572Y-125788434D01*
X177916572Y-125788434D02*
X177876165Y-125812713D01*
X177876165Y-125812713D02*
X177827694Y-125869336D01*
X177827694Y-125869336D02*
X177795437Y-125998709D01*
X177795437Y-125998709D02*
X177811652Y-126071459D01*
X178062769Y-126855498D02*
X178159537Y-126467380D01*
X178111153Y-126661439D02*
X177431946Y-126492094D01*
X177431946Y-126492094D02*
X177545104Y-126451600D01*
X177545104Y-126451600D02*
X177625918Y-126403042D01*
X177625918Y-126403042D02*
X177674390Y-126346419D01*
X181522012Y-125381928D02*
X181255028Y-125074885D01*
X181618780Y-124993810D02*
X180939573Y-124824465D01*
X180939573Y-124824465D02*
X180875061Y-125083210D01*
X180875061Y-125083210D02*
X180891276Y-125155961D01*
X180891276Y-125155961D02*
X180915555Y-125196368D01*
X180915555Y-125196368D02*
X180972177Y-125244839D01*
X180972177Y-125244839D02*
X181069207Y-125269032D01*
X181069207Y-125269032D02*
X181141957Y-125252817D01*
X181141957Y-125252817D02*
X181182365Y-125228537D01*
X181182365Y-125228537D02*
X181230836Y-125171915D01*
X181230836Y-125171915D02*
X181295349Y-124913170D01*
X181449435Y-125673017D02*
X180996630Y-125560120D01*
X180770228Y-125503672D02*
X180810635Y-125479393D01*
X180810635Y-125479393D02*
X180834915Y-125519800D01*
X180834915Y-125519800D02*
X180794507Y-125544079D01*
X180794507Y-125544079D02*
X180770228Y-125503672D01*
X180770228Y-125503672D02*
X180834915Y-125519800D01*
X180915990Y-125883552D02*
X181368795Y-125996449D01*
X180980676Y-125899680D02*
X180940269Y-125923959D01*
X180940269Y-125923959D02*
X180891798Y-125980581D01*
X180891798Y-125980581D02*
X180867606Y-126077611D01*
X180867606Y-126077611D02*
X180883821Y-126150361D01*
X180883821Y-126150361D02*
X180940443Y-126198833D01*
X180940443Y-126198833D02*
X181296218Y-126287537D01*
X180690196Y-126789161D02*
X181240030Y-126926250D01*
X181240030Y-126926250D02*
X181312781Y-126910035D01*
X181312781Y-126910035D02*
X181353188Y-126885756D01*
X181353188Y-126885756D02*
X181401659Y-126829133D01*
X181401659Y-126829133D02*
X181425852Y-126732104D01*
X181425852Y-126732104D02*
X181409637Y-126659353D01*
X181110658Y-126893994D02*
X181159129Y-126837371D01*
X181159129Y-126837371D02*
X181191385Y-126707999D01*
X181191385Y-126707999D02*
X181175170Y-126635248D01*
X181175170Y-126635248D02*
X181150891Y-126594841D01*
X181150891Y-126594841D02*
X181094269Y-126546370D01*
X181094269Y-126546370D02*
X180900210Y-126497985D01*
X180900210Y-126497985D02*
X180827459Y-126514200D01*
X180827459Y-126514200D02*
X180787052Y-126538479D01*
X180787052Y-126538479D02*
X180738581Y-126595102D01*
X180738581Y-126595102D02*
X180706324Y-126724475D01*
X180706324Y-126724475D02*
X180722539Y-126797225D01*
X180455904Y-127039929D02*
X180415497Y-127064208D01*
X180415497Y-127064208D02*
X180367025Y-127120830D01*
X180367025Y-127120830D02*
X180326705Y-127282546D01*
X180326705Y-127282546D02*
X180342920Y-127355297D01*
X180342920Y-127355297D02*
X180367199Y-127395704D01*
X180367199Y-127395704D02*
X180423821Y-127444175D01*
X180423821Y-127444175D02*
X180488508Y-127460304D01*
X180488508Y-127460304D02*
X180593601Y-127452153D01*
X180593601Y-127452153D02*
X181078488Y-127160803D01*
X181078488Y-127160803D02*
X180973656Y-127581264D01*
D10*
X134967200Y-138458808D02*
X135014819Y-138601665D01*
X135014819Y-138601665D02*
X135014819Y-138839760D01*
X135014819Y-138839760D02*
X134967200Y-138934998D01*
X134967200Y-138934998D02*
X134919580Y-138982617D01*
X134919580Y-138982617D02*
X134824342Y-139030236D01*
X134824342Y-139030236D02*
X134729104Y-139030236D01*
X134729104Y-139030236D02*
X134633866Y-138982617D01*
X134633866Y-138982617D02*
X134586247Y-138934998D01*
X134586247Y-138934998D02*
X134538628Y-138839760D01*
X134538628Y-138839760D02*
X134491009Y-138649284D01*
X134491009Y-138649284D02*
X134443390Y-138554046D01*
X134443390Y-138554046D02*
X134395771Y-138506427D01*
X134395771Y-138506427D02*
X134300533Y-138458808D01*
X134300533Y-138458808D02*
X134205295Y-138458808D01*
X134205295Y-138458808D02*
X134110057Y-138506427D01*
X134110057Y-138506427D02*
X134062438Y-138554046D01*
X134062438Y-138554046D02*
X134014819Y-138649284D01*
X134014819Y-138649284D02*
X134014819Y-138887379D01*
X134014819Y-138887379D02*
X134062438Y-139030236D01*
X135014819Y-139601665D02*
X134967200Y-139506427D01*
X134967200Y-139506427D02*
X134919580Y-139458808D01*
X134919580Y-139458808D02*
X134824342Y-139411189D01*
X134824342Y-139411189D02*
X134538628Y-139411189D01*
X134538628Y-139411189D02*
X134443390Y-139458808D01*
X134443390Y-139458808D02*
X134395771Y-139506427D01*
X134395771Y-139506427D02*
X134348152Y-139601665D01*
X134348152Y-139601665D02*
X134348152Y-139744522D01*
X134348152Y-139744522D02*
X134395771Y-139839760D01*
X134395771Y-139839760D02*
X134443390Y-139887379D01*
X134443390Y-139887379D02*
X134538628Y-139934998D01*
X134538628Y-139934998D02*
X134824342Y-139934998D01*
X134824342Y-139934998D02*
X134919580Y-139887379D01*
X134919580Y-139887379D02*
X134967200Y-139839760D01*
X134967200Y-139839760D02*
X135014819Y-139744522D01*
X135014819Y-139744522D02*
X135014819Y-139601665D01*
X135014819Y-140506427D02*
X134967200Y-140411189D01*
X134967200Y-140411189D02*
X134871961Y-140363570D01*
X134871961Y-140363570D02*
X134014819Y-140363570D01*
X135014819Y-141315951D02*
X134014819Y-141315951D01*
X134967200Y-141315951D02*
X135014819Y-141220713D01*
X135014819Y-141220713D02*
X135014819Y-141030237D01*
X135014819Y-141030237D02*
X134967200Y-140934999D01*
X134967200Y-140934999D02*
X134919580Y-140887380D01*
X134919580Y-140887380D02*
X134824342Y-140839761D01*
X134824342Y-140839761D02*
X134538628Y-140839761D01*
X134538628Y-140839761D02*
X134443390Y-140887380D01*
X134443390Y-140887380D02*
X134395771Y-140934999D01*
X134395771Y-140934999D02*
X134348152Y-141030237D01*
X134348152Y-141030237D02*
X134348152Y-141220713D01*
X134348152Y-141220713D02*
X134395771Y-141315951D01*
X134967200Y-142173094D02*
X135014819Y-142077856D01*
X135014819Y-142077856D02*
X135014819Y-141887380D01*
X135014819Y-141887380D02*
X134967200Y-141792142D01*
X134967200Y-141792142D02*
X134871961Y-141744523D01*
X134871961Y-141744523D02*
X134491009Y-141744523D01*
X134491009Y-141744523D02*
X134395771Y-141792142D01*
X134395771Y-141792142D02*
X134348152Y-141887380D01*
X134348152Y-141887380D02*
X134348152Y-142077856D01*
X134348152Y-142077856D02*
X134395771Y-142173094D01*
X134395771Y-142173094D02*
X134491009Y-142220713D01*
X134491009Y-142220713D02*
X134586247Y-142220713D01*
X134586247Y-142220713D02*
X134681485Y-141744523D01*
X135014819Y-142649285D02*
X134348152Y-142649285D01*
X134538628Y-142649285D02*
X134443390Y-142696904D01*
X134443390Y-142696904D02*
X134395771Y-142744523D01*
X134395771Y-142744523D02*
X134348152Y-142839761D01*
X134348152Y-142839761D02*
X134348152Y-142934999D01*
X134014819Y-143554047D02*
X134729104Y-143554047D01*
X134729104Y-143554047D02*
X134871961Y-143506428D01*
X134871961Y-143506428D02*
X134967200Y-143411190D01*
X134967200Y-143411190D02*
X135014819Y-143268333D01*
X135014819Y-143268333D02*
X135014819Y-143173095D01*
X134348152Y-144458809D02*
X135014819Y-144458809D01*
X134348152Y-144030238D02*
X134871961Y-144030238D01*
X134871961Y-144030238D02*
X134967200Y-144077857D01*
X134967200Y-144077857D02*
X135014819Y-144173095D01*
X135014819Y-144173095D02*
X135014819Y-144315952D01*
X135014819Y-144315952D02*
X134967200Y-144411190D01*
X134967200Y-144411190D02*
X134919580Y-144458809D01*
X135014819Y-144935000D02*
X134348152Y-144935000D01*
X134443390Y-144935000D02*
X134395771Y-144982619D01*
X134395771Y-144982619D02*
X134348152Y-145077857D01*
X134348152Y-145077857D02*
X134348152Y-145220714D01*
X134348152Y-145220714D02*
X134395771Y-145315952D01*
X134395771Y-145315952D02*
X134491009Y-145363571D01*
X134491009Y-145363571D02*
X135014819Y-145363571D01*
X134491009Y-145363571D02*
X134395771Y-145411190D01*
X134395771Y-145411190D02*
X134348152Y-145506428D01*
X134348152Y-145506428D02*
X134348152Y-145649285D01*
X134348152Y-145649285D02*
X134395771Y-145744524D01*
X134395771Y-145744524D02*
X134491009Y-145792143D01*
X134491009Y-145792143D02*
X135014819Y-145792143D01*
X134348152Y-146268333D02*
X135348152Y-146268333D01*
X134395771Y-146268333D02*
X134348152Y-146363571D01*
X134348152Y-146363571D02*
X134348152Y-146554047D01*
X134348152Y-146554047D02*
X134395771Y-146649285D01*
X134395771Y-146649285D02*
X134443390Y-146696904D01*
X134443390Y-146696904D02*
X134538628Y-146744523D01*
X134538628Y-146744523D02*
X134824342Y-146744523D01*
X134824342Y-146744523D02*
X134919580Y-146696904D01*
X134919580Y-146696904D02*
X134967200Y-146649285D01*
X134967200Y-146649285D02*
X135014819Y-146554047D01*
X135014819Y-146554047D02*
X135014819Y-146363571D01*
X135014819Y-146363571D02*
X134967200Y-146268333D01*
X134967200Y-147554047D02*
X135014819Y-147458809D01*
X135014819Y-147458809D02*
X135014819Y-147268333D01*
X135014819Y-147268333D02*
X134967200Y-147173095D01*
X134967200Y-147173095D02*
X134871961Y-147125476D01*
X134871961Y-147125476D02*
X134491009Y-147125476D01*
X134491009Y-147125476D02*
X134395771Y-147173095D01*
X134395771Y-147173095D02*
X134348152Y-147268333D01*
X134348152Y-147268333D02*
X134348152Y-147458809D01*
X134348152Y-147458809D02*
X134395771Y-147554047D01*
X134395771Y-147554047D02*
X134491009Y-147601666D01*
X134491009Y-147601666D02*
X134586247Y-147601666D01*
X134586247Y-147601666D02*
X134681485Y-147125476D01*
X135014819Y-148030238D02*
X134348152Y-148030238D01*
X134538628Y-148030238D02*
X134443390Y-148077857D01*
X134443390Y-148077857D02*
X134395771Y-148125476D01*
X134395771Y-148125476D02*
X134348152Y-148220714D01*
X134348152Y-148220714D02*
X134348152Y-148315952D01*
X135110057Y-148411191D02*
X135110057Y-149173095D01*
X134110057Y-149363572D02*
X134062438Y-149411191D01*
X134062438Y-149411191D02*
X134014819Y-149506429D01*
X134014819Y-149506429D02*
X134014819Y-149744524D01*
X134014819Y-149744524D02*
X134062438Y-149839762D01*
X134062438Y-149839762D02*
X134110057Y-149887381D01*
X134110057Y-149887381D02*
X134205295Y-149935000D01*
X134205295Y-149935000D02*
X134300533Y-149935000D01*
X134300533Y-149935000D02*
X134443390Y-149887381D01*
X134443390Y-149887381D02*
X135014819Y-149315953D01*
X135014819Y-149315953D02*
X135014819Y-149935000D01*
X135110057Y-150125477D02*
X135110057Y-150887381D01*
X134014819Y-151315953D02*
X134014819Y-151506429D01*
X134014819Y-151506429D02*
X134062438Y-151601667D01*
X134062438Y-151601667D02*
X134157676Y-151696905D01*
X134157676Y-151696905D02*
X134348152Y-151744524D01*
X134348152Y-151744524D02*
X134681485Y-151744524D01*
X134681485Y-151744524D02*
X134871961Y-151696905D01*
X134871961Y-151696905D02*
X134967200Y-151601667D01*
X134967200Y-151601667D02*
X135014819Y-151506429D01*
X135014819Y-151506429D02*
X135014819Y-151315953D01*
X135014819Y-151315953D02*
X134967200Y-151220715D01*
X134967200Y-151220715D02*
X134871961Y-151125477D01*
X134871961Y-151125477D02*
X134681485Y-151077858D01*
X134681485Y-151077858D02*
X134348152Y-151077858D01*
X134348152Y-151077858D02*
X134157676Y-151125477D01*
X134157676Y-151125477D02*
X134062438Y-151220715D01*
X134062438Y-151220715D02*
X134014819Y-151315953D01*
X134348152Y-152173096D02*
X135348152Y-152173096D01*
X134395771Y-152173096D02*
X134348152Y-152268334D01*
X134348152Y-152268334D02*
X134348152Y-152458810D01*
X134348152Y-152458810D02*
X134395771Y-152554048D01*
X134395771Y-152554048D02*
X134443390Y-152601667D01*
X134443390Y-152601667D02*
X134538628Y-152649286D01*
X134538628Y-152649286D02*
X134824342Y-152649286D01*
X134824342Y-152649286D02*
X134919580Y-152601667D01*
X134919580Y-152601667D02*
X134967200Y-152554048D01*
X134967200Y-152554048D02*
X135014819Y-152458810D01*
X135014819Y-152458810D02*
X135014819Y-152268334D01*
X135014819Y-152268334D02*
X134967200Y-152173096D01*
X134967200Y-153458810D02*
X135014819Y-153363572D01*
X135014819Y-153363572D02*
X135014819Y-153173096D01*
X135014819Y-153173096D02*
X134967200Y-153077858D01*
X134967200Y-153077858D02*
X134871961Y-153030239D01*
X134871961Y-153030239D02*
X134491009Y-153030239D01*
X134491009Y-153030239D02*
X134395771Y-153077858D01*
X134395771Y-153077858D02*
X134348152Y-153173096D01*
X134348152Y-153173096D02*
X134348152Y-153363572D01*
X134348152Y-153363572D02*
X134395771Y-153458810D01*
X134395771Y-153458810D02*
X134491009Y-153506429D01*
X134491009Y-153506429D02*
X134586247Y-153506429D01*
X134586247Y-153506429D02*
X134681485Y-153030239D01*
X134348152Y-153935001D02*
X135014819Y-153935001D01*
X134443390Y-153935001D02*
X134395771Y-153982620D01*
X134395771Y-153982620D02*
X134348152Y-154077858D01*
X134348152Y-154077858D02*
X134348152Y-154220715D01*
X134348152Y-154220715D02*
X134395771Y-154315953D01*
X134395771Y-154315953D02*
X134491009Y-154363572D01*
X134491009Y-154363572D02*
X135014819Y-154363572D01*
M02*
