M48
; DRILL file KiCad 10.0.2-rc1 date 2026-06-21T00:23:18
; FORMAT={-:-/ absolute / metric / decimal}
; #@! TF.CreationDate,2026-06-21T00:23:18+09:00
; #@! TF.GenerationSoftware,Kicad,Pcbnew,10.0.2-rc1
; #@! TF.FileFunction,Plated,1,2,PTH
FMAT,2
METRIC
; #@! TA.AperFunction,Plated,PTH,ViaDrill
T1C0.300
; #@! TA.AperFunction,Plated,PTH,ViaDrill
T2C0.400
; #@! TA.AperFunction,Plated,PTH,ComponentDrill
T3C0.850
; #@! TA.AperFunction,Plated,PTH,ComponentDrill
T4C0.900
%
G90
G05
T1
X88.2Y-119.6
X103.0Y-71.0
X117.8Y-92.0
X120.27Y-142.55
X125.8Y-73.2
X135.4Y-136.2
X139.14Y-142.76
X140.2Y-86.2
X148.22Y-91.32
X151.02Y-116.4
X161.0Y-146.8
X168.8Y-122.0
X169.4Y-83.6
X171.6Y-56.2
X172.95Y-99.85
X174.0Y-65.2
T2
X92.096Y-113.204
X93.429Y-94.394
X94.731Y-75.316
X109.934Y-60.015
X120.929Y-73.321
X135.044Y-53.569
X144.821Y-67.77
X145.015Y-120.188
X156.398Y-100.478
X160.867Y-82.057
X165.532Y-63.726
X165.965Y-130.108
X174.294Y-106.998
X178.821Y-136.277
T3
X101.35Y-140.5
X101.964Y-138.035
X102.579Y-135.571
X103.193Y-133.106
X103.808Y-130.642
X104.422Y-128.177
X105.037Y-125.713
X105.651Y-123.248
X106.266Y-120.784
X108.791Y-121.362
X111.255Y-121.976
X113.72Y-122.591
X116.185Y-123.205
X116.234Y-144.211
X116.849Y-141.747
X117.463Y-139.282
X118.078Y-136.817
X118.649Y-123.82
X118.692Y-134.353
X119.307Y-131.888
X119.921Y-129.424
X120.536Y-126.959
X121.15Y-124.495
T4
G00X126.614Y-145.461
M15
G01X126.71Y-145.073
M16
G05
G00X127.339Y-142.55
M15
G01X127.436Y-142.162
M16
G05
G00X128.307Y-138.669
M15
G01X128.404Y-138.281
M16
G05
G00X128.638Y-137.23
M15
G01X128.542Y-137.618
M16
G05
G00X131.142Y-146.202
M15
G01X131.045Y-146.59
M16
G05
G00X131.868Y-143.291
M15
G01X131.771Y-143.679
M16
G05
G00X132.836Y-139.41
M15
G01X132.739Y-139.798
M16
G05
G00X133.036Y-138.714
M15
G01X133.133Y-138.326
M16
G05
M30
