%TF.GenerationSoftware,KiCad,Pcbnew,10.0.2-rc1*%
%TF.CreationDate,2026-06-21T00:23:21+09:00*%
%TF.ProjectId,board,626f6172-642e-46b6-9963-61645f706362,v1.0.0*%
%TF.SameCoordinates,Original*%
%TF.FileFunction,AssemblyDrawing,Top*%
%FSLAX46Y46*%
G04 Gerber Fmt 4.6, Leading zero omitted, Abs format (unit mm)*
G04 Created by KiCad (PCBNEW 10.0.2-rc1) date 2026-06-21 00:23:21*
%MOMM*%
%LPD*%
G01*
G04 APERTURE LIST*
%ADD10C,0.150000*%
%ADD11C,0.100000*%
G04 APERTURE END LIST*
D10*
X84857143Y-130754819D02*
X84857143Y-129754819D01*
X84857143Y-130231009D02*
X85428571Y-130231009D01*
X85428571Y-130754819D02*
X85428571Y-129754819D01*
X86095238Y-129754819D02*
X86285714Y-129754819D01*
X86285714Y-129754819D02*
X86380952Y-129802438D01*
X86380952Y-129802438D02*
X86476190Y-129897676D01*
X86476190Y-129897676D02*
X86523809Y-130088152D01*
X86523809Y-130088152D02*
X86523809Y-130421485D01*
X86523809Y-130421485D02*
X86476190Y-130611961D01*
X86476190Y-130611961D02*
X86380952Y-130707200D01*
X86380952Y-130707200D02*
X86285714Y-130754819D01*
X86285714Y-130754819D02*
X86095238Y-130754819D01*
X86095238Y-130754819D02*
X86000000Y-130707200D01*
X86000000Y-130707200D02*
X85904762Y-130611961D01*
X85904762Y-130611961D02*
X85857143Y-130421485D01*
X85857143Y-130421485D02*
X85857143Y-130088152D01*
X85857143Y-130088152D02*
X85904762Y-129897676D01*
X85904762Y-129897676D02*
X86000000Y-129802438D01*
X86000000Y-129802438D02*
X86095238Y-129754819D01*
X87428571Y-130754819D02*
X86952381Y-130754819D01*
X86952381Y-130754819D02*
X86952381Y-129754819D01*
X87761905Y-130231009D02*
X88095238Y-130231009D01*
X88238095Y-130754819D02*
X87761905Y-130754819D01*
X87761905Y-130754819D02*
X87761905Y-129754819D01*
X87761905Y-129754819D02*
X88238095Y-129754819D01*
X89142857Y-129754819D02*
X88666667Y-129754819D01*
X88666667Y-129754819D02*
X88619048Y-130231009D01*
X88619048Y-130231009D02*
X88666667Y-130183390D01*
X88666667Y-130183390D02*
X88761905Y-130135771D01*
X88761905Y-130135771D02*
X89000000Y-130135771D01*
X89000000Y-130135771D02*
X89095238Y-130183390D01*
X89095238Y-130183390D02*
X89142857Y-130231009D01*
X89142857Y-130231009D02*
X89190476Y-130326247D01*
X89190476Y-130326247D02*
X89190476Y-130564342D01*
X89190476Y-130564342D02*
X89142857Y-130659580D01*
X89142857Y-130659580D02*
X89095238Y-130707200D01*
X89095238Y-130707200D02*
X89000000Y-130754819D01*
X89000000Y-130754819D02*
X88761905Y-130754819D01*
X88761905Y-130754819D02*
X88666667Y-130707200D01*
X88666667Y-130707200D02*
X88619048Y-130659580D01*
X177857143Y-127754819D02*
X177857143Y-126754819D01*
X177857143Y-127231009D02*
X178428571Y-127231009D01*
X178428571Y-127754819D02*
X178428571Y-126754819D01*
X179095238Y-126754819D02*
X179285714Y-126754819D01*
X179285714Y-126754819D02*
X179380952Y-126802438D01*
X179380952Y-126802438D02*
X179476190Y-126897676D01*
X179476190Y-126897676D02*
X179523809Y-127088152D01*
X179523809Y-127088152D02*
X179523809Y-127421485D01*
X179523809Y-127421485D02*
X179476190Y-127611961D01*
X179476190Y-127611961D02*
X179380952Y-127707200D01*
X179380952Y-127707200D02*
X179285714Y-127754819D01*
X179285714Y-127754819D02*
X179095238Y-127754819D01*
X179095238Y-127754819D02*
X179000000Y-127707200D01*
X179000000Y-127707200D02*
X178904762Y-127611961D01*
X178904762Y-127611961D02*
X178857143Y-127421485D01*
X178857143Y-127421485D02*
X178857143Y-127088152D01*
X178857143Y-127088152D02*
X178904762Y-126897676D01*
X178904762Y-126897676D02*
X179000000Y-126802438D01*
X179000000Y-126802438D02*
X179095238Y-126754819D01*
X180428571Y-127754819D02*
X179952381Y-127754819D01*
X179952381Y-127754819D02*
X179952381Y-126754819D01*
X180761905Y-127231009D02*
X181095238Y-127231009D01*
X181238095Y-127754819D02*
X180761905Y-127754819D01*
X180761905Y-127754819D02*
X180761905Y-126754819D01*
X180761905Y-126754819D02*
X181238095Y-126754819D01*
X181571429Y-126754819D02*
X182190476Y-126754819D01*
X182190476Y-126754819D02*
X181857143Y-127135771D01*
X181857143Y-127135771D02*
X182000000Y-127135771D01*
X182000000Y-127135771D02*
X182095238Y-127183390D01*
X182095238Y-127183390D02*
X182142857Y-127231009D01*
X182142857Y-127231009D02*
X182190476Y-127326247D01*
X182190476Y-127326247D02*
X182190476Y-127564342D01*
X182190476Y-127564342D02*
X182142857Y-127659580D01*
X182142857Y-127659580D02*
X182095238Y-127707200D01*
X182095238Y-127707200D02*
X182000000Y-127754819D01*
X182000000Y-127754819D02*
X181714286Y-127754819D01*
X181714286Y-127754819D02*
X181619048Y-127707200D01*
X181619048Y-127707200D02*
X181571429Y-127659580D01*
X84857143Y-56254819D02*
X84857143Y-55254819D01*
X84857143Y-55731009D02*
X85428571Y-55731009D01*
X85428571Y-56254819D02*
X85428571Y-55254819D01*
X86095238Y-55254819D02*
X86285714Y-55254819D01*
X86285714Y-55254819D02*
X86380952Y-55302438D01*
X86380952Y-55302438D02*
X86476190Y-55397676D01*
X86476190Y-55397676D02*
X86523809Y-55588152D01*
X86523809Y-55588152D02*
X86523809Y-55921485D01*
X86523809Y-55921485D02*
X86476190Y-56111961D01*
X86476190Y-56111961D02*
X86380952Y-56207200D01*
X86380952Y-56207200D02*
X86285714Y-56254819D01*
X86285714Y-56254819D02*
X86095238Y-56254819D01*
X86095238Y-56254819D02*
X86000000Y-56207200D01*
X86000000Y-56207200D02*
X85904762Y-56111961D01*
X85904762Y-56111961D02*
X85857143Y-55921485D01*
X85857143Y-55921485D02*
X85857143Y-55588152D01*
X85857143Y-55588152D02*
X85904762Y-55397676D01*
X85904762Y-55397676D02*
X86000000Y-55302438D01*
X86000000Y-55302438D02*
X86095238Y-55254819D01*
X87428571Y-56254819D02*
X86952381Y-56254819D01*
X86952381Y-56254819D02*
X86952381Y-55254819D01*
X87761905Y-55731009D02*
X88095238Y-55731009D01*
X88238095Y-56254819D02*
X87761905Y-56254819D01*
X87761905Y-56254819D02*
X87761905Y-55254819D01*
X87761905Y-55254819D02*
X88238095Y-55254819D01*
X89190476Y-56254819D02*
X88619048Y-56254819D01*
X88904762Y-56254819D02*
X88904762Y-55254819D01*
X88904762Y-55254819D02*
X88809524Y-55397676D01*
X88809524Y-55397676D02*
X88714286Y-55492914D01*
X88714286Y-55492914D02*
X88619048Y-55540533D01*
X176357143Y-57754819D02*
X176357143Y-56754819D01*
X176357143Y-57231009D02*
X176928571Y-57231009D01*
X176928571Y-57754819D02*
X176928571Y-56754819D01*
X177595238Y-56754819D02*
X177785714Y-56754819D01*
X177785714Y-56754819D02*
X177880952Y-56802438D01*
X177880952Y-56802438D02*
X177976190Y-56897676D01*
X177976190Y-56897676D02*
X178023809Y-57088152D01*
X178023809Y-57088152D02*
X178023809Y-57421485D01*
X178023809Y-57421485D02*
X177976190Y-57611961D01*
X177976190Y-57611961D02*
X177880952Y-57707200D01*
X177880952Y-57707200D02*
X177785714Y-57754819D01*
X177785714Y-57754819D02*
X177595238Y-57754819D01*
X177595238Y-57754819D02*
X177500000Y-57707200D01*
X177500000Y-57707200D02*
X177404762Y-57611961D01*
X177404762Y-57611961D02*
X177357143Y-57421485D01*
X177357143Y-57421485D02*
X177357143Y-57088152D01*
X177357143Y-57088152D02*
X177404762Y-56897676D01*
X177404762Y-56897676D02*
X177500000Y-56802438D01*
X177500000Y-56802438D02*
X177595238Y-56754819D01*
X178928571Y-57754819D02*
X178452381Y-57754819D01*
X178452381Y-57754819D02*
X178452381Y-56754819D01*
X179261905Y-57231009D02*
X179595238Y-57231009D01*
X179738095Y-57754819D02*
X179261905Y-57754819D01*
X179261905Y-57754819D02*
X179261905Y-56754819D01*
X179261905Y-56754819D02*
X179738095Y-56754819D01*
X180119048Y-56850057D02*
X180166667Y-56802438D01*
X180166667Y-56802438D02*
X180261905Y-56754819D01*
X180261905Y-56754819D02*
X180500000Y-56754819D01*
X180500000Y-56754819D02*
X180595238Y-56802438D01*
X180595238Y-56802438D02*
X180642857Y-56850057D01*
X180642857Y-56850057D02*
X180690476Y-56945295D01*
X180690476Y-56945295D02*
X180690476Y-57040533D01*
X180690476Y-57040533D02*
X180642857Y-57183390D01*
X180642857Y-57183390D02*
X180071429Y-57754819D01*
X180071429Y-57754819D02*
X180690476Y-57754819D01*
X149357143Y-147754819D02*
X149357143Y-146754819D01*
X149357143Y-147231009D02*
X149928571Y-147231009D01*
X149928571Y-147754819D02*
X149928571Y-146754819D01*
X150595238Y-146754819D02*
X150785714Y-146754819D01*
X150785714Y-146754819D02*
X150880952Y-146802438D01*
X150880952Y-146802438D02*
X150976190Y-146897676D01*
X150976190Y-146897676D02*
X151023809Y-147088152D01*
X151023809Y-147088152D02*
X151023809Y-147421485D01*
X151023809Y-147421485D02*
X150976190Y-147611961D01*
X150976190Y-147611961D02*
X150880952Y-147707200D01*
X150880952Y-147707200D02*
X150785714Y-147754819D01*
X150785714Y-147754819D02*
X150595238Y-147754819D01*
X150595238Y-147754819D02*
X150500000Y-147707200D01*
X150500000Y-147707200D02*
X150404762Y-147611961D01*
X150404762Y-147611961D02*
X150357143Y-147421485D01*
X150357143Y-147421485D02*
X150357143Y-147088152D01*
X150357143Y-147088152D02*
X150404762Y-146897676D01*
X150404762Y-146897676D02*
X150500000Y-146802438D01*
X150500000Y-146802438D02*
X150595238Y-146754819D01*
X151928571Y-147754819D02*
X151452381Y-147754819D01*
X151452381Y-147754819D02*
X151452381Y-146754819D01*
X152261905Y-147231009D02*
X152595238Y-147231009D01*
X152738095Y-147754819D02*
X152261905Y-147754819D01*
X152261905Y-147754819D02*
X152261905Y-146754819D01*
X152261905Y-146754819D02*
X152738095Y-146754819D01*
X153595238Y-147088152D02*
X153595238Y-147754819D01*
X153357143Y-146707200D02*
X153119048Y-147421485D01*
X153119048Y-147421485D02*
X153738095Y-147421485D01*
X119734894Y-152047379D02*
X120289348Y-152185620D01*
X119770199Y-153086795D02*
X120012121Y-152116499D01*
X120925313Y-153374797D02*
X120717082Y-152832111D01*
X120370859Y-153236556D02*
X120612780Y-152266261D01*
X120612780Y-152266261D02*
X120982417Y-152358421D01*
X120982417Y-152358421D02*
X121063306Y-152427666D01*
X121063306Y-152427666D02*
X121097990Y-152485391D01*
X121097990Y-152485391D02*
X121121155Y-152589320D01*
X121121155Y-152589320D02*
X121086595Y-152727934D01*
X121086595Y-152727934D02*
X121017350Y-152808823D01*
X121017350Y-152808823D02*
X120959625Y-152843507D01*
X120959625Y-152843507D02*
X120855696Y-152866672D01*
X120855696Y-152866672D02*
X120486059Y-152774511D01*
X121895609Y-153616719D02*
X121687378Y-153074033D01*
X121341154Y-153478478D02*
X121583076Y-152508183D01*
X121583076Y-152508183D02*
X121952713Y-152600343D01*
X121952713Y-152600343D02*
X122033602Y-152669588D01*
X122033602Y-152669588D02*
X122068286Y-152727313D01*
X122068286Y-152727313D02*
X122091451Y-152831242D01*
X122091451Y-152831242D02*
X122056890Y-152969856D01*
X122056890Y-152969856D02*
X121987646Y-153050745D01*
X121987646Y-153050745D02*
X121929921Y-153085429D01*
X121929921Y-153085429D02*
X121825992Y-153108593D01*
X121825992Y-153108593D02*
X121456355Y-153016433D01*
X122276766Y-153662676D02*
X122403859Y-153743440D01*
X122403859Y-153743440D02*
X122634882Y-153801041D01*
X122634882Y-153801041D02*
X122738811Y-153777876D01*
X122738811Y-153777876D02*
X122796536Y-153743192D01*
X122796536Y-153743192D02*
X122865781Y-153662303D01*
X122865781Y-153662303D02*
X122888821Y-153569894D01*
X122888821Y-153569894D02*
X122865656Y-153465965D01*
X122865656Y-153465965D02*
X122830972Y-153408240D01*
X122830972Y-153408240D02*
X122750083Y-153338995D01*
X122750083Y-153338995D02*
X122576785Y-153246710D01*
X122576785Y-153246710D02*
X122495896Y-153177466D01*
X122495896Y-153177466D02*
X122461211Y-153119741D01*
X122461211Y-153119741D02*
X122438047Y-153015812D01*
X122438047Y-153015812D02*
X122461087Y-152923403D01*
X122461087Y-152923403D02*
X122530332Y-152842514D01*
X122530332Y-152842514D02*
X122588056Y-152807829D01*
X122588056Y-152807829D02*
X122691986Y-152784665D01*
X122691986Y-152784665D02*
X122923008Y-152842265D01*
X122923008Y-152842265D02*
X123050102Y-152923030D01*
X123327702Y-153581166D02*
X124066975Y-153765487D01*
X124436860Y-154250324D02*
X124678781Y-153280029D01*
X124678781Y-153280029D02*
X125048418Y-153372189D01*
X125048418Y-153372189D02*
X125129307Y-153441434D01*
X125129307Y-153441434D02*
X125163991Y-153499159D01*
X125163991Y-153499159D02*
X125187156Y-153603088D01*
X125187156Y-153603088D02*
X125152595Y-153741702D01*
X125152595Y-153741702D02*
X125083351Y-153822591D01*
X125083351Y-153822591D02*
X125025626Y-153857275D01*
X125025626Y-153857275D02*
X124921697Y-153880439D01*
X124921697Y-153880439D02*
X124552060Y-153788279D01*
X125926304Y-153591071D02*
X125753503Y-154284139D01*
X125753503Y-154284139D02*
X125672738Y-154411233D01*
X125672738Y-154411233D02*
X125557289Y-154480602D01*
X125557289Y-154480602D02*
X125407155Y-154492246D01*
X125407155Y-154492246D02*
X125314746Y-154469206D01*
X126238589Y-154306931D02*
X126977862Y-154491253D01*
X127497259Y-153982754D02*
X128097919Y-154132515D01*
X128097919Y-154132515D02*
X127682326Y-154421511D01*
X127682326Y-154421511D02*
X127820940Y-154456071D01*
X127820940Y-154456071D02*
X127901829Y-154525316D01*
X127901829Y-154525316D02*
X127936513Y-154583041D01*
X127936513Y-154583041D02*
X127959678Y-154686970D01*
X127959678Y-154686970D02*
X127902077Y-154917993D01*
X127902077Y-154917993D02*
X127832832Y-154998882D01*
X127832832Y-154998882D02*
X127775108Y-155033566D01*
X127775108Y-155033566D02*
X127671179Y-155056731D01*
X127671179Y-155056731D02*
X127393951Y-154987610D01*
X127393951Y-154987610D02*
X127313062Y-154918365D01*
X127313062Y-154918365D02*
X127278378Y-154860641D01*
X128444515Y-154317085D02*
X128502240Y-154282401D01*
X128502240Y-154282401D02*
X128606169Y-154259236D01*
X128606169Y-154259236D02*
X128837192Y-154316837D01*
X128837192Y-154316837D02*
X128918081Y-154386081D01*
X128918081Y-154386081D02*
X128952765Y-154443806D01*
X128952765Y-154443806D02*
X128975930Y-154547735D01*
X128975930Y-154547735D02*
X128952889Y-154640144D01*
X128952889Y-154640144D02*
X128872125Y-154767238D01*
X128872125Y-154767238D02*
X128179429Y-155183452D01*
X128179429Y-155183452D02*
X128780088Y-155333213D01*
X129622669Y-154512678D02*
X129715078Y-154535718D01*
X129715078Y-154535718D02*
X129795967Y-154604963D01*
X129795967Y-154604963D02*
X129830652Y-154662688D01*
X129830652Y-154662688D02*
X129853816Y-154766617D01*
X129853816Y-154766617D02*
X129853940Y-154962955D01*
X129853940Y-154962955D02*
X129796340Y-155193978D01*
X129796340Y-155193978D02*
X129704055Y-155367276D01*
X129704055Y-155367276D02*
X129634810Y-155448165D01*
X129634810Y-155448165D02*
X129577086Y-155482850D01*
X129577086Y-155482850D02*
X129473156Y-155506014D01*
X129473156Y-155506014D02*
X129380747Y-155482974D01*
X129380747Y-155482974D02*
X129299858Y-155413729D01*
X129299858Y-155413729D02*
X129265174Y-155356005D01*
X129265174Y-155356005D02*
X129242009Y-155252075D01*
X129242009Y-155252075D02*
X129241885Y-155055737D01*
X129241885Y-155055737D02*
X129299486Y-154824714D01*
X129299486Y-154824714D02*
X129391771Y-154651416D01*
X129391771Y-154651416D02*
X129461015Y-154570527D01*
X129461015Y-154570527D02*
X129518740Y-154535843D01*
X129518740Y-154535843D02*
X129622669Y-154512678D01*
X130142936Y-155378548D02*
X130604982Y-155493749D01*
X129981407Y-155632735D02*
X130546760Y-154743080D01*
X130546760Y-154743080D02*
X130628270Y-155794016D01*
X130697640Y-155909466D02*
X131436912Y-156093787D01*
X131690976Y-156058979D02*
X131932898Y-155088683D01*
X131932898Y-155088683D02*
X132302534Y-155180844D01*
X132302534Y-155180844D02*
X132383423Y-155250088D01*
X132383423Y-155250088D02*
X132418108Y-155307813D01*
X132418108Y-155307813D02*
X132441272Y-155411742D01*
X132441272Y-155411742D02*
X132406712Y-155550356D01*
X132406712Y-155550356D02*
X132337467Y-155631245D01*
X132337467Y-155631245D02*
X132279742Y-155665929D01*
X132279742Y-155665929D02*
X132175813Y-155689094D01*
X132175813Y-155689094D02*
X131806177Y-155596933D01*
X132661271Y-156300900D02*
X132903193Y-155330605D01*
X133123317Y-156416101D02*
X133365238Y-155445806D01*
X133365238Y-155445806D02*
X133677771Y-156554342D01*
X133677771Y-156554342D02*
X133919693Y-155584047D01*
D11*
X127939196Y-145862269D02*
X127793434Y-145482389D01*
X127551077Y-145765501D02*
X127720423Y-145086294D01*
X127720423Y-145086294D02*
X127979168Y-145150806D01*
X127979168Y-145150806D02*
X128035791Y-145199277D01*
X128035791Y-145199277D02*
X128060070Y-145239685D01*
X128060070Y-145239685D02*
X128076285Y-145312435D01*
X128076285Y-145312435D02*
X128052093Y-145409465D01*
X128052093Y-145409465D02*
X128003621Y-145466087D01*
X128003621Y-145466087D02*
X127963214Y-145490366D01*
X127963214Y-145490366D02*
X127890464Y-145506581D01*
X127890464Y-145506581D02*
X127631718Y-145442069D01*
X128230284Y-145934846D02*
X128343181Y-145482041D01*
X128399630Y-145255639D02*
X128359222Y-145279918D01*
X128359222Y-145279918D02*
X128383502Y-145320325D01*
X128383502Y-145320325D02*
X128423909Y-145296046D01*
X128423909Y-145296046D02*
X128399630Y-145255639D01*
X128399630Y-145255639D02*
X128383502Y-145320325D01*
X128666613Y-145562682D02*
X128553716Y-146015487D01*
X128650485Y-145627368D02*
X128690892Y-145603089D01*
X128690892Y-145603089D02*
X128763642Y-145586874D01*
X128763642Y-145586874D02*
X128860672Y-145611066D01*
X128860672Y-145611066D02*
X128917294Y-145659538D01*
X128917294Y-145659538D02*
X128933509Y-145732288D01*
X128933509Y-145732288D02*
X128844805Y-146088063D01*
X129572222Y-145788476D02*
X129435133Y-146338310D01*
X129435133Y-146338310D02*
X129386662Y-146394932D01*
X129386662Y-146394932D02*
X129346254Y-146419211D01*
X129346254Y-146419211D02*
X129273504Y-146435426D01*
X129273504Y-146435426D02*
X129176474Y-146411234D01*
X129176474Y-146411234D02*
X129119852Y-146362763D01*
X129467389Y-146208937D02*
X129394639Y-146225152D01*
X129394639Y-146225152D02*
X129265266Y-146192896D01*
X129265266Y-146192896D02*
X129208644Y-146144425D01*
X129208644Y-146144425D02*
X129184364Y-146104017D01*
X129184364Y-146104017D02*
X129168149Y-146031267D01*
X129168149Y-146031267D02*
X129216534Y-145837208D01*
X129216534Y-145837208D02*
X129265005Y-145780585D01*
X129265005Y-145780585D02*
X129305412Y-145756306D01*
X129305412Y-145756306D02*
X129378163Y-145740091D01*
X129378163Y-145740091D02*
X129507536Y-145772347D01*
X129507536Y-145772347D02*
X129564158Y-145820819D01*
X129903631Y-145699336D02*
X129944038Y-145675057D01*
X129944038Y-145675057D02*
X130016788Y-145658842D01*
X130016788Y-145658842D02*
X130178504Y-145699162D01*
X130178504Y-145699162D02*
X130235127Y-145747634D01*
X130235127Y-145747634D02*
X130259406Y-145788041D01*
X130259406Y-145788041D02*
X130275621Y-145860791D01*
X130275621Y-145860791D02*
X130259493Y-145925478D01*
X130259493Y-145925478D02*
X130202957Y-146014443D01*
X130202957Y-146014443D02*
X129718070Y-146305793D01*
X129718070Y-146305793D02*
X130138532Y-146410625D01*
X128664962Y-142951382D02*
X128519200Y-142571502D01*
X128276843Y-142854614D02*
X128446189Y-142175407D01*
X128446189Y-142175407D02*
X128704934Y-142239919D01*
X128704934Y-142239919D02*
X128761557Y-142288390D01*
X128761557Y-142288390D02*
X128785836Y-142328798D01*
X128785836Y-142328798D02*
X128802051Y-142401548D01*
X128802051Y-142401548D02*
X128777859Y-142498578D01*
X128777859Y-142498578D02*
X128729387Y-142555200D01*
X128729387Y-142555200D02*
X128688980Y-142579479D01*
X128688980Y-142579479D02*
X128616230Y-142595694D01*
X128616230Y-142595694D02*
X128357484Y-142531182D01*
X128956050Y-143023959D02*
X129068947Y-142571154D01*
X129125396Y-142344752D02*
X129084988Y-142369031D01*
X129084988Y-142369031D02*
X129109268Y-142409438D01*
X129109268Y-142409438D02*
X129149675Y-142385159D01*
X129149675Y-142385159D02*
X129125396Y-142344752D01*
X129125396Y-142344752D02*
X129109268Y-142409438D01*
X129392379Y-142651795D02*
X129279482Y-143104600D01*
X129376251Y-142716481D02*
X129416658Y-142692202D01*
X129416658Y-142692202D02*
X129489408Y-142675987D01*
X129489408Y-142675987D02*
X129586438Y-142700179D01*
X129586438Y-142700179D02*
X129643060Y-142748651D01*
X129643060Y-142748651D02*
X129659275Y-142821401D01*
X129659275Y-142821401D02*
X129570571Y-143177176D01*
X130297988Y-142877589D02*
X130160899Y-143427423D01*
X130160899Y-143427423D02*
X130112428Y-143484045D01*
X130112428Y-143484045D02*
X130072020Y-143508324D01*
X130072020Y-143508324D02*
X129999270Y-143524539D01*
X129999270Y-143524539D02*
X129902240Y-143500347D01*
X129902240Y-143500347D02*
X129845618Y-143451876D01*
X130193155Y-143298050D02*
X130120405Y-143314265D01*
X130120405Y-143314265D02*
X129991032Y-143282009D01*
X129991032Y-143282009D02*
X129934410Y-143233538D01*
X129934410Y-143233538D02*
X129910130Y-143193130D01*
X129910130Y-143193130D02*
X129893915Y-143120380D01*
X129893915Y-143120380D02*
X129942300Y-142926321D01*
X129942300Y-142926321D02*
X129990771Y-142869698D01*
X129990771Y-142869698D02*
X130031178Y-142845419D01*
X130031178Y-142845419D02*
X130103929Y-142829204D01*
X130103929Y-142829204D02*
X130233302Y-142861460D01*
X130233302Y-142861460D02*
X130289924Y-142909932D01*
X130864298Y-143499738D02*
X130476179Y-143402970D01*
X130670239Y-143451354D02*
X130839584Y-142772147D01*
X130839584Y-142772147D02*
X130750705Y-142853049D01*
X130750705Y-142853049D02*
X130669891Y-142901607D01*
X130669891Y-142901607D02*
X130597140Y-142917822D01*
X129967917Y-138690015D02*
X130356035Y-138786784D01*
X129992631Y-139417606D02*
X130161976Y-138738399D01*
X130413092Y-139522439D02*
X130525989Y-139069634D01*
X130582437Y-138843232D02*
X130542030Y-138867511D01*
X130542030Y-138867511D02*
X130566309Y-138907919D01*
X130566309Y-138907919D02*
X130606716Y-138883639D01*
X130606716Y-138883639D02*
X130582437Y-138843232D01*
X130582437Y-138843232D02*
X130566309Y-138907919D01*
X130849420Y-139150275D02*
X130680075Y-139829482D01*
X130841356Y-139182618D02*
X130914107Y-139166403D01*
X130914107Y-139166403D02*
X131043480Y-139198659D01*
X131043480Y-139198659D02*
X131100102Y-139247131D01*
X131100102Y-139247131D02*
X131124381Y-139287538D01*
X131124381Y-139287538D02*
X131140596Y-139360288D01*
X131140596Y-139360288D02*
X131092212Y-139554348D01*
X131092212Y-139554348D02*
X131043740Y-139610970D01*
X131043740Y-139610970D02*
X131003333Y-139635249D01*
X131003333Y-139635249D02*
X130930583Y-139651464D01*
X130930583Y-139651464D02*
X130801210Y-139619208D01*
X130801210Y-139619208D02*
X130744588Y-139570736D01*
X129061829Y-137708318D02*
X129150795Y-137764853D01*
X129150795Y-137764853D02*
X129312511Y-137805174D01*
X129312511Y-137805174D02*
X129385261Y-137788959D01*
X129385261Y-137788959D02*
X129425668Y-137764680D01*
X129425668Y-137764680D02*
X129474140Y-137708057D01*
X129474140Y-137708057D02*
X129490268Y-137643371D01*
X129490268Y-137643371D02*
X129474053Y-137570620D01*
X129474053Y-137570620D02*
X129449774Y-137530213D01*
X129449774Y-137530213D02*
X129393151Y-137481742D01*
X129393151Y-137481742D02*
X129271843Y-137417142D01*
X129271843Y-137417142D02*
X129215220Y-137368671D01*
X129215220Y-137368671D02*
X129190941Y-137328264D01*
X129190941Y-137328264D02*
X129174726Y-137255513D01*
X129174726Y-137255513D02*
X129190854Y-137190827D01*
X129190854Y-137190827D02*
X129239325Y-137134205D01*
X129239325Y-137134205D02*
X129279733Y-137109926D01*
X129279733Y-137109926D02*
X129352483Y-137093710D01*
X129352483Y-137093710D02*
X129514199Y-137134031D01*
X129514199Y-137134031D02*
X129603165Y-137190566D01*
X129830002Y-137934199D02*
X129773380Y-137885727D01*
X129773380Y-137885727D02*
X129757165Y-137812977D01*
X129757165Y-137812977D02*
X129902318Y-137230800D01*
X130355557Y-138030881D02*
X130282807Y-138047096D01*
X130282807Y-138047096D02*
X130153434Y-138014840D01*
X130153434Y-138014840D02*
X130096812Y-137966368D01*
X130096812Y-137966368D02*
X130080597Y-137893618D01*
X130080597Y-137893618D02*
X130145109Y-137634872D01*
X130145109Y-137634872D02*
X130193581Y-137578250D01*
X130193581Y-137578250D02*
X130266331Y-137562035D01*
X130266331Y-137562035D02*
X130395704Y-137594291D01*
X130395704Y-137594291D02*
X130452326Y-137642762D01*
X130452326Y-137642762D02*
X130468541Y-137715513D01*
X130468541Y-137715513D02*
X130452413Y-137780199D01*
X130452413Y-137780199D02*
X130112853Y-137764245D01*
X130937735Y-138176034D02*
X130864984Y-138192249D01*
X130864984Y-138192249D02*
X130735612Y-138159993D01*
X130735612Y-138159993D02*
X130678989Y-138111521D01*
X130678989Y-138111521D02*
X130662774Y-138038771D01*
X130662774Y-138038771D02*
X130727287Y-137780025D01*
X130727287Y-137780025D02*
X130775758Y-137723403D01*
X130775758Y-137723403D02*
X130848509Y-137707188D01*
X130848509Y-137707188D02*
X130977881Y-137739444D01*
X130977881Y-137739444D02*
X131034504Y-137787916D01*
X131034504Y-137787916D02*
X131050719Y-137860666D01*
X131050719Y-137860666D02*
X131034591Y-137925352D01*
X131034591Y-137925352D02*
X130695031Y-137909398D01*
X131301313Y-137820085D02*
X131350132Y-138313210D01*
X131350132Y-138313210D02*
X131624745Y-137900725D01*
X132037403Y-138450212D02*
X131964653Y-138466427D01*
X131964653Y-138466427D02*
X131835280Y-138434171D01*
X131835280Y-138434171D02*
X131778657Y-138385699D01*
X131778657Y-138385699D02*
X131762442Y-138312949D01*
X131762442Y-138312949D02*
X131826955Y-138054203D01*
X131826955Y-138054203D02*
X131875426Y-137997581D01*
X131875426Y-137997581D02*
X131948177Y-137981366D01*
X131948177Y-137981366D02*
X132077549Y-138013622D01*
X132077549Y-138013622D02*
X132134172Y-138062094D01*
X132134172Y-138062094D02*
X132150387Y-138134844D01*
X132150387Y-138134844D02*
X132134259Y-138199530D01*
X132134259Y-138199530D02*
X131794699Y-138183576D01*
D10*
X138507200Y-143501191D02*
X138554819Y-143358334D01*
X138554819Y-143358334D02*
X138554819Y-143120239D01*
X138554819Y-143120239D02*
X138507200Y-143025001D01*
X138507200Y-143025001D02*
X138459580Y-142977382D01*
X138459580Y-142977382D02*
X138364342Y-142929763D01*
X138364342Y-142929763D02*
X138269104Y-142929763D01*
X138269104Y-142929763D02*
X138173866Y-142977382D01*
X138173866Y-142977382D02*
X138126247Y-143025001D01*
X138126247Y-143025001D02*
X138078628Y-143120239D01*
X138078628Y-143120239D02*
X138031009Y-143310715D01*
X138031009Y-143310715D02*
X137983390Y-143405953D01*
X137983390Y-143405953D02*
X137935771Y-143453572D01*
X137935771Y-143453572D02*
X137840533Y-143501191D01*
X137840533Y-143501191D02*
X137745295Y-143501191D01*
X137745295Y-143501191D02*
X137650057Y-143453572D01*
X137650057Y-143453572D02*
X137602438Y-143405953D01*
X137602438Y-143405953D02*
X137554819Y-143310715D01*
X137554819Y-143310715D02*
X137554819Y-143072620D01*
X137554819Y-143072620D02*
X137602438Y-142929763D01*
X138554819Y-142358334D02*
X138507200Y-142453572D01*
X138507200Y-142453572D02*
X138459580Y-142501191D01*
X138459580Y-142501191D02*
X138364342Y-142548810D01*
X138364342Y-142548810D02*
X138078628Y-142548810D01*
X138078628Y-142548810D02*
X137983390Y-142501191D01*
X137983390Y-142501191D02*
X137935771Y-142453572D01*
X137935771Y-142453572D02*
X137888152Y-142358334D01*
X137888152Y-142358334D02*
X137888152Y-142215477D01*
X137888152Y-142215477D02*
X137935771Y-142120239D01*
X137935771Y-142120239D02*
X137983390Y-142072620D01*
X137983390Y-142072620D02*
X138078628Y-142025001D01*
X138078628Y-142025001D02*
X138364342Y-142025001D01*
X138364342Y-142025001D02*
X138459580Y-142072620D01*
X138459580Y-142072620D02*
X138507200Y-142120239D01*
X138507200Y-142120239D02*
X138554819Y-142215477D01*
X138554819Y-142215477D02*
X138554819Y-142358334D01*
X138554819Y-141453572D02*
X138507200Y-141548810D01*
X138507200Y-141548810D02*
X138411961Y-141596429D01*
X138411961Y-141596429D02*
X137554819Y-141596429D01*
X138554819Y-140644048D02*
X137554819Y-140644048D01*
X138507200Y-140644048D02*
X138554819Y-140739286D01*
X138554819Y-140739286D02*
X138554819Y-140929762D01*
X138554819Y-140929762D02*
X138507200Y-141025000D01*
X138507200Y-141025000D02*
X138459580Y-141072619D01*
X138459580Y-141072619D02*
X138364342Y-141120238D01*
X138364342Y-141120238D02*
X138078628Y-141120238D01*
X138078628Y-141120238D02*
X137983390Y-141072619D01*
X137983390Y-141072619D02*
X137935771Y-141025000D01*
X137935771Y-141025000D02*
X137888152Y-140929762D01*
X137888152Y-140929762D02*
X137888152Y-140739286D01*
X137888152Y-140739286D02*
X137935771Y-140644048D01*
X138507200Y-139786905D02*
X138554819Y-139882143D01*
X138554819Y-139882143D02*
X138554819Y-140072619D01*
X138554819Y-140072619D02*
X138507200Y-140167857D01*
X138507200Y-140167857D02*
X138411961Y-140215476D01*
X138411961Y-140215476D02*
X138031009Y-140215476D01*
X138031009Y-140215476D02*
X137935771Y-140167857D01*
X137935771Y-140167857D02*
X137888152Y-140072619D01*
X137888152Y-140072619D02*
X137888152Y-139882143D01*
X137888152Y-139882143D02*
X137935771Y-139786905D01*
X137935771Y-139786905D02*
X138031009Y-139739286D01*
X138031009Y-139739286D02*
X138126247Y-139739286D01*
X138126247Y-139739286D02*
X138221485Y-140215476D01*
X138554819Y-139310714D02*
X137888152Y-139310714D01*
X138078628Y-139310714D02*
X137983390Y-139263095D01*
X137983390Y-139263095D02*
X137935771Y-139215476D01*
X137935771Y-139215476D02*
X137888152Y-139120238D01*
X137888152Y-139120238D02*
X137888152Y-139025000D01*
X137554819Y-138405952D02*
X138269104Y-138405952D01*
X138269104Y-138405952D02*
X138411961Y-138453571D01*
X138411961Y-138453571D02*
X138507200Y-138548809D01*
X138507200Y-138548809D02*
X138554819Y-138691666D01*
X138554819Y-138691666D02*
X138554819Y-138786904D01*
X137888152Y-137501190D02*
X138554819Y-137501190D01*
X137888152Y-137929761D02*
X138411961Y-137929761D01*
X138411961Y-137929761D02*
X138507200Y-137882142D01*
X138507200Y-137882142D02*
X138554819Y-137786904D01*
X138554819Y-137786904D02*
X138554819Y-137644047D01*
X138554819Y-137644047D02*
X138507200Y-137548809D01*
X138507200Y-137548809D02*
X138459580Y-137501190D01*
X138554819Y-137024999D02*
X137888152Y-137024999D01*
X137983390Y-137024999D02*
X137935771Y-136977380D01*
X137935771Y-136977380D02*
X137888152Y-136882142D01*
X137888152Y-136882142D02*
X137888152Y-136739285D01*
X137888152Y-136739285D02*
X137935771Y-136644047D01*
X137935771Y-136644047D02*
X138031009Y-136596428D01*
X138031009Y-136596428D02*
X138554819Y-136596428D01*
X138031009Y-136596428D02*
X137935771Y-136548809D01*
X137935771Y-136548809D02*
X137888152Y-136453571D01*
X137888152Y-136453571D02*
X137888152Y-136310714D01*
X137888152Y-136310714D02*
X137935771Y-136215475D01*
X137935771Y-136215475D02*
X138031009Y-136167856D01*
X138031009Y-136167856D02*
X138554819Y-136167856D01*
X137888152Y-135691666D02*
X138888152Y-135691666D01*
X137935771Y-135691666D02*
X137888152Y-135596428D01*
X137888152Y-135596428D02*
X137888152Y-135405952D01*
X137888152Y-135405952D02*
X137935771Y-135310714D01*
X137935771Y-135310714D02*
X137983390Y-135263095D01*
X137983390Y-135263095D02*
X138078628Y-135215476D01*
X138078628Y-135215476D02*
X138364342Y-135215476D01*
X138364342Y-135215476D02*
X138459580Y-135263095D01*
X138459580Y-135263095D02*
X138507200Y-135310714D01*
X138507200Y-135310714D02*
X138554819Y-135405952D01*
X138554819Y-135405952D02*
X138554819Y-135596428D01*
X138554819Y-135596428D02*
X138507200Y-135691666D01*
X138507200Y-134405952D02*
X138554819Y-134501190D01*
X138554819Y-134501190D02*
X138554819Y-134691666D01*
X138554819Y-134691666D02*
X138507200Y-134786904D01*
X138507200Y-134786904D02*
X138411961Y-134834523D01*
X138411961Y-134834523D02*
X138031009Y-134834523D01*
X138031009Y-134834523D02*
X137935771Y-134786904D01*
X137935771Y-134786904D02*
X137888152Y-134691666D01*
X137888152Y-134691666D02*
X137888152Y-134501190D01*
X137888152Y-134501190D02*
X137935771Y-134405952D01*
X137935771Y-134405952D02*
X138031009Y-134358333D01*
X138031009Y-134358333D02*
X138126247Y-134358333D01*
X138126247Y-134358333D02*
X138221485Y-134834523D01*
X138554819Y-133929761D02*
X137888152Y-133929761D01*
X138078628Y-133929761D02*
X137983390Y-133882142D01*
X137983390Y-133882142D02*
X137935771Y-133834523D01*
X137935771Y-133834523D02*
X137888152Y-133739285D01*
X137888152Y-133739285D02*
X137888152Y-133644047D01*
X138650057Y-133548809D02*
X138650057Y-132786904D01*
X137650057Y-132596427D02*
X137602438Y-132548808D01*
X137602438Y-132548808D02*
X137554819Y-132453570D01*
X137554819Y-132453570D02*
X137554819Y-132215475D01*
X137554819Y-132215475D02*
X137602438Y-132120237D01*
X137602438Y-132120237D02*
X137650057Y-132072618D01*
X137650057Y-132072618D02*
X137745295Y-132024999D01*
X137745295Y-132024999D02*
X137840533Y-132024999D01*
X137840533Y-132024999D02*
X137983390Y-132072618D01*
X137983390Y-132072618D02*
X138554819Y-132644046D01*
X138554819Y-132644046D02*
X138554819Y-132024999D01*
X138650057Y-131834523D02*
X138650057Y-131072618D01*
X137554819Y-130644046D02*
X137554819Y-130453570D01*
X137554819Y-130453570D02*
X137602438Y-130358332D01*
X137602438Y-130358332D02*
X137697676Y-130263094D01*
X137697676Y-130263094D02*
X137888152Y-130215475D01*
X137888152Y-130215475D02*
X138221485Y-130215475D01*
X138221485Y-130215475D02*
X138411961Y-130263094D01*
X138411961Y-130263094D02*
X138507200Y-130358332D01*
X138507200Y-130358332D02*
X138554819Y-130453570D01*
X138554819Y-130453570D02*
X138554819Y-130644046D01*
X138554819Y-130644046D02*
X138507200Y-130739284D01*
X138507200Y-130739284D02*
X138411961Y-130834522D01*
X138411961Y-130834522D02*
X138221485Y-130882141D01*
X138221485Y-130882141D02*
X137888152Y-130882141D01*
X137888152Y-130882141D02*
X137697676Y-130834522D01*
X137697676Y-130834522D02*
X137602438Y-130739284D01*
X137602438Y-130739284D02*
X137554819Y-130644046D01*
X137888152Y-129786903D02*
X138888152Y-129786903D01*
X137935771Y-129786903D02*
X137888152Y-129691665D01*
X137888152Y-129691665D02*
X137888152Y-129501189D01*
X137888152Y-129501189D02*
X137935771Y-129405951D01*
X137935771Y-129405951D02*
X137983390Y-129358332D01*
X137983390Y-129358332D02*
X138078628Y-129310713D01*
X138078628Y-129310713D02*
X138364342Y-129310713D01*
X138364342Y-129310713D02*
X138459580Y-129358332D01*
X138459580Y-129358332D02*
X138507200Y-129405951D01*
X138507200Y-129405951D02*
X138554819Y-129501189D01*
X138554819Y-129501189D02*
X138554819Y-129691665D01*
X138554819Y-129691665D02*
X138507200Y-129786903D01*
X138507200Y-128501189D02*
X138554819Y-128596427D01*
X138554819Y-128596427D02*
X138554819Y-128786903D01*
X138554819Y-128786903D02*
X138507200Y-128882141D01*
X138507200Y-128882141D02*
X138411961Y-128929760D01*
X138411961Y-128929760D02*
X138031009Y-128929760D01*
X138031009Y-128929760D02*
X137935771Y-128882141D01*
X137935771Y-128882141D02*
X137888152Y-128786903D01*
X137888152Y-128786903D02*
X137888152Y-128596427D01*
X137888152Y-128596427D02*
X137935771Y-128501189D01*
X137935771Y-128501189D02*
X138031009Y-128453570D01*
X138031009Y-128453570D02*
X138126247Y-128453570D01*
X138126247Y-128453570D02*
X138221485Y-128929760D01*
X137888152Y-128024998D02*
X138554819Y-128024998D01*
X137983390Y-128024998D02*
X137935771Y-127977379D01*
X137935771Y-127977379D02*
X137888152Y-127882141D01*
X137888152Y-127882141D02*
X137888152Y-127739284D01*
X137888152Y-127739284D02*
X137935771Y-127644046D01*
X137935771Y-127644046D02*
X138031009Y-127596427D01*
X138031009Y-127596427D02*
X138554819Y-127596427D01*
X135507200Y-143451191D02*
X135554819Y-143308334D01*
X135554819Y-143308334D02*
X135554819Y-143070239D01*
X135554819Y-143070239D02*
X135507200Y-142975001D01*
X135507200Y-142975001D02*
X135459580Y-142927382D01*
X135459580Y-142927382D02*
X135364342Y-142879763D01*
X135364342Y-142879763D02*
X135269104Y-142879763D01*
X135269104Y-142879763D02*
X135173866Y-142927382D01*
X135173866Y-142927382D02*
X135126247Y-142975001D01*
X135126247Y-142975001D02*
X135078628Y-143070239D01*
X135078628Y-143070239D02*
X135031009Y-143260715D01*
X135031009Y-143260715D02*
X134983390Y-143355953D01*
X134983390Y-143355953D02*
X134935771Y-143403572D01*
X134935771Y-143403572D02*
X134840533Y-143451191D01*
X134840533Y-143451191D02*
X134745295Y-143451191D01*
X134745295Y-143451191D02*
X134650057Y-143403572D01*
X134650057Y-143403572D02*
X134602438Y-143355953D01*
X134602438Y-143355953D02*
X134554819Y-143260715D01*
X134554819Y-143260715D02*
X134554819Y-143022620D01*
X134554819Y-143022620D02*
X134602438Y-142879763D01*
X135554819Y-142308334D02*
X135507200Y-142403572D01*
X135507200Y-142403572D02*
X135459580Y-142451191D01*
X135459580Y-142451191D02*
X135364342Y-142498810D01*
X135364342Y-142498810D02*
X135078628Y-142498810D01*
X135078628Y-142498810D02*
X134983390Y-142451191D01*
X134983390Y-142451191D02*
X134935771Y-142403572D01*
X134935771Y-142403572D02*
X134888152Y-142308334D01*
X134888152Y-142308334D02*
X134888152Y-142165477D01*
X134888152Y-142165477D02*
X134935771Y-142070239D01*
X134935771Y-142070239D02*
X134983390Y-142022620D01*
X134983390Y-142022620D02*
X135078628Y-141975001D01*
X135078628Y-141975001D02*
X135364342Y-141975001D01*
X135364342Y-141975001D02*
X135459580Y-142022620D01*
X135459580Y-142022620D02*
X135507200Y-142070239D01*
X135507200Y-142070239D02*
X135554819Y-142165477D01*
X135554819Y-142165477D02*
X135554819Y-142308334D01*
X135554819Y-141403572D02*
X135507200Y-141498810D01*
X135507200Y-141498810D02*
X135411961Y-141546429D01*
X135411961Y-141546429D02*
X134554819Y-141546429D01*
X135554819Y-140594048D02*
X134554819Y-140594048D01*
X135507200Y-140594048D02*
X135554819Y-140689286D01*
X135554819Y-140689286D02*
X135554819Y-140879762D01*
X135554819Y-140879762D02*
X135507200Y-140975000D01*
X135507200Y-140975000D02*
X135459580Y-141022619D01*
X135459580Y-141022619D02*
X135364342Y-141070238D01*
X135364342Y-141070238D02*
X135078628Y-141070238D01*
X135078628Y-141070238D02*
X134983390Y-141022619D01*
X134983390Y-141022619D02*
X134935771Y-140975000D01*
X134935771Y-140975000D02*
X134888152Y-140879762D01*
X134888152Y-140879762D02*
X134888152Y-140689286D01*
X134888152Y-140689286D02*
X134935771Y-140594048D01*
X135507200Y-139736905D02*
X135554819Y-139832143D01*
X135554819Y-139832143D02*
X135554819Y-140022619D01*
X135554819Y-140022619D02*
X135507200Y-140117857D01*
X135507200Y-140117857D02*
X135411961Y-140165476D01*
X135411961Y-140165476D02*
X135031009Y-140165476D01*
X135031009Y-140165476D02*
X134935771Y-140117857D01*
X134935771Y-140117857D02*
X134888152Y-140022619D01*
X134888152Y-140022619D02*
X134888152Y-139832143D01*
X134888152Y-139832143D02*
X134935771Y-139736905D01*
X134935771Y-139736905D02*
X135031009Y-139689286D01*
X135031009Y-139689286D02*
X135126247Y-139689286D01*
X135126247Y-139689286D02*
X135221485Y-140165476D01*
X135554819Y-139260714D02*
X134888152Y-139260714D01*
X135078628Y-139260714D02*
X134983390Y-139213095D01*
X134983390Y-139213095D02*
X134935771Y-139165476D01*
X134935771Y-139165476D02*
X134888152Y-139070238D01*
X134888152Y-139070238D02*
X134888152Y-138975000D01*
X134554819Y-138355952D02*
X135269104Y-138355952D01*
X135269104Y-138355952D02*
X135411961Y-138403571D01*
X135411961Y-138403571D02*
X135507200Y-138498809D01*
X135507200Y-138498809D02*
X135554819Y-138641666D01*
X135554819Y-138641666D02*
X135554819Y-138736904D01*
X134888152Y-137451190D02*
X135554819Y-137451190D01*
X134888152Y-137879761D02*
X135411961Y-137879761D01*
X135411961Y-137879761D02*
X135507200Y-137832142D01*
X135507200Y-137832142D02*
X135554819Y-137736904D01*
X135554819Y-137736904D02*
X135554819Y-137594047D01*
X135554819Y-137594047D02*
X135507200Y-137498809D01*
X135507200Y-137498809D02*
X135459580Y-137451190D01*
X135554819Y-136974999D02*
X134888152Y-136974999D01*
X134983390Y-136974999D02*
X134935771Y-136927380D01*
X134935771Y-136927380D02*
X134888152Y-136832142D01*
X134888152Y-136832142D02*
X134888152Y-136689285D01*
X134888152Y-136689285D02*
X134935771Y-136594047D01*
X134935771Y-136594047D02*
X135031009Y-136546428D01*
X135031009Y-136546428D02*
X135554819Y-136546428D01*
X135031009Y-136546428D02*
X134935771Y-136498809D01*
X134935771Y-136498809D02*
X134888152Y-136403571D01*
X134888152Y-136403571D02*
X134888152Y-136260714D01*
X134888152Y-136260714D02*
X134935771Y-136165475D01*
X134935771Y-136165475D02*
X135031009Y-136117856D01*
X135031009Y-136117856D02*
X135554819Y-136117856D01*
X134888152Y-135641666D02*
X135888152Y-135641666D01*
X134935771Y-135641666D02*
X134888152Y-135546428D01*
X134888152Y-135546428D02*
X134888152Y-135355952D01*
X134888152Y-135355952D02*
X134935771Y-135260714D01*
X134935771Y-135260714D02*
X134983390Y-135213095D01*
X134983390Y-135213095D02*
X135078628Y-135165476D01*
X135078628Y-135165476D02*
X135364342Y-135165476D01*
X135364342Y-135165476D02*
X135459580Y-135213095D01*
X135459580Y-135213095D02*
X135507200Y-135260714D01*
X135507200Y-135260714D02*
X135554819Y-135355952D01*
X135554819Y-135355952D02*
X135554819Y-135546428D01*
X135554819Y-135546428D02*
X135507200Y-135641666D01*
X135507200Y-134355952D02*
X135554819Y-134451190D01*
X135554819Y-134451190D02*
X135554819Y-134641666D01*
X135554819Y-134641666D02*
X135507200Y-134736904D01*
X135507200Y-134736904D02*
X135411961Y-134784523D01*
X135411961Y-134784523D02*
X135031009Y-134784523D01*
X135031009Y-134784523D02*
X134935771Y-134736904D01*
X134935771Y-134736904D02*
X134888152Y-134641666D01*
X134888152Y-134641666D02*
X134888152Y-134451190D01*
X134888152Y-134451190D02*
X134935771Y-134355952D01*
X134935771Y-134355952D02*
X135031009Y-134308333D01*
X135031009Y-134308333D02*
X135126247Y-134308333D01*
X135126247Y-134308333D02*
X135221485Y-134784523D01*
X135554819Y-133879761D02*
X134888152Y-133879761D01*
X135078628Y-133879761D02*
X134983390Y-133832142D01*
X134983390Y-133832142D02*
X134935771Y-133784523D01*
X134935771Y-133784523D02*
X134888152Y-133689285D01*
X134888152Y-133689285D02*
X134888152Y-133594047D01*
X135650057Y-133498809D02*
X135650057Y-132736904D01*
X134650057Y-132546427D02*
X134602438Y-132498808D01*
X134602438Y-132498808D02*
X134554819Y-132403570D01*
X134554819Y-132403570D02*
X134554819Y-132165475D01*
X134554819Y-132165475D02*
X134602438Y-132070237D01*
X134602438Y-132070237D02*
X134650057Y-132022618D01*
X134650057Y-132022618D02*
X134745295Y-131974999D01*
X134745295Y-131974999D02*
X134840533Y-131974999D01*
X134840533Y-131974999D02*
X134983390Y-132022618D01*
X134983390Y-132022618D02*
X135554819Y-132594046D01*
X135554819Y-132594046D02*
X135554819Y-131974999D01*
X135650057Y-131784523D02*
X135650057Y-131022618D01*
X134554819Y-130594046D02*
X134554819Y-130403570D01*
X134554819Y-130403570D02*
X134602438Y-130308332D01*
X134602438Y-130308332D02*
X134697676Y-130213094D01*
X134697676Y-130213094D02*
X134888152Y-130165475D01*
X134888152Y-130165475D02*
X135221485Y-130165475D01*
X135221485Y-130165475D02*
X135411961Y-130213094D01*
X135411961Y-130213094D02*
X135507200Y-130308332D01*
X135507200Y-130308332D02*
X135554819Y-130403570D01*
X135554819Y-130403570D02*
X135554819Y-130594046D01*
X135554819Y-130594046D02*
X135507200Y-130689284D01*
X135507200Y-130689284D02*
X135411961Y-130784522D01*
X135411961Y-130784522D02*
X135221485Y-130832141D01*
X135221485Y-130832141D02*
X134888152Y-130832141D01*
X134888152Y-130832141D02*
X134697676Y-130784522D01*
X134697676Y-130784522D02*
X134602438Y-130689284D01*
X134602438Y-130689284D02*
X134554819Y-130594046D01*
X134888152Y-129736903D02*
X135888152Y-129736903D01*
X134935771Y-129736903D02*
X134888152Y-129641665D01*
X134888152Y-129641665D02*
X134888152Y-129451189D01*
X134888152Y-129451189D02*
X134935771Y-129355951D01*
X134935771Y-129355951D02*
X134983390Y-129308332D01*
X134983390Y-129308332D02*
X135078628Y-129260713D01*
X135078628Y-129260713D02*
X135364342Y-129260713D01*
X135364342Y-129260713D02*
X135459580Y-129308332D01*
X135459580Y-129308332D02*
X135507200Y-129355951D01*
X135507200Y-129355951D02*
X135554819Y-129451189D01*
X135554819Y-129451189D02*
X135554819Y-129641665D01*
X135554819Y-129641665D02*
X135507200Y-129736903D01*
X135507200Y-128451189D02*
X135554819Y-128546427D01*
X135554819Y-128546427D02*
X135554819Y-128736903D01*
X135554819Y-128736903D02*
X135507200Y-128832141D01*
X135507200Y-128832141D02*
X135411961Y-128879760D01*
X135411961Y-128879760D02*
X135031009Y-128879760D01*
X135031009Y-128879760D02*
X134935771Y-128832141D01*
X134935771Y-128832141D02*
X134888152Y-128736903D01*
X134888152Y-128736903D02*
X134888152Y-128546427D01*
X134888152Y-128546427D02*
X134935771Y-128451189D01*
X134935771Y-128451189D02*
X135031009Y-128403570D01*
X135031009Y-128403570D02*
X135126247Y-128403570D01*
X135126247Y-128403570D02*
X135221485Y-128879760D01*
X134888152Y-127974998D02*
X135554819Y-127974998D01*
X134983390Y-127974998D02*
X134935771Y-127927379D01*
X134935771Y-127927379D02*
X134888152Y-127832141D01*
X134888152Y-127832141D02*
X134888152Y-127689284D01*
X134888152Y-127689284D02*
X134935771Y-127594046D01*
X134935771Y-127594046D02*
X135031009Y-127546427D01*
X135031009Y-127546427D02*
X135554819Y-127546427D01*
%TO.C,U?*%
X105359921Y-118919064D02*
X99674756Y-141721014D01*
X105709388Y-128884733D02*
X106749652Y-124712461D01*
X106660869Y-127678898D02*
X106661710Y-127629227D01*
X106661710Y-127629227D02*
X106665074Y-127579359D01*
X106662404Y-127728132D02*
X106660869Y-127678898D01*
X106665074Y-127579359D02*
X106670961Y-127529296D01*
X106666485Y-127777073D02*
X106662404Y-127728132D01*
X106670961Y-127529296D02*
X106679563Y-127479086D01*
X106672870Y-127825455D02*
X106666485Y-127777073D01*
X106679563Y-127479086D02*
X106690639Y-127428874D01*
X106681559Y-127873278D02*
X106672870Y-127825455D01*
X106690639Y-127428874D02*
X106932561Y-126458578D01*
X106692575Y-127920444D02*
X106681559Y-127873278D01*
X106705823Y-127966930D02*
X106692575Y-127920444D01*
X106721253Y-128012517D02*
X106705823Y-127966930D01*
X106738817Y-128057399D02*
X106721253Y-128012517D01*
X106749652Y-124712461D02*
X110048659Y-125534996D01*
X106758514Y-128101164D02*
X106738817Y-128057399D01*
X106780295Y-128144006D02*
X106758514Y-128101164D01*
X106803994Y-128185780D02*
X106780295Y-128144006D01*
X106829656Y-128226292D02*
X106803994Y-128185780D01*
X106857281Y-128265541D02*
X106829656Y-128226292D01*
X106886774Y-128303503D02*
X106857281Y-128265541D01*
X106918059Y-128340058D02*
X106886774Y-128303503D01*
X106932561Y-126458578D02*
X106946356Y-126409044D01*
X106946356Y-126409044D02*
X106962331Y-126360672D01*
X106951164Y-128375108D02*
X106918059Y-128340058D01*
X106962331Y-126360672D02*
X106980637Y-126313705D01*
X106980637Y-126313705D02*
X107001078Y-126268096D01*
X106985989Y-128408628D02*
X106951164Y-128375108D01*
X107001078Y-126268096D02*
X107023655Y-126223843D01*
X107022462Y-128440499D02*
X106985989Y-128408628D01*
X107023655Y-126223843D02*
X107048124Y-126181093D01*
X107048124Y-126181093D02*
X107074704Y-126139796D01*
X107060583Y-128470719D02*
X107022462Y-128440499D01*
X107074704Y-126139796D02*
X107103054Y-126100075D01*
X107100304Y-128499070D02*
X107060583Y-128470719D01*
X107103054Y-126100075D02*
X107133179Y-126061930D01*
X107133179Y-126061930D02*
X107165049Y-126025456D01*
X107141528Y-128525529D02*
X107100304Y-128499070D01*
X107165049Y-126025456D02*
X107198570Y-125990631D01*
X107184351Y-128550119D02*
X107141528Y-128525529D01*
X107198570Y-125990631D02*
X107233595Y-125957624D01*
X107228507Y-128572671D02*
X107184351Y-128550119D01*
X107233595Y-125957624D02*
X107270174Y-125926241D01*
X107270174Y-125926241D02*
X107308112Y-125896846D01*
X107274116Y-128593114D02*
X107228507Y-128572671D01*
X107308112Y-125896846D02*
X107347458Y-125869245D01*
X107321204Y-128611346D02*
X107274116Y-128593114D01*
X107347458Y-125869245D02*
X107387994Y-125843486D01*
X107369455Y-128627395D02*
X107321204Y-128611346D01*
X107387994Y-125843486D02*
X107429671Y-125819764D01*
X107419110Y-128641116D02*
X107369455Y-128627395D01*
X107429671Y-125819764D02*
X107472489Y-125798079D01*
X107472489Y-125798079D02*
X107516351Y-125778406D01*
X107516351Y-125778406D02*
X107561136Y-125760818D01*
X107561136Y-125760818D02*
X107606820Y-125745412D01*
X107606820Y-125745412D02*
X107653306Y-125732164D01*
X107613169Y-128689500D02*
X107419110Y-128641116D01*
X107653306Y-125732164D02*
X107700472Y-125721148D01*
X107663357Y-128700673D02*
X107613169Y-128689500D01*
X107700472Y-125721148D02*
X107748319Y-125712362D01*
X107713495Y-128709155D02*
X107663357Y-128700673D01*
X107748319Y-125712362D02*
X107796701Y-125705977D01*
X107763631Y-128715162D02*
X107713495Y-128709155D01*
X107796701Y-125705977D02*
X107845521Y-125701967D01*
X107813498Y-128718526D02*
X107763631Y-128715162D01*
X107845521Y-125701967D02*
X107894876Y-125700361D01*
X107863073Y-128719344D02*
X107813498Y-128718526D01*
X107894876Y-125700361D02*
X107944450Y-125701178D01*
X107912428Y-128717736D02*
X107863073Y-128719344D01*
X107944450Y-125701178D02*
X107994318Y-125704542D01*
X107961248Y-128713727D02*
X107912428Y-128717736D01*
X107994318Y-125704542D02*
X108044454Y-125710550D01*
X108009630Y-128707341D02*
X107961248Y-128713727D01*
X108044454Y-125710550D02*
X108094591Y-125719031D01*
X108057476Y-128698557D02*
X108009630Y-128707341D01*
X108094591Y-125719031D02*
X108144876Y-125730229D01*
X108104643Y-128687540D02*
X108057476Y-128698557D01*
X108144876Y-125730229D02*
X108338935Y-125778613D01*
X108151128Y-128674292D02*
X108104643Y-128687540D01*
X108196812Y-128658887D02*
X108151128Y-128674292D01*
X108241597Y-128641299D02*
X108196812Y-128658887D01*
X108285460Y-128621626D02*
X108241597Y-128641299D01*
X108328278Y-128599940D02*
X108285460Y-128621626D01*
X108338935Y-125778613D02*
X108388494Y-125792309D01*
X108369955Y-128576218D02*
X108328278Y-128599940D01*
X108388494Y-125792309D02*
X108436744Y-125808359D01*
X108410490Y-128550459D02*
X108369955Y-128576218D01*
X108436744Y-125808359D02*
X108483832Y-125826592D01*
X108449836Y-128522858D02*
X108410490Y-128550459D01*
X108483832Y-125826592D02*
X108529442Y-125847033D01*
X108487775Y-128493463D02*
X108449836Y-128522858D01*
X108524353Y-128462080D02*
X108487775Y-128493463D01*
X108529442Y-125847033D02*
X108573597Y-125869585D01*
X108559379Y-128429073D02*
X108524353Y-128462080D01*
X108573597Y-125869585D02*
X108616421Y-125894175D01*
X108592900Y-128394248D02*
X108559379Y-128429073D01*
X108616421Y-125894175D02*
X108657644Y-125920634D01*
X108624770Y-128357775D02*
X108592900Y-128394248D01*
X108654893Y-128319629D02*
X108624770Y-128357775D01*
X108657644Y-125920634D02*
X108697365Y-125948986D01*
X108683245Y-128279908D02*
X108654893Y-128319629D01*
X108697365Y-125948986D02*
X108735487Y-125979206D01*
X108709825Y-128238612D02*
X108683245Y-128279908D01*
X108734294Y-128195861D02*
X108709825Y-128238612D01*
X108735487Y-125979206D02*
X108771960Y-126011076D01*
X108756870Y-128151609D02*
X108734294Y-128195861D01*
X108771960Y-126011076D02*
X108806785Y-126044597D01*
X108777311Y-128105999D02*
X108756870Y-128151609D01*
X108795617Y-128059032D02*
X108777311Y-128105999D01*
X108806785Y-126044597D02*
X108839889Y-126079647D01*
X108811594Y-128010661D02*
X108795617Y-128059032D01*
X108825387Y-127961126D02*
X108811594Y-128010661D01*
X108839889Y-126079647D02*
X108871175Y-126116201D01*
X108871175Y-126116201D02*
X108900667Y-126154164D01*
X108900667Y-126154164D02*
X108928292Y-126193413D01*
X108928292Y-126193413D02*
X108953954Y-126233924D01*
X108953954Y-126233924D02*
X108977652Y-126275698D01*
X108977652Y-126275698D02*
X108999435Y-126318540D01*
X108999435Y-126318540D02*
X109019132Y-126362306D01*
X109008393Y-129707267D02*
X105709388Y-128884733D01*
X109019132Y-126362306D02*
X109036696Y-126407188D01*
X109036696Y-126407188D02*
X109052125Y-126452775D01*
X109052125Y-126452775D02*
X109065373Y-126499260D01*
X109065373Y-126499260D02*
X109076390Y-126546427D01*
X109067309Y-126990831D02*
X108825387Y-127961126D01*
X109076390Y-126546427D02*
X109085079Y-126594249D01*
X109078385Y-126940619D02*
X109067309Y-126990831D01*
X109085079Y-126594249D02*
X109091464Y-126642631D01*
X109086988Y-126890408D02*
X109078385Y-126940619D01*
X109091464Y-126642631D02*
X109095545Y-126691572D01*
X109092874Y-126840345D02*
X109086988Y-126890408D01*
X109095545Y-126691572D02*
X109097080Y-126740806D01*
X109096238Y-126790478D02*
X109092874Y-126840345D01*
X109097080Y-126740806D02*
X109096238Y-126790478D01*
X110048659Y-125534996D02*
X109008393Y-129707267D01*
X114538982Y-131086198D02*
X115579246Y-126913926D01*
X115490560Y-129880388D02*
X115491402Y-129830716D01*
X115491402Y-129830716D02*
X115494765Y-129780848D01*
X115492095Y-129929621D02*
X115490560Y-129880388D01*
X115494765Y-129780848D02*
X115500652Y-129730785D01*
X115496176Y-129978563D02*
X115492095Y-129929621D01*
X115500652Y-129730785D02*
X115509254Y-129680575D01*
X115502561Y-130026944D02*
X115496176Y-129978563D01*
X115509254Y-129680575D02*
X115520428Y-129630387D01*
X115511250Y-130074767D02*
X115502561Y-130026944D01*
X115520428Y-129630387D02*
X115762350Y-128660092D01*
X115522267Y-130121933D02*
X115511250Y-130074767D01*
X115535514Y-130168419D02*
X115522267Y-130121933D01*
X115550944Y-130214006D02*
X115535514Y-130168419D01*
X115568508Y-130258888D02*
X115550944Y-130214006D01*
X115579246Y-126913926D02*
X118878349Y-127736485D01*
X115588205Y-130302653D02*
X115568508Y-130258888D01*
X115609989Y-130345496D02*
X115588205Y-130302653D01*
X115633685Y-130387270D02*
X115609989Y-130345496D01*
X115659347Y-130427781D02*
X115633685Y-130387270D01*
X115686973Y-130467030D02*
X115659347Y-130427781D01*
X115716465Y-130504991D02*
X115686973Y-130467030D01*
X115747751Y-130541547D02*
X115716465Y-130504991D01*
X115762350Y-128660092D02*
X115776046Y-128610533D01*
X115776046Y-128610533D02*
X115792022Y-128562161D01*
X115780855Y-130576597D02*
X115747751Y-130541547D01*
X115792022Y-128562161D02*
X115810328Y-128515195D01*
X115810328Y-128515195D02*
X115830770Y-128469585D01*
X115815680Y-130610117D02*
X115780855Y-130576597D01*
X115830770Y-128469585D02*
X115853346Y-128425332D01*
X115852153Y-130641988D02*
X115815680Y-130610117D01*
X115853346Y-128425332D02*
X115877815Y-128382582D01*
X115877815Y-128382582D02*
X115904395Y-128341286D01*
X115890274Y-130672208D02*
X115852153Y-130641988D01*
X115904395Y-128341286D02*
X115932748Y-128301565D01*
X115929994Y-130700559D02*
X115890274Y-130672208D01*
X115932748Y-128301565D02*
X115962870Y-128263419D01*
X115962870Y-128263419D02*
X115994740Y-128226946D01*
X115971219Y-130727018D02*
X115929994Y-130700559D01*
X115994740Y-128226946D02*
X116028261Y-128192121D01*
X116014042Y-130751609D02*
X115971219Y-130727018D01*
X116028261Y-128192121D02*
X116063286Y-128159114D01*
X116058198Y-130774161D02*
X116014042Y-130751609D01*
X116063286Y-128159114D02*
X116099865Y-128127731D01*
X116099865Y-128127731D02*
X116137803Y-128098335D01*
X116103808Y-130794602D02*
X116058198Y-130774161D01*
X116137803Y-128098335D02*
X116177149Y-128070734D01*
X116150895Y-130812835D02*
X116103808Y-130794602D01*
X116177149Y-128070734D02*
X116217685Y-128044976D01*
X116199146Y-130828885D02*
X116150895Y-130812835D01*
X116217685Y-128044976D02*
X116259362Y-128021254D01*
X116248801Y-130842605D02*
X116199146Y-130828885D01*
X116259362Y-128021254D02*
X116302180Y-127999568D01*
X116302180Y-127999568D02*
X116346042Y-127979895D01*
X116346042Y-127979895D02*
X116390827Y-127962307D01*
X116390827Y-127962307D02*
X116436511Y-127946901D01*
X116436511Y-127946901D02*
X116482997Y-127933654D01*
X116442861Y-130890989D02*
X116248801Y-130842605D01*
X116482997Y-127933654D02*
X116530163Y-127922637D01*
X116493048Y-130902163D02*
X116442861Y-130890989D01*
X116530163Y-127922637D02*
X116578010Y-127913851D01*
X116543186Y-130910644D02*
X116493048Y-130902163D01*
X116578010Y-127913851D02*
X116626392Y-127907466D01*
X116593322Y-130916651D02*
X116543186Y-130910644D01*
X116626392Y-127907466D02*
X116675212Y-127903458D01*
X116643189Y-130920015D02*
X116593322Y-130916651D01*
X116675212Y-127903458D02*
X116724567Y-127901850D01*
X116692764Y-130920833D02*
X116643189Y-130920015D01*
X116724567Y-127901850D02*
X116774142Y-127902667D01*
X116742119Y-130919225D02*
X116692764Y-130920833D01*
X116774142Y-127902667D02*
X116824009Y-127906031D01*
X116790939Y-130915217D02*
X116742119Y-130919225D01*
X116824009Y-127906031D02*
X116874145Y-127912039D01*
X116839321Y-130908832D02*
X116790939Y-130915217D01*
X116874145Y-127912039D02*
X116924282Y-127920520D01*
X116887167Y-130900046D02*
X116839321Y-130908832D01*
X116924282Y-127920520D02*
X116974567Y-127931718D01*
X116934334Y-130889029D02*
X116887167Y-130900046D01*
X116974567Y-127931718D02*
X117168626Y-127980102D01*
X116980819Y-130875782D02*
X116934334Y-130889029D01*
X117026503Y-130860376D02*
X116980819Y-130875782D01*
X117071289Y-130842788D02*
X117026503Y-130860376D01*
X117115151Y-130823115D02*
X117071289Y-130842788D01*
X117140079Y-146075608D02*
X99674756Y-141721014D01*
X117157969Y-130801429D02*
X117115151Y-130823115D01*
X117168626Y-127980102D02*
X117218185Y-127993798D01*
X117199646Y-130777707D02*
X117157969Y-130801429D01*
X117218185Y-127993798D02*
X117266435Y-128009848D01*
X117240181Y-130751950D02*
X117199646Y-130777707D01*
X117266435Y-128009848D02*
X117313523Y-128028081D01*
X117279528Y-130724347D02*
X117240181Y-130751950D01*
X117313523Y-128028081D02*
X117359133Y-128048522D01*
X117317466Y-130694952D02*
X117279528Y-130724347D01*
X117354045Y-130663569D02*
X117317466Y-130694952D01*
X117359133Y-128048522D02*
X117403289Y-128071074D01*
X117389070Y-130630562D02*
X117354045Y-130663569D01*
X117403289Y-128071074D02*
X117446112Y-128095665D01*
X117422591Y-130595737D02*
X117389070Y-130630562D01*
X117446112Y-128095665D02*
X117487335Y-128122123D01*
X117454461Y-130559264D02*
X117422591Y-130595737D01*
X117484584Y-130521118D02*
X117454461Y-130559264D01*
X117487335Y-128122123D02*
X117527056Y-128150475D01*
X117512936Y-130481397D02*
X117484584Y-130521118D01*
X117527056Y-128150475D02*
X117565178Y-128180695D01*
X117539516Y-130440101D02*
X117512936Y-130481397D01*
X117563985Y-130397351D02*
X117539516Y-130440101D01*
X117565178Y-128180695D02*
X117601651Y-128212565D01*
X117586561Y-130353098D02*
X117563985Y-130397351D01*
X117601651Y-128212565D02*
X117636476Y-128246086D01*
X117607002Y-130307488D02*
X117586561Y-130353098D01*
X117625308Y-130260522D02*
X117607002Y-130307488D01*
X117636476Y-128246086D02*
X117669580Y-128281136D01*
X117641285Y-130212150D02*
X117625308Y-130260522D01*
X117655078Y-130162615D02*
X117641285Y-130212150D01*
X117669580Y-128281136D02*
X117700866Y-128317690D01*
X117700866Y-128317690D02*
X117730358Y-128355653D01*
X117730358Y-128355653D02*
X117757984Y-128394902D01*
X117757984Y-128394902D02*
X117783645Y-128435413D01*
X117783645Y-128435413D02*
X117807343Y-128477187D01*
X117807343Y-128477187D02*
X117829126Y-128520030D01*
X117829126Y-128520030D02*
X117848823Y-128563795D01*
X117838085Y-131908757D02*
X114538982Y-131086198D01*
X117848823Y-128563795D02*
X117866387Y-128608677D01*
X117866387Y-128608677D02*
X117881817Y-128654264D01*
X117881817Y-128654264D02*
X117895064Y-128700750D01*
X117895064Y-128700750D02*
X117906081Y-128747916D01*
X117897000Y-129192320D02*
X117655078Y-130162615D01*
X117906081Y-128747916D02*
X117914770Y-128795737D01*
X117908076Y-129142108D02*
X117897000Y-129192320D01*
X117914770Y-128795737D02*
X117921155Y-128844120D01*
X117916679Y-129091898D02*
X117908076Y-129142108D01*
X117921155Y-128844120D02*
X117925236Y-128893061D01*
X117922565Y-129041834D02*
X117916679Y-129091898D01*
X117925236Y-128893061D02*
X117926771Y-128942295D01*
X117925929Y-128991967D02*
X117922565Y-129041834D01*
X117926771Y-128942295D02*
X117925929Y-128991967D01*
X118878349Y-127736485D02*
X117838085Y-131908757D01*
X122825244Y-123273658D02*
X105359921Y-118919064D01*
X122825244Y-123273658D02*
X117140079Y-146075608D01*
%TD*%
M02*
